<svg width="767" height="344" viewBox="0 0 767 344" fill="none" xmlns="http://www.w3.org/2000/svg">
<mask id="path-1-outside-1_11_11" maskUnits="userSpaceOnUse" x="292.76" y="-1.63003" width="473.012" height="150.555" fill="black">
<rect fill="white" x="292.76" y="-1.63003" width="473.012" height="150.555"/>
<path d="M317.26 116.655C317.181 114.101 317.24 111.544 317.438 108.982C317.69 106.363 317.999 103.797 318.366 101.286C318.786 98.7169 319.237 96.2304 319.718 93.8263C320.199 91.4223 320.628 89.1309 321.005 86.9523C321.526 84.047 322.001 81.4486 322.43 79.1573C322.859 76.866 323.099 74.7472 323.149 72.801C322.321 72.9936 321.382 73.1895 320.332 73.389C319.335 73.5312 318.312 73.702 317.261 73.9014C316.209 74.0454 315.184 74.1607 314.186 74.2474C313.188 74.3341 312.355 74.3878 311.689 74.4086C309.966 74.4623 308.463 74.3981 307.178 74.2159C305.948 73.9765 304.905 73.5368 304.051 72.8967C303.195 72.2011 302.554 71.2488 302.127 70.0398C301.698 68.7753 301.454 67.1717 301.393 65.229C301.355 64.0079 301.601 62.9724 302.13 62.1224C302.715 61.2708 303.472 60.5805 304.401 60.0515C305.385 59.5207 306.458 59.1539 307.62 58.951C308.835 58.6908 310.026 58.5426 311.193 58.5062C311.637 58.4923 312.496 58.41 313.771 58.2591C315.043 58.0527 316.399 57.8438 317.838 57.6322C319.277 57.4206 320.689 57.2099 322.072 57.0001C323.456 56.7902 324.48 56.6472 325.145 56.5709C325.59 56.557 325.996 56.211 326.364 55.5328C326.788 54.8529 327.152 54.0636 327.458 53.1652C327.817 52.2094 328.121 51.2554 328.37 50.3032C328.616 49.2954 328.785 48.4567 328.875 47.7872C329.106 46.2799 329.438 44.4361 329.87 42.2558C330.358 40.0737 330.872 37.8353 331.412 35.5405C332.008 33.2439 332.607 31.0584 333.21 28.9839C333.866 26.8522 334.509 25.1653 335.137 23.9234C335.972 22.175 336.904 20.8403 337.932 19.9193C338.96 18.9983 340.529 18.5048 342.64 18.439C345.584 18.3472 347.745 18.9743 349.121 20.3203C350.553 21.6646 351.315 23.78 351.405 26.6663C351.446 27.9984 351.194 29.7286 350.649 31.8569C350.159 33.9834 349.591 36.2791 348.945 38.7439C348.298 41.1532 347.679 43.6171 347.091 46.1356C346.556 48.597 346.291 50.7998 346.296 52.7443C347.407 52.7096 349.014 52.5484 351.119 52.2605C353.223 51.9726 355.437 51.6535 357.762 51.3032C360.084 50.8974 362.296 50.4951 364.397 50.0962C366.553 49.6956 368.183 49.3669 369.287 49.1103C371.605 48.5379 373.371 48.1217 374.587 47.8615C375.856 47.5442 376.987 47.2589 377.98 47.0056C379.028 46.7507 380.132 46.4663 381.29 46.1524C382.501 45.7812 384.181 45.2566 386.329 44.5784C387.183 45.2185 387.866 45.725 388.378 46.0979C388.89 46.4709 389.262 46.7927 389.492 47.0633C389.777 47.2766 389.951 47.4934 390.013 47.7137C390.131 47.9323 390.195 48.1803 390.203 48.4579C390.271 50.6226 389.333 52.652 387.39 54.5461C385.446 56.3846 382.967 58.0454 379.955 59.5283C376.943 61.0113 373.647 62.3086 370.067 63.4204C366.541 64.4749 363.204 65.329 360.054 65.9828C357.733 66.4442 355.633 66.843 353.753 67.1795C351.928 67.5142 350.326 67.842 348.945 68.1628C347.563 68.4282 346.433 68.7412 345.555 69.102C344.675 69.4072 344.019 69.7888 343.589 70.2467C342.944 72.767 342.205 75.7903 341.369 79.3166C340.588 82.7857 339.84 86.4482 339.126 90.3041C338.412 94.16 337.839 98.0671 337.406 102.025C336.972 105.928 336.808 109.572 336.913 112.958C337.033 116.788 337.872 119.623 339.431 121.464C340.99 123.304 343.13 124.182 345.852 124.097C348.352 124.019 350.791 123.776 353.17 123.369C355.602 122.904 358.109 122.159 360.69 121.134C363.326 120.052 366.09 118.632 368.982 116.875C371.93 115.116 375.197 112.875 378.782 110.152C379.757 109.344 380.758 108.451 381.784 107.475C382.866 106.497 383.949 105.574 385.034 104.707C386.118 103.784 387.234 103.027 388.384 102.435C389.531 101.788 390.716 101.446 391.938 101.408C393.049 101.373 393.919 101.624 394.547 102.16C395.23 102.639 395.588 103.433 395.623 104.543C395.649 105.376 395.403 106.411 394.885 107.65C394.366 108.833 393.627 110.106 392.669 111.469C391.711 112.832 390.559 114.257 389.216 115.744C387.926 117.173 386.467 118.552 384.84 119.881C381.698 122.534 378.385 125.082 374.903 127.524C371.474 129.909 367.953 132.019 364.34 133.854C360.783 135.688 357.187 137.161 353.551 138.275C349.916 139.388 346.293 140.001 342.682 140.114C338.237 140.252 334.439 139.704 331.286 138.469C328.132 137.178 325.52 135.426 323.449 133.213C321.433 130.998 319.908 128.462 318.874 125.605C317.893 122.691 317.355 119.708 317.26 116.655Z"/>
<path d="M426.096 65.3397C426.058 64.1186 425.883 62.9573 425.57 61.8558C425.313 60.7527 424.903 60.071 424.339 59.8108C422.45 59.8697 420.447 60.7378 418.331 62.415C416.27 64.0905 414.314 66.4573 412.463 69.5152C410.611 72.5177 408.973 76.1524 407.549 80.4193C406.179 84.6291 405.212 89.2985 404.649 94.4275C407.2 92.4034 409.747 90.296 412.293 88.1053C414.892 85.8574 417.21 83.5349 419.249 81.1378C421.342 78.739 423.016 76.2422 424.27 73.6473C425.577 70.9952 426.186 68.226 426.096 65.3397ZM491.571 78.632C491.603 79.6311 490.91 81.4862 489.493 84.1973C486.734 88.4503 483.641 92.686 480.213 96.9043C476.84 101.065 473.21 105.04 469.325 108.828C465.439 112.616 461.379 116.16 457.145 119.459C452.909 122.702 448.604 125.531 444.231 127.946C439.857 130.36 435.469 132.303 431.067 133.773C426.718 135.187 422.432 135.959 418.21 136.091C408.71 136.387 401.211 133.954 395.712 128.792C390.266 123.573 387.375 115.551 387.037 104.728C386.902 100.398 387.075 96.1424 387.556 91.9604C388.036 87.7229 388.907 83.5566 390.169 79.4613C391.486 75.3088 393.221 71.2266 395.376 67.2146C397.531 63.2027 400.217 59.2853 403.434 55.4624C404.613 54.0367 405.988 52.6603 407.559 51.3335C409.186 50.0048 410.9 48.8124 412.702 47.7561C414.56 46.6981 416.479 45.8326 418.46 45.1597C420.497 44.485 422.515 44.1165 424.515 44.0541C427.459 43.9622 430.004 44.4385 432.15 45.4827C434.351 46.5253 436.175 47.9685 437.623 49.8124C439.069 51.6007 440.163 53.7056 440.906 56.1271C441.647 58.4931 442.059 61.0082 442.142 63.6725C442.296 68.6125 440.623 73.804 437.123 79.2469C433.621 84.6343 428.707 90.2047 422.38 95.958C420.324 97.8 417.941 99.8189 415.229 102.015C412.515 104.155 409.477 106.583 406.114 109.3C406.268 110.684 406.698 111.976 407.403 113.176C408.163 114.375 409.141 115.428 410.337 116.335C411.587 117.185 413.054 117.862 414.738 118.365C416.42 118.812 418.317 119.003 420.428 118.937C423.15 118.852 426.028 118.429 429.063 117.668C432.096 116.851 435.094 115.813 438.057 114.554C441.021 113.295 443.896 111.871 446.682 110.284C449.467 108.642 452 106.952 454.282 105.214C458.301 102.144 462.146 98.8568 465.818 95.3531C469.544 91.7922 473.129 88.1801 476.574 84.5169L480.853 79.9664C483.824 77.1513 486.392 75.71 488.559 75.6424C489.67 75.6077 490.432 75.9729 490.845 76.7378C491.312 77.4456 491.554 78.0769 491.571 78.632Z"/>
<path d="M526.405 58.8774C526.4 58.7109 526.335 58.4073 526.21 57.9668C526.139 57.4689 526.043 57.083 525.923 56.8089C524.097 57.0881 522.092 57.873 519.908 59.1634C517.778 60.3966 515.473 62.2742 512.994 64.7961C510.57 67.3164 507.974 70.5642 505.207 74.5398C502.437 78.4598 499.556 83.2444 496.562 88.8938C495.776 90.4184 494.938 92.0836 494.049 93.8892C493.158 95.6394 492.328 97.5265 491.557 99.5507C490.841 101.573 490.269 103.73 489.84 106.021C489.409 108.257 489.233 110.624 489.311 113.122C489.34 114.065 489.613 114.779 490.128 115.263C490.698 115.69 491.26 115.895 491.816 115.877C493.093 115.837 494.71 115.065 496.664 113.559C498.673 111.996 500.806 109.957 503.063 107.442C505.376 104.926 507.706 102.075 510.053 98.8905C512.454 95.6487 514.659 92.3574 516.668 89.0167C518.676 85.6205 520.407 82.2885 521.862 79.0206C523.371 75.6956 524.39 72.7191 524.92 70.0913C525.06 69.2535 525.224 68.2761 525.412 67.159C525.6 66.042 525.76 64.9535 525.894 63.8937C526.082 62.7767 526.217 61.7724 526.301 60.8808C526.384 59.9893 526.419 59.3215 526.405 58.8774ZM593.98 67.2705C594.011 68.2696 593.877 69.3294 593.578 70.4499C593.28 71.5704 592.87 72.6944 592.349 73.8219C591.883 74.9476 591.335 76.0759 590.703 77.2068C590.071 78.3377 589.408 79.3862 588.716 80.3523C585.629 84.7823 582.284 88.9703 578.681 92.9163C575.132 96.805 571.549 100.473 567.931 103.919C565.986 105.758 563.981 107.431 561.915 108.94C559.849 110.449 557.777 111.764 555.699 112.885C553.62 114.005 551.59 114.874 549.607 115.491C547.625 116.109 545.772 116.444 544.05 116.498C541.939 116.564 539.891 115.961 537.905 114.69C535.919 113.418 534.145 111.807 532.583 109.855C531.074 107.847 529.839 105.691 528.878 103.387C527.972 101.082 527.487 98.9301 527.425 96.9318C526.79 97.9517 525.859 99.3142 524.633 101.019C523.407 102.724 522.127 104.459 520.792 106.223C519.457 107.987 518.2 109.609 517.023 111.091C515.9 112.515 515.098 113.54 514.617 114.166C512.898 116.109 510.903 118.115 508.632 120.186C506.361 122.257 504.084 124.134 501.801 125.817C499.574 127.497 497.477 128.896 495.509 130.013C493.541 131.075 492.029 131.622 490.973 131.655C488.529 131.731 486.156 131.416 483.854 130.71C481.552 130.004 479.489 128.957 477.667 127.569C475.898 126.124 474.452 124.336 473.329 122.204C472.206 120.072 471.601 117.619 471.514 114.844C471.43 112.124 471.698 109.143 472.32 105.901C472.995 102.602 473.918 99.1842 475.086 95.6475C476.309 92.0535 477.78 88.424 479.501 84.7589C481.222 81.0939 483.085 77.5355 485.09 74.0838C487.149 70.5748 489.326 67.2567 491.619 64.1294C493.913 61.0021 496.273 58.206 498.698 55.7413C503.011 51.3842 507.636 48.1286 512.573 45.9745C517.511 43.8203 522.646 42.6601 527.979 42.4937C529.368 42.4504 530.541 42.6083 531.497 42.9674C532.454 43.3264 533.276 43.8286 533.963 44.4739C534.649 45.0637 535.227 45.7679 535.697 46.5867C536.223 47.4036 536.694 48.2224 537.108 49.0428C537.398 49.4227 537.86 49.9639 538.494 50.6664C539.181 51.3117 539.871 52.0402 540.564 52.852C541.256 53.6638 541.866 54.4782 542.392 55.2952C542.918 56.1122 543.191 56.8537 543.212 57.5198C543.248 58.6854 543.121 59.9672 542.831 61.3653C542.539 62.7078 542.227 64.2733 541.893 66.0616C541.615 67.8482 541.345 69.8845 541.083 72.1706C540.819 74.4013 540.733 76.9875 540.824 79.9293C540.876 81.5945 541.048 83.5337 541.34 85.747C541.687 87.9586 542.14 90.0279 542.701 91.955C543.261 93.8821 543.924 95.5283 544.69 96.8934C545.509 98.2013 546.391 98.8405 547.336 98.811C548.502 98.7746 549.526 98.6316 550.408 98.3818C551.344 98.0748 552.222 97.6863 553.041 97.2163C553.859 96.6907 554.674 96.0819 555.487 95.3899C556.355 94.6961 557.332 93.9433 558.419 93.1316C561.785 90.5264 565.14 87.5326 568.482 84.1504C571.879 80.7664 575.33 77.2974 578.834 73.7434C579.804 72.7686 580.799 71.6819 581.818 70.4834C582.893 69.2831 583.97 68.1661 585.05 67.1323C586.186 66.0968 587.299 65.2287 588.389 64.528C589.479 63.8273 590.524 63.4613 591.524 63.4301C593.08 63.3816 593.898 64.6617 593.98 67.2705Z"/>
<path d="M756.286 85.6265C756.302 86.126 756.16 86.9361 755.862 88.0566C755.618 89.1754 755.242 90.465 754.731 91.9255C754.274 93.3287 753.71 94.8464 753.038 96.4786C752.366 98.1108 751.608 99.6623 750.764 101.133C749.13 104.018 747.406 106.683 745.592 109.128C743.776 111.519 741.784 113.609 739.615 115.399C737.445 117.133 735.041 118.514 732.404 119.541C729.821 120.51 726.946 121.044 723.779 121.143C721.057 121.228 718.425 120.643 715.884 119.389C713.398 118.133 711.091 116.372 708.963 114.105C706.833 111.782 704.939 109.007 703.282 105.781C701.622 102.499 700.286 98.8741 699.272 94.9054C698.639 92.4249 698.09 89.9697 697.624 87.5395C697.215 85.1077 696.841 82.9247 696.503 80.9907C696.164 79.0566 695.837 77.4834 695.521 76.2709C695.206 75.0585 694.881 74.4574 694.548 74.4678C693.881 74.4886 693.063 75.0142 692.094 76.0445C691.179 77.0175 690.088 78.5794 688.821 80.7302C687.552 82.8255 686.079 85.5383 684.404 88.8686C682.784 92.1972 680.933 96.1719 678.853 100.793C675.316 108.626 672.081 114.533 669.146 118.513C666.21 122.439 663.131 124.451 659.909 124.552C658.687 124.59 657.486 124.405 656.305 123.998C655.123 123.535 654.049 122.957 653.082 122.265C652.113 121.517 651.252 120.655 650.499 119.678C649.801 118.7 649.241 117.69 648.819 116.647C647.976 114.562 647.146 112.032 646.33 109.058C645.513 106.027 644.819 102.493 644.248 98.4551C643.821 95.4682 643.401 92.6755 642.986 90.0772C642.625 87.4215 642.275 85.1267 641.937 83.1927C641.599 81.2586 641.274 79.7686 640.964 78.7227C640.651 77.6212 640.356 77.0748 640.078 77.0835C639.578 77.0991 638.79 77.6793 637.714 78.8241C636.691 79.9116 635.484 81.3382 634.094 83.104C632.757 84.8124 631.317 86.7742 629.773 88.9892C628.23 91.2041 626.688 93.4746 625.148 95.8006C623.661 98.0694 622.258 100.308 620.936 102.516C619.613 104.668 618.506 106.592 617.613 108.287C616.984 109.528 616.223 110.969 615.329 112.608C614.435 114.247 613.514 115.915 612.566 117.611C611.618 119.308 610.668 120.949 609.716 122.534C608.82 124.118 608.001 125.477 607.258 126.611C606.78 127.348 605.967 128.012 604.818 128.604C603.668 129.195 602.433 129.706 601.112 130.136C599.789 130.511 598.492 130.829 597.221 131.091C596.004 131.296 595.062 131.408 594.396 131.429C592.951 131.474 591.797 131.01 590.933 130.037C590.068 129.064 589.386 127.696 588.886 125.934C588.385 124.116 588.012 121.989 587.77 119.552C587.581 117.057 587.44 114.339 587.348 111.397C587.277 109.122 587.31 106.593 587.445 103.81C587.635 100.971 587.876 98.0188 588.17 94.9538C588.519 91.8871 588.896 88.8196 589.301 85.7512C589.706 82.6828 590.116 79.7809 590.531 77.0455C590.758 75.4271 590.957 73.7542 591.125 72.0266C591.349 70.2972 591.548 68.652 591.722 67.0909C591.894 65.4743 592.015 63.9982 592.084 62.6626C592.154 61.327 592.175 60.2429 592.15 59.4103C592.089 57.4676 592.705 55.8094 593.996 54.4357C595.288 53.0619 597.1 52.3387 599.434 52.2659C606.878 52.0337 610.738 56.3581 611.015 65.239C611.081 67.3482 610.912 69.9371 610.507 73.0055C610.1 76.0184 609.587 79.1735 608.967 82.4709C608.347 85.7683 607.67 89.0119 606.935 92.2017C606.256 95.3898 605.62 98.1876 605.028 100.595C607.086 97.0307 609.172 93.4931 611.287 89.9825C613.4 86.4163 615.463 83.0461 617.477 79.8719C619.492 76.6978 621.403 73.8046 623.212 71.1924C625.075 68.523 626.757 66.2759 628.257 64.4512C633.082 58.6892 638.633 55.7103 644.911 55.5145C647.077 55.4469 648.899 55.9179 650.376 56.9274C651.909 57.9353 653.177 59.3403 654.178 61.1425C655.235 62.943 656.107 65.0549 656.795 67.4781C657.48 69.8458 658.06 72.3834 658.533 75.0911C659.063 77.797 659.51 80.561 659.876 83.3832C660.242 86.2053 660.634 88.9433 661.05 91.5972C661.257 92.8686 661.44 94.2797 661.599 95.8304C661.757 97.3256 662.019 98.5953 662.385 99.6395C662.597 99.2996 662.937 98.6222 663.406 97.6075C663.929 96.5356 664.501 95.2676 665.123 93.8037C665.798 92.2825 666.498 90.6495 667.222 88.9045C667.946 87.1596 668.644 85.471 669.316 83.8388C670.042 82.1494 670.716 80.6004 671.34 79.192C671.963 77.7836 672.457 76.6847 672.822 75.8955C674.756 71.946 676.626 68.6097 678.432 65.8865C680.291 63.106 682.167 60.8529 684.06 59.1271C685.951 57.3458 687.911 56.0345 689.943 55.1933C691.974 54.3521 694.184 53.8943 696.573 53.8197C699.073 53.7418 701.17 54.1208 702.864 54.9569C704.614 55.7913 706.068 56.9405 707.226 58.4045C708.382 59.813 709.322 61.4505 710.048 63.3169C710.827 65.126 711.525 66.9933 712.141 68.9187C712.572 70.2387 713.017 72.0305 713.477 74.2941C713.992 76.556 714.48 78.8465 714.942 81.1656C715.457 83.4275 715.912 85.5246 716.306 87.4569C716.698 89.3337 717.015 90.5739 717.256 91.1775C717.923 92.9347 718.613 94.5799 719.329 96.1133C720.044 97.6466 720.781 98.9849 721.539 100.128C722.351 101.214 723.185 102.077 724.039 102.717C724.893 103.357 725.792 103.662 726.736 103.633C729.903 103.534 733.381 101.842 737.171 98.557C741.017 95.2701 745.01 90.4785 749.151 84.1822C749.683 83.3878 750.332 82.812 751.099 82.4547C751.92 82.0401 752.72 81.8208 753.498 81.7965C754.275 81.7722 754.927 82.1686 755.453 82.9856C755.979 83.8026 756.257 84.6829 756.286 85.6265Z"/>
</mask>
<path d="M317.26 116.655C317.181 114.101 317.24 111.544 317.438 108.982C317.69 106.363 317.999 103.797 318.366 101.286C318.786 98.7169 319.237 96.2304 319.718 93.8263C320.199 91.4223 320.628 89.1309 321.005 86.9523C321.526 84.047 322.001 81.4486 322.43 79.1573C322.859 76.866 323.099 74.7472 323.149 72.801C322.321 72.9936 321.382 73.1895 320.332 73.389C319.335 73.5312 318.312 73.702 317.261 73.9014C316.209 74.0454 315.184 74.1607 314.186 74.2474C313.188 74.3341 312.355 74.3878 311.689 74.4086C309.966 74.4623 308.463 74.3981 307.178 74.2159C305.948 73.9765 304.905 73.5368 304.051 72.8967C303.195 72.2011 302.554 71.2488 302.127 70.0398C301.698 68.7753 301.454 67.1717 301.393 65.229C301.355 64.0079 301.601 62.9724 302.13 62.1224C302.715 61.2708 303.472 60.5805 304.401 60.0515C305.385 59.5207 306.458 59.1539 307.62 58.951C308.835 58.6908 310.026 58.5426 311.193 58.5062C311.637 58.4923 312.496 58.41 313.771 58.2591C315.043 58.0527 316.399 57.8438 317.838 57.6322C319.277 57.4206 320.689 57.2099 322.072 57.0001C323.456 56.7902 324.48 56.6472 325.145 56.5709C325.59 56.557 325.996 56.211 326.364 55.5328C326.788 54.8529 327.152 54.0636 327.458 53.1652C327.817 52.2094 328.121 51.2554 328.37 50.3032C328.616 49.2954 328.785 48.4567 328.875 47.7872C329.106 46.2799 329.438 44.4361 329.87 42.2558C330.358 40.0737 330.872 37.8353 331.412 35.5405C332.008 33.2439 332.607 31.0584 333.21 28.9839C333.866 26.8522 334.509 25.1653 335.137 23.9234C335.972 22.175 336.904 20.8403 337.932 19.9193C338.96 18.9983 340.529 18.5048 342.64 18.439C345.584 18.3472 347.745 18.9743 349.121 20.3203C350.553 21.6646 351.315 23.78 351.405 26.6663C351.446 27.9984 351.194 29.7286 350.649 31.8569C350.159 33.9834 349.591 36.2791 348.945 38.7439C348.298 41.1532 347.679 43.6171 347.091 46.1356C346.556 48.597 346.291 50.7998 346.296 52.7443C347.407 52.7096 349.014 52.5484 351.119 52.2605C353.223 51.9726 355.437 51.6535 357.762 51.3032C360.084 50.8974 362.296 50.4951 364.397 50.0962C366.553 49.6956 368.183 49.3669 369.287 49.1103C371.605 48.5379 373.371 48.1217 374.587 47.8615C375.856 47.5442 376.987 47.2589 377.98 47.0056C379.028 46.7507 380.132 46.4663 381.29 46.1524C382.501 45.7812 384.181 45.2566 386.329 44.5784C387.183 45.2185 387.866 45.725 388.378 46.0979C388.89 46.4709 389.262 46.7927 389.492 47.0633C389.777 47.2766 389.951 47.4934 390.013 47.7137C390.131 47.9323 390.195 48.1803 390.203 48.4579C390.271 50.6226 389.333 52.652 387.39 54.5461C385.446 56.3846 382.967 58.0454 379.955 59.5283C376.943 61.0113 373.647 62.3086 370.067 63.4204C366.541 64.4749 363.204 65.329 360.054 65.9828C357.733 66.4442 355.633 66.843 353.753 67.1795C351.928 67.5142 350.326 67.842 348.945 68.1628C347.563 68.4282 346.433 68.7412 345.555 69.102C344.675 69.4072 344.019 69.7888 343.589 70.2467C342.944 72.767 342.205 75.7903 341.369 79.3166C340.588 82.7857 339.84 86.4482 339.126 90.3041C338.412 94.16 337.839 98.0671 337.406 102.025C336.972 105.928 336.808 109.572 336.913 112.958C337.033 116.788 337.872 119.623 339.431 121.464C340.99 123.304 343.13 124.182 345.852 124.097C348.352 124.019 350.791 123.776 353.17 123.369C355.602 122.904 358.109 122.159 360.69 121.134C363.326 120.052 366.09 118.632 368.982 116.875C371.93 115.116 375.197 112.875 378.782 110.152C379.757 109.344 380.758 108.451 381.784 107.475C382.866 106.497 383.949 105.574 385.034 104.707C386.118 103.784 387.234 103.027 388.384 102.435C389.531 101.788 390.716 101.446 391.938 101.408C393.049 101.373 393.919 101.624 394.547 102.16C395.23 102.639 395.588 103.433 395.623 104.543C395.649 105.376 395.403 106.411 394.885 107.65C394.366 108.833 393.627 110.106 392.669 111.469C391.711 112.832 390.559 114.257 389.216 115.744C387.926 117.173 386.467 118.552 384.84 119.881C381.698 122.534 378.385 125.082 374.903 127.524C371.474 129.909 367.953 132.019 364.34 133.854C360.783 135.688 357.187 137.161 353.551 138.275C349.916 139.388 346.293 140.001 342.682 140.114C338.237 140.252 334.439 139.704 331.286 138.469C328.132 137.178 325.52 135.426 323.449 133.213C321.433 130.998 319.908 128.462 318.874 125.605C317.893 122.691 317.355 119.708 317.26 116.655Z" fill="#FFDFB0"/>
<path d="M426.096 65.3397C426.058 64.1186 425.883 62.9573 425.57 61.8558C425.313 60.7527 424.903 60.071 424.339 59.8108C422.45 59.8697 420.447 60.7378 418.331 62.415C416.27 64.0905 414.314 66.4573 412.463 69.5152C410.611 72.5177 408.973 76.1524 407.549 80.4193C406.179 84.6291 405.212 89.2985 404.649 94.4275C407.2 92.4034 409.747 90.296 412.293 88.1053C414.892 85.8574 417.21 83.5349 419.249 81.1378C421.342 78.739 423.016 76.2422 424.27 73.6473C425.577 70.9952 426.186 68.226 426.096 65.3397ZM491.571 78.632C491.603 79.6311 490.91 81.4862 489.493 84.1973C486.734 88.4503 483.641 92.686 480.213 96.9043C476.84 101.065 473.21 105.04 469.325 108.828C465.439 112.616 461.379 116.16 457.145 119.459C452.909 122.702 448.604 125.531 444.231 127.946C439.857 130.36 435.469 132.303 431.067 133.773C426.718 135.187 422.432 135.959 418.21 136.091C408.71 136.387 401.211 133.954 395.712 128.792C390.266 123.573 387.375 115.551 387.037 104.728C386.902 100.398 387.075 96.1424 387.556 91.9604C388.036 87.7229 388.907 83.5566 390.169 79.4613C391.486 75.3088 393.221 71.2266 395.376 67.2146C397.531 63.2027 400.217 59.2853 403.434 55.4624C404.613 54.0367 405.988 52.6603 407.559 51.3335C409.186 50.0048 410.9 48.8124 412.702 47.7561C414.56 46.6981 416.479 45.8326 418.46 45.1597C420.497 44.485 422.515 44.1165 424.515 44.0541C427.459 43.9622 430.004 44.4385 432.15 45.4827C434.351 46.5253 436.175 47.9685 437.623 49.8124C439.069 51.6007 440.163 53.7056 440.906 56.1271C441.647 58.4931 442.059 61.0082 442.142 63.6725C442.296 68.6125 440.623 73.804 437.123 79.2469C433.621 84.6343 428.707 90.2047 422.38 95.958C420.324 97.8 417.941 99.8189 415.229 102.015C412.515 104.155 409.477 106.583 406.114 109.3C406.268 110.684 406.698 111.976 407.403 113.176C408.163 114.375 409.141 115.428 410.337 116.335C411.587 117.185 413.054 117.862 414.738 118.365C416.42 118.812 418.317 119.003 420.428 118.937C423.15 118.852 426.028 118.429 429.063 117.668C432.096 116.851 435.094 115.813 438.057 114.554C441.021 113.295 443.896 111.871 446.682 110.284C449.467 108.642 452 106.952 454.282 105.214C458.301 102.144 462.146 98.8568 465.818 95.3531C469.544 91.7922 473.129 88.1801 476.574 84.5169L480.853 79.9664C483.824 77.1513 486.392 75.71 488.559 75.6424C489.67 75.6077 490.432 75.9729 490.845 76.7378C491.312 77.4456 491.554 78.0769 491.571 78.632Z" fill="#FFDFB0"/>
<path d="M526.405 58.8774C526.4 58.7109 526.335 58.4073 526.21 57.9668C526.139 57.4689 526.043 57.083 525.923 56.8089C524.097 57.0881 522.092 57.873 519.908 59.1634C517.778 60.3966 515.473 62.2742 512.994 64.7961C510.57 67.3164 507.974 70.5642 505.207 74.5398C502.437 78.4598 499.556 83.2444 496.562 88.8938C495.776 90.4184 494.938 92.0836 494.049 93.8892C493.158 95.6394 492.328 97.5265 491.557 99.5507C490.841 101.573 490.269 103.73 489.84 106.021C489.409 108.257 489.233 110.624 489.311 113.122C489.34 114.065 489.613 114.779 490.128 115.263C490.698 115.69 491.26 115.895 491.816 115.877C493.093 115.837 494.71 115.065 496.664 113.559C498.673 111.996 500.806 109.957 503.063 107.442C505.376 104.926 507.706 102.075 510.053 98.8905C512.454 95.6487 514.659 92.3574 516.668 89.0167C518.676 85.6205 520.407 82.2885 521.862 79.0206C523.371 75.6956 524.39 72.7191 524.92 70.0913C525.06 69.2535 525.224 68.2761 525.412 67.159C525.6 66.042 525.76 64.9535 525.894 63.8937C526.082 62.7767 526.217 61.7724 526.301 60.8808C526.384 59.9893 526.419 59.3215 526.405 58.8774ZM593.98 67.2705C594.011 68.2696 593.877 69.3294 593.578 70.4499C593.28 71.5704 592.87 72.6944 592.349 73.8219C591.883 74.9476 591.335 76.0759 590.703 77.2068C590.071 78.3377 589.408 79.3862 588.716 80.3523C585.629 84.7823 582.284 88.9703 578.681 92.9163C575.132 96.805 571.549 100.473 567.931 103.919C565.986 105.758 563.981 107.431 561.915 108.94C559.849 110.449 557.777 111.764 555.699 112.885C553.62 114.005 551.59 114.874 549.607 115.491C547.625 116.109 545.772 116.444 544.05 116.498C541.939 116.564 539.891 115.961 537.905 114.69C535.919 113.418 534.145 111.807 532.583 109.855C531.074 107.847 529.839 105.691 528.878 103.387C527.972 101.082 527.487 98.9301 527.425 96.9318C526.79 97.9517 525.859 99.3142 524.633 101.019C523.407 102.724 522.127 104.459 520.792 106.223C519.457 107.987 518.2 109.609 517.023 111.091C515.9 112.515 515.098 113.54 514.617 114.166C512.898 116.109 510.903 118.115 508.632 120.186C506.361 122.257 504.084 124.134 501.801 125.817C499.574 127.497 497.477 128.896 495.509 130.013C493.541 131.075 492.029 131.622 490.973 131.655C488.529 131.731 486.156 131.416 483.854 130.71C481.552 130.004 479.489 128.957 477.667 127.569C475.898 126.124 474.452 124.336 473.329 122.204C472.206 120.072 471.601 117.619 471.514 114.844C471.43 112.124 471.698 109.143 472.32 105.901C472.995 102.602 473.918 99.1842 475.086 95.6475C476.309 92.0535 477.78 88.424 479.501 84.7589C481.222 81.0939 483.085 77.5355 485.09 74.0838C487.149 70.5748 489.326 67.2567 491.619 64.1294C493.913 61.0021 496.273 58.206 498.698 55.7413C503.011 51.3842 507.636 48.1286 512.573 45.9745C517.511 43.8203 522.646 42.6601 527.979 42.4937C529.368 42.4504 530.541 42.6083 531.497 42.9674C532.454 43.3264 533.276 43.8286 533.963 44.4739C534.649 45.0637 535.227 45.7679 535.697 46.5867C536.223 47.4036 536.694 48.2224 537.108 49.0428C537.398 49.4227 537.86 49.9639 538.494 50.6664C539.181 51.3117 539.871 52.0402 540.564 52.852C541.256 53.6638 541.866 54.4782 542.392 55.2952C542.918 56.1122 543.191 56.8537 543.212 57.5198C543.248 58.6854 543.121 59.9672 542.831 61.3653C542.539 62.7078 542.227 64.2733 541.893 66.0616C541.615 67.8482 541.345 69.8845 541.083 72.1706C540.819 74.4013 540.733 76.9875 540.824 79.9293C540.876 81.5945 541.048 83.5337 541.34 85.747C541.687 87.9586 542.14 90.0279 542.701 91.955C543.261 93.8821 543.924 95.5283 544.69 96.8934C545.509 98.2013 546.391 98.8405 547.336 98.811C548.502 98.7746 549.526 98.6316 550.408 98.3818C551.344 98.0748 552.222 97.6863 553.041 97.2163C553.859 96.6907 554.674 96.0819 555.487 95.3899C556.355 94.6961 557.332 93.9433 558.419 93.1316C561.785 90.5264 565.14 87.5326 568.482 84.1504C571.879 80.7664 575.33 77.2974 578.834 73.7434C579.804 72.7686 580.799 71.6819 581.818 70.4834C582.893 69.2831 583.97 68.1661 585.05 67.1323C586.186 66.0968 587.299 65.2287 588.389 64.528C589.479 63.8273 590.524 63.4613 591.524 63.4301C593.08 63.3816 593.898 64.6617 593.98 67.2705Z" fill="#FFDFB0"/>
<path d="M756.286 85.6265C756.302 86.126 756.16 86.9361 755.862 88.0566C755.618 89.1754 755.242 90.465 754.731 91.9255C754.274 93.3287 753.71 94.8464 753.038 96.4786C752.366 98.1108 751.608 99.6623 750.764 101.133C749.13 104.018 747.406 106.683 745.592 109.128C743.776 111.519 741.784 113.609 739.615 115.399C737.445 117.133 735.041 118.514 732.404 119.541C729.821 120.51 726.946 121.044 723.779 121.143C721.057 121.228 718.425 120.643 715.884 119.389C713.398 118.133 711.091 116.372 708.963 114.105C706.833 111.782 704.939 109.007 703.282 105.781C701.622 102.499 700.286 98.8741 699.272 94.9054C698.639 92.4249 698.09 89.9697 697.624 87.5395C697.215 85.1077 696.841 82.9247 696.503 80.9907C696.164 79.0566 695.837 77.4834 695.521 76.2709C695.206 75.0585 694.881 74.4574 694.548 74.4678C693.881 74.4886 693.063 75.0142 692.094 76.0445C691.179 77.0175 690.088 78.5794 688.821 80.7302C687.552 82.8255 686.079 85.5383 684.404 88.8686C682.784 92.1972 680.933 96.1719 678.853 100.793C675.316 108.626 672.081 114.533 669.146 118.513C666.21 122.439 663.131 124.451 659.909 124.552C658.687 124.59 657.486 124.405 656.305 123.998C655.123 123.535 654.049 122.957 653.082 122.265C652.113 121.517 651.252 120.655 650.499 119.678C649.801 118.7 649.241 117.69 648.819 116.647C647.976 114.562 647.146 112.032 646.33 109.058C645.513 106.027 644.819 102.493 644.248 98.4551C643.821 95.4682 643.401 92.6755 642.986 90.0772C642.625 87.4215 642.275 85.1267 641.937 83.1927C641.599 81.2586 641.274 79.7686 640.964 78.7227C640.651 77.6212 640.356 77.0748 640.078 77.0835C639.578 77.0991 638.79 77.6793 637.714 78.8241C636.691 79.9116 635.484 81.3382 634.094 83.104C632.757 84.8124 631.317 86.7742 629.773 88.9892C628.23 91.2041 626.688 93.4746 625.148 95.8006C623.661 98.0694 622.258 100.308 620.936 102.516C619.613 104.668 618.506 106.592 617.613 108.287C616.984 109.528 616.223 110.969 615.329 112.608C614.435 114.247 613.514 115.915 612.566 117.611C611.618 119.308 610.668 120.949 609.716 122.534C608.82 124.118 608.001 125.477 607.258 126.611C606.78 127.348 605.967 128.012 604.818 128.604C603.668 129.195 602.433 129.706 601.112 130.136C599.789 130.511 598.492 130.829 597.221 131.091C596.004 131.296 595.062 131.408 594.396 131.429C592.951 131.474 591.797 131.01 590.933 130.037C590.068 129.064 589.386 127.696 588.886 125.934C588.385 124.116 588.012 121.989 587.77 119.552C587.581 117.057 587.44 114.339 587.348 111.397C587.277 109.122 587.31 106.593 587.445 103.81C587.635 100.971 587.876 98.0188 588.17 94.9538C588.519 91.8871 588.896 88.8196 589.301 85.7512C589.706 82.6828 590.116 79.7809 590.531 77.0455C590.758 75.4271 590.957 73.7542 591.125 72.0266C591.349 70.2972 591.548 68.652 591.722 67.0909C591.894 65.4743 592.015 63.9982 592.084 62.6626C592.154 61.327 592.175 60.2429 592.15 59.4103C592.089 57.4676 592.705 55.8094 593.996 54.4357C595.288 53.0619 597.1 52.3387 599.434 52.2659C606.878 52.0337 610.738 56.3581 611.015 65.239C611.081 67.3482 610.912 69.9371 610.507 73.0055C610.1 76.0184 609.587 79.1735 608.967 82.4709C608.347 85.7683 607.67 89.0119 606.935 92.2017C606.256 95.3898 605.62 98.1876 605.028 100.595C607.086 97.0307 609.172 93.4931 611.287 89.9825C613.4 86.4163 615.463 83.0461 617.477 79.8719C619.492 76.6978 621.403 73.8046 623.212 71.1924C625.075 68.523 626.757 66.2759 628.257 64.4512C633.082 58.6892 638.633 55.7103 644.911 55.5145C647.077 55.4469 648.899 55.9179 650.376 56.9274C651.909 57.9353 653.177 59.3403 654.178 61.1425C655.235 62.943 656.107 65.0549 656.795 67.4781C657.48 69.8458 658.06 72.3834 658.533 75.0911C659.063 77.797 659.51 80.561 659.876 83.3832C660.242 86.2053 660.634 88.9433 661.05 91.5972C661.257 92.8686 661.44 94.2797 661.599 95.8304C661.757 97.3256 662.019 98.5953 662.385 99.6395C662.597 99.2996 662.937 98.6222 663.406 97.6075C663.929 96.5356 664.501 95.2676 665.123 93.8037C665.798 92.2825 666.498 90.6495 667.222 88.9045C667.946 87.1596 668.644 85.471 669.316 83.8388C670.042 82.1494 670.716 80.6004 671.34 79.192C671.963 77.7836 672.457 76.6847 672.822 75.8955C674.756 71.946 676.626 68.6097 678.432 65.8865C680.291 63.106 682.167 60.8529 684.06 59.1271C685.951 57.3458 687.911 56.0345 689.943 55.1933C691.974 54.3521 694.184 53.8943 696.573 53.8197C699.073 53.7418 701.17 54.1208 702.864 54.9569C704.614 55.7913 706.068 56.9405 707.226 58.4045C708.382 59.813 709.322 61.4505 710.048 63.3169C710.827 65.126 711.525 66.9933 712.141 68.9187C712.572 70.2387 713.017 72.0305 713.477 74.2941C713.992 76.556 714.48 78.8465 714.942 81.1656C715.457 83.4275 715.912 85.5246 716.306 87.4569C716.698 89.3337 717.015 90.5739 717.256 91.1775C717.923 92.9347 718.613 94.5799 719.329 96.1133C720.044 97.6466 720.781 98.9849 721.539 100.128C722.351 101.214 723.185 102.077 724.039 102.717C724.893 103.357 725.792 103.662 726.736 103.633C729.903 103.534 733.381 101.842 737.171 98.557C741.017 95.2701 745.01 90.4785 749.151 84.1822C749.683 83.3878 750.332 82.812 751.099 82.4547C751.92 82.0401 752.72 81.8208 753.498 81.7965C754.275 81.7722 754.927 82.1686 755.453 82.9856C755.979 83.8026 756.257 84.6829 756.286 85.6265Z" fill="#FFDFB0"/>
<path d="M317.26 116.655C317.181 114.101 317.24 111.544 317.438 108.982C317.69 106.363 317.999 103.797 318.366 101.286C318.786 98.7169 319.237 96.2304 319.718 93.8263C320.199 91.4223 320.628 89.1309 321.005 86.9523C321.526 84.047 322.001 81.4486 322.43 79.1573C322.859 76.866 323.099 74.7472 323.149 72.801C322.321 72.9936 321.382 73.1895 320.332 73.389C319.335 73.5312 318.312 73.702 317.261 73.9014C316.209 74.0454 315.184 74.1607 314.186 74.2474C313.188 74.3341 312.355 74.3878 311.689 74.4086C309.966 74.4623 308.463 74.3981 307.178 74.2159C305.948 73.9765 304.905 73.5368 304.051 72.8967C303.195 72.2011 302.554 71.2488 302.127 70.0398C301.698 68.7753 301.454 67.1717 301.393 65.229C301.355 64.0079 301.601 62.9724 302.13 62.1224C302.715 61.2708 303.472 60.5805 304.401 60.0515C305.385 59.5207 306.458 59.1539 307.62 58.951C308.835 58.6908 310.026 58.5426 311.193 58.5062C311.637 58.4923 312.496 58.41 313.771 58.2591C315.043 58.0527 316.399 57.8438 317.838 57.6322C319.277 57.4206 320.689 57.2099 322.072 57.0001C323.456 56.7902 324.48 56.6472 325.145 56.5709C325.59 56.557 325.996 56.211 326.364 55.5328C326.788 54.8529 327.152 54.0636 327.458 53.1652C327.817 52.2094 328.121 51.2554 328.37 50.3032C328.616 49.2954 328.785 48.4567 328.875 47.7872C329.106 46.2799 329.438 44.4361 329.87 42.2558C330.358 40.0737 330.872 37.8353 331.412 35.5405C332.008 33.2439 332.607 31.0584 333.21 28.9839C333.866 26.8522 334.509 25.1653 335.137 23.9234C335.972 22.175 336.904 20.8403 337.932 19.9193C338.96 18.9983 340.529 18.5048 342.64 18.439C345.584 18.3472 347.745 18.9743 349.121 20.3203C350.553 21.6646 351.315 23.78 351.405 26.6663C351.446 27.9984 351.194 29.7286 350.649 31.8569C350.159 33.9834 349.591 36.2791 348.945 38.7439C348.298 41.1532 347.679 43.6171 347.091 46.1356C346.556 48.597 346.291 50.7998 346.296 52.7443C347.407 52.7096 349.014 52.5484 351.119 52.2605C353.223 51.9726 355.437 51.6535 357.762 51.3032C360.084 50.8974 362.296 50.4951 364.397 50.0962C366.553 49.6956 368.183 49.3669 369.287 49.1103C371.605 48.5379 373.371 48.1217 374.587 47.8615C375.856 47.5442 376.987 47.2589 377.98 47.0056C379.028 46.7507 380.132 46.4663 381.29 46.1524C382.501 45.7812 384.181 45.2566 386.329 44.5784C387.183 45.2185 387.866 45.725 388.378 46.0979C388.89 46.4709 389.262 46.7927 389.492 47.0633C389.777 47.2766 389.951 47.4934 390.013 47.7137C390.131 47.9323 390.195 48.1803 390.203 48.4579C390.271 50.6226 389.333 52.652 387.39 54.5461C385.446 56.3846 382.967 58.0454 379.955 59.5283C376.943 61.0113 373.647 62.3086 370.067 63.4204C366.541 64.4749 363.204 65.329 360.054 65.9828C357.733 66.4442 355.633 66.843 353.753 67.1795C351.928 67.5142 350.326 67.842 348.945 68.1628C347.563 68.4282 346.433 68.7412 345.555 69.102C344.675 69.4072 344.019 69.7888 343.589 70.2467C342.944 72.767 342.205 75.7903 341.369 79.3166C340.588 82.7857 339.84 86.4482 339.126 90.3041C338.412 94.16 337.839 98.0671 337.406 102.025C336.972 105.928 336.808 109.572 336.913 112.958C337.033 116.788 337.872 119.623 339.431 121.464C340.99 123.304 343.13 124.182 345.852 124.097C348.352 124.019 350.791 123.776 353.17 123.369C355.602 122.904 358.109 122.159 360.69 121.134C363.326 120.052 366.09 118.632 368.982 116.875C371.93 115.116 375.197 112.875 378.782 110.152C379.757 109.344 380.758 108.451 381.784 107.475C382.866 106.497 383.949 105.574 385.034 104.707C386.118 103.784 387.234 103.027 388.384 102.435C389.531 101.788 390.716 101.446 391.938 101.408C393.049 101.373 393.919 101.624 394.547 102.16C395.23 102.639 395.588 103.433 395.623 104.543C395.649 105.376 395.403 106.411 394.885 107.65C394.366 108.833 393.627 110.106 392.669 111.469C391.711 112.832 390.559 114.257 389.216 115.744C387.926 117.173 386.467 118.552 384.84 119.881C381.698 122.534 378.385 125.082 374.903 127.524C371.474 129.909 367.953 132.019 364.34 133.854C360.783 135.688 357.187 137.161 353.551 138.275C349.916 139.388 346.293 140.001 342.682 140.114C338.237 140.252 334.439 139.704 331.286 138.469C328.132 137.178 325.52 135.426 323.449 133.213C321.433 130.998 319.908 128.462 318.874 125.605C317.893 122.691 317.355 119.708 317.26 116.655Z" stroke="#242424" stroke-width="14" mask="url(#path-1-outside-1_11_11)"/>
<path d="M426.096 65.3397C426.058 64.1186 425.883 62.9573 425.57 61.8558C425.313 60.7527 424.903 60.071 424.339 59.8108C422.45 59.8697 420.447 60.7378 418.331 62.415C416.27 64.0905 414.314 66.4573 412.463 69.5152C410.611 72.5177 408.973 76.1524 407.549 80.4193C406.179 84.6291 405.212 89.2985 404.649 94.4275C407.2 92.4034 409.747 90.296 412.293 88.1053C414.892 85.8574 417.21 83.5349 419.249 81.1378C421.342 78.739 423.016 76.2422 424.27 73.6473C425.577 70.9952 426.186 68.226 426.096 65.3397ZM491.571 78.632C491.603 79.6311 490.91 81.4862 489.493 84.1973C486.734 88.4503 483.641 92.686 480.213 96.9043C476.84 101.065 473.21 105.04 469.325 108.828C465.439 112.616 461.379 116.16 457.145 119.459C452.909 122.702 448.604 125.531 444.231 127.946C439.857 130.36 435.469 132.303 431.067 133.773C426.718 135.187 422.432 135.959 418.21 136.091C408.71 136.387 401.211 133.954 395.712 128.792C390.266 123.573 387.375 115.551 387.037 104.728C386.902 100.398 387.075 96.1424 387.556 91.9604C388.036 87.7229 388.907 83.5566 390.169 79.4613C391.486 75.3088 393.221 71.2266 395.376 67.2146C397.531 63.2027 400.217 59.2853 403.434 55.4624C404.613 54.0367 405.988 52.6603 407.559 51.3335C409.186 50.0048 410.9 48.8124 412.702 47.7561C414.56 46.6981 416.479 45.8326 418.46 45.1597C420.497 44.485 422.515 44.1165 424.515 44.0541C427.459 43.9622 430.004 44.4385 432.15 45.4827C434.351 46.5253 436.175 47.9685 437.623 49.8124C439.069 51.6007 440.163 53.7056 440.906 56.1271C441.647 58.4931 442.059 61.0082 442.142 63.6725C442.296 68.6125 440.623 73.804 437.123 79.2469C433.621 84.6343 428.707 90.2047 422.38 95.958C420.324 97.8 417.941 99.8189 415.229 102.015C412.515 104.155 409.477 106.583 406.114 109.3C406.268 110.684 406.698 111.976 407.403 113.176C408.163 114.375 409.141 115.428 410.337 116.335C411.587 117.185 413.054 117.862 414.738 118.365C416.42 118.812 418.317 119.003 420.428 118.937C423.15 118.852 426.028 118.429 429.063 117.668C432.096 116.851 435.094 115.813 438.057 114.554C441.021 113.295 443.896 111.871 446.682 110.284C449.467 108.642 452 106.952 454.282 105.214C458.301 102.144 462.146 98.8568 465.818 95.3531C469.544 91.7922 473.129 88.1801 476.574 84.5169L480.853 79.9664C483.824 77.1513 486.392 75.71 488.559 75.6424C489.67 75.6077 490.432 75.9729 490.845 76.7378C491.312 77.4456 491.554 78.0769 491.571 78.632Z" stroke="#242424" stroke-width="14" mask="url(#path-1-outside-1_11_11)"/>
<path d="M526.405 58.8774C526.4 58.7109 526.335 58.4073 526.21 57.9668C526.139 57.4689 526.043 57.083 525.923 56.8089C524.097 57.0881 522.092 57.873 519.908 59.1634C517.778 60.3966 515.473 62.2742 512.994 64.7961C510.57 67.3164 507.974 70.5642 505.207 74.5398C502.437 78.4598 499.556 83.2444 496.562 88.8938C495.776 90.4184 494.938 92.0836 494.049 93.8892C493.158 95.6394 492.328 97.5265 491.557 99.5507C490.841 101.573 490.269 103.73 489.84 106.021C489.409 108.257 489.233 110.624 489.311 113.122C489.34 114.065 489.613 114.779 490.128 115.263C490.698 115.69 491.26 115.895 491.816 115.877C493.093 115.837 494.71 115.065 496.664 113.559C498.673 111.996 500.806 109.957 503.063 107.442C505.376 104.926 507.706 102.075 510.053 98.8905C512.454 95.6487 514.659 92.3574 516.668 89.0167C518.676 85.6205 520.407 82.2885 521.862 79.0206C523.371 75.6956 524.39 72.7191 524.92 70.0913C525.06 69.2535 525.224 68.2761 525.412 67.159C525.6 66.042 525.76 64.9535 525.894 63.8937C526.082 62.7767 526.217 61.7724 526.301 60.8808C526.384 59.9893 526.419 59.3215 526.405 58.8774ZM593.98 67.2705C594.011 68.2696 593.877 69.3294 593.578 70.4499C593.28 71.5704 592.87 72.6944 592.349 73.8219C591.883 74.9476 591.335 76.0759 590.703 77.2068C590.071 78.3377 589.408 79.3862 588.716 80.3523C585.629 84.7823 582.284 88.9703 578.681 92.9163C575.132 96.805 571.549 100.473 567.931 103.919C565.986 105.758 563.981 107.431 561.915 108.94C559.849 110.449 557.777 111.764 555.699 112.885C553.62 114.005 551.59 114.874 549.607 115.491C547.625 116.109 545.772 116.444 544.05 116.498C541.939 116.564 539.891 115.961 537.905 114.69C535.919 113.418 534.145 111.807 532.583 109.855C531.074 107.847 529.839 105.691 528.878 103.387C527.972 101.082 527.487 98.9301 527.425 96.9318C526.79 97.9517 525.859 99.3142 524.633 101.019C523.407 102.724 522.127 104.459 520.792 106.223C519.457 107.987 518.2 109.609 517.023 111.091C515.9 112.515 515.098 113.54 514.617 114.166C512.898 116.109 510.903 118.115 508.632 120.186C506.361 122.257 504.084 124.134 501.801 125.817C499.574 127.497 497.477 128.896 495.509 130.013C493.541 131.075 492.029 131.622 490.973 131.655C488.529 131.731 486.156 131.416 483.854 130.71C481.552 130.004 479.489 128.957 477.667 127.569C475.898 126.124 474.452 124.336 473.329 122.204C472.206 120.072 471.601 117.619 471.514 114.844C471.43 112.124 471.698 109.143 472.32 105.901C472.995 102.602 473.918 99.1842 475.086 95.6475C476.309 92.0535 477.78 88.424 479.501 84.7589C481.222 81.0939 483.085 77.5355 485.09 74.0838C487.149 70.5748 489.326 67.2567 491.619 64.1294C493.913 61.0021 496.273 58.206 498.698 55.7413C503.011 51.3842 507.636 48.1286 512.573 45.9745C517.511 43.8203 522.646 42.6601 527.979 42.4937C529.368 42.4504 530.541 42.6083 531.497 42.9674C532.454 43.3264 533.276 43.8286 533.963 44.4739C534.649 45.0637 535.227 45.7679 535.697 46.5867C536.223 47.4036 536.694 48.2224 537.108 49.0428C537.398 49.4227 537.86 49.9639 538.494 50.6664C539.181 51.3117 539.871 52.0402 540.564 52.852C541.256 53.6638 541.866 54.4782 542.392 55.2952C542.918 56.1122 543.191 56.8537 543.212 57.5198C543.248 58.6854 543.121 59.9672 542.831 61.3653C542.539 62.7078 542.227 64.2733 541.893 66.0616C541.615 67.8482 541.345 69.8845 541.083 72.1706C540.819 74.4013 540.733 76.9875 540.824 79.9293C540.876 81.5945 541.048 83.5337 541.34 85.747C541.687 87.9586 542.14 90.0279 542.701 91.955C543.261 93.8821 543.924 95.5283 544.69 96.8934C545.509 98.2013 546.391 98.8405 547.336 98.811C548.502 98.7746 549.526 98.6316 550.408 98.3818C551.344 98.0748 552.222 97.6863 553.041 97.2163C553.859 96.6907 554.674 96.0819 555.487 95.3899C556.355 94.6961 557.332 93.9433 558.419 93.1316C561.785 90.5264 565.14 87.5326 568.482 84.1504C571.879 80.7664 575.33 77.2974 578.834 73.7434C579.804 72.7686 580.799 71.6819 581.818 70.4834C582.893 69.2831 583.97 68.1661 585.05 67.1323C586.186 66.0968 587.299 65.2287 588.389 64.528C589.479 63.8273 590.524 63.4613 591.524 63.4301C593.08 63.3816 593.898 64.6617 593.98 67.2705Z" stroke="#242424" stroke-width="14" mask="url(#path-1-outside-1_11_11)"/>
<path d="M756.286 85.6265C756.302 86.126 756.16 86.9361 755.862 88.0566C755.618 89.1754 755.242 90.465 754.731 91.9255C754.274 93.3287 753.71 94.8464 753.038 96.4786C752.366 98.1108 751.608 99.6623 750.764 101.133C749.13 104.018 747.406 106.683 745.592 109.128C743.776 111.519 741.784 113.609 739.615 115.399C737.445 117.133 735.041 118.514 732.404 119.541C729.821 120.51 726.946 121.044 723.779 121.143C721.057 121.228 718.425 120.643 715.884 119.389C713.398 118.133 711.091 116.372 708.963 114.105C706.833 111.782 704.939 109.007 703.282 105.781C701.622 102.499 700.286 98.8741 699.272 94.9054C698.639 92.4249 698.09 89.9697 697.624 87.5395C697.215 85.1077 696.841 82.9247 696.503 80.9907C696.164 79.0566 695.837 77.4834 695.521 76.2709C695.206 75.0585 694.881 74.4574 694.548 74.4678C693.881 74.4886 693.063 75.0142 692.094 76.0445C691.179 77.0175 690.088 78.5794 688.821 80.7302C687.552 82.8255 686.079 85.5383 684.404 88.8686C682.784 92.1972 680.933 96.1719 678.853 100.793C675.316 108.626 672.081 114.533 669.146 118.513C666.21 122.439 663.131 124.451 659.909 124.552C658.687 124.59 657.486 124.405 656.305 123.998C655.123 123.535 654.049 122.957 653.082 122.265C652.113 121.517 651.252 120.655 650.499 119.678C649.801 118.7 649.241 117.69 648.819 116.647C647.976 114.562 647.146 112.032 646.33 109.058C645.513 106.027 644.819 102.493 644.248 98.4551C643.821 95.4682 643.401 92.6755 642.986 90.0772C642.625 87.4215 642.275 85.1267 641.937 83.1927C641.599 81.2586 641.274 79.7686 640.964 78.7227C640.651 77.6212 640.356 77.0748 640.078 77.0835C639.578 77.0991 638.79 77.6793 637.714 78.8241C636.691 79.9116 635.484 81.3382 634.094 83.104C632.757 84.8124 631.317 86.7742 629.773 88.9892C628.23 91.2041 626.688 93.4746 625.148 95.8006C623.661 98.0694 622.258 100.308 620.936 102.516C619.613 104.668 618.506 106.592 617.613 108.287C616.984 109.528 616.223 110.969 615.329 112.608C614.435 114.247 613.514 115.915 612.566 117.611C611.618 119.308 610.668 120.949 609.716 122.534C608.82 124.118 608.001 125.477 607.258 126.611C606.78 127.348 605.967 128.012 604.818 128.604C603.668 129.195 602.433 129.706 601.112 130.136C599.789 130.511 598.492 130.829 597.221 131.091C596.004 131.296 595.062 131.408 594.396 131.429C592.951 131.474 591.797 131.01 590.933 130.037C590.068 129.064 589.386 127.696 588.886 125.934C588.385 124.116 588.012 121.989 587.77 119.552C587.581 117.057 587.44 114.339 587.348 111.397C587.277 109.122 587.31 106.593 587.445 103.81C587.635 100.971 587.876 98.0188 588.17 94.9538C588.519 91.8871 588.896 88.8196 589.301 85.7512C589.706 82.6828 590.116 79.7809 590.531 77.0455C590.758 75.4271 590.957 73.7542 591.125 72.0266C591.349 70.2972 591.548 68.652 591.722 67.0909C591.894 65.4743 592.015 63.9982 592.084 62.6626C592.154 61.327 592.175 60.2429 592.15 59.4103C592.089 57.4676 592.705 55.8094 593.996 54.4357C595.288 53.0619 597.1 52.3387 599.434 52.2659C606.878 52.0337 610.738 56.3581 611.015 65.239C611.081 67.3482 610.912 69.9371 610.507 73.0055C610.1 76.0184 609.587 79.1735 608.967 82.4709C608.347 85.7683 607.67 89.0119 606.935 92.2017C606.256 95.3898 605.62 98.1876 605.028 100.595C607.086 97.0307 609.172 93.4931 611.287 89.9825C613.4 86.4163 615.463 83.0461 617.477 79.8719C619.492 76.6978 621.403 73.8046 623.212 71.1924C625.075 68.523 626.757 66.2759 628.257 64.4512C633.082 58.6892 638.633 55.7103 644.911 55.5145C647.077 55.4469 648.899 55.9179 650.376 56.9274C651.909 57.9353 653.177 59.3403 654.178 61.1425C655.235 62.943 656.107 65.0549 656.795 67.4781C657.48 69.8458 658.06 72.3834 658.533 75.0911C659.063 77.797 659.51 80.561 659.876 83.3832C660.242 86.2053 660.634 88.9433 661.05 91.5972C661.257 92.8686 661.44 94.2797 661.599 95.8304C661.757 97.3256 662.019 98.5953 662.385 99.6395C662.597 99.2996 662.937 98.6222 663.406 97.6075C663.929 96.5356 664.501 95.2676 665.123 93.8037C665.798 92.2825 666.498 90.6495 667.222 88.9045C667.946 87.1596 668.644 85.471 669.316 83.8388C670.042 82.1494 670.716 80.6004 671.34 79.192C671.963 77.7836 672.457 76.6847 672.822 75.8955C674.756 71.946 676.626 68.6097 678.432 65.8865C680.291 63.106 682.167 60.8529 684.06 59.1271C685.951 57.3458 687.911 56.0345 689.943 55.1933C691.974 54.3521 694.184 53.8943 696.573 53.8197C699.073 53.7418 701.17 54.1208 702.864 54.9569C704.614 55.7913 706.068 56.9405 707.226 58.4045C708.382 59.813 709.322 61.4505 710.048 63.3169C710.827 65.126 711.525 66.9933 712.141 68.9187C712.572 70.2387 713.017 72.0305 713.477 74.2941C713.992 76.556 714.48 78.8465 714.942 81.1656C715.457 83.4275 715.912 85.5246 716.306 87.4569C716.698 89.3337 717.015 90.5739 717.256 91.1775C717.923 92.9347 718.613 94.5799 719.329 96.1133C720.044 97.6466 720.781 98.9849 721.539 100.128C722.351 101.214 723.185 102.077 724.039 102.717C724.893 103.357 725.792 103.662 726.736 103.633C729.903 103.534 733.381 101.842 737.171 98.557C741.017 95.2701 745.01 90.4785 749.151 84.1822C749.683 83.3878 750.332 82.812 751.099 82.4547C751.92 82.0401 752.72 81.8208 753.498 81.7965C754.275 81.7722 754.927 82.1686 755.453 82.9856C755.979 83.8026 756.257 84.6829 756.286 85.6265Z" stroke="#242424" stroke-width="14" mask="url(#path-1-outside-1_11_11)"/>
<path d="M80.4202 338.384L80.4329 338.385L80.4456 338.386C106.04 341.058 132.851 338.527 157.062 329.853C163.194 327.683 171.449 324.158 178.138 319.404C184.591 314.818 190.851 308.166 190.276 299.564C190.061 295.025 187.664 290.957 185.801 288.246L185.76 288.187L185.718 288.13C177.051 276.434 170.575 263.297 166.034 249.691C162.237 237.44 160.453 224.423 162.748 212.384C164.473 204.149 167.672 196.242 171.222 188.11C171.802 186.784 172.392 185.448 172.985 184.104C175.987 177.31 179.086 170.294 181.383 163.085L181.387 163.073C185.098 151.293 186.411 137.484 182.176 125.428L182.172 125.415L182.167 125.403C178.392 114.88 170.716 105.831 162.235 99.4214C148.222 88.6346 129.541 82.7329 111.817 83.1506L111.777 83.1515L111.737 83.1533C103.211 83.5249 93.8404 85.6942 86.2153 90.4733C80.8797 93.4673 76.526 98.2783 73.7375 103.693L73.7144 103.738L73.6925 103.783C71.11 109.124 70.2299 116.77 70.7158 123.832C71.1948 130.791 73.0776 138.305 77.0794 143.025C81.8884 149.041 88.3907 152.974 94.4152 156.404C95.0964 156.792 95.7707 157.173 96.4373 157.55C101.896 160.636 106.837 163.429 110.834 167.223L110.86 167.247L110.886 167.271C117.813 173.62 120.606 184.626 122.086 195.359L122.087 195.365C123.969 208.863 122.975 222.899 119.97 236.467C117.408 246.18 113.991 255.322 108.232 261.942C106.151 264.203 103.416 266.262 100.544 267.552C97.6367 268.857 94.9049 269.241 92.6387 268.668L92.6238 268.664L92.6089 268.66C84.7973 266.747 77.0704 263.578 70.6245 258.867L70.5741 258.83L70.5225 258.795C67.2808 256.577 64.2904 253.998 61.2607 251.222C60.296 250.338 59.3107 249.417 58.3095 248.482C56.2441 246.553 54.1111 244.561 51.9523 242.693L51.8281 242.586L51.6955 242.489C51.5267 242.365 51.3543 242.239 51.1785 242.11C47.9621 239.751 43.5847 236.541 38.7314 235.55C35.3709 234.863 31.4935 234.989 27.9626 236.492L27.9537 236.496C18.9791 240.34 13.298 249.355 10.1562 258.722C6.98098 268.189 6.08298 278.897 7.36769 287.431C8.947 298.114 14.5419 308.118 22.152 315.441L22.1536 315.443C37.5598 330.252 60.5008 336.176 80.4202 338.384ZM258.14 324.532L258.147 324.533L258.155 324.535C273.106 326.853 290.949 327.322 305.668 320.22C310.823 322.074 316.058 322.777 320.711 323.194C338.44 325.183 356.722 324.04 373.856 319.832C378.284 318.778 383.977 317.084 388.415 314.27C392.881 311.439 397.05 306.748 395.749 299.9C395.358 297.664 394.203 295.753 393.089 294.3C391.94 292.801 390.595 291.487 389.48 290.465L389.451 290.439L389.421 290.413C380.503 282.555 372.45 273.575 367.567 263.043L367.56 263.028L367.554 263.014C364.824 257.247 363.346 250.896 363.67 244.552C364.109 237.063 366.79 230.001 370.316 222.652C371.439 220.311 372.679 217.887 373.947 215.407C376.525 210.367 379.221 205.096 381.296 199.818L381.306 199.793L381.315 199.768C384.106 192.384 386.439 183.717 384.913 174.945C383.376 165.375 378.174 155.638 370.79 149.217C352.276 132.619 321.962 129.991 300.769 142.836C297.151 144.858 293.905 147.562 291.009 150.477C282.474 147.295 273.017 145.961 264.197 146.673C254.143 147.472 244.2 150.783 235.761 156.211C225.05 163.071 215.964 172.643 209.063 183.1C193.705 206.05 185.542 236.416 190.263 264.021C192.65 278.354 198.945 293.109 209.56 303.533L209.589 303.561L209.619 303.589C222.787 316.003 241.174 321.833 258.14 324.532ZM270.459 257.714L270.407 257.694L270.355 257.675C262.2 254.76 254.628 247.552 251.275 239.674C248.248 231.138 248.955 220.678 252.31 211.8C254.832 205.127 259.643 198.647 265.486 196.217C271.182 193.957 276.973 194.969 282.228 198.292C287.552 201.659 292.138 207.318 294.876 213.783C300.652 228.105 300.385 245.019 293.931 258.827C286.028 260.635 277.546 260.471 270.459 257.714ZM436.053 323.243L436.117 323.247L436.181 323.249C449.575 323.721 464.142 321.009 475.832 313.59C484.678 308.111 492.503 299.311 495.468 288.931C497.461 281.952 497.112 274.404 494.94 267.726L494.932 267.702L494.924 267.677C493.186 262.558 488.249 257.333 483.266 253.347C478.204 249.298 472.139 245.772 467.245 244.573L467.24 244.572C455.814 241.788 443.705 243.095 433.134 245.276L433.061 245.291L432.988 245.309C424.321 247.438 415.309 251.053 408.452 257.354C402.016 263.214 397.092 271.655 395.945 280.522L395.933 280.617L395.925 280.712C395.45 286.574 396.069 293.346 398.669 299.105L398.693 299.159L398.719 299.212C402.753 307.485 408.277 313.662 416.684 318.151C422.536 321.321 429.619 322.81 436.053 323.243ZM540.279 318.7L540.343 318.704L540.406 318.707C553.801 319.179 568.368 316.466 580.058 309.047C588.904 303.568 596.729 294.768 599.693 284.388C601.686 277.41 601.338 269.861 599.166 263.183L599.158 263.159L599.15 263.134C597.411 258.015 592.475 252.79 587.492 248.804C582.43 244.755 576.365 241.229 571.471 240.03L571.466 240.029C560.04 237.245 547.931 238.552 537.36 240.733L537.287 240.748L537.214 240.766C528.546 242.896 519.534 246.511 512.676 252.813C506.241 258.673 501.318 267.113 500.171 275.979L500.158 276.074L500.151 276.17C499.676 282.032 500.295 288.803 502.895 294.562L502.919 294.616L502.945 294.669C506.979 302.943 512.504 309.12 520.912 313.609C526.763 316.778 533.845 318.268 540.279 318.7ZM644.505 314.157L644.568 314.161L644.632 314.164C658.027 314.636 672.594 311.923 684.283 304.504C693.13 299.025 700.955 290.225 703.919 279.845C705.912 272.867 705.564 265.318 703.392 258.64L703.384 258.616L703.376 258.591C701.637 253.472 696.701 248.247 691.717 244.261C686.655 240.213 680.591 236.686 675.696 235.487L675.691 235.486C664.266 232.702 652.157 234.009 641.586 236.19L641.512 236.205L641.439 236.223C632.773 238.353 623.761 241.968 616.904 248.269C610.468 254.129 605.543 262.569 604.396 271.436L604.384 271.531L604.376 271.627C603.902 277.489 604.52 284.26 607.12 290.019L607.145 290.073L607.171 290.127C611.205 298.4 616.73 304.577 625.138 309.066C630.989 312.235 638.071 313.725 644.505 314.157Z" fill="#FC6663" stroke="#242424" stroke-width="8"/>
<path d="M115.491 336.855L115.504 336.856L115.516 336.858C141.111 339.529 167.922 336.998 192.133 328.325C198.265 326.154 206.519 322.63 213.209 317.876C219.662 313.289 225.921 306.638 225.346 298.036C225.131 293.497 222.735 289.429 220.871 286.717L220.831 286.658L220.789 286.601C212.121 274.906 205.646 261.769 201.105 248.163C197.308 235.911 195.524 222.895 197.819 210.855C199.544 202.621 202.743 194.713 206.293 186.582C206.872 185.255 207.462 183.919 208.056 182.575C211.057 175.781 214.157 168.765 216.454 161.557L216.458 161.544C220.169 149.765 221.482 135.955 217.247 123.899L217.243 123.887L217.238 123.874C213.463 113.351 205.786 104.302 197.305 97.8927C183.293 87.106 164.612 81.2042 146.888 81.6219L146.848 81.6229L146.808 81.6246C138.282 81.9962 128.911 84.1655 121.286 88.9446C115.95 91.9386 111.597 96.7497 108.808 102.164L108.785 102.209L108.763 102.254C106.181 107.595 105.301 115.242 105.787 122.303C106.265 129.262 108.148 136.776 112.15 141.496C116.959 147.512 123.461 151.445 129.486 154.876C130.167 155.264 130.841 155.645 131.508 156.022C136.967 159.107 141.908 161.901 145.905 165.695L145.93 165.719L145.956 165.743C152.884 172.091 155.677 183.097 157.157 193.83L157.158 193.836C159.039 207.335 158.046 221.37 155.04 234.938C152.479 244.651 149.062 253.793 143.302 260.414C141.222 262.674 138.487 264.734 135.614 266.024C132.707 267.329 129.976 267.713 127.709 267.139L127.695 267.135L127.68 267.132C119.868 265.218 112.141 262.05 105.695 257.338L105.645 257.301L105.593 257.266C102.351 255.049 99.3611 252.47 96.3313 249.693C95.3666 248.809 94.3813 247.889 93.3802 246.954C91.3147 245.025 89.1818 243.032 87.023 241.165L86.8987 241.057L86.7661 240.96C86.5974 240.837 86.425 240.71 86.2492 240.581C83.0328 238.222 78.6553 235.012 73.8021 234.021C70.4416 233.335 66.5641 233.461 63.0333 234.963L63.0243 234.967C54.0498 238.812 48.3686 247.827 45.2269 257.194C42.0517 266.66 41.1537 277.369 42.4384 285.903C44.0177 296.585 49.6126 306.589 57.2227 313.913L57.2243 313.914C72.6305 328.723 95.5715 334.647 115.491 336.855ZM293.21 323.004L293.218 323.005L293.226 323.006C308.177 325.324 326.02 325.793 340.739 318.692C345.894 320.546 351.129 321.248 355.781 321.665C373.51 323.654 391.792 322.512 408.927 318.303C413.355 317.249 419.048 315.555 423.486 312.742C427.952 309.911 432.12 305.219 430.82 298.371C430.429 296.135 429.274 294.224 428.16 292.772C427.01 291.273 425.665 289.958 424.55 288.936L424.521 288.91L424.492 288.884C415.574 281.027 407.521 272.046 402.638 261.514L402.631 261.5L402.624 261.485C399.894 255.718 398.417 249.367 398.741 243.024C399.18 235.534 401.861 228.472 405.386 221.123C406.509 218.782 407.749 216.358 409.018 213.878C411.595 208.838 414.292 203.567 416.367 198.289L416.377 198.264L416.386 198.239C419.177 190.855 421.51 182.188 419.983 173.417C418.447 163.846 413.245 154.11 405.861 147.688C387.347 131.09 357.032 128.462 335.84 141.307C332.222 143.329 328.975 146.034 326.08 148.949C317.545 145.766 308.088 144.432 299.267 145.144C289.213 145.943 279.27 149.255 270.832 154.682C260.121 161.542 251.034 171.115 244.134 181.572C228.776 204.521 220.613 234.887 225.334 262.492C227.721 276.825 234.015 291.58 244.631 302.004L244.66 302.033L244.69 302.061C257.857 314.474 276.244 320.305 293.21 323.004ZM305.529 256.186L305.478 256.165L305.426 256.147C297.271 253.232 289.698 246.023 286.346 238.145C283.319 229.609 284.025 219.149 287.38 210.271C289.902 203.599 294.714 197.118 300.556 194.688C306.253 192.428 312.044 193.441 317.299 196.763C322.623 200.13 327.209 205.789 329.947 212.254C335.722 226.576 335.456 243.49 329.002 257.298C321.098 259.107 312.617 258.942 305.529 256.186ZM471.124 321.714L471.188 321.719L471.251 321.721C484.646 322.193 499.213 319.48 510.903 312.062C519.749 306.582 527.574 297.782 530.538 287.402C532.531 280.424 532.183 272.875 530.011 266.197L530.003 266.173L529.995 266.149C528.256 261.029 523.32 255.804 518.337 251.818C513.275 247.77 507.21 244.243 502.315 243.044L502.311 243.043C490.885 240.259 478.776 241.566 468.205 243.747L468.131 243.762L468.059 243.78C459.392 245.91 450.38 249.525 443.523 255.826C437.087 261.686 432.163 270.126 431.016 278.994L431.003 279.088L430.996 279.184C430.521 285.046 431.14 291.818 433.739 297.576L433.764 297.63L433.79 297.684C437.824 305.957 443.348 312.133 451.755 316.622C457.607 319.792 464.689 321.282 471.124 321.714ZM575.35 317.171L575.413 317.176L575.477 317.178C588.872 317.65 603.439 314.938 615.128 307.519C623.975 302.039 631.8 293.239 634.764 282.859C636.757 275.881 636.409 268.332 634.237 261.655L634.229 261.63L634.22 261.606C632.482 256.486 627.546 251.261 622.562 247.276C617.5 243.227 611.436 239.7 606.541 238.501L606.536 238.5C595.111 235.716 583.002 237.023 572.431 239.204L572.357 239.219L572.284 239.237C563.617 241.367 554.604 244.983 547.747 251.285C541.312 257.144 536.388 265.584 535.241 274.451L535.229 274.546L535.221 274.641C534.747 280.503 535.365 287.275 537.965 293.034L537.99 293.088L538.016 293.141C542.05 301.415 547.575 307.591 555.982 312.08C561.834 315.249 568.916 316.739 575.35 317.171ZM679.575 312.628L679.639 312.633L679.703 312.635C693.098 313.107 707.664 310.395 719.354 302.976C728.2 297.497 736.025 288.696 738.99 278.316C740.983 271.338 740.635 263.789 738.462 257.112L738.454 257.087L738.446 257.063C736.708 251.943 731.771 246.718 726.788 242.733C721.726 238.684 715.661 235.157 710.767 233.958L710.762 233.957C699.336 231.173 687.227 232.48 676.656 234.661L676.583 234.677L676.51 234.694C667.844 236.824 658.832 240.439 651.975 246.74C645.538 252.6 640.614 261.041 639.467 269.908L639.455 270.003L639.447 270.098C638.973 275.96 639.591 282.732 642.191 288.491L642.215 288.545L642.241 288.598C646.276 296.872 651.8 303.048 660.208 307.537C666.06 310.707 673.142 312.196 679.575 312.628Z" fill="#FEBDB9" stroke="#242424" stroke-width="8"/>
</svg>
