<svg xmlns="http://www.w3.org/2000/svg" viewBox="0 0 87.32 128.68"><defs><style>.cls-1{fill:#5292ad;}.cls-2{fill:#213043;}.cls-3{fill:#f789b6;}.cls-4{fill:#fdfbef;}</style></defs><g id="Слой_2" data-name="Слой 2"><g id="Layer_1" data-name="Layer 1"><path class="cls-1" d="M60.46,80.57s11.12-6.19,20.81,1c11.25,8.33,6,33-20.81,33.75,0,0-1-5.19,0-6.24s16.91-3.11,17.79-14S68.41,82.5,60.46,88.3Z"/><path class="cls-2" d="M60.05,115.82l-.08-.41c-.18-.91-1-5.51.13-6.69a7.12,7.12,0,0,1,2.52-1c4.7-1.44,14.46-4.42,15.13-12.69.32-4-.94-6.94-3.65-8.46-3.53-2-8.89-1.12-13.34,2.13l-.8.58v-9l.26-.14c.11-.06,11.51-6.26,21.35,1,5.1,3.78,7.06,11,4.85,18.07-3.13,10-12.83,16.19-25.94,16.58Zm9.68-31.29a9.91,9.91,0,0,1,4.86,1.18c3,1.69,4.5,5,4.15,9.41-.72,8.94-10.92,12.07-15.82,13.57a12.39,12.39,0,0,0-2.11.73c-.47.5-.33,3.09.07,5.38,12.44-.5,21.62-6.41,24.59-15.87,2.07-6.62.27-13.44-4.5-17-8.51-6.3-18.31-1.93-20-1.09v6.48A16.33,16.33,0,0,1,69.73,84.53Z"/><path class="cls-1" d="M37.76,128.18H28.08C12.85,128.18.5,117.92.5,105.27V76.93c0-14.15,59.41-17.19,61.7,0v30.95C62.2,119.09,51.26,128.18,37.76,128.18Z"/><path class="cls-2" d="M37.76,128.68H28.08C12.6,128.68,0,118.18,0,105.27V76.93c0-7.12,13.5-11.2,26.88-12.09,16.33-1.08,34.51,2.22,35.82,12v31C62.7,119.35,51.51,128.68,37.76,128.68Zm-5-63c-1.92,0-3.87.06-5.8.19C14.45,66.67,1,70.49,1,76.93v28.34c0,12.36,12.15,22.41,27.08,22.41h9.68c13.2,0,23.94-8.88,23.94-19.8V76.93C60.68,69.26,47.17,65.65,32.74,65.65Z"/><path class="cls-3" d="M55.42,74.45c0,3.48-10.78,6.3-24.07,6.3S7.28,77.93,7.28,74.45s10.77-6.3,24.07-6.3S55.42,71,55.42,74.45Z"/><path class="cls-2" d="M31.35,81.25c-11.91,0-24.57-2.38-24.57-6.8s12.66-6.8,24.57-6.8S55.92,70,55.92,74.45,43.26,81.25,31.35,81.25Zm0-12.6c-13.89,0-23.57,3.06-23.57,5.8s9.68,5.8,23.57,5.8,23.57-3.06,23.57-5.8S45.24,68.65,31.35,68.65Z"/><path class="cls-4" d="M33.61,58.73c-10.1-7.66-15.17-19.54-6-30.42S30.73,1.39,30.73,1.39s12.17,8.88,6.49,21.16-9.22,12-7.86,20.33C30.89,52.25,32.82,59.3,33.61,58.73Z"/><path class="cls-2" d="M33.51,59.26a.85.85,0,0,1-.26,0,1.35,1.35,0,0,1-.5-.51c-6-4.74-9.68-10.55-10.33-16.43-.56-5,1.06-9.83,4.81-14.29,8.87-10.53,3.09-26.25,3-26.41L29.67,0,31,1c.12.09,12.43,9.26,6.65,21.77a73.71,73.71,0,0,1-5.21,9.42C30.09,35.92,29,37.63,29.85,42.8c1.36,8.32,2.84,13.73,3.59,15.16.15.13.31.25.47.37l.53.4-.54.4A.61.61,0,0,1,33.51,59.26ZM31.73,2.9C33,7.35,35.5,19.73,28,28.63c-3.56,4.23-5.11,8.79-4.58,13.53C24,47.27,27,52.35,31.88,56.67a114.93,114.93,0,0,1-3-13.71c-.91-5.54.32-7.47,2.75-11.31a72.28,72.28,0,0,0,5.15-9.31C41.09,13,34.63,5.59,31.73,2.9Z"/><path class="cls-4" d="M50.76,62.28c-7.7-5.85-11.58-14.92-4.57-23.23S48.57,18.5,48.57,18.5s9.29,6.78,5,16.16-7,9.13-6,15.52C48.69,57.33,50.16,62.72,50.76,62.28Z"/><path class="cls-2" d="M50.69,62.8a.52.52,0,0,1-.24,0,1,1,0,0,1-.41-.4c-4.62-3.64-7.43-8.1-7.94-12.62a14.28,14.28,0,0,1,3.7-11c6.73-8,2.35-19.93,2.3-20l-.59-1.57,1.35,1c.1.07,9.57,7.13,5.12,16.77a57.72,57.72,0,0,1-4,7.21c-1.85,2.91-2.61,4.12-2,8,1,6.28,2.16,10.43,2.72,11.52l.34.26.53.4-.54.4A.63.63,0,0,1,50.69,62.8ZM49.56,20c1,3.72,2.56,12.76-3,19.35A13.28,13.28,0,0,0,43.1,49.62c.42,3.75,2.56,7.49,6.09,10.71A88.75,88.75,0,0,1,47,50.26c-.7-4.28.24-5.76,2.12-8.72a55.62,55.62,0,0,0,3.92-7.09C56.2,27.69,51.86,22.27,49.56,20Z"/><path class="cls-4" d="M14.36,60.39C6.65,54.55,2.77,45.48,9.78,37.17s2.38-20.55,2.38-20.55,9.29,6.78,5,16.16-7,9.13-6,15.51C12.28,55.45,13.76,60.84,14.36,60.39Z"/><path class="cls-2" d="M14.28,60.92a.69.69,0,0,1-.24-.05,1,1,0,0,1-.41-.41C9,56.83,6.2,52.36,5.7,47.84a14.22,14.22,0,0,1,3.7-11c6.73-8,2.34-19.93,2.29-20l-.59-1.57,1.36,1c.09.07,9.57,7.13,5.11,16.77a56.92,56.92,0,0,1-4,7.2c-1.85,2.92-2.62,4.13-2,8,1,6.29,2.15,10.43,2.71,11.53l.34.26.53.4-.54.4A.63.63,0,0,1,14.28,60.92Zm-1.14-42.8c1,3.69,2.58,12.77-3,19.37A13.31,13.31,0,0,0,6.69,47.73c.42,3.76,2.56,7.5,6.1,10.71a88.66,88.66,0,0,1-2.17-10.06c-.7-4.28.25-5.76,2.12-8.72a54.39,54.39,0,0,0,3.92-7.09C19.84,25.7,15.46,20.33,13.14,18.12Z"/></g></g></svg>