<svg xmlns="http://www.w3.org/2000/svg" viewBox="0 0 39.84 41.62"><defs><style>.cls-1{fill:#ff7e48;}.cls-2{fill:#213043;}</style></defs><g id="Слой_2" data-name="Слой 2"><g id="Layer_1" data-name="Layer 1"><path class="cls-1" d="M20.38,11.55c-.33-2.17.44-11.69,11.67-11S41,44.06,28.84,41-4.07,25.88,1.4,12.78,20.38,11.55,20.38,11.55Z"/><path class="cls-2" d="M30.06,41.62a5.2,5.2,0,0,1-1.34-.18c-8-2-22.48-8.87-27.25-18.45a12,12,0,0,1-.53-10.4C2.39,9.09,4.56,7,7.36,6.34c4.92-1.14,10.37,2.51,12.47,4.13a11.35,11.35,0,0,1,2.74-7.25C24.73.86,27.94-.22,32.08,0c2.3.14,4.23,1.9,5.58,5.09,4,9.39,2.28,27.9-3.1,34.15A5.93,5.93,0,0,1,30.06,41.62ZM9.3,7.12a7.53,7.53,0,0,0-1.71.19C5.11,7.89,3.19,9.79,1.86,13a11.12,11.12,0,0,0,.5,9.58C6.74,31.33,20.56,38.32,29,40.47c1.76.46,3.39-.16,4.83-1.84,5.09-5.91,6.72-24.17,2.94-33.11C35.53,2.66,33.94,1.15,32,1c-3.84-.24-6.77.73-8.71,2.86a10.34,10.34,0,0,0-2.44,7.58l.2,1.35-1-.9C20,11.88,14.5,7.12,9.3,7.12Z"/></g></g></svg>