<svg xmlns="http://www.w3.org/2000/svg" viewBox="0 0 48.44 59.09"><defs><style>.cls-1{fill:#d95b45;}.cls-2{fill:#213043;}</style></defs><g id="Слой_2" data-name="Слой 2"><g id="Layer_1" data-name="Layer 1"><path class="cls-1" d="M26.86,20.61c2.21-1.9,13.39-7.85,20.2,4.75s-36.48,44.26-41.18,29S-5.65,4.45,12.69,1,26.86,20.61,26.86,20.61Z"/><path class="cls-2" d="M12,59.09A10.51,10.51,0,0,1,10.39,59a6.08,6.08,0,0,1-5.14-4.42c-1.06-3.44-10.09-34-1.74-47.84A13,13,0,0,1,12.56.36C17.5-.57,21.33.29,24,2.91c4.53,4.49,4.15,12.84,3.76,16.29a15.21,15.21,0,0,1,10.21-2.13c4,.74,7.25,3.42,9.71,8,1.72,3.17.68,7.59-3,12.78C37.57,47.78,21.47,59.09,12,59.09ZM16.17,1.33a17.8,17.8,0,0,0-3.36.34A11.69,11.69,0,0,0,4.65,7.4C-1.47,17.52,1.83,38.92,6.52,54.16a4.7,4.7,0,0,0,4.08,3.5C19.07,59,36.34,47.21,43.55,37.05c2.35-3.31,4.77-8,2.92-11.38-2.26-4.18-5.21-6.63-8.78-7.29a14,14,0,0,0-10.4,2.73l-1.42,1.22.33-1.84c0-.11,2-11.5-3.18-16.64A9.28,9.28,0,0,0,16.17,1.33Z"/></g></g></svg>