<svg xmlns="http://www.w3.org/2000/svg" viewBox="0 0 74.48 81.76"><defs><style>.cls-1{fill:#f789b6;}.cls-2{fill:#213043;}.cls-3{fill:#5292ad;}</style></defs><g id="Слой_2" data-name="Слой 2"><g id="Layer_1" data-name="Layer 1"><path class="cls-1" d="M66.85,36.46a17.09,17.09,0,0,0,4.42-11.59c0-9.11-6.87-16.5-15.35-16.5A14.42,14.42,0,0,0,49.47,9.9,15.26,15.26,0,0,0,35.73.72c-8.07,0-14.68,6.69-15.31,15.19a14.29,14.29,0,0,0-4.35-.68C7.6,15.23.72,22.62.72,31.73A16.74,16.74,0,0,0,8.32,46,17.17,17.17,0,0,0,5,56.18c0,9.12,6.87,16.5,15.34,16.5a14.4,14.4,0,0,0,7.08-1.85A15.42,15.42,0,0,0,41.65,81c7.8,0,14.26-6.27,15.22-14.39a12.88,12.88,0,0,0,1.54.09c8.48,0,15.34-7.39,15.34-16.51A16.8,16.8,0,0,0,66.85,36.46ZM34.57,49.89a16.23,16.23,0,0,0-6.44-8,17.07,17.07,0,0,0,3.24-8.88,14.45,14.45,0,0,0,10.8-.85,16.12,16.12,0,0,0,5.31,6.44,16.88,16.88,0,0,0-4.29,9.47A13.13,13.13,0,0,0,41.65,48,14.49,14.49,0,0,0,34.57,49.89Z"/><path class="cls-2" d="M41.65,81.76a16,16,0,0,1-14.56-9.92,15.21,15.21,0,0,1-6.72,1.57c-8.86,0-16.07-7.73-16.07-17.22a18.15,18.15,0,0,1,3-10A17.65,17.65,0,0,1,0,31.73c0-9.5,7.21-17.22,16.07-17.22a15,15,0,0,1,3.72.46c1-8.46,7.88-15,15.94-15A15.83,15.83,0,0,1,49.81,8.94a15,15,0,0,1,6.11-1.29C64.79,7.65,72,15.38,72,24.87a17.83,17.83,0,0,1-4.09,11.48,17.56,17.56,0,0,1,6.57,13.88c0,9.5-7.21,17.23-16.07,17.23-.31,0-.62,0-.92,0C56.2,75.65,49.5,81.76,41.65,81.76Zm-13.82-12,.3.78a14.63,14.63,0,0,0,13.52,9.74c7.34,0,13.57-5.91,14.5-13.75l.08-.71.72.08a11.69,11.69,0,0,0,1.46.08C66.47,66,73,58.93,73,50.23a16.07,16.07,0,0,0-6.6-13.18l-.67-.48.56-.6a16.31,16.31,0,0,0,4.23-11.1C70.55,16.18,64,9.1,55.92,9.1a13.63,13.63,0,0,0-6.12,1.45l-.67.33-.31-.68A14.47,14.47,0,0,0,35.73,1.45c-7.58,0-14,6.37-14.58,14.51l-.07.91-.88-.27A13.45,13.45,0,0,0,16.07,16C8,16,1.45,23,1.45,31.73A16.09,16.09,0,0,0,8.71,45.36l.66.41-.47.63a16.62,16.62,0,0,0-3.15,9.79C5.75,64.88,12.31,72,20.37,72A13.79,13.79,0,0,0,27.1,70.2Zm6.36-18.86-.3-.78a15.51,15.51,0,0,0-6.15-7.59l-.65-.42.46-.63A16.33,16.33,0,0,0,30.65,33l.06-.91.88.28a13.76,13.76,0,0,0,10.26-.81l.67-.34.31.68a15.43,15.43,0,0,0,5.06,6.16l.68.47-.56.61a16.23,16.23,0,0,0-4.1,9.06l-.08.72-.72-.08a13.72,13.72,0,0,0-8.19,1.68Zm-5-9.18a17,17,0,0,1,5.79,7.13,15.16,15.16,0,0,1,7.63-1.54,17.77,17.77,0,0,1,3.85-8.58,16.83,16.83,0,0,1-4.59-5.6A15.12,15.12,0,0,1,32,34,17.61,17.61,0,0,1,29.15,41.75Z"/><path class="cls-3" d="M51.07,42.24c0,7.7-5.8,13.95-13,13.95s-13-6.25-13-13.95S31,28.3,38.11,28.3,51.07,34.54,51.07,42.24Z"/><path class="cls-2" d="M38.11,56.91c-7.55,0-13.7-6.58-13.7-14.67s6.15-14.66,13.7-14.66S51.8,34.16,51.8,42.24,45.66,56.91,38.11,56.91Zm0-27.88C31.35,29,25.86,35,25.86,42.24s5.49,13.22,12.25,13.22,12.24-5.93,12.24-13.22S44.86,29,38.11,29Z"/></g></g></svg>