<svg xmlns="http://www.w3.org/2000/svg" viewBox="0 0 84.63 87.79"><defs><style>.cls-1{fill:#ff7e48;}.cls-2{fill:#213043;}.cls-3{fill:#feb73b;}</style></defs><g id="Слой_2" data-name="Слой 2"><g id="Layer_1" data-name="Layer 1"><path class="cls-1" d="M76,39.14A17.76,17.76,0,0,0,63.55,9a17.18,17.18,0,0,0-7.33,1.64,17.39,17.39,0,0,0-33,6.44,17.23,17.23,0,0,0-4.95-.72,17.75,17.75,0,0,0-8.81,33,17.79,17.79,0,0,0-3.74,11A17.57,17.57,0,0,0,23.14,78a17.11,17.11,0,0,0,8.05-2,17.38,17.38,0,0,0,33.43-4.48,14.6,14.6,0,0,0,1.76.1A17.77,17.77,0,0,0,76,39.14ZM39.28,53.56A17.71,17.71,0,0,0,32,45a17.75,17.75,0,0,0,3.68-9.53,17.53,17.53,0,0,0,5,.72,17.15,17.15,0,0,0,7.33-1.64,17.49,17.49,0,0,0,6,6.92,17.68,17.68,0,0,0-4.87,10.16,17,17,0,0,0-1.75-.1A17.17,17.17,0,0,0,39.28,53.56Z"/><path class="cls-2" d="M47.33,87.79A18.19,18.19,0,0,1,30.79,77.12a18,18,0,0,1-7.65,1.7A18.4,18.4,0,0,1,4.89,60.31,18.73,18.73,0,0,1,8.28,49.57,18.63,18.63,0,0,1,0,34.07a18.26,18.26,0,0,1,22.5-18A18.43,18.43,0,0,1,40.59,0a18.09,18.09,0,0,1,16,9.61,17.84,17.84,0,0,1,7-1.4A18.56,18.56,0,0,1,77.19,39,18.56,18.56,0,0,1,66.38,72.44c-.36,0-.72,0-1.07,0A18.34,18.34,0,0,1,47.33,87.79ZM31.6,74.9l.34.82a16.58,16.58,0,0,0,31.89-4.28l.09-.79.79.09a15.3,15.3,0,0,0,1.67.09,17,17,0,0,0,9.15-31l-.8-.54.67-.69A16.95,16.95,0,0,0,63.55,9.82a16.28,16.28,0,0,0-7,1.56l-.71.33L55.5,11A16.52,16.52,0,0,0,40.59,1.61,16.83,16.83,0,0,0,24,17.16l-.08,1-1-.29a16.74,16.74,0,0,0-4.72-.69A16.79,16.79,0,0,0,1.61,34.07,17,17,0,0,0,9.85,48.66l.78.47-.56.72A17,17,0,0,0,23.14,77.21a16.31,16.31,0,0,0,7.67-1.9Zm7.27-20.22-.34-.82a17,17,0,0,0-7-8.14l-.78-.46.55-.72a16.84,16.84,0,0,0,3.52-9.1l.07-1,1,.29a16.57,16.57,0,0,0,11.71-.87l.72-.34.35.71a16.69,16.69,0,0,0,5.75,6.6l.8.53-.67.7a17,17,0,0,0-4.65,9.7l-.1.79L49,52.46a16.37,16.37,0,0,0-9.34,1.81Zm-5.75-9.87a18.63,18.63,0,0,1,6.56,7.65,18.43,18.43,0,0,1,8.71-1.67,18.67,18.67,0,0,1,4.35-9.17,18.11,18.11,0,0,1-5.18-6,18.13,18.13,0,0,1-11.22.89A18.41,18.41,0,0,1,33.12,44.81Z"/><path class="cls-3" d="M58,45.35a14.74,14.74,0,1,1-14.74-15A14.85,14.85,0,0,1,58,45.35Z"/><path class="cls-2" d="M43.3,61.12A15.77,15.77,0,1,1,58.84,45.35,15.69,15.69,0,0,1,43.3,61.12Zm0-29.92A14.16,14.16,0,1,0,57.24,45.35,14.06,14.06,0,0,0,43.3,31.2Z"/></g></g></svg>