<svg xmlns="http://www.w3.org/2000/svg" viewBox="0 0 51.07 52.97"><defs><style>.cls-1{fill:#5292ad;}.cls-2{fill:#213043;}.cls-3{fill:#feb73b;}</style></defs><g id="Слой_2" data-name="Слой 2"><g id="Layer_1" data-name="Layer 1"><path class="cls-1" d="M45.83,23.62A10.7,10.7,0,0,0,38.34,5.45a10.41,10.41,0,0,0-4.42,1A10.49,10.49,0,0,0,14,10.32a10.42,10.42,0,0,0-3-.43A10.7,10.7,0,0,0,5.71,29.78a10.71,10.71,0,0,0-2.26,6.61A10.6,10.6,0,0,0,14,47.07a10.38,10.38,0,0,0,4.86-1.21A10.48,10.48,0,0,0,39,43.16a9.24,9.24,0,0,0,1,.06,10.71,10.71,0,0,0,5.79-19.6ZM23.7,32.32a10.63,10.63,0,0,0-4.41-5.15,10.7,10.7,0,0,0,2.22-5.75,10.15,10.15,0,0,0,3,.44,10.44,10.44,0,0,0,4.42-1A10.47,10.47,0,0,0,32.55,25a10.59,10.59,0,0,0-2.93,6.13,9.28,9.28,0,0,0-1.06-.06A10.35,10.35,0,0,0,23.7,32.32Z"/><path class="cls-2" d="M28.56,53a11,11,0,0,1-10-6.43,10.89,10.89,0,0,1-4.61,1A11.11,11.11,0,0,1,3,36.39a11.26,11.26,0,0,1,2-6.47,11.28,11.28,0,0,1-5-9.36A11.11,11.11,0,0,1,11,9.39a10.91,10.91,0,0,1,2.55.3A11.13,11.13,0,0,1,24.5,0a10.94,10.94,0,0,1,9.65,5.79A10.74,10.74,0,0,1,38.34,5a11.2,11.2,0,0,1,8.25,18.59A11.21,11.21,0,0,1,40,43.72l-.63,0A11.06,11.06,0,0,1,28.56,53Zm-9.48-7.81.21.51a10,10,0,0,0,19.2-2.57l.06-.49.49,0a8.39,8.39,0,0,0,1,.06A10.21,10.21,0,0,0,45.56,24l-.5-.34.42-.43A10.21,10.21,0,0,0,38.34,6a9.91,9.91,0,0,0-4.21.94l-.44.21-.22-.44A9.94,9.94,0,0,0,24.5,1a10.13,10.13,0,0,0-10,9.36l0,.62-.6-.18A10,10,0,0,0,1,20.56a10.24,10.24,0,0,0,5,8.79l.49.29-.35.45A10.21,10.21,0,0,0,14,46.57a9.88,9.88,0,0,0,4.62-1.15ZM23.45,33l-.21-.52A10.27,10.27,0,0,0,19,27.6l-.49-.29.35-.44A10.15,10.15,0,0,0,21,21.38l0-.61.59.17a10,10,0,0,0,7.05-.52l.45-.21.22.44a10,10,0,0,0,3.46,4l.5.33-.42.43a10.19,10.19,0,0,0-2.8,5.84l-.06.49-.49,0a9.83,9.83,0,0,0-5.62,1.09ZM20,27A11.23,11.23,0,0,1,24,31.63a10.93,10.93,0,0,1,5.24-1,11.2,11.2,0,0,1,2.61-5.51,10.9,10.9,0,0,1-3.11-3.6,11,11,0,0,1-6.75.54A11.08,11.08,0,0,1,20,27Z"/><path class="cls-3" d="M35,27.37a8.89,8.89,0,1,1-8.89-9A9,9,0,0,1,35,27.37Z"/><path class="cls-2" d="M26.13,36.89a9.52,9.52,0,1,1,9.39-9.52A9.46,9.46,0,0,1,26.13,36.89Zm0-18a8.52,8.52,0,1,0,8.39,8.52A8.46,8.46,0,0,0,26.13,18.85Z"/></g></g></svg>