<svg xmlns="http://www.w3.org/2000/svg" viewBox="0 0 72.58 76.38"><defs><style>.cls-1{fill:#fdfbef;}.cls-2{fill:#213043;}.cls-3{fill:#feb73b;}</style></defs><g id="Слой_2" data-name="Слой 2"><g id="Layer_1" data-name="Layer 1"><path class="cls-1" d="M65.31,34a15.63,15.63,0,0,0,4.33-10.87,15.27,15.27,0,0,0-15-15.49,14.57,14.57,0,0,0-6.32,1.43A15,15,0,0,0,34.81.5a15.23,15.23,0,0,0-15,14.25,14.65,14.65,0,0,0-4.27-.63A15.27,15.27,0,0,0,.5,29.6,15.55,15.55,0,0,0,8,43a15.65,15.65,0,0,0-3.23,9.58A15.27,15.27,0,0,0,19.76,68,14.58,14.58,0,0,0,26.7,66.3a14.94,14.94,0,0,0,28.82-3.92A15,15,0,0,0,72.08,47,15.57,15.57,0,0,0,65.31,34ZM33.67,46.65a15.3,15.3,0,0,0-6.31-7.46,15.55,15.55,0,0,0,3.17-8.34,14.72,14.72,0,0,0,10.59-.8,15.32,15.32,0,0,0,5.2,6,15.59,15.59,0,0,0-4.2,8.9,12.62,12.62,0,0,0-1.51-.09A14.56,14.56,0,0,0,33.67,46.65Z"/><path class="cls-2" d="M40.61,76.38A15.49,15.49,0,0,1,26.45,67a15.17,15.17,0,0,1-6.69,1.55,15.78,15.78,0,0,1-15.54-16,16.3,16.3,0,0,1,3-9.44A16.17,16.17,0,0,1,0,29.6a15.78,15.78,0,0,1,15.54-16,15,15,0,0,1,3.83.49A15.78,15.78,0,0,1,34.81,0a15.39,15.39,0,0,1,13.7,8.46A15,15,0,0,1,54.6,7.18a15.78,15.78,0,0,1,15.54,16A16.13,16.13,0,0,1,66.07,34a16.11,16.11,0,0,1,6.51,13A15.79,15.79,0,0,1,57,63c-.37,0-.73,0-1.09,0A15.68,15.68,0,0,1,40.61,76.38ZM27,65.59l.21.52a14.52,14.52,0,0,0,13.45,9.27A14.71,14.71,0,0,0,55,62.31l.06-.49.49.06A14.13,14.13,0,0,0,57,62,14.8,14.8,0,0,0,71.58,47,15.07,15.07,0,0,0,65,34.45l-.49-.33.41-.43a15.06,15.06,0,0,0,4.19-10.52,14.78,14.78,0,0,0-14.54-15,14.07,14.07,0,0,0-6.11,1.38L48,9.78l-.21-.45A14.43,14.43,0,0,0,34.81,1,14.81,14.81,0,0,0,20.3,14.79l0,.62-.6-.18a14,14,0,0,0-4.12-.61A14.78,14.78,0,0,0,1,29.6,15.14,15.14,0,0,0,8.2,42.54l.48.29-.34.44a15.32,15.32,0,0,0-3.12,9.28,14.78,14.78,0,0,0,14.54,15,14.19,14.19,0,0,0,6.7-1.68Zm6.47-18.24-.21-.52a14.92,14.92,0,0,0-6.11-7.21l-.48-.29.34-.45A15,15,0,0,0,30,30.81l0-.62.6.18a14.27,14.27,0,0,0,10.23-.77l.45-.22.22.45a14.69,14.69,0,0,0,5,5.85l.49.33-.41.43a15.1,15.1,0,0,0-4.06,8.61l-.06.49-.49-.06a14,14,0,0,0-8.16,1.61Zm-5.34-8.3A15.91,15.91,0,0,1,33.92,46a15.22,15.22,0,0,1,7.77-1.52,16.16,16.16,0,0,1,3.88-8.27,15.67,15.67,0,0,1-4.68-5.47,15.25,15.25,0,0,1-9.92.79A16,16,0,0,1,28.08,39.05Z"/><ellipse class="cls-3" cx="37.14" cy="39.47" rx="12.71" ry="13.09"/><path class="cls-2" d="M37.14,53.06a13.6,13.6,0,0,1,0-27.18,13.6,13.6,0,0,1,0,27.18Zm0-26.18a12.6,12.6,0,0,0,0,25.18,12.6,12.6,0,0,0,0-25.18Z"/></g></g></svg>