<svg xmlns="http://www.w3.org/2000/svg" viewBox="0 0 230.82 134.35"><defs><style>.cls-1{fill:#f789b6;}.cls-2{fill:#213043;}.cls-3{fill:#feb73b;}.cls-4{fill:#fdfbef;}</style></defs><g id="Слой_2" data-name="Слой 2"><g id="Layer_1" data-name="Layer 1"><path class="cls-1" d="M227.62,81.6s-19.13-48.14-29.1-62.76C185.62-.08,173.88-1.55,167.47,2.1c-10.71,6.1-8.59,16.67-4.08,18.79,4.25,2,1.93-8.86,12.34-9,10.22-.17,17.69,15,24.68,27.14,7.18,12.53,18.67,43.2,18.67,43.2Z"/><path class="cls-2" d="M218.74,82.72l-.13-.35c-.11-.3-11.55-30.77-18.63-43.12-.66-1.14-1.32-2.31-2-3.49-6.24-11-13.25-23.56-22.26-23.4-5.78.1-7.42,3.67-8.62,6.28C166.5,20,166,21.17,165,21.53a2.3,2.3,0,0,1-1.8-.19c-2.24-1.06-3.83-3.95-4-7.2-.09-2.33.51-8.2,8-12.48,7-4,19.05-1.66,31.7,16.9,9.89,14.5,29,62.37,29.16,62.86l.25.63ZM175.9,11.36c9.47,0,16.64,12.7,23,23.91.66,1.18,1.32,2.35,2,3.48,6.71,11.7,17.27,39.48,18.58,42.92l7.48-.52c-2.3-5.74-19.59-48.53-28.79-62-12.27-18-23.75-20.37-30.39-16.59-7,4-7.59,9.42-7.51,11.57.11,2.89,1.47,5.43,3.39,6.34a1.39,1.39,0,0,0,1,.15c.59-.22,1.05-1.22,1.58-2.37,1.24-2.69,3.11-6.75,9.51-6.86Z"/><path class="cls-1" d="M68.42,93.94S49.28,45.8,39.32,31.18c-12.9-18.92-24.64-20.39-31-16.74C-2.44,20.54-.32,31.1,4.18,33.23c4.26,2,1.94-8.86,12.35-9,10.21-.17,17.69,15,24.68,27.14,7.18,12.53,18.67,43.2,18.67,43.2Z"/><path class="cls-2" d="M59.54,95.06l-.13-.35c-.12-.3-11.55-30.77-18.63-43.12-.66-1.14-1.32-2.31-2-3.49-6.24-11-13.27-23.53-22.26-23.4-5.78.09-7.42,3.67-8.62,6.28-.63,1.35-1.17,2.53-2.15,2.89A2.3,2.3,0,0,1,4,33.68C1.73,32.62.13,29.73,0,26.47-.08,24.15.52,18.28,8,14c7-4,19.06-1.66,31.71,16.9,9.88,14.5,29,62.37,29.15,62.86l.26.63ZM16.7,23.7c9.47,0,16.64,12.7,23,23.91.66,1.18,1.32,2.34,2,3.48C48.35,62.79,58.91,90.57,60.21,94l7.49-.52c-2.3-5.74-19.59-48.53-28.79-62-12.28-18-23.75-20.37-30.39-16.59-7,4-7.6,9.42-7.51,11.57.11,2.88,1.47,5.43,3.39,6.34a1.36,1.36,0,0,0,1,.15C6,32.71,6.48,31.71,7,30.56c1.24-2.69,3.1-6.75,9.51-6.86Z"/><path class="cls-1" d="M137.88,82.24a17,17,0,0,1,13.65-1.08c7,2.49,1.84,7.07,1.84,7.07s-11-1.15-15.85,1.81S134.79,84,137.88,82.24Z"/><path class="cls-2" d="M135.9,91.12a1.59,1.59,0,0,1-.79-.19c-.43-.24-.94-.81-.94-2.15,0-2.33,1.51-5.88,3.47-7a17.48,17.48,0,0,1,14.06-1.12c2.33.83,3.65,2,3.94,3.47.45,2.29-1.84,4.36-1.94,4.45l-.17.14-.22,0c-.1,0-10.92-1.1-15.53,1.73A3.77,3.77,0,0,1,135.9,91.12ZM146,80.71a16.34,16.34,0,0,0-7.85,2c-1.6.89-3,4.1-3,6.1,0,.66.16,1.13.43,1.28s.91,0,1.66-.45c4.56-2.8,14.25-2,15.92-1.9.46-.46,1.76-1.92,1.48-3.36-.22-1.1-1.33-2-3.29-2.72A16.12,16.12,0,0,0,146,80.71Z"/><path class="cls-1" d="M96.56,75.2c2.59-1,7.89-12.37,21-11.57,17,1,24,20.71,21.11,31.63-6.44,24.12-31.34,38.87-37,38.59S50,114.86,59,84.55A19.88,19.88,0,0,1,75.51,70C88.71,68.26,94,76.18,96.56,75.2Z"/><path class="cls-2" d="M101.88,134.35h-.19c-3.65-.18-27.24-9.07-38.47-24.9-5.68-8-7.27-16.43-4.72-25a20.47,20.47,0,0,1,17-14.9,25.51,25.51,0,0,1,17.6,3.91c1.49.87,2.67,1.56,3.33,1.31h0a10.31,10.31,0,0,0,2.47-2.34c3.29-3.69,8.81-9.88,18.79-9.26a21.7,21.7,0,0,1,16.58,9.43c4.76,6.59,6.81,16,5,22.83C133,118.72,108.65,134.35,101.88,134.35ZM79.26,70.25a28.44,28.44,0,0,0-3.68.25A19.29,19.29,0,0,0,59.46,84.7C57,93,58.54,101.12,64,108.87c11,15.57,34.14,24.3,37.7,24.48,5.25.26,30.05-14,36.5-38.21,1.76-6.59-.22-15.63-4.82-22a20.76,20.76,0,0,0-15.83-9c-9.49-.57-14.81,5.37-18,8.93a9.88,9.88,0,0,1-2.86,2.61c-1.09.41-2.39-.34-4.19-1.39A24.45,24.45,0,0,0,79.26,70.25Z"/><path class="cls-3" d="M98.43,86.24c2.54-.87,7.72-12.33,17.45-12.86,11.46-.62,16,11.81,13.29,22.29-3.87,14.88-22.13,28.88-26.33,28.69S62.9,110.2,68.77,89.13A12.47,12.47,0,0,1,80.5,79.78C88.07,79.41,95.89,87.11,98.43,86.24Z"/><path class="cls-2" d="M102.91,124.87h-.09c-2.87-.13-22.28-7.23-31-19.29-3.9-5.38-5.09-11-3.52-16.58a13,13,0,0,1,12.19-9.71c4.58-.23,9.1,2.34,12.73,4.39,2.17,1.23,4.22,2.38,5.06,2.1.64-.22,1.7-1.52,2.92-3,3.07-3.77,7.71-9.48,14.66-9.86a12.42,12.42,0,0,1,10.7,4.58c3.63,4.44,4.85,11.63,3.1,18.33C125.67,111.12,107.34,124.87,102.91,124.87ZM81,80.27h-.51a12,12,0,0,0-11.28,9c-1.48,5.31-.35,10.6,3.37,15.73,8.54,11.8,27.46,18.75,30.25,18.88H103c4.11,0,21.94-13.74,25.74-28.33,1.66-6.4.52-13.25-2.92-17.45a11.43,11.43,0,0,0-9.86-4.21c-6.52.36-11,5.86-13.94,9.5-1.43,1.75-2.46,3-3.38,3.33-1.26.44-3.2-.66-5.87-2.17C89.34,82.63,85.17,80.27,81,80.27Z"/><path class="cls-1" d="M192.27,72.51c2.74-.14,10.87-9.41,23.26-4.57,16,6.25,17.46,27.26,11.75,36.82-12.61,21.11-40.41,27.53-45.77,25.51s-44.44-34.18-27.73-60.43A18.9,18.9,0,0,1,173.5,61C186.61,63.43,189.53,72.64,192.27,72.51Z"/><path class="cls-2" d="M184.3,131.14a8.72,8.72,0,0,1-3-.4c-3.53-1.34-24.08-17.44-30.37-36.32-3.06-9.19-2.26-17.55,2.39-24.84a19.51,19.51,0,0,1,20.23-9,26.47,26.47,0,0,1,15.8,9.18c1.21,1.3,2.19,2.29,2.85,2.3h0a9.73,9.73,0,0,0,3-1.48c4.15-2.52,11.09-6.72,20.49-3.06A23.06,23.06,0,0,1,229.19,82c2.63,7.69,2,17.16-1.48,23C216.82,123.25,193.75,131.14,184.3,131.14ZM170,61.21a18.13,18.13,0,0,0-15.81,8.9c-4.47,7-5.24,15.1-2.28,24,6.19,18.59,26.32,34.4,29.77,35.7,4.9,1.85,32.51-4.13,45.16-25.29,3.36-5.64,3.94-14.77,1.39-22.2A22.1,22.1,0,0,0,215.35,68.4c-8.94-3.48-15.62.57-19.61,3-1.51.91-2.61,1.58-3.45,1.62-1.17.09-2.14-1-3.63-2.62-2.69-2.91-6.75-7.31-15.25-8.88A19.49,19.49,0,0,0,170,61.21Z"/><path class="cls-3" d="M191.11,83.66c2.66,0,10.7-9.42,20.15-6.92,11.14,3,12.18,16.26,6.77,25.46-7.69,13.06-28.93,20.82-32.89,19.34s-34.47-25.93-23.21-44.29c3.7-6,9.79-6.39,13.74-5.32C183,73.92,188.44,83.71,191.11,83.66Z"/><path class="cls-2" d="M186.34,122.2A4.28,4.28,0,0,1,185,122c-2.77-1-19.71-14.06-24.66-28.45-2.14-6.21-1.73-11.78,1.2-16.57a12.43,12.43,0,0,1,14.3-5.54c4.44,1.2,8.08,5,11,8.13,1.74,1.84,3.39,3.58,4.28,3.58h0c.67,0,2-.93,3.59-2,4-2.67,9.93-6.7,16.7-4.91a13,13,0,0,1,9.07,7.84c2.2,5.35,1.41,12.55-2,18.35C211.15,114.85,192.54,122.2,186.34,122.2ZM172.06,72a10.92,10.92,0,0,0-9.71,5.55c-2.77,4.53-3.14,9.81-1.11,15.72,4.77,13.84,21.47,26.87,24.07,27.84,3.75,1.4,24.71-6.25,32.29-19.13,3.26-5.54,4-12.39,1.94-17.46a12.11,12.11,0,0,0-8.41-7.26c-6.33-1.67-12.07,2.21-15.88,4.78-1.84,1.24-3.17,2.14-4.13,2.16h0c-1.32,0-2.87-1.63-5-3.89-2.84-3-6.37-6.73-10.54-7.86A14,14,0,0,0,172.06,72Z"/><path class="cls-4" d="M80.61,100.78a7.94,7.94,0,0,0-6.17-4.51,7.2,7.2,0,0,0,4.19-6.63c1.52,2.56,3.46,4.28,6.17,4.5A8,8,0,0,0,80.61,100.78Z"/><path class="cls-2" d="M80.93,102.53,80.16,101a7.38,7.38,0,0,0-5.8-4.24l-1.53-.24,1.38-.7a6.7,6.7,0,0,0,3.92-6.21l.05-1.72.88,1.48c1.58,2.68,3.47,4.07,5.78,4.27l1.65.14L85,94.58a7.48,7.48,0,0,0-3.94,6.25Zm-5.15-6.47a8.19,8.19,0,0,1,4.55,3.28,8.23,8.23,0,0,1,3.12-4.92A8.31,8.31,0,0,1,79,91.09,7.45,7.45,0,0,1,75.78,96.06Z"/><path class="cls-4" d="M174.73,88.27A8.08,8.08,0,0,0,169.08,83,7.06,7.06,0,0,0,174,77c1.23,2.74,3,4.68,5.65,5.23A7.82,7.82,0,0,0,174.73,88.27Z"/><path class="cls-2" d="M174.87,90.06l-.6-1.61a7.59,7.59,0,0,0-5.33-4.93l-1.48-.42,1.45-.53a6.54,6.54,0,0,0,4.54-5.68l.24-1.72.71,1.59c1.29,2.85,3,4.47,5.3,4.95l1.62.33-1.53.62a7.27,7.27,0,0,0-4.57,5.71ZM170.43,83a8.34,8.34,0,0,1,4.19,3.82,8.07,8.07,0,0,1,3.62-4.51,8.4,8.4,0,0,1-4.1-3.85A7.25,7.25,0,0,1,170.43,83Z"/><path class="cls-4" d="M90.25,101.65a4.29,4.29,0,0,0-3.32-2.42,3.86,3.86,0,0,0,2.25-3.56,4.29,4.29,0,0,0,3.32,2.42A4.28,4.28,0,0,0,90.25,101.65Z"/><path class="cls-2" d="M90.57,103.41l-.77-1.53a3.76,3.76,0,0,0-2.94-2.15l-1.53-.24,1.37-.7a3.38,3.38,0,0,0,2-3.13l0-1.73.88,1.49a3.78,3.78,0,0,0,2.93,2.17l1.65.14-1.45.8a3.77,3.77,0,0,0-2,3.17ZM88.14,99A4.56,4.56,0,0,1,90,100.37a4.46,4.46,0,0,1,1.3-2A4.6,4.6,0,0,1,89.49,97,4.14,4.14,0,0,1,88.14,99Z"/><path class="cls-4" d="M181.48,96.07a4.52,4.52,0,0,0-2.43-3.43A3.62,3.62,0,0,0,182.24,90a4.58,4.58,0,0,0,2.43,3.43A4,4,0,0,0,181.48,96.07Z"/><path class="cls-2" d="M181.26,97.84,181,96.15a4,4,0,0,0-2.16-3.07l-1.36-.74,1.53-.2a3.13,3.13,0,0,0,2.78-2.27l.57-1.65.39,1.7A4.15,4.15,0,0,0,184.87,93l1.51.68-1.63.27a3.51,3.51,0,0,0-2.81,2.3Zm-1-5a4.92,4.92,0,0,1,1.37,1.91,4.34,4.34,0,0,1,1.83-1.47,4.84,4.84,0,0,1-1.32-1.92A3.87,3.87,0,0,1,180.26,92.85Z"/><path class="cls-4" d="M210.26,92.62a2.88,2.88,0,0,0-1-2.41,2.13,2.13,0,0,0,2.24-1.07,2.91,2.91,0,0,0,1,2.4A2.37,2.37,0,0,0,210.26,92.62Z"/><path class="cls-2" d="M209.82,93.86l.07-1.26a2.54,2.54,0,0,0-.88-2.11l-.88-.79,1.18.14a1.76,1.76,0,0,0,1.87-.89l.68-1.11v1.3a2.51,2.51,0,0,0,.86,2.11l1,.78-1.26-.11a2,2,0,0,0-1.9.92Zm.26-3.29a3.17,3.17,0,0,1,.49,1.17,2.6,2.6,0,0,1,1.11-.53,3,3,0,0,1-.47-1.16A2.26,2.26,0,0,1,210.08,90.57Z"/></g></g></svg>