<svg xmlns="http://www.w3.org/2000/svg" viewBox="0 0 182.94 220.74"><defs><style>.cls-1{fill:#d95b45;}.cls-2{fill:#213043;}.cls-3{fill:#fdfbef;}.cls-4{fill:#2b3044;}.cls-5{fill:#fbffff;}.cls-6{fill:#5292ad;}</style></defs><g id="Слой_2" data-name="Слой 2"><g id="Layer_1" data-name="Layer 1"><path class="cls-1" d="M108.75,179.85c-8.06,29.24-33.51,44.39-63.34,39.47-27.69-4.57-48.22-32-44.46-59.93C3.07,143.62,9,134.52,23,129.9c12.29-4.06,25.41,5,37.5,6.68,15.48,2.1,31.3-.16,41.52,10.13C111.82,156.56,111.6,169.52,108.75,179.85Z"/><path class="cls-2" d="M56.42,220.74a68.31,68.31,0,0,1-11.09-.93C17.21,215.17-3.34,187.47.45,159.32c2.26-16.72,8.75-25.38,22.41-29.9,8.07-2.67,16.48.23,24.61,3a70.88,70.88,0,0,0,13.11,3.63c3.91.53,7.87.78,11.7,1,11.49.73,22.34,1.42,30.11,9.24,10.42,10.49,9.47,24.07,6.84,33.62-4,14.37-12.16,25.73-23.72,32.84A55,55,0,0,1,56.42,220.74ZM29.69,129.37a20.82,20.82,0,0,0-6.52,1C9.93,134.75,3.64,143.18,1.44,159.45c-3.72,27.63,16.45,54.82,44.05,59.37,30.22,5,54.86-10.36,62.78-39.1l.48.13-.48-.13c2.56-9.3,3.49-22.51-6.59-32.66-7.5-7.54-18.17-8.22-29.46-8.95-3.85-.24-7.83-.5-11.77-1a72,72,0,0,1-13.3-3.68C41.37,131.41,35.46,129.37,29.69,129.37Z"/><path class="cls-2" d="M66.37,151.05h-.5c-7-.19-14.3-1.59-20.75-10.41l.81-.59c6.19,8.47,13.25,9.81,20,10a20.3,20.3,0,0,0,12.45-4.26l.65.76A21.09,21.09,0,0,1,66.37,151.05Z"/><path class="cls-3" d="M44.61,182.83c-1.37,1.2.56,8.72,7.3,10.29,7.47,1.73,12.29-4.84,12.08-6.6-.1-.9-5.5.31-10.28-.54C49.19,185.17,45.28,182.25,44.61,182.83Z"/><path class="cls-2" d="M54.39,193.91a11.52,11.52,0,0,1-2.59-.3,10.73,10.73,0,0,1-7.88-7.78c-.4-1.58-.26-2.84.36-3.38h0c.55-.48,1.43-.06,3.19.77a26,26,0,0,0,6.33,2.27,32.57,32.57,0,0,0,7,.23c2.38-.1,3.57-.15,3.68.75.12,1.08-1,3-2.73,4.53A11.07,11.07,0,0,1,54.39,193.91ZM44.9,183.25a3.19,3.19,0,0,0,0,2.33,9.71,9.71,0,0,0,7.13,7,10,10,0,0,0,9.07-2.37,7.07,7.07,0,0,0,2.4-3.53,15.76,15.76,0,0,0-2.64,0,32.88,32.88,0,0,1-7.23-.25A26.71,26.71,0,0,1,47,184.12,11.21,11.21,0,0,0,44.9,183.25Zm0,0Z"/><path class="cls-3" d="M44.3,168.79c-.61,4.57-4.5,7.81-8.68,7.24s-7.08-4.73-6.46-9.3,4.5-7.81,8.69-7.24S44.92,164.22,44.3,168.79Z"/><path class="cls-2" d="M36.58,176.59a7,7,0,0,1-1-.07c-4.45-.6-7.54-5-6.89-9.85a9.24,9.24,0,0,1,3.18-5.87,7.76,7.76,0,0,1,6.07-1.8c4.45.6,7.54,5,6.89,9.85h0a9.24,9.24,0,0,1-3.18,5.87A7.83,7.83,0,0,1,36.58,176.59Zm.31-16.66a6.89,6.89,0,0,0-4.41,1.64,8.19,8.19,0,0,0-2.83,5.23c-.57,4.29,2.13,8.2,6,8.73A6.75,6.75,0,0,0,41,174a8.19,8.19,0,0,0,2.83-5.23c.58-4.29-2.13-8.2-6-8.73A6.77,6.77,0,0,0,36.89,159.93Z"/><path class="cls-4" d="M41.5,168.41a4.65,4.65,0,0,1-5,4.2,4.86,4.86,0,0,1,1.3-9.6A4.67,4.67,0,0,1,41.5,168.41Z"/><path class="cls-5" d="M36.12,164.67a2.37,2.37,0,1,1-2-2.87A2.48,2.48,0,0,1,36.12,164.67Z"/><path class="cls-5" d="M38.51,172.87a1.45,1.45,0,0,1-2.17-.19,1.81,1.81,0,0,1,.22-2.38,1.47,1.47,0,0,1,2.18.19A1.8,1.8,0,0,1,38.51,172.87Z"/><path class="cls-3" d="M81.16,173.79c-.61,4.57-4.5,7.81-8.68,7.24S65.4,176.3,66,171.74s4.5-7.81,8.69-7.25S81.78,169.22,81.16,173.79Z"/><path class="cls-2" d="M73.44,181.6a7,7,0,0,1-1-.07c-4.45-.61-7.54-5-6.89-9.86a9.22,9.22,0,0,1,3.18-5.86A7.75,7.75,0,0,1,74.77,164c4.45.6,7.54,5,6.89,9.86h0a9.24,9.24,0,0,1-3.18,5.86A7.84,7.84,0,0,1,73.44,181.6Zm.31-16.67a6.89,6.89,0,0,0-4.41,1.64,8.22,8.22,0,0,0-2.83,5.23c-.57,4.29,2.13,8.21,6,8.74a6.82,6.82,0,0,0,5.3-1.59,8.17,8.17,0,0,0,2.83-5.22c.58-4.29-2.13-8.21-6-8.74A6.77,6.77,0,0,0,73.75,164.93Z"/><path class="cls-4" d="M78.36,173.41a4.46,4.46,0,1,1-3.75-5.4A4.65,4.65,0,0,1,78.36,173.41Z"/><path class="cls-5" d="M73,169.68a2.37,2.37,0,1,1-2-2.87A2.48,2.48,0,0,1,73,169.68Z"/><path class="cls-5" d="M75.37,177.87a1.45,1.45,0,0,1-2.17-.19,1.79,1.79,0,0,1,.22-2.37,1.45,1.45,0,0,1,2.18.19A1.78,1.78,0,0,1,75.37,177.87Z"/><path class="cls-2" d="M29.2,164.94l-6.81-6.24.68-.74,6.82,6.26Z"/><path class="cls-2" d="M31.52,162c-.3-.05-.4-.07-4.27-7.09l.88-.49c1.33,2.42,3.55,6.39,3.83,6.74l-.36.34.34.37Z"/><path class="cls-2" d="M80.51,169.39l-.56-.83,7.54-5.32.58.82Z"/><path class="cls-2" d="M78.6,166.17l-.41-.18.38-.33-.3-.38c.32-.31,3-4,4.65-6.2l.8.59C79,166.15,78.91,166.15,78.6,166.17Z"/><path class="cls-1" d="M180.66,150.3c6.77,29.51-6.2,53.78-31.49,62-23.46,7.61-51.58-8.22-61.08-34.72-5.37-15-4.79-25.61,4-35.64,7.71-8.81,21.91-6.23,32-9.87,12.91-4.66,24.15-13.36,36.64-8.5C172.67,128.22,178.26,139.88,180.66,150.3Z"/><path class="cls-2" d="M136.82,214.71c-20.47,0-41.25-14.81-49.2-37-5.69-15.86-4.51-26.33,4.06-36.13,5.1-5.83,12.91-6.8,20.48-7.73a55.28,55.28,0,0,0,11.74-2.29c3.25-1.18,6.43-2.62,9.5-4,9.25-4.21,18-8.18,27.5-4.47,12.73,5,18,17.47,20.24,27.09h0c3.33,14.49,2,28.09-3.76,39.32s-15.43,19.15-28,23.25A40.55,40.55,0,0,1,136.82,214.71Zm16.27-92.08c-6.43,0-12.72,2.87-19.27,5.85-3.09,1.4-6.29,2.86-9.58,4.05a56.44,56.44,0,0,1-12,2.34c-7.38.91-15,1.85-19.84,7.39-8.3,9.5-9.42,19.68-3.88,35.14,9.41,26.24,37.09,42,60.46,34.41,25.58-8.3,37.8-32.4,31.15-61.39h0C178,141,172.86,128.83,160.53,124A20.24,20.24,0,0,0,153.09,122.63Z"/><path class="cls-2" d="M124.72,145.4a21.38,21.38,0,0,1-10.84-3.23l.5-.87c8.53,4.94,14.57,3.16,19.82.5,5.56-2.8,7.68-9,7.7-9l.95.32c-.09.27-2.27,6.6-8.2,9.6A21.78,21.78,0,0,1,124.72,145.4Z"/><path class="cls-6" d="M136.78.55C134.54,0,111.64,3.8,94.56,17.39s-23.83,38.84-23.12,39S98.58,40.78,112.8,32.92,136.78.55,136.78.55Z"/><path class="cls-2" d="M71.41,56.9h-.09l-.3-.07-.11-.37C70.57,54.89,77.48,30.34,94.25,17,111.32,3.42,134.41-.6,136.91.07l.54.15-.2.52c-.4,1-10,24.76-24.21,32.62C106.68,36.87,97.81,42,90,46.55,74.24,55.69,72,56.9,71.41,56.9ZM136.06,1C132,1,111.25,4.75,94.87,17.78c-15.12,12-22.26,33.79-22.93,37.9,2.21-1.1,10-5.61,17.55-10,7.83-4.53,16.69-9.68,23.07-13.2C125.2,25.49,134.42,4.86,136.06,1Z"/><path class="cls-2" d="M61.66,150.2l-1-.13c.07-.5,7.12-50.76,37-101.75,16-27.27,37.88-46.44,38.1-46.63L137.34.33l-.78,1.92c-.11.29-11.65,29.63-11.76,87.33a191.82,191.82,0,0,0,7.64,52.76l-.95.31a193,193,0,0,1-7.69-53.07c.09-49.67,8.64-78.43,11.15-85.8-5.17,4.79-22.91,22-36.41,45C68.76,99.63,61.73,149.7,61.66,150.2Z"/><path class="cls-6" d="M137.14,1.33C135.85,2.42,118,26.16,114,43s.48,42.2,1.42,43.24S125,64,133.53,49.05,137.14,1.33,137.14,1.33Z"/><path class="cls-2" d="M115.29,86.84,115,86.6c-1.29-1.41-5.48-27.31-1.54-43.69,4.06-16.85,21.94-40.79,23.34-42l.69-.58.13.88c.2,1.35,4.84,33.07-3.68,48.05-4.57,8-9.23,18.55-12.63,26.24-4,9.15-5,11.13-5.78,11.25Zm21.5-84.38c-3.56,4.33-18.66,25.42-22.33,40.68-3.76,15.59-.12,38.51,1.12,42.33.85-1.34,2.79-5.73,4.84-10.34,3.41-7.7,8.08-18.25,12.67-26.33C140.58,35.64,137.53,8.19,136.79,2.46Z"/></g></g></svg>