<svg xmlns="http://www.w3.org/2000/svg" viewBox="0 0 136.07 291.83"><defs><style>.cls-1{fill:#fdfbef;}.cls-2{fill:#213043;}.cls-3{fill:#5292ad;}.cls-4{fill:#feb73b;}.cls-5{fill:#2b3044;}</style></defs><g id="Слой_2" data-name="Слой 2"><g id="Layer_1" data-name="Layer 1"><path class="cls-1" d="M83.17,78.37s28.17,10.28,37.71,21.11-.66,15.93-18.51,5.81A79.65,79.65,0,0,1,75.59,80.42S65.08,69.56,83.17,78.37Z"/><path class="cls-2" d="M118.57,111.27c-3.89,0-9.47-1.59-16.45-5.55a81.1,81.1,0,0,1-26.93-25c-1-1-4-4.31-2.91-5.74.62-.85,2.44-1.29,11.08,2.92,1.47.54,28.44,10.51,37.89,21.24,3.68,4.17,4.73,7.87,2.89,10.13C123.13,110.52,121.25,111.27,118.57,111.27ZM73.7,75.42c-.46,0-.58.12-.61.16-.33.46,1,2.6,2.86,4.49l.07.09a79.76,79.76,0,0,0,26.59,24.69c10.72,6.08,18.55,6.51,20.76,3.8,1.5-1.85.45-5.07-2.87-8.84C111.16,89.2,83.27,78.94,83,78.84l0,0C77,75.94,74.65,75.42,73.7,75.42Z"/><path class="cls-1" d="M55.62,83.86s-19.63,23-33,28.08S8.25,105.58,24,92.34A78.71,78.71,0,0,1,56.48,76S70.24,69.91,55.62,83.86Z"/><path class="cls-2" d="M17,113.68c-2.11,0-3.66-.7-4.48-2.09-2.37-4,2.23-12.1,11.19-19.63A80.21,80.21,0,0,1,56.33,75.47c1.3-.56,5.35-2.17,6.32-.71.58.88.35,2.74-6.67,9.44-1,1.19-19.93,23.13-33.19,28.21A16.77,16.77,0,0,1,17,113.68ZM61.21,75.14a13.87,13.87,0,0,0-4.53,1.27l-.1,0A79.13,79.13,0,0,0,24.32,92.72c-9.56,8-12.75,15.33-11,18.36,1.18,2,4.49,2.15,9.07.39,13.1-5,32.61-27.71,32.81-27.94l0,0c7.13-6.79,6.63-8,6.55-8.18S61.52,75.14,61.21,75.14Z"/><path class="cls-1" d="M51,75.78S22,83.22,8.11,79.66-.09,66.1,20.28,64.38A78.11,78.11,0,0,1,56.16,69.8S70.85,72.83,51,75.78Z"/><path class="cls-2" d="M17.6,81.13a39.44,39.44,0,0,1-9.61-1c-5.31-1.36-8.22-3.8-8-6.7.39-4.65,8.71-8.58,20.23-9.55a79.52,79.52,0,0,1,36.08,5.43c1.39.29,5.62,1.32,5.57,3.09,0,1-1.28,2.44-10.79,3.86C49.89,76.58,31.81,81.13,17.6,81.13Zm9-16.51c-2,0-4.14.08-6.29.26C8,65.92,1.3,70,1,73.53c-.2,2.35,2.44,4.41,7.23,5.64,13.58,3.5,42.35-3.8,42.64-3.88h0c9.65-1.43,10-2.76,10-2.9,0-.57-2.29-1.57-4.84-2.09l-.11,0A77.66,77.66,0,0,0,26.62,64.62Z"/><path class="cls-1" d="M51.18,65.87s-28.67-8.75-38.77-19-.18-15.91,18.17-6.76A79.46,79.46,0,0,1,58.63,63.43S69.71,73.69,51.18,65.87Z"/><path class="cls-2" d="M60.63,69.3c-1.48,0-4.25-.69-9.62-3-1.49-.45-28.95-9-38.95-19.15-3.89-4-5.14-7.58-3.43-9.94,2.3-3.17,10-3.66,22.17,2.38A81,81,0,0,1,59,63.1c1.05,1,4.17,4.08,3.22,5.56C62,69,61.59,69.3,60.63,69.3ZM14.83,36c-2.68,0-4.54.68-5.39,1.86-1.39,1.92-.18,5.07,3.33,8.65C22.66,56.56,51,65.31,51.33,65.39l.05,0c9,3.79,9.93,2.83,10,2.71.31-.48-1.17-2.54-3.1-4.32l-.07-.09A80,80,0,0,0,30.36,40.52C23.93,37.32,18.58,36,14.83,36Z"/><path class="cls-1" d="M55.18,55.92S34.94,33.51,31.45,19.43s7.85-13.77,19,3.62A81.34,81.34,0,0,1,62.81,57.69S67.16,72.26,55.18,55.92Z"/><path class="cls-2" d="M62.71,64.18c-1.12,0-3.14-1.43-7.92-7.94C53.74,55.07,34.43,33.5,31,19.55c-1.34-5.42-.59-9.18,2.06-10.32,3.57-1.54,10.48,2,17.87,13.55A82.86,82.86,0,0,1,63.3,57.6c.41,1.38,1.53,5.67,0,6.45A1.21,1.21,0,0,1,62.71,64.18ZM34.76,9.89a3.42,3.42,0,0,0-1.35.26c-2.12.92-2.67,4.34-1.48,9.16C35.36,33.1,55.35,55.36,55.55,55.59l0,0c5.81,7.92,7.11,7.59,7.24,7.53.5-.25.27-2.79-.49-5.33l0-.1A81.43,81.43,0,0,0,50,23.32C44.16,14.17,38.27,9.89,34.76,9.89Z"/><path class="cls-1" d="M63.43,51.51s-5.15-30-.62-43.73S76.72.48,76.9,21.25a81.38,81.38,0,0,1-8,35.93S64.85,71.83,63.43,51.51Z"/><path class="cls-2" d="M66,62.79h-.11c-1.1-.11-2.32-1.53-3-11.21-.26-1.55-5.08-30.29-.6-43.94,1.73-5.26,4.34-8,7.16-7.58,4.56.71,7.81,9.42,7.91,21.19a82.93,82.93,0,0,1-8,36.13C68.91,59.06,67.68,62.79,66,62.79ZM68.91,1c-2.14,0-4.17,2.49-5.63,6.94-4.43,13.5.59,43.19.64,43.49v0c.69,9.89,2,10.3,2.1,10.32.59.06,1.7-2.21,2.41-4.74l0-.11A81.77,81.77,0,0,0,76.4,21.25C76.29,8.68,72.76,1.57,69.33,1A3,3,0,0,0,68.91,1Z"/><path class="cls-1" d="M72,53.85S82.13,25.23,92.78,15.54s15.65.66,5.68,18.79A79.83,79.83,0,0,1,74,61.53S63.33,72.22,72,53.85Z"/><path class="cls-2" d="M69.39,65.11a1.2,1.2,0,0,1-.7-.2c-.91-.64-1.29-2.48,2.85-11.25.52-1.48,10.35-28.88,20.91-38.49,4-3.68,7.64-4.78,9.88-3C106,15,104.57,24.25,98.9,34.57A81.34,81.34,0,0,1,74.32,61.93C73.46,62.79,71,65.11,69.39,65.11ZM99.83,12.32c-1.79,0-4.12,1.23-6.71,3.59C82.68,25.41,72.58,53.73,72.48,54l0,.05c-4.23,9-3.31,10-3.2,10,.46.32,2.55-1.07,4.4-2.91l.08-.07A80.1,80.1,0,0,0,98,34.09c6-11,6.44-19,3.68-21.15A3,3,0,0,0,99.83,12.32Z"/><path class="cls-1" d="M79.84,59.22s22-20.67,35.8-24.3,13.6,7.9-3.47,19.33A78.42,78.42,0,0,1,78.14,67S63.82,71.48,79.84,59.22Z"/><path class="cls-2" d="M73.91,68.29c-.93,0-1.72-.2-2-.79-.49-.94-.06-2.77,7.63-8.66,1.15-1.07,22.28-20.8,36-24.4,5.27-1.38,9-.67,10.15,2,1.92,4.26-3.51,11.78-13.21,18.28A79.87,79.87,0,0,1,78.23,67.48,16.62,16.62,0,0,1,73.91,68.29Zm46.37-33.55a18.38,18.38,0,0,0-4.51.66C102.2,39,80.4,59.38,80.18,59.59l0,0c-7.8,6-7.44,7.29-7.37,7.42.26.49,2.75.24,5.22-.53l.11,0a78.7,78.7,0,0,0,33.8-12.65c10.35-6.94,14.3-13.83,12.85-17C124.13,35.43,122.57,34.74,120.28,34.74Z"/><path class="cls-1" d="M85.29,68.38s29.44-5.54,43-1.09,7.34,14.06-13.1,14.45A78.23,78.23,0,0,1,79.76,74S65.29,70,85.29,68.38Z"/><path class="cls-2" d="M113.8,82.26a79.62,79.62,0,0,1-34.22-7.78C78.2,74.09,74,72.79,74.21,71c.09-1,1.43-2.36,11-3.15,1.53-.29,29.78-5.48,43.27-1.07,5.22,1.71,8,4.34,7.53,7.21-.69,4.62-9.23,8-20.78,8.22Zm0-16.2a180.94,180.94,0,0,0-28.47,2.81h0c-9.72.81-10.11,2.11-10.13,2.26,0,.56,2.19,1.71,4.69,2.4l.11,0a78.33,78.33,0,0,0,35.22,7.67c12.32-.24,19.29-3.89,19.82-7.36.35-2.35-2.15-4.58-6.86-6.12C124.35,66.51,119.22,66.06,113.85,66.06Z"/><path class="cls-3" d="M65.1,81.45c.08.74-2.22,68.35-1.46,112.08s7.68,95.59,8.67,96.48,3.07.74,1.5-4.78-5.12-43-7.37-105.32S67.92,76.37,67.92,76.37Z"/><path class="cls-2" d="M73.27,290.91a2,2,0,0,1-1.29-.53c-1.2-1.08-8.1-54-8.84-96.84-.62-35.42.76-86,1.28-105,.11-3.94.19-6.79.18-7v-.14l.07-.14,4-7.14-.22,2.35c0,.42-3.69,41.92-1.47,103.48,2.32,64.22,5.93,100.21,7.35,105.2.87,3.07.78,5-.28,5.62A1.37,1.37,0,0,1,73.27,290.91Zm-.58-1.23a.77.77,0,0,0,.79.18c.1-.06.92-.71-.15-4.5-1.72-6.05-5.25-46.06-7.39-105.43-1.92-53.42.57-91.77,1.29-101.3L65.6,81.57c0,.52,0,2.18-.18,7-.52,19-1.9,69.6-1.28,105C64.88,236.28,71.62,287.18,72.69,289.68Z"/><path class="cls-1" d="M75.63,85.79S92.43,111,93.18,125.74s-11.24,13.06-19.46-6a76.46,76.46,0,0,1-5.83-36.71S66.33,67.73,75.63,85.79Z"/><path class="cls-2" d="M88.12,136.08c-4.1,0-10-4.79-14.85-16.1a77.83,77.83,0,0,1-5.89-36.91c-.14-1.47-.43-6,1.39-6.52,1.07-.33,2.87.41,7.29,9,.89,1.33,16.87,25.57,17.62,40.18.3,5.78-1.33,9.51-4.47,10.25A4.86,4.86,0,0,1,88.12,136.08Zm-19-58.59h-.09c-.7.21-.91,3.08-.67,5.52v.12a76.67,76.67,0,0,0,5.8,36.44C79.27,131.35,85.42,135.82,89,135c2.62-.61,4-4,3.7-9.22-.74-14.43-17.3-39.45-17.47-39.7l0,0C71.14,78.17,69.56,77.49,69.14,77.49Z"/><path class="cls-1" d="M65.8,86.88s-4.84,30-13.91,41.4-16.22,2-9.5-17.65a77.79,77.79,0,0,1,19.85-31S71.14,67.24,65.8,86.88Z"/><path class="cls-2" d="M44.66,133.69a4,4,0,0,1-2-.51c-4.23-2.31-4.53-11.65-.74-22.71a79.26,79.26,0,0,1,19.95-31.2c.85-1.17,3.56-4.67,5.2-3.89,1,.47,1.77,2.21-.78,11.61-.25,1.56-5,30.33-14,41.6C49.63,131.93,47,133.69,44.66,133.69ZM66.5,76.26c-.73,0-2.55,1.83-3.85,3.64l-.08.08a78.2,78.2,0,0,0-19.71,30.81c-4,11.81-2.92,19.76.28,21.52,2.17,1.19,5.22-.4,8.36-4.34C60.38,116.83,65.26,87.1,65.31,86.8v0c2.54-9.34,1.54-10.36,1.32-10.46A.32.32,0,0,0,66.5,76.26Z"/><path class="cls-4" d="M63.26,83.27c-6.29-1.76-9.89-8.69-8-15.48s8.44-10.85,14.72-9.09,9.89,8.69,8,15.48S69.54,85,63.26,83.27Z"/><path class="cls-2" d="M66.24,84.18a11.4,11.4,0,0,1-3.12-.43c-6.54-1.83-10.31-9-8.39-16.09a13.61,13.61,0,0,1,6.32-8.28,11.76,11.76,0,0,1,9-1.16c6.54,1.84,10.3,9,8.39,16.09a13.61,13.61,0,0,1-6.32,8.28A11.93,11.93,0,0,1,66.24,84.18ZM67,58.79a10.88,10.88,0,0,0-5.41,1.46,12.62,12.62,0,0,0-5.85,7.67c-1.77,6.51,1.69,13.18,7.7,14.87h0a10.77,10.77,0,0,0,8.26-1.07,12.65,12.65,0,0,0,5.85-7.67c1.77-6.51-1.69-13.18-7.7-14.87A10.64,10.64,0,0,0,67,58.79Z"/><path class="cls-3" d="M74.29,290.44c-.84,1.64-1.88,1.12-2.19-2.51-1.42-17.1,1.77-69.8,8.29-95.05,7.91-30.61,38.22-80.68,40.36-79.69,3.78,1.74-23.43,63.15-27.53,102S75.12,288.8,74.29,290.44Z"/><path class="cls-2" d="M73.37,291.83l-.19,0c-.86-.17-1.37-1.42-1.57-3.83-1.5-18,2-70.72,8.3-95.23,7.56-29.27,36.58-78.17,40.39-80a.78.78,0,0,1,.66,0c1.8.83-.22,7.29-6.95,27.07-7.54,22.17-17.88,52.54-20.3,75.47-4,37.69-17.56,72.62-19,75.4h0C74.26,291.59,73.76,291.83,73.37,291.83Zm47.21-178.08c-3.9,2.48-32.06,49.66-39.7,79.25-6.31,24.42-9.77,77-8.28,94.89.19,2.23.64,2.88.78,2.94a1.48,1.48,0,0,0,.46-.62c1.41-2.75,14.92-37.5,18.88-75,2.43-23,12.78-53.47,20.35-75.69C117.26,127.13,121.24,115.46,120.58,113.75Z"/><path class="cls-3" d="M72.61,290.74c-.42.31-2.1-1.61-4.3-4.48C58,272.7,39,232,31,207.22c-4.25-13.06-10.09-37.38-13.81-55-4.82-22.88-12.82-38.88-11.51-39.09,4.1-.63,21.81,30.47,34.39,74.15C50.83,224.85,72.61,290.74,72.61,290.74Z"/><path class="cls-2" d="M72.5,291.3c-.59,0-1.63-.88-4.58-4.74-10.07-13.16-29-53.13-37.45-79.18-4.3-13.23-10.18-37.79-13.82-55A232.45,232.45,0,0,0,7.1,120.17C5.22,115,4.74,113.6,5.1,113a.63.63,0,0,1,.45-.31c5-.79,23,33,35,74.5,10.68,37.09,32.37,102.75,32.59,103.41l.11.34-.29.22A.69.69,0,0,1,72.5,291.3ZM6,113.68a56.26,56.26,0,0,0,2,6.15,232.18,232.18,0,0,1,9.59,32.32c3.63,17.2,9.5,41.73,13.79,54.92C39.88,233,58.7,272.85,68.71,286a43.71,43.71,0,0,0,3,3.62C68.55,280,49.38,221.63,39.54,187.46,27.27,144.84,10.17,114.65,6,113.68Z"/><path class="cls-5" d="M73.78,291.38l-1-.13c.06-.48,6.12-48.15,8.58-67.16s9.35-44.68,14.6-58.6c5.08-13.47,15.36-34.09,15.47-34.29l.89.44c-.1.21-10.36,20.78-15.42,34.2-5.24,13.87-12.11,39.49-14.55,58.38S73.84,290.9,73.78,291.38Z"/><path class="cls-5" d="M71.88,290.25c-.23-.39-22.6-40.11-32.62-75.21-2.18-7.67-4.6-16.68-7.17-26.22-5.18-19.3-10.54-39.25-13.69-46.72l.92-.39c3.18,7.53,8.55,27.52,13.74,46.85,2.56,9.53,5,18.54,7.17,26.21,10,35,32.29,74.6,32.52,75Z"/></g></g></svg>