<svg xmlns="http://www.w3.org/2000/svg" viewBox="0 0 25.7 27.63"><defs><style>.cls-1{fill:#5292ad;}.cls-2{fill:#213043;}</style></defs><g id="Слой_2" data-name="Слой 2"><g id="Layer_1" data-name="Layer 1"><path class="cls-1" d="M13.31,25.85A17.29,17.29,0,0,0,1.62,14.37c5.87-2,9.6-6,10.67-12.57C14.76,7.68,18.37,11.92,24,13.28,18.58,15.26,14.87,19.27,13.31,25.85Z"/><path class="cls-2" d="M13.39,27.63,12.83,26A16.71,16.71,0,0,0,1.47,14.84L0,14.38l1.46-.49c5.94-2,9.32-6,10.34-12.17L12.08,0l.67,1.61c2.65,6.32,6.37,10,11.35,11.18l1.6.39-1.55.57c-5.49,2-8.88,6-10.36,12.21ZM3.09,14.35a17.55,17.55,0,0,1,10.13,9.89,16.73,16.73,0,0,1,9.25-10.88c-4.24-1.46-7.53-4.73-10-9.93A15.05,15.05,0,0,1,3.09,14.35Z"/></g></g></svg>