<svg xmlns="http://www.w3.org/2000/svg" viewBox="0 0 244.32 218.31"><defs><style>.cls-1{fill:#feb73b;}.cls-2{fill:#213043;}.cls-3{fill:#2b3044;}.cls-4{fill:#fdfbef;}.cls-5{fill:#ff7e48;}.cls-6{fill:#5292ad;}.cls-7{fill:#f789b6;}</style></defs><g id="Слой_2" data-name="Слой 2"><g id="Layer_1" data-name="Layer 1"><path class="cls-1" d="M180,93.7c0,31-25.65,56.13-57.29,56.13S65.39,124.7,65.39,93.7,91,37.58,122.68,37.58,180,62.7,180,93.7Z"/><path class="cls-2" d="M122.68,150.33c-31.87,0-57.79-25.4-57.79-56.63s25.92-56.62,57.79-56.62,57.79,25.4,57.79,56.62S154.54,150.33,122.68,150.33Zm0-112.25c-31.32,0-56.79,25-56.79,55.62s25.47,55.63,56.79,55.63,56.79-25,56.79-55.63S154,38.08,122.68,38.08Z"/><ellipse class="cls-3" cx="98.08" cy="81.09" rx="11.99" ry="13.81"/><path class="cls-3" d="M157.22,79.89c0,7.63-5.37,13.81-12,13.81s-12-6.18-12-13.81,5.37-13.81,12-13.81S157.22,72.26,157.22,79.89Z"/><path class="cls-4" d="M98.08,76c0,2.81-1.94,5.08-4.32,5.08S89.45,78.82,89.45,76s1.93-5.08,4.31-5.08S98.08,73.21,98.08,76Z"/><ellipse class="cls-4" cx="139.85" cy="76.01" rx="4.31" ry="5.08"/><path class="cls-3" d="M123.15,125.61c-.54,0-1.09,0-1.66,0-16.68-1-22.27-12.82-22.32-12.94l.91-.42c0,.12,5.41,11.38,21.47,12.36s23.66-13.17,23.74-13.31l.88.46C146.1,111.85,138.73,125.61,123.15,125.61Z"/><path class="cls-5" d="M180.21,49.07a8.31,8.31,0,0,0-3.56-14.83,8,8,0,0,0-3.5.23,8.13,8.13,0,0,0-15.73.58,7.9,7.9,0,0,0-2.24-.69A8.3,8.3,0,0,0,148.72,49,8.3,8.3,0,0,0,153,63.2a7.94,7.94,0,0,0,3.86-.34,8.14,8.14,0,0,0,15.78.36,7.1,7.1,0,0,0,.8.17,8.22,8.22,0,0,0,9.35-6.92A8.32,8.32,0,0,0,180.21,49.07Zm-18,4a8.19,8.19,0,0,0-2.76-4.47,8.34,8.34,0,0,0,2.39-4.14,7.9,7.9,0,0,0,2.24.69,8,8,0,0,0,3.5-.22,8.25,8.25,0,0,0,2.29,3.63,8.23,8.23,0,0,0-3,4.34,7.1,7.1,0,0,0-.8-.17A8.09,8.09,0,0,0,162.2,53.07Z"/><path class="cls-2" d="M164.74,69.7a8.4,8.4,0,0,1-1.32-.11,8.63,8.63,0,0,1-6.94-6.09,8.86,8.86,0,0,1-3.59.2,8.52,8.52,0,0,1-5.65-3.5,8.74,8.74,0,0,1-1.54-6.52A8.83,8.83,0,0,1,148,49a8.86,8.86,0,0,1-2.65-7.79,8.73,8.73,0,0,1,9.92-7.33,8.85,8.85,0,0,1,1.83.5,8.74,8.74,0,0,1,9.63-6.07,8.59,8.59,0,0,1,6.75,5.58,8.52,8.52,0,0,1,3.26-.12A8.81,8.81,0,0,1,181,49.11a8.88,8.88,0,0,1-1.17,13.18,8.57,8.57,0,0,1-6.45,1.6l-.39-.08A8.74,8.74,0,0,1,164.74,69.7Zm-7.55-7.49.13.54a7.63,7.63,0,0,0,14.81.33l.13-.47.48.13c.25.06.49.12.75.16a7.55,7.55,0,0,0,5.7-1.41,7.86,7.86,0,0,0,.68-12.05l-.44-.41.48-.36a7.8,7.8,0,0,0-3.34-13.93,7.28,7.28,0,0,0-3.28.21l-.48.14-.14-.47a7.62,7.62,0,0,0-6.11-5.34,7.74,7.74,0,0,0-8.66,5.89l-.14.6-.56-.27a7.32,7.32,0,0,0-2.1-.65,7.72,7.72,0,0,0-8.77,6.5A7.83,7.83,0,0,0,149,48.58l.43.36-.41.39a7.88,7.88,0,0,0-1,10.29,7.56,7.56,0,0,0,8.62,2.77Zm4.65-8.49-.13-.54a7.8,7.8,0,0,0-2.59-4.2l-.44-.36.41-.39a7.67,7.67,0,0,0,2.25-3.89l.15-.6.56.27a8.05,8.05,0,0,0,2.09.65,7.61,7.61,0,0,0,3.29-.21l.48-.14.14.47a7.62,7.62,0,0,0,2.15,3.41l.44.41-.48.36A7.78,7.78,0,0,0,167.35,53l-.14.47-.47-.12a6.24,6.24,0,0,0-.75-.16,7.45,7.45,0,0,0-3.63.31Zm-1.67-5.14a8.82,8.82,0,0,1,2.38,3.86,8.53,8.53,0,0,1,3.59-.2l.39.07a8.92,8.92,0,0,1,2.58-3.79,8.51,8.51,0,0,1-1.86-3,8.52,8.52,0,0,1-3.26.12,8.85,8.85,0,0,1-1.83-.5A9,9,0,0,1,160.17,48.58Z"/><path class="cls-1" d="M171.47,50.64a6.9,6.9,0,1,1-5.73-8A6.95,6.95,0,0,1,171.47,50.64Z"/><path class="cls-2" d="M164.63,57.07a7.34,7.34,0,0,1-6-3.08,7.38,7.38,0,1,1,6,3.08Zm.05-14a6.54,6.54,0,0,0-5.2,10.34A6.3,6.3,0,0,0,163.65,56a6.5,6.5,0,1,0,1-12.92Z"/><path class="cls-6" d="M91.4,45.91a8.53,8.53,0,0,0,2.41-6,8.44,8.44,0,0,0-8.38-8.5,8.14,8.14,0,0,0-3.52.79A8.36,8.36,0,0,0,66,35.32a8.5,8.5,0,0,0-6.6,15.5,8.53,8.53,0,0,0-1.8,5.26A8.44,8.44,0,0,0,66,64.59a8.26,8.26,0,0,0,3.86-1,8.35,8.35,0,0,0,16.06-2.15,7.87,7.87,0,0,0,.84,0A8.54,8.54,0,0,0,91.4,45.91ZM73.77,52.84a8.51,8.51,0,0,0-3.52-4.1A8.46,8.46,0,0,0,72,44.16a8.25,8.25,0,0,0,5.9-.44A8.39,8.39,0,0,0,80.82,47a8.44,8.44,0,0,0-2.34,4.89,7.92,7.92,0,0,0-.85,0A8.23,8.23,0,0,0,73.77,52.84Z"/><path class="cls-2" d="M77.63,69.39a8.84,8.84,0,0,1-8-5.08,8.82,8.82,0,0,1-3.62.78,9,9,0,0,1-8.88-9A9.16,9.16,0,0,1,58.72,51a9.05,9.05,0,0,1-3.93-7.47,9,9,0,0,1,8.88-9,9.09,9.09,0,0,1,1.94.22A9,9,0,0,1,74.4,27a8.79,8.79,0,0,1,7.73,4.58,8.85,8.85,0,0,1,3.3-.64,9,9,0,0,1,6.71,14.9A9,9,0,0,1,86.78,62h-.41A8.93,8.93,0,0,1,77.63,69.39Zm-7.49-6.46.21.51a7.85,7.85,0,0,0,7.28,5,7.93,7.93,0,0,0,7.82-7l.06-.49L86,61a6.79,6.79,0,0,0,.78,0,8,8,0,0,0,4.34-14.69l-.5-.34.42-.43a8,8,0,0,0-5.61-13.62,7.73,7.73,0,0,0-3.31.74l-.45.21-.21-.44A7.82,7.82,0,0,0,74.4,28a8,8,0,0,0-7.86,7.36l-.05.62-.59-.18a7.62,7.62,0,0,0-2.23-.33,8,8,0,0,0-7.88,8,8.05,8.05,0,0,0,3.9,6.91l.49.29-.35.45a8.05,8.05,0,0,0-1.69,4.95,7.86,7.86,0,0,0,11.51,7.11Zm3.37-9.39L73.3,53A8,8,0,0,0,70,49.17l-.49-.29.35-.45a8,8,0,0,0,1.66-4.31l0-.62.59.18a7.78,7.78,0,0,0,5.55-.41l.44-.21.22.44a8,8,0,0,0,2.72,3.13l.5.33-.42.43A8.05,8.05,0,0,0,79,52l-.06.49-.49-.06a7.84,7.84,0,0,0-4.42.86ZM71,48.61a9,9,0,0,1,3,3.55,8.85,8.85,0,0,1,4-.77,9,9,0,0,1,2-4.27,9,9,0,0,1-2.38-2.75,8.78,8.78,0,0,1-5.24.42A8.9,8.9,0,0,1,71,48.61Z"/><path class="cls-1" d="M82.78,48.9a7.08,7.08,0,1,1-7.08-7.19A7.13,7.13,0,0,1,82.78,48.9Z"/><path class="cls-2" d="M75.7,56.58a7.69,7.69,0,1,1,7.58-7.68A7.64,7.64,0,0,1,75.7,56.58Zm0-14.37a6.69,6.69,0,1,0,6.58,6.69A6.64,6.64,0,0,0,75.7,42.21Z"/><path class="cls-7" d="M121.46,57.64a13.8,13.8,0,0,0,9.4,4.29,13.48,13.48,0,0,0,14.28-12.64,12.88,12.88,0,0,0-1-5.65,13.29,13.29,0,0,0,8.16-11.55A13.46,13.46,0,0,0,140.4,18.22a12.87,12.87,0,0,0,.74-3.74,13.49,13.49,0,0,0-13-14,13.69,13.69,0,0,0-12.09,6,13.83,13.83,0,0,0-8.31-3.26A13.5,13.5,0,0,0,93.45,15.91a13.13,13.13,0,0,0,1.24,6.21,13.25,13.25,0,0,0,2.23,25.66,11.75,11.75,0,0,0-.14,1.33,13.49,13.49,0,0,0,13,14A13.74,13.74,0,0,0,121.46,57.64Zm-9.75-28.52a13.55,13.55,0,0,0,6.84-5.26A13.7,13.7,0,0,0,125.76,27a13.06,13.06,0,0,0,.25,9.4,13.42,13.42,0,0,0-5.55,4.34,13.57,13.57,0,0,0-7.65-4.09,11.69,11.69,0,0,0,.14-1.34A13,13,0,0,0,111.71,29.12Z"/><path class="cls-2" d="M110.47,63.58h-.71A14,14,0,0,1,96.28,49.08c0-.3,0-.6.08-.9A13.93,13.93,0,0,1,85.16,34,13.76,13.76,0,0,1,94,21.84,13.62,13.62,0,0,1,93,15.89,14,14,0,0,1,107.76,2.77a14.54,14.54,0,0,1,8.19,3A14.27,14.27,0,0,1,128.16,0,14,14,0,0,1,141.64,14.5a13.21,13.21,0,0,1-.58,3.31,14,14,0,0,1,11.75,14.3,13.67,13.67,0,0,1-8,11.79,13.3,13.3,0,0,1,.85,5.41,14,14,0,0,1-14.81,13.12,14.24,14.24,0,0,1-9.32-4A14.24,14.24,0,0,1,110.47,63.58ZM107.06,3.75A13,13,0,0,0,94,15.94a12.55,12.55,0,0,0,1.2,6l.24.5-.53.18A12.81,12.81,0,0,0,86.15,34,12.94,12.94,0,0,0,97,47.28l.49.09-.08.49a10.71,10.71,0,0,0-.13,1.27,13,13,0,0,0,12.53,13.44,13.26,13.26,0,0,0,11.25-5.23l.36-.48.41.43a13.24,13.24,0,0,0,9,4.14,13,13,0,0,0,13.76-12.17,12.48,12.48,0,0,0-.95-5.43l-.19-.46.46-.19a12.72,12.72,0,0,0,7.86-11.11,13,13,0,0,0-11.48-13.35l-.62-.08.21-.59a12.51,12.51,0,0,0,.71-3.6A13,13,0,0,0,128.12,1a13.27,13.27,0,0,0-11.66,5.79l-.31.47-.43-.37a13.38,13.38,0,0,0-8-3.14Zm13.45,37.78-.41-.43a13.25,13.25,0,0,0-7.37-3.94l-.49-.08.08-.49a11.1,11.1,0,0,0,.13-1.28,12.54,12.54,0,0,0-1.19-6l-.24-.51.52-.18a13.09,13.09,0,0,0,6.59-5.07l.32-.46.42.36a13.23,13.23,0,0,0,6.95,3l.62.08-.21.59a12.64,12.64,0,0,0-.71,3.61,12.5,12.5,0,0,0,1,5.43l.2.46-.46.19a13,13,0,0,0-5.35,4.18Zm-7.14-5.26a14.18,14.18,0,0,1,7,3.73,13.94,13.94,0,0,1,5-3.84,13.48,13.48,0,0,1-.85-5.41,13.76,13.76,0,0,1,.58-3.32,14.24,14.24,0,0,1-6.45-2.84,14.23,14.23,0,0,1-6.27,4.82,13.47,13.47,0,0,1,1.07,5.95C113.43,35.66,113.41,36,113.37,36.27Z"/><path class="cls-6" d="M117.34,43.73a11.25,11.25,0,1,1,12.07-10.68A11.4,11.4,0,0,1,117.34,43.73Z"/><path class="cls-2" d="M117.92,44.24h-.6a11.92,11.92,0,0,1-11.47-12.32,11.57,11.57,0,0,1,3.93-8.13,12.12,12.12,0,0,1,8.67-3,11.91,11.91,0,0,1,11.46,12.31A11.55,11.55,0,0,1,126,41.21,12.1,12.1,0,0,1,117.92,44.24Zm-.08-22.5a11.08,11.08,0,0,0-7.39,2.79,10.52,10.52,0,0,0-3.6,7.43,10.91,10.91,0,0,0,10.51,11.27,11.08,11.08,0,0,0,8-2.77A10.55,10.55,0,0,0,128.91,33,10.91,10.91,0,0,0,118.4,21.76Z"/><path class="cls-4" d="M17.71,38.2c-4.4-4.84-8-10.72-11-12.53C3,23.45-.41,24.91.72,30.21c.82,3.83,6.48,13.29,11,18,4,4.21,6.76,3.91,8.68,3.69C24.43,51.4,21.38,42.24,17.71,38.2Z"/><path class="cls-2" d="M18.81,52.5c-1.86,0-4.33-.61-7.5-4C6.89,43.9,1.09,34.35.23,30.31c-.74-3.49.47-5,1.26-5.52,1.35-1,3.4-.8,5.48.45s4,3.82,6.41,6.89c1.48,1.91,3,3.88,4.7,5.73h0c3,3.24,5.58,9.8,4.44,12.84a2.45,2.45,0,0,1-2.11,1.68A12.45,12.45,0,0,1,18.81,52.5ZM3.57,25.16a2.55,2.55,0,0,0-1.49.44c-1,.73-1.33,2.33-.87,4.5C2,33.94,7.79,43.4,12,47.86c3.85,4,6.4,3.75,8.26,3.53a1.48,1.48,0,0,0,1.3-1c.92-2.46-1.27-8.54-4.25-11.82h0c-1.71-1.87-3.26-3.86-4.75-5.79-2.33-3-4.34-5.57-6.13-6.64A5.82,5.82,0,0,0,3.57,25.16Z"/><path class="cls-4" d="M35.59,43.47C24.78,39.3,10.07,59.7,12.45,67.1s17.6,9.71,25.09-1.68S45,47.08,35.59,43.47Z"/><path class="cls-2" d="M23.3,73.8a16.84,16.84,0,0,1-2.17-.14C16.56,73,13.05,70.58,12,67.25,10.56,62.86,14.77,54.06,21.16,48c5.16-4.88,10.35-6.67,14.61-5h0c4,1.53,6.32,3.64,7.22,6.46,1.26,3.93-.34,9.09-5,16.24A17.38,17.38,0,0,1,23.3,73.8Zm9.21-30.4c-4.27,0-8.36,3.18-10.67,5.36-6,5.7-10.2,14.19-8.91,18.18,1,3,4.15,5.16,8.34,5.73a16.36,16.36,0,0,0,15.85-7.52c4.46-6.78,6.07-11.81,4.92-15.38-.8-2.52-3-4.42-6.63-5.84h0A8,8,0,0,0,32.51,43.4Z"/><path class="cls-4" d="M24.09,78.9s1.23,6.62,9.76,2.21S48.52,74.38,46.3,70s-9.88-.32-14,1.68S24.09,78.9,24.09,78.9Z"/><path class="cls-2" d="M28.73,83.13a5.48,5.48,0,0,1-2.39-.52A5.4,5.4,0,0,1,23.6,79l0-.22.14-.18c.16-.22,4.12-5.35,8.34-7.37l.77-.38c4.35-2.11,11.63-5.64,13.94-1.07a3.87,3.87,0,0,1,.33,3c-.85,2.6-4.67,4.52-10,7.19-1,.49-2,1-3,1.55A12.05,12.05,0,0,1,28.73,83.13ZM24.64,79a4.34,4.34,0,0,0,2.15,2.7c1.64.8,3.94.45,6.83-1,1.06-.55,2.08-1.06,3.05-1.55,4.88-2.47,8.74-4.41,9.46-6.62a2.85,2.85,0,0,0-.27-2.28c-1.87-3.69-8.59-.43-12.61,1.52l-.78.38C28.91,73.83,25.39,78.07,24.64,79Z"/><path class="cls-4" d="M30.72,38.66c-2.89-14.43-9.1-25.48-14.79-19.76-2.75,2.75,1.13,9,2.72,14.51,2.25,7.78,5,16.79,7.21,18C29.67,53.34,31.81,44.09,30.72,38.66Z"/><path class="cls-2" d="M26.89,52.14a2.72,2.72,0,0,1-1.26-.33C23.5,50.69,21.19,44,18.17,33.55c-.43-1.48-1-3-1.62-4.56-1.65-4.22-3.2-8.21-1-10.45A4.6,4.6,0,0,1,20.31,17c4.26,1.29,8.54,9.73,10.9,21.52.86,4.31-.19,11.08-2.79,13A2.54,2.54,0,0,1,26.89,52.14Zm-7.8-34.28a4,4,0,0,0-2.81,1.39c-1.76,1.77-.32,5.47,1.2,9.38.59,1.53,1.21,3.12,1.65,4.64,1.67,5.77,4.78,16.51,7,17.65a1.5,1.5,0,0,0,1.73-.13c2-1.53,3.27-7.71,2.41-12C28,27.5,23.87,19.16,20,18A3.33,3.33,0,0,0,19.09,17.86Z"/><path class="cls-4" d="M10.76,65.65c3.56,10.39,7.15,14.46,14.71,13S34,72.61,36,72.33s9.52-.29,11.42-4.58a19.11,19.11,0,0,0-4.91-21.62C34.26,38.26,28.24,42,22.49,43c-6.24,1-5.08,4.72-3.61,7.6C21.78,56.21,34,53.34,34,53.34Z"/><path class="cls-2" d="M22.81,79.46c-6.48,0-9.6-5.12-12.52-13.65l.94-.32c3.7,10.79,7.28,14,14.15,12.71a13.22,13.22,0,0,0,8.26-4.67c.81-.88,1.45-1.58,2.31-1.7.28,0,.67-.07,1.13-.11,2.72-.24,8.39-.74,9.9-4.17a18.66,18.66,0,0,0-4.79-21.06c-6.56-6.24-11.56-5-16.38-3.75-1.12.29-2.17.55-3.24.73-2.18.37-3.55,1.09-4.08,2.14-.7,1.39.08,3.26.84,4.74,2.68,5.22,14.43,2.53,14.55,2.5l.23,1c-.52.13-12.63,2.9-15.67-3-.87-1.69-1.75-3.85-.85-5.64.69-1.38,2.27-2.26,4.81-2.68,1-.18,2.07-.44,3.16-.72,4.86-1.23,10.36-2.62,17.32,4,7.7,7.32,7.52,16.53,5,22.18-1.76,4-7.82,4.51-10.73,4.76l-1.08.11c-.51.08-1,.66-1.72,1.39a14.27,14.27,0,0,1-8.8,5A15.4,15.4,0,0,1,22.81,79.46Z"/><path class="cls-4" d="M6.6,61.46C12.18,70,18,74,19.34,68.63S11.9,51.37,8.15,51.38,4.5,58.25,6.6,61.46Z"/><path class="cls-2" d="M16.91,71.57c-2.71,0-6.67-3.62-10.73-9.83h0c-1.67-2.56-2-6.81-.8-9.11a3,3,0,0,1,2.77-1.75h0C10.67,50.88,14,55,15,56.22c2.8,3.6,5.74,9,4.83,12.54-.53,2-1.63,2.64-2.46,2.77A2.32,2.32,0,0,1,16.91,71.57ZM8.16,51.88h0A2.06,2.06,0,0,0,6.26,53.1C5.2,55.05,5.57,59,7,61.19H7c4,6,8,9.72,10.18,9.35.79-.12,1.34-.81,1.66-2,.76-2.92-1.88-8.09-4.65-11.67C11.92,53.87,9.49,51.88,8.16,51.88Z"/><path class="cls-4" d="M9.63,52.81c5.25,8,13.38,15.35,14.69,10.3S16.61,45.24,13.09,45.25,7.65,49.79,9.63,52.81Z"/><path class="cls-2" d="M22.49,65.27c-3.34,0-9.27-6-13.28-12.18h0A5.73,5.73,0,0,1,9,47.3a4.62,4.62,0,0,1,4.05-2.55h0c2.12,0,5.06,3.49,6.23,5,3.24,4.19,6.34,10.19,5.48,13.49a2.38,2.38,0,0,1-1.91,2A2.6,2.6,0,0,1,22.49,65.27ZM10.05,52.54c4.41,6.75,10.21,12.09,12.68,11.72.2,0,.81-.14,1.11-1.27.73-2.81-2.2-8.6-5.31-12.63-2.18-2.8-4.31-4.61-5.44-4.61h0a3.58,3.58,0,0,0-3.17,2,4.71,4.71,0,0,0,.13,4.76Z"/><path class="cls-3" d="M34.69,73c-4.91,0-6.91-5.75-6.93-5.81l.95-.32c.08.24,2,5.76,6.82,5.06l.14,1A6.69,6.69,0,0,1,34.69,73Z"/><path class="cls-4" d="M226.49,41.13c4.46-4.78,8.09-10.62,11.15-12.4,3.74-2.17,7.13-.67,5.94,4.62-.87,3.82-6.65,13.21-11.18,17.86-4,4.15-6.8,3.82-8.72,3.57C219.61,54.25,222.77,45.12,226.49,41.13Z"/><path class="cls-2" d="M225.32,55.42a13.91,13.91,0,0,1-1.71-.14,2.49,2.49,0,0,1-2.09-1.71c-1.09-3,1.62-9.58,4.61-12.78h0c1.7-1.83,3.26-3.78,4.77-5.67,2.43-3,4.53-5.68,6.49-6.82s4.15-1.36,5.48-.38c.79.58,2,2.06,1.2,5.54-.92,4-6.83,13.5-11.31,18.1C229.61,54.8,227.17,55.42,225.32,55.42Zm15.43-27.15a5.84,5.84,0,0,0-2.86.9c-1.8,1-3.84,3.6-6.21,6.57-1.52,1.91-3.09,3.87-4.82,5.73-3,3.24-5.29,9.28-4.4,11.76a1.46,1.46,0,0,0,1.28,1.05c1.86.25,4.41.58,8.31-3.42,4.29-4.41,10.17-13.8,11-17.62.49-2.17.2-3.77-.81-4.51A2.52,2.52,0,0,0,240.75,28.27Z"/><path class="cls-4" d="M208.55,46.18c10.86-4,25.31,16.54,22.84,23.91s-17.72,9.49-25.06-2S199.14,49.67,208.55,46.18Z"/><path class="cls-2" d="M220.67,76.66a17.37,17.37,0,0,1-14.76-8.29c-4.61-7.2-6.15-12.38-4.84-16.3.94-2.8,3.33-4.88,7.31-6.36h0c4.27-1.59,9.43.26,14.54,5.21,6.31,6.11,10.41,15,8.94,19.33-1.11,3.31-4.65,5.73-9.24,6.29A15.35,15.35,0,0,1,220.67,76.66Zm-9.15-30.51a8.1,8.1,0,0,0-2.8.49h0c-3.67,1.37-5.87,3.25-6.7,5.75-1.19,3.56.36,8.61,4.73,15.44a16.33,16.33,0,0,0,15.75,7.72c4.2-.52,7.42-2.67,8.42-5.62,1.33-4-2.73-12.52-8.69-18.3C219.93,49.41,215.83,46.15,211.52,46.15Z"/><path class="cls-4" d="M219.6,81.74s-1.31,6.62-9.78,2.1-14.59-6.92-12.32-11.28,9.89-.2,14,1.85S219.6,81.74,219.6,81.74Z"/><path class="cls-2" d="M215,85.92a11.9,11.9,0,0,1-5.42-1.64c-1-.56-2.05-1.08-3-1.58-5.25-2.74-9.05-4.71-9.87-7.32a3.88,3.88,0,0,1,.37-3c2.37-4.54,9.6-.91,13.93,1.25l.76.39c4.19,2.07,8.09,7.25,8.25,7.47l.14.18,0,.22A5,5,0,0,1,215,85.92ZM201.05,71.16a3.2,3.2,0,0,0-3.1,1.63,2.94,2.94,0,0,0-.31,2.29c.7,2.21,4.53,4.21,9.39,6.73l3,1.59c2.87,1.52,5.17,1.91,6.82,1.13a4.42,4.42,0,0,0,2.19-2.68c-.75-.95-4.21-5.23-7.75-7l-.77-.38C207.84,73.13,203.91,71.16,201.05,71.16Z"/><path class="cls-4" d="M213.48,41.43c3.07-14.39,9.41-25.37,15-19.58,2.71,2.79-1.24,9-2.9,14.48-2.35,7.75-5.19,16.73-7.43,17.86C214.35,56.12,212.32,46.85,213.48,41.43Z"/><path class="cls-2" d="M217.17,55a2.55,2.55,0,0,1-1.56-.56c-2.57-2-3.54-8.77-2.62-13.06h0c2.51-11.76,6.89-20.16,11.17-21.39a4.56,4.56,0,0,1,4.71,1.56c2.19,2.26.6,6.23-1.1,10.44-.61,1.5-1.23,3.06-1.68,4.54-2.59,8.53-5.31,17-7.69,18.16A2.73,2.73,0,0,1,217.17,55ZM214,41.54c-.92,4.3.24,10.5,2.25,12.05a1.49,1.49,0,0,0,1.73.15c2.2-1.11,5.44-11.8,7.18-17.55.46-1.52,1.1-3.1,1.71-4.63,1.57-3.89,3-7.57,1.31-9.36a3.6,3.6,0,0,0-3.72-1.3C220.57,22,216.36,30.31,214,41.54Z"/><path class="cls-4" d="M233.1,68.66C229.41,79,225.77,83,218.22,81.52s-8.47-6.19-10.46-6.49-9.52-.41-11.36-4.72a19.12,19.12,0,0,1,5.17-21.56c8.37-7.77,14.34-3.93,20.09-2.9,6.21,1.12,5,4.79,3.51,7.64-3,5.6-15.15,2.57-15.15,2.57Z"/><path class="cls-2" d="M221,82.32a14.56,14.56,0,0,1-2.9-.31,14.31,14.31,0,0,1-8.75-5.08c-.67-.74-1.19-1.33-1.7-1.41-.27,0-.64-.08-1.09-.12-2.9-.29-9-.91-10.65-4.89-2.43-5.69-2.5-14.9,5.29-22.13,7-6.53,12.53-5.07,17.37-3.77,1.09.29,2.11.56,3.14.75,2.54.45,4.11,1.35,4.78,2.74.88,1.8,0,3.95-.91,5.63-3.11,5.87-15.2,3-15.71,2.82l.24-1c.12,0,11.84,2.86,14.58-2.32.78-1.47,1.58-3.33.9-4.73-.52-1.06-1.88-1.8-4.05-2.19-1.07-.19-2.12-.47-3.23-.77-4.81-1.28-9.79-2.61-16.43,3.55a18.66,18.66,0,0,0-5,21c1.47,3.45,7.12,4,9.84,4.29l1.13.13c.86.14,1.5.84,2.29,1.73a13.28,13.28,0,0,0,8.2,4.77c6.86,1.37,10.47-1.79,14.31-12.53l.94.33C230.56,77.26,227.41,82.32,221,82.32Z"/><path class="cls-4" d="M237.31,64.53c-5.69,8.47-11.5,12.39-12.83,7s7.66-17.17,11.4-17.11S239.45,61.34,237.31,64.53Z"/><path class="cls-2" d="M226.91,74.5a2.63,2.63,0,0,1-.49,0c-.83-.14-1.92-.75-2.43-2.8-.86-3.5,2.14-8.91,5-12.48,1-1.24,4.42-5.24,6.92-5.25a3,3,0,0,1,2.75,1.78c1.22,2.31.79,6.57-.91,9.1C233.61,71,229.62,74.5,226.91,74.5Zm8.94-19.57c-1.33,0-3.77,2-6.1,4.88-2.81,3.53-5.51,8.68-4.79,11.61.31,1.23.85,1.92,1.63,2.06,2.23.39,6.28-3.23,10.31-9.23h0c1.47-2.19,1.89-6.11.86-8.08a2.08,2.08,0,0,0-1.88-1.24Z"/><path class="cls-4" d="M234.39,55.84C229,63.8,220.82,71,219.57,66S227.51,48.18,231,48.23,236.4,52.85,234.39,55.84Z"/><path class="cls-2" d="M221.41,68.14a3,3,0,0,1-.43,0,2.38,2.38,0,0,1-1.89-2c-.82-3.31,2.35-9.27,5.65-13.42,1.18-1.48,4.15-4.93,6.26-4.93h0a4.63,4.63,0,0,1,4,2.61,5.71,5.71,0,0,1-.25,5.78h0C230.73,62.19,224.75,68.14,221.41,68.14ZM231,48.73c-1.13,0-3.28,1.79-5.48,4.55-3.25,4.09-6.17,9.71-5.46,12.56.28,1.14.89,1.25,1.09,1.28,2.42.42,8.33-4.86,12.82-11.56h0a4.68,4.68,0,0,0,.19-4.76A3.6,3.6,0,0,0,231,48.73Z"/><path class="cls-3" d="M209.15,75.74a6.35,6.35,0,0,1-1.05-.08l.16-1c4.81.77,6.86-4.92,6.88-5l.94.33C216.06,70.08,214,75.74,209.15,75.74Z"/><path class="cls-4" d="M152.08,201.36s0,16.82,16.63,14.45,24-3.8,25.45-12.68-.76-18.3-12.85-16S150.52,191.39,152.08,201.36Z"/><path class="cls-2" d="M165.63,216.54a13.22,13.22,0,0,1-8.93-3c-4.92-4.27-5.11-11.44-5.12-12.11-1.41-9.24,13.29-11.83,25.1-13.92,1.58-.28,3.1-.54,4.54-.82,4.6-.88,8.15-.16,10.53,2.14,3.91,3.79,3.5,10.65,2.9,14.4-1.46,9.24-9,10.69-25.87,13.1A21.91,21.91,0,0,1,165.63,216.54Zm19.15-29.24a18,18,0,0,0-3.37.34c-1.44.28-3,.55-4.55.83-11.4,2-25.59,4.51-24.29,12.82v.07c0,.08.07,7.32,4.78,11.4,2.74,2.37,6.54,3.23,11.28,2.55,16.37-2.34,23.67-3.73,25-12.26.57-3.57,1-10.06-2.61-13.53A8.64,8.64,0,0,0,184.78,187.3Z"/><path class="cls-4" d="M151.54,186c-.53,9.59-.56,15,6.32,13.9s15.87-5,14.36-10.31-2.59-10.48-7.68-9.26S151.76,182.06,151.54,186Z"/><path class="cls-2" d="M156.26,200.54a4.89,4.89,0,0,1-3.42-1.14c-2.26-2-2.19-6.43-1.8-13.42h0c.2-3.55,5.24-4.52,10.12-5.46,1.16-.22,2.26-.43,3.26-.67,5.23-1.25,6.64,3.76,8,8.61l.28,1a4.86,4.86,0,0,1-.67,4.07c-2.3,3.58-8.74,6-14.1,6.88A11.17,11.17,0,0,1,156.26,200.54ZM152,186h0c-.36,6.5-.46,10.89,1.47,12.63.9.82,2.29,1.06,4.27.75,5-.78,11.29-3.13,13.4-6.43a3.89,3.89,0,0,0,.56-3.26l-.28-1c-1.55-5.54-2.71-8.9-6.8-7.91-1,.25-2.14.46-3.31.69C157.06,182.33,152.19,183.27,152,186Z"/><path class="cls-4" d="M104.91,198.05s4.47,16.21-12.17,18.36S68.55,219.18,64.83,211s-4.16-17.83,8.11-18.82S103.74,188,104.91,198.05Z"/><path class="cls-2" d="M77.6,218.31c-6.83,0-10.78-1.74-13.23-7.11-1.58-3.46-3.81-10-1.05-14.65,1.68-2.86,4.9-4.5,9.58-4.88,1.45-.12,3-.27,4.58-.42,11.94-1.15,26.8-2.58,27.92,6.71.17.64,1.9,7.6-1.7,13-2.18,3.27-5.84,5.27-10.89,5.92A127.8,127.8,0,0,1,77.6,218.31Zm12.8-26.9c-4.13,0-8.66.43-12.82.83-1.6.16-3.14.31-4.6.43-4.34.35-7.3,1.82-8.8,4.38-2.53,4.31-.4,10.45,1.1,13.74,3.58,7.86,11,7.25,27.4,5.13,4.75-.62,8.17-2.46,10.18-5.48,3.45-5.19,1.58-12.19,1.56-12.26v-.07C103.79,192.77,97.71,191.41,90.4,191.41Z"/><path class="cls-4" d="M101.32,183.1c3.08,9.1,4.54,14.29-2.37,15.09s-16.63-.58-16.6-6.11-.3-10.78,4.92-11S100.05,179.36,101.32,183.1Z"/><path class="cls-2" d="M95.17,198.9c-4.48,0-9.13-.88-11.59-3.08a4.86,4.86,0,0,1-1.73-3.74v-1c0-5,0-10.25,5.41-10.43,1,0,2.14-.13,3.32-.22,5-.4,10.07-.82,11.21,2.54h0c2.25,6.64,3.49,10.85,1.86,13.42-.82,1.3-2.34,2.06-4.65,2.32A33.87,33.87,0,0,1,95.17,198.9Zm.14-17.76c-1.49,0-3.11.13-4.65.25-1.19.1-2.31.19-3.37.23-4.2.14-4.42,3.68-4.44,9.43v1a3.87,3.87,0,0,0,1.4,3c2.93,2.63,9.64,3.2,14.64,2.62,2-.23,3.27-.84,3.92-1.86,1.38-2.19.12-6.4-2-12.57h0C100.27,181.57,98,181.14,95.31,181.14Z"/><path class="cls-3" d="M94.26,180.75l-1-.15c2-13.1,4.89-34.44,4.4-35.93a.36.36,0,0,0,.18.18l.45-.89C98.71,144.16,99.67,144.63,94.26,180.75Z"/><rect class="cls-3" x="153.14" y="142.99" width="1" height="38.23" transform="translate(-35 42.53) rotate(-14.17)"/><path class="cls-3" d="M177.23,111.48l-.08-1c.21,0,20.78-2,28.35-28.79l1,.28C198.7,109.47,177.44,111.46,177.23,111.48Z"/><path class="cls-3" d="M71,118.76c-.26-.11-25.31-11-32-40.38l1-.23c6.59,28.84,31.19,39.58,31.44,39.69Z"/></g></g></svg>