<svg xmlns="http://www.w3.org/2000/svg" viewBox="0 0 106.45 103.84"><defs><style>.cls-1{fill:#f789b6;}.cls-2{fill:#213043;}.cls-3{fill:#feb73b;}.cls-4{fill:#5292ad;}</style></defs><g id="Слой_2" data-name="Слой 2"><g id="Layer_1" data-name="Layer 1"><polygon class="cls-1" points="105.35 44.11 77.15 66.62 80.31 102.86 49.5 82.7 15.85 96.17 25 61.21 1.05 33.29 37.52 31.83 56.36 1.12 69.75 35.18 105.35 44.11"/><path class="cls-2" d="M80.9,103.84,49.44,83.27,15.12,97l9.33-35.67L0,32.83l37.24-1.49L56.46,0,70.12,34.76l36.33,9.12-28.78,23ZM49.55,82.14l30.17,19.74L76.63,66.4l27.62-22.05L69.38,35.6,56.27,2.23,37.81,32.32,2.1,33.75,25.55,61.08l-.06.25-8.9,34Z"/><polygon class="cls-3" points="88.85 47.2 69.56 62.6 71.72 87.39 50.64 73.6 27.62 82.81 33.88 58.9 17.49 39.79 42.44 38.8 55.33 17.78 64.49 41.09 88.85 47.2"/><path class="cls-2" d="M72.3,88.37,50.58,74.16l-23.7,9.49L33.33,59,16.44,39.34l25.72-1L55.43,16.67l9.43,24L90,47,70.08,62.82ZM50.69,73,71.13,86.41l-2.1-24L87.74,47.44,64.12,41.51,55.24,18.9,42.73,39.29l-24.19,1L34.43,58.77,28.35,82Z"/><polygon class="cls-4" points="71.84 50.89 61.36 59.25 62.53 72.73 51.07 65.23 38.57 70.24 41.97 57.24 33.06 46.86 46.62 46.32 53.63 34.9 58.6 47.56 71.84 50.89"/><path class="cls-2" d="M63.12,73.71,51,65.79,37.83,71.07l3.59-13.7L32,46.4l14.33-.57,7.39-12L59,47.14l14,3.51L61.88,59.48Zm-12-9,10.81,7.07L60.83,59l9.91-7.91L58.23,48l-4.7-12L46.91,46.81l-12.79.51,8.4,9.79L39.3,69.41Z"/></g></g></svg>