<svg xmlns="http://www.w3.org/2000/svg" viewBox="0 0 69.52 73.99"><defs><style>.cls-1{fill:#f789b6;}.cls-2{fill:#213043;}</style></defs><g id="Слой_2" data-name="Слой 2"><g id="Layer_1" data-name="Layer 1"><polygon class="cls-1" points="67.67 22.64 53.61 42.25 60.8 65.77 38.95 57.51 20.23 72.02 20.78 47.31 2.02 32.76 24.21 25.74 31.33 2.24 44.5 22.62 67.67 22.64"/><path class="cls-2" d="M19.23,74l.59-26.23L0,32.4,23.45,25,31,0,45,21.67l24.5,0L54.65,42.42l7.63,24.92L39.11,58.58ZM4,33.12,21.75,46.85,21.23,70,38.79,56.43l20.54,7.76L52.56,42.08,65.82,23.59,44,23.57,31.65,4.48,25,26.5Z"/></g></g></svg>