<svg xmlns="http://www.w3.org/2000/svg" viewBox="0 0 60.8 64.67"><defs><style>.cls-1{fill:#feb73b;}.cls-2{fill:#213043;}</style></defs><g id="Слой_2" data-name="Слой 2"><g id="Layer_1" data-name="Layer 1"><polygon class="cls-1" points="59.83 19.44 47.24 36.99 53.68 58.04 34.12 50.65 17.36 63.64 17.86 41.52 1.06 28.49 20.93 22.22 27.3 1.18 39.09 19.42 59.83 19.44"/><path class="cls-2" d="M16.84,64.67l.51-22.91L0,28.3l20.53-6.48L27.14,0,39.36,18.92l21.44,0-13,18.14,6.67,21.79L34.2,51.21Zm-14.72-36,16.24,12.6L17.89,62.6,34,50.08l18.88,7.13L46.69,36.9l12.16-17-20,0L27.47,2.36,21.33,22.61Z"/></g></g></svg>