<svg xmlns="http://www.w3.org/2000/svg" viewBox="0 0 85.73 85.28"><defs><style>.cls-1{fill:#feb73b;}.cls-2{fill:#213043;}.cls-3{fill:#5292ad;}</style></defs><g id="Слой_2" data-name="Слой 2"><g id="Layer_1" data-name="Layer 1"><polygon class="cls-1" points="47.27 84.16 30.51 59.67 1.01 59.35 18.92 36.12 9.77 7.95 37.6 18.08 61.44 0.99 60.73 30.49 84.62 48.09 56.35 56.19 47.27 84.16"/><path class="cls-2" d="M47.43,85.28,30.24,60.17,0,59.84,18.37,36,9,7.13,37.52,17.52,62,0l-.74,30.24,24.5,18.05-29,8.3ZM2,58.86l28.76.31L47.11,83,56,55.78,83.5,47.89,60.22,30.74,60.92,2,37.68,18.64l-.25-.09L10.56,8.77l8.92,27.44Z"/><polygon class="cls-3" points="45.51 65.38 35.67 51 18.35 50.81 28.87 37.17 23.5 20.64 39.83 26.58 53.83 16.55 53.41 33.87 67.44 44.2 50.84 48.95 45.51 65.38"/><path class="cls-2" d="M45.67,66.5l-10.26-15-18.07-.2,11-14.22L22.7,19.82,39.76,26l14.6-10.46-.44,18.06L68.55,44.4l-17.32,5ZM19.36,50.32l16.58.18,9.41,13.75,5.1-15.7L66.32,44,52.91,34.11l.4-16.57-13.4,9.6L24.29,21.46l5.14,15.81Z"/></g></g></svg>