<svg xmlns="http://www.w3.org/2000/svg" viewBox="0 0 44.02 45.92"><defs><style>.cls-1{fill:#5292ad;}.cls-2{fill:#213043;}.cls-3{fill:#fdfbef;}</style></defs><g id="Слой_2" data-name="Слой 2"><g id="Layer_1" data-name="Layer 1"><polygon class="cls-1" points="23.69 44.77 15.74 32.27 1.02 32.61 10.37 20.16 6.28 5.59 20 10.41 32.2 1.06 31.34 16.49 42.96 25.27 28.7 30 23.69 44.77"/><path class="cls-2" d="M23.82,45.92,15.47,32.77,0,33.14,9.82,20.05,5.54,4.8,19.91,9.85,32.77,0l-.92,16.25L44,25.45,29.1,30.39ZM16,31.76l7.54,11.87,4.76-14L41.9,25.1,30.82,16.73l.82-14.61L20.09,11,7,6.38l3.89,13.88L2,32.09Z"/><polygon class="cls-3" points="23.13 34.99 18.47 27.64 9.83 27.85 15.31 20.54 12.92 11.98 20.97 14.81 28.14 9.32 27.63 18.38 34.45 23.54 26.08 26.31 23.13 34.99"/><path class="cls-2" d="M23.27,36.14l-5.07-8-9.39.22,6-7.94L12.18,11.2l8.7,3.05,7.82-6-.56,9.88,7.37,5.58-9,3Zm-4.53-9L23,33.84l2.69-7.92,7.7-2.55-6.28-4.75.46-8.24-6.51,5-7.4-2.59,2.2,7.86-5,6.68Z"/></g></g></svg>