<svg xmlns="http://www.w3.org/2000/svg" viewBox="0 0 43.52 45.72"><defs><style>.cls-1{fill:#f789b6;}.cls-2{fill:#213043;}.cls-3{fill:#fdfbef;}</style></defs><g id="Слой_2" data-name="Слой 2"><g id="Layer_1" data-name="Layer 1"><polygon class="cls-1" points="32.6 1 31.3 16.56 42.48 26.54 28.31 30.01 22.95 44.53 15.49 31.12 1 30.11 10.55 18.35 6.96 3.21 20.32 9.36 32.6 1"/><path class="cls-2" d="M23,45.72,15.19,31.6,0,30.55,10,18.23,6.24,2.33l14,6.45L33.19,0,31.82,16.35l11.7,10.44L28.69,30.43Zm-21-16,13.81,1,7.05,12.69,5.09-13.74,13.5-3.31L30.78,16.77,32,2,20.37,9.93,7.69,4.1,11.1,18.47Z"/><polygon class="cls-3" points="27.36 9.23 26.59 18.37 33.16 24.22 24.84 26.26 21.69 34.78 17.32 26.91 8.8 26.32 14.42 19.42 12.31 10.53 20.15 14.14 27.36 9.23"/><path class="cls-2" d="M21.78,36,17,27.39l-9.2-.63,6.06-7.47L11.58,9.65l8.52,3.91,7.84-5.33-.83,9.93,7.09,6.32-9,2.21ZM9.8,25.89l7.82.54,4,7.16,2.86-7.75L32.12,24l-6-5.39.7-8.33L20.2,14.71,13,11.41,15,19.54Z"/></g></g></svg>