<svg xmlns="http://www.w3.org/2000/svg" viewBox="0 0 42.13 45.55"><defs><style>.cls-1{fill:#ff7e48;}.cls-2{fill:#213043;}</style></defs><g id="Слой_2" data-name="Слой 2"><g id="Layer_1" data-name="Layer 1"><polygon class="cls-1" points="23.52 44.38 15.17 32.02 0.96 32.41 9.31 20.05 4.57 5.64 18.09 10.36 29.36 1.06 29.37 16.34 41.08 25 27.56 29.73 23.52 44.38"/><path class="cls-2" d="M23.72,45.55l-8.81-13L0,32.94,8.76,20l-5-15.13L18,9.79,29.86,0V16.09l12.26,9.07L28,30.11Zm-8.29-14,7.9,11.69,3.82-13.86L40,24.84,28.87,16.59V2.12l-10.67,8.8L5.36,6.45l4.5,13.67L1.92,31.89Z"/></g></g></svg>