<svg xmlns="http://www.w3.org/2000/svg" viewBox="0 0 70.35 76.02"><defs><style>.cls-1{fill:#5292ad;}.cls-2{fill:#213043;}</style></defs><g id="Слой_2" data-name="Слой 2"><g id="Layer_1" data-name="Layer 1"><polygon class="cls-1" points="39.39 74.84 25.16 53.79 0.96 54.46 15.18 33.4 7.11 8.86 30.13 16.9 49.34 1.06 49.35 27.09 69.29 41.84 46.27 49.89 39.39 74.84"/><path class="cls-2" d="M39.59,76,24.9,54.3,0,55,14.63,33.32,6.32,8.06,30,16.33,49.84,0V26.84L70.35,42,46.69,50.27ZM25.42,53.28,39.2,73.66,45.86,49.5l22.38-7.82L48.85,27.34V2.12L30.23,17.46,7.9,9.67l7.83,23.81L1.92,53.94Z"/></g></g></svg>