<svg xmlns="http://www.w3.org/2000/svg" viewBox="0 0 146.47 53.03"><defs><style>.cls-1{fill:#d95b45;}.cls-2{fill:#213043;}.cls-3{fill:#5292ad;}.cls-4{fill:#f789b6;}.cls-5{fill:#ff7e48;}.cls-6{fill:#feb73b;}</style></defs><g id="Слой_2" data-name="Слой 2"><g id="Layer_1" data-name="Layer 1"><path class="cls-1" d="M27.92,15.27A17.26,17.26,0,0,1,26.53,22,22,22,0,0,1,22.83,28a20.35,20.35,0,0,1-5.27,4.33,13.92,13.92,0,0,1-6.1,1.88c0,.76-.07,1.73-.09,2.9s-.09,2.38-.21,3.66-.29,2.55-.5,3.82A17,17,0,0,1,9.71,48a7.09,7.09,0,0,1-1.6,2.48,3.29,3.29,0,0,1-2.4,1,3.26,3.26,0,0,1-2.63-1.18A7.87,7.87,0,0,1,1.6,47.44,17.88,17.88,0,0,1,.91,44C.8,42.75.72,41.73.68,40.88Q.56,39,.53,37.25t0-3.63V30.53q0-2.27,0-5.16t.09-6.05c0-2.1.1-4.06.18-5.86s.16-3.34.26-4.62a6.36,6.36,0,0,1,.39-2.23l.35-.28c.2-.15.42-.3.65-.45l.66-.41.41-.26a34.8,34.8,0,0,1,6-2.86A18.39,18.39,0,0,1,16,1.14,10.33,10.33,0,0,1,20.9,2.32a12.07,12.07,0,0,1,3.8,3.12A13.85,13.85,0,0,1,27.09,10,17,17,0,0,1,27.92,15.27ZM17.68,16.74a4.28,4.28,0,0,0-.57-2.23,2,2,0,0,0-1.86-.95A5.68,5.68,0,0,0,13,14c-.75.32-1.44.65-2.08,1,.12,1.49.23,2.93.33,4.33a34.64,34.64,0,0,1,0,4.33c.63-.34,1.32-.73,2.07-1.18A14.25,14.25,0,0,0,15.43,21,8.44,8.44,0,0,0,17,19.13,4.48,4.48,0,0,0,17.68,16.74Z"/><path class="cls-2" d="M5.71,52a3.76,3.76,0,0,1-3-1.36,8.63,8.63,0,0,1-1.57-3A17.91,17.91,0,0,1,.42,44C.3,42.8.22,41.75.18,40.9.1,39.67.05,38.44,0,37.25s0-2.4,0-3.63V30.53C0,29,0,27.3,0,25.36s.05-3.95.09-6.05.1-4.06.18-5.87S.47,10.08.56,8.8C.7,7,.88,6.54,1.05,6.32a2.59,2.59,0,0,1,.45-.39c.21-.16.44-.31.69-.47l.65-.41.44-.28A35.64,35.64,0,0,1,9.33,1.88,18.9,18.9,0,0,1,16,.64a10.94,10.94,0,0,1,5.18,1.23,12.78,12.78,0,0,1,3.94,3.25A14.48,14.48,0,0,1,27.57,9.8,17.79,17.79,0,0,1,27,22.22a22.19,22.19,0,0,1-3.79,6.09,20.59,20.59,0,0,1-5.4,4.43,14.54,14.54,0,0,1-5.86,1.91c0,.68-.06,1.5-.07,2.44,0,1.19-.09,2.43-.21,3.7s-.29,2.57-.51,3.86a16.67,16.67,0,0,1-1,3.55,7.63,7.63,0,0,1-1.71,2.65A3.79,3.79,0,0,1,5.71,52ZM1.81,7a11.65,11.65,0,0,0-.25,1.92c-.1,1.26-.19,2.81-.26,4.6s-.14,3.77-.18,5.85-.07,4.11-.09,6S1,29,1,30.53v3.09c0,1.22,0,2.43,0,3.62s.07,2.38.15,3.6c0,.85.11,1.88.23,3.08a18.28,18.28,0,0,0,.66,3.37A7.65,7.65,0,0,0,3.46,50a2.75,2.75,0,0,0,2.25,1,2.79,2.79,0,0,0,2.05-.82,6.73,6.73,0,0,0,1.49-2.31,15.89,15.89,0,0,0,.91-3.34c.22-1.27.39-2.54.5-3.78s.19-2.46.21-3.62.05-2.15.09-2.92l0-.44.45,0a13.49,13.49,0,0,0,5.88-1.81,20,20,0,0,0,5.14-4.23,21.25,21.25,0,0,0,3.62-5.82,16.79,16.79,0,0,0,1.35-6.56,17,17,0,0,0-.8-5.16,13.47,13.47,0,0,0-2.31-4.36,11.7,11.7,0,0,0-3.64-3A9.87,9.87,0,0,0,16,1.64,17.83,17.83,0,0,0,9.68,2.82a34.61,34.61,0,0,0-5.9,2.82,4.25,4.25,0,0,0-.4.25l-.66.42c-.22.14-.43.28-.62.42L1.81,7Zm8.92,17.58,0-.89a33.52,33.52,0,0,0,0-4.26c-.1-1.4-.21-2.85-.32-4.33l0-.33.29-.15c.64-.34,1.35-.68,2.11-1a6.29,6.29,0,0,1,2.45-.51,2.47,2.47,0,0,1,2.29,1.2,4.82,4.82,0,0,1,.64,2.48,5,5,0,0,1-.73,2.65,8.71,8.71,0,0,1-1.7,2,14.11,14.11,0,0,1-2.14,1.55c-.76.45-1.46.85-2.09,1.19Zm.72-9.23c.11,1.37.21,2.71.3,4,.08,1.13.1,2.3.07,3.5l1.28-.75a14,14,0,0,0,2-1.44,7.92,7.92,0,0,0,1.5-1.77,4,4,0,0,0,.58-2.12,3.86,3.86,0,0,0-.5-2,1.49,1.49,0,0,0-1.43-.7,5.29,5.29,0,0,0-2.06.43C12.57,14.76,12,15,11.45,15.31Z"/><path class="cls-3" d="M55.17,39.41a5.15,5.15,0,0,1-.59,2.36,8.76,8.76,0,0,1-2.79,2.54,43.25,43.25,0,0,1-4.85,2.78,54.94,54.94,0,0,1-5.16,2.22,11.94,11.94,0,0,1-3.67.93,5.72,5.72,0,0,1-2-.42,13.8,13.8,0,0,1-2.25-1,11,11,0,0,1-2-1.46,6.09,6.09,0,0,1-1.33-1.59,6.62,6.62,0,0,1-.45-1.79C30,43,29.83,42,29.73,40.81s-.19-2.45-.27-3.79-.15-2.61-.2-3.82-.1-2.28-.12-3.21,0-1.62,0-2c0-1.57.05-3.38.15-5.42s.28-4.08.56-6.14A42.19,42.19,0,0,1,31,10.47a16.55,16.55,0,0,1,2.16-4.81,4.74,4.74,0,0,1,1.66-1.21,21.3,21.3,0,0,1,2.93-1.21c1.13-.38,2.34-.74,3.65-1.08S44,1.53,45.19,1.3s2.3-.43,3.29-.58A15.92,15.92,0,0,1,50.73.5a3.66,3.66,0,0,1,1.68.41A4.25,4.25,0,0,1,53.78,2a5.71,5.71,0,0,1,.88,1.56A5,5,0,0,1,55,5.4a4,4,0,0,1-.21,1.4,7.38,7.38,0,0,1-.62,1.28,8.56,8.56,0,0,1-2.49,2q-1.89,1.15-4.11,2.26t-4.27,2c-1.36.59-2.32,1-2.87,1.27-.16,1-.33,2-.5,3s-.31,2-.39,3a32.26,32.26,0,0,1,4.15-1.91,12.05,12.05,0,0,1,4.38-.89c2.8,0,4.21,1.48,4.21,4.46a4.46,4.46,0,0,1-.39,1.91,5.15,5.15,0,0,1-1,1.46,6.56,6.56,0,0,1-1.42,1.12l-1.57.92a28.33,28.33,0,0,1-4,1.88l-4.14,1.56q-.12.51-.24,1.11a6.14,6.14,0,0,0-.12,1.18,13.2,13.2,0,0,0,.12,1.78L39.77,38l2.28-.83c1-.38,2.14-.77,3.29-1.15s2.25-.71,3.31-1A11,11,0,0,1,51,34.57a3.52,3.52,0,0,1,1.66.41A4.16,4.16,0,0,1,54,36.07a5.33,5.33,0,0,1,.86,1.56A5.09,5.09,0,0,1,55.17,39.41Z"/><path class="cls-2" d="M38.11,50.74A6.26,6.26,0,0,1,36,50.29a16.15,16.15,0,0,1-2.32-1.08,11.77,11.77,0,0,1-2.13-1.53A6.56,6.56,0,0,1,30.09,46a6.62,6.62,0,0,1-.5-1.94c-.14-.9-.26-2-.36-3.16S29,38.39,29,37.05s-.14-2.61-.2-3.82-.1-2.3-.12-3.23,0-1.62,0-2.05c0-1.59.05-3.42.15-5.44s.28-4.12.56-6.19a43.5,43.5,0,0,1,1.23-6,17.05,17.05,0,0,1,2.23-5A5.25,5.25,0,0,1,34.62,4a23.53,23.53,0,0,1,3-1.23C38.75,2.38,40,2,41.3,1.67S43.88,1,45.09.81,47.41.38,48.4.23A15.8,15.8,0,0,1,50.73,0a4.15,4.15,0,0,1,1.91.47,4.76,4.76,0,0,1,1.53,1.25,6.12,6.12,0,0,1,1,1.69,5.57,5.57,0,0,1,.36,2A4.55,4.55,0,0,1,55.25,7a7.6,7.6,0,0,1-.66,1.36,8.91,8.91,0,0,1-2.66,2.15c-1.28.78-2.68,1.54-4.15,2.28s-2.93,1.43-4.29,2l-2.62,1.16c-.15.89-.3,1.79-.46,2.7-.12.68-.22,1.37-.29,2.06a35.92,35.92,0,0,1,3.38-1.5,12.78,12.78,0,0,1,4.56-.92c3.08,0,4.71,1.71,4.71,5a5,5,0,0,1-.44,2.12,5.77,5.77,0,0,1-1.1,1.6,7.15,7.15,0,0,1-1.52,1.19l-1.58.93a28.72,28.72,0,0,1-4,1.91c-1.3.5-2.59,1-3.89,1.47q-.09.39-.18.84a5.82,5.82,0,0,0-.11,1.08A12.43,12.43,0,0,0,40,36.1l.15,1.17,1.7-.62c1-.38,2.15-.77,3.3-1.15s2.26-.72,3.35-1A10.86,10.86,0,0,1,51,34.07a4,4,0,0,1,1.9.47,4.63,4.63,0,0,1,1.45,1.22,5.7,5.7,0,0,1,.94,1.7A5.47,5.47,0,0,1,55,42a9,9,0,0,1-3,2.73,41.93,41.93,0,0,1-4.91,2.8A54.54,54.54,0,0,1,42,49.78,12.48,12.48,0,0,1,38.11,50.74ZM50.73,1a15.27,15.27,0,0,0-2.18.22c-1,.15-2.08.34-3.27.57s-2.44.52-3.73.85-2.5.7-3.6,1.07a21.74,21.74,0,0,0-2.87,1.18A4.26,4.26,0,0,0,33.6,6a15.73,15.73,0,0,0-2.09,4.65,42.79,42.79,0,0,0-1.2,5.86c-.27,2-.46,4.09-.56,6.1s-.14,3.82-.14,5.39c0,.42,0,1.1,0,2s.06,2,.11,3.2.13,2.48.21,3.81.17,2.6.27,3.78.21,2.21.35,3.09A6.09,6.09,0,0,0,31,45.48a5.7,5.7,0,0,0,1.23,1.46,11.12,11.12,0,0,0,1.95,1.4,14.68,14.68,0,0,0,2.18,1,5.23,5.23,0,0,0,1.78.39,11.58,11.58,0,0,0,3.5-.9,55,55,0,0,0,5.11-2.2,41.32,41.32,0,0,0,4.79-2.74,8.55,8.55,0,0,0,2.63-2.37,4.49,4.49,0,0,0,.23-3.73,5.1,5.1,0,0,0-.78-1.42,3.71,3.71,0,0,0-1.15-1A3,3,0,0,0,51,35.07a10,10,0,0,0-2.24.4c-1.07.28-2.17.6-3.29,1s-2.23.76-3.27,1.14l-2.28.83-.58.2L39,36.23a12.69,12.69,0,0,1-.13-1.85A7,7,0,0,1,39,33.11q.12-.61.24-1.14l.06-.26.26-.09c1.38-.51,2.75-1,4.13-1.56a27.36,27.36,0,0,0,3.9-1.85l1.57-.91a7.12,7.12,0,0,0,1.32-1,4.86,4.86,0,0,0,.91-1.32,4.12,4.12,0,0,0,.34-1.7c0-2.7-1.18-4-3.71-4a11.71,11.71,0,0,0-4.2.86A31.34,31.34,0,0,0,39.77,22l-.81.45.07-.93c.08-1,.21-2.06.39-3.07s.35-2,.51-3l0-.26.24-.11c.55-.26,1.52-.68,2.88-1.28s2.77-1.25,4.24-2,2.82-1.48,4.08-2.25a8.3,8.3,0,0,0,2.34-1.83,6.74,6.74,0,0,0,.56-1.16,3.59,3.59,0,0,0,.18-1.23,4.66,4.66,0,0,0-.29-1.63,5.45,5.45,0,0,0-.81-1.43,3.71,3.71,0,0,0-1.21-1A3.08,3.08,0,0,0,50.73,1Z"/><path class="cls-4" d="M87.74,40a29,29,0,0,1-.2,3.06,15.28,15.28,0,0,1-.8,3.41,8.46,8.46,0,0,1-1.6,2.74,3.43,3.43,0,0,1-2.67,1.11,3.62,3.62,0,0,1-3.28-1.72,11.48,11.48,0,0,1-1.57-4.11,30.13,30.13,0,0,1-.57-4.87c-.06-1.65-.11-3-.14-4q-4.27.76-8.41,1.34c-.09,1-.25,2.19-.51,3.63a21.86,21.86,0,0,1-1.18,4.17,12,12,0,0,1-2.08,3.47,4,4,0,0,1-3.11,1.47,2.58,2.58,0,0,1-2.22-1.12A8,8,0,0,1,58.19,46a15,15,0,0,1-.5-3.15c-.06-1.08-.09-2-.09-2.71A47.25,47.25,0,0,1,58.13,33c.36-2.36.77-4.7,1.24-7,.24-1.23.56-2.67,1-4.33s.88-3.36,1.45-5.13a52,52,0,0,1,2-5.22,25.56,25.56,0,0,1,2.63-4.62A13.58,13.58,0,0,1,69.8,3.3,7.34,7.34,0,0,1,74,2a7,7,0,0,1,3.91,1.08A10.41,10.41,0,0,1,80.81,6a17.87,17.87,0,0,1,2.08,4,44,44,0,0,1,1.39,4.59c.37,1.55.69,3.06,1,4.55s.48,2.8.68,3.95c.51,2.76,1,5.55,1.3,8.37A67.24,67.24,0,0,1,87.74,40ZM76.31,24.51q0-.77-.09-2.52a29.94,29.94,0,0,0-.38-3.5,12.43,12.43,0,0,0-.92-3.12c-.41-.91-1-1.37-1.69-1.37-.39,0-.77.29-1.12.86a9.64,9.64,0,0,0-1,2.17,28.15,28.15,0,0,0-.74,2.89C70.2,21,70,22,69.86,23s-.28,1.86-.36,2.64-.14,1.35-.18,1.69q3.56-.31,7-.95Z"/><path class="cls-2" d="M82.47,50.8a4.15,4.15,0,0,1-3.71-1.95,12.25,12.25,0,0,1-1.63-4.28,31.27,31.27,0,0,1-.58-5c0-1.35-.09-2.47-.12-3.37-2.51.44-5,.84-7.47,1.18-.09.92-.25,2-.48,3.28A22,22,0,0,1,67.27,45a12.55,12.55,0,0,1-2.16,3.61,4.46,4.46,0,0,1-3.49,1.64A3.06,3.06,0,0,1,59,48.9a8.49,8.49,0,0,1-1.29-2.8,15.21,15.21,0,0,1-.52-3.25c-.06-1.09-.09-2-.09-2.74a48.41,48.41,0,0,1,.54-7.24c.35-2.36.77-4.73,1.24-7.06.24-1.24.56-2.71.95-4.35s.89-3.4,1.47-5.16a50.58,50.58,0,0,1,2-5.27A26,26,0,0,1,66,6.32a13.87,13.87,0,0,1,3.5-3.43A7.91,7.91,0,0,1,74,1.53a7.55,7.55,0,0,1,4.19,1.16,11.36,11.36,0,0,1,3,3,18.51,18.51,0,0,1,2.14,4.16,45,45,0,0,1,1.41,4.64c.37,1.55.69,3.09,1,4.58L86.4,23c.51,2.76.95,5.59,1.31,8.4A70,70,0,0,1,88.24,40,27.72,27.72,0,0,1,88,43.1a15.83,15.83,0,0,1-.82,3.52,8.89,8.89,0,0,1-1.7,2.9A3.92,3.92,0,0,1,82.47,50.8ZM77.38,35.06l0,.57c0,1,.08,2.3.14,3.95a30.4,30.4,0,0,0,.56,4.8,11.19,11.19,0,0,0,1.5,3.93,3.14,3.14,0,0,0,2.86,1.49,2.92,2.92,0,0,0,2.3-.95,7.88,7.88,0,0,0,1.5-2.57A14.31,14.31,0,0,0,87,43a25.43,25.43,0,0,0,.2-3,66.3,66.3,0,0,0-.53-8.44c-.35-2.79-.78-5.6-1.29-8.34l-.69-4c-.25-1.47-.57-3-.94-4.52a43.59,43.59,0,0,0-1.37-4.53,17.51,17.51,0,0,0-2-3.93,9.94,9.94,0,0,0-2.76-2.73,6.57,6.57,0,0,0-3.64-1,6.88,6.88,0,0,0-3.92,1.19,12.76,12.76,0,0,0-3.25,3.19,24.94,24.94,0,0,0-2.59,4.53,50,50,0,0,0-2,5.17c-.57,1.74-1,3.45-1.44,5.09s-.71,3.07-1,4.3c-.47,2.32-.88,4.68-1.24,7a47.73,47.73,0,0,0-.52,7.09c0,.72,0,1.62.08,2.68a15.29,15.29,0,0,0,.49,3.05,7.56,7.56,0,0,0,1.14,2.48,2.09,2.09,0,0,0,1.81.91,3.48,3.48,0,0,0,2.74-1.3,11.56,11.56,0,0,0,2-3.32,20.75,20.75,0,0,0,1.16-4.08c.25-1.41.42-2.61.5-3.58l0-.4.4,0c2.75-.38,5.57-.83,8.39-1.34Zm-8.62-7.2.07-.6c0-.34.09-.9.17-1.69s.2-1.69.36-2.67.35-2,.57-3.08a30.1,30.1,0,0,1,.75-2.95,10.54,10.54,0,0,1,1-2.27,1.91,1.91,0,0,1,1.55-1.1,2.36,2.36,0,0,1,2.15,1.66,13.48,13.48,0,0,1,1,3.25A31,31,0,0,1,76.72,22c.06,1.18.09,2,.09,2.54v2.26l-.41.08c-2.29.42-4.66.75-7,1ZM73.23,14.5c-.2,0-.45.22-.7.62a9.34,9.34,0,0,0-.89,2.06A27.82,27.82,0,0,0,70.91,20c-.22,1.06-.4,2.07-.56,3s-.27,1.84-.35,2.61c0,.43-.08.79-.11,1.09,2-.2,4-.47,5.92-.82V24.51c0-.51,0-1.33-.09-2.49a29.08,29.08,0,0,0-.37-3.45,12.23,12.23,0,0,0-.88-3C74,14.5,73.42,14.5,73.23,14.5Z"/><path class="cls-5" d="M117.77,17a13.62,13.62,0,0,1-.26,2.55,9.78,9.78,0,0,1-.86,2.49,6,6,0,0,1-1.54,1.91,3.55,3.55,0,0,1-2.31.76,4.87,4.87,0,0,1-3.08-.8,4.2,4.2,0,0,1-1.42-2,8.41,8.41,0,0,1-.45-2.58q0-1.37-.09-2.58a6.09,6.09,0,0,0-.38-2,1.34,1.34,0,0,0-1.39-.79,2.83,2.83,0,0,0-2.08.92,8.42,8.42,0,0,0-1.54,2.39,19.18,19.18,0,0,0-1.09,3.31c-.3,1.23-.53,2.45-.71,3.66s-.31,2.36-.39,3.44-.12,2-.12,2.64c0,.9,0,2,.09,3.19a15.59,15.59,0,0,0,.57,3.53,7.73,7.73,0,0,0,1.42,2.87,3.3,3.3,0,0,0,2.72,1.18,8.53,8.53,0,0,0,2.31-.32c.75-.21,1.5-.46,2.25-.73s1.51-.52,2.28-.74A8.86,8.86,0,0,1,114,39a2.72,2.72,0,0,1,2.25,1.18,4.32,4.32,0,0,1,.89,2.65A6.63,6.63,0,0,1,116,46.58a13.19,13.19,0,0,1-2.94,3.08,14.24,14.24,0,0,1-3.79,2.11,10.85,10.85,0,0,1-3.7.76,12.28,12.28,0,0,1-7.22-2.07,15.77,15.77,0,0,1-4.8-5.35,24.79,24.79,0,0,1-2.64-7.32,41.72,41.72,0,0,1-.8-8.06,39.65,39.65,0,0,1,.48-5.86A46.88,46.88,0,0,1,92,17.47a40.26,40.26,0,0,1,2.4-6.21A24.66,24.66,0,0,1,97.81,6a16.79,16.79,0,0,1,4.42-3.7,10.76,10.76,0,0,1,5.42-1.4,7.52,7.52,0,0,1,4.85,1.56,11.58,11.58,0,0,1,3.14,4,18.66,18.66,0,0,1,1.66,5.22A32.28,32.28,0,0,1,117.77,17Z"/><path class="cls-2" d="M105.57,53a12.87,12.87,0,0,1-7.51-2.16,16.46,16.46,0,0,1-5-5.52,25.31,25.31,0,0,1-2.69-7.47,42.57,42.57,0,0,1-.81-8.15,40.33,40.33,0,0,1,.48-5.93,47.27,47.27,0,0,1,1.44-6.47A40.28,40.28,0,0,1,94,11a25.44,25.44,0,0,1,3.47-5.39A17.39,17.39,0,0,1,102,1.85,11.33,11.33,0,0,1,107.65.38a8,8,0,0,1,5.16,1.67,12,12,0,0,1,3.28,4.12,19,19,0,0,1,1.7,5.36,33.27,33.27,0,0,1,.48,5.46,13.86,13.86,0,0,1-.27,2.65,9.84,9.84,0,0,1-.91,2.61,6.18,6.18,0,0,1-1.67,2.07,4,4,0,0,1-2.62.88,5.4,5.4,0,0,1-3.39-.9,4.82,4.82,0,0,1-1.59-2.24,9,9,0,0,1-.47-2.73c0-.91,0-1.76-.09-2.57a5.7,5.7,0,0,0-.34-1.84c-.1-.22-.29-.48-.93-.48a2.29,2.29,0,0,0-1.72.77,7.73,7.73,0,0,0-1.44,2.24,18.81,18.81,0,0,0-1.07,3.23c-.29,1.21-.52,2.43-.7,3.61s-.3,2.35-.38,3.41-.12,1.92-.12,2.6c0,.88,0,1.95.09,3.16a15.27,15.27,0,0,0,.55,3.43,7.37,7.37,0,0,0,1.33,2.69,2.8,2.8,0,0,0,2.33,1,8,8,0,0,0,2.18-.3c.74-.21,1.48-.46,2.21-.72s1.53-.53,2.32-.75a9.43,9.43,0,0,1,2.47-.34,3.21,3.21,0,0,1,2.65,1.38,4.77,4.77,0,0,1,1,2.95,7.19,7.19,0,0,1-1.27,4.07,14,14,0,0,1-3,3.2,15.06,15.06,0,0,1-3.92,2.17A11.2,11.2,0,0,1,105.57,53Zm2.08-51.65a10.31,10.31,0,0,0-5.18,1.34A16.27,16.27,0,0,0,98.19,6.3a24.49,24.49,0,0,0-3.33,5.18,40.25,40.25,0,0,0-2.37,6.13A46.86,46.86,0,0,0,91.08,24a39.69,39.69,0,0,0-.47,5.78,41.47,41.47,0,0,0,.79,8A24.13,24.13,0,0,0,94,44.87a15.45,15.45,0,0,0,4.64,5.18,11.91,11.91,0,0,0,6.94,2,10.4,10.4,0,0,0,3.53-.73,14.42,14.42,0,0,0,3.66-2,12.62,12.62,0,0,0,2.82-3,6.12,6.12,0,0,0,1.1-3.5,3.79,3.79,0,0,0-.79-2.35,2.23,2.23,0,0,0-1.85-1,8.36,8.36,0,0,0-2.21.31c-.75.21-1.51.45-2.24.71s-1.51.53-2.28.75a9.11,9.11,0,0,1-2.45.34,3.75,3.75,0,0,1-3.11-1.37,8.6,8.6,0,0,1-1.52-3,16.66,16.66,0,0,1-.58-3.65c-.06-1.23-.09-2.31-.09-3.21,0-.7,0-1.6.12-2.68s.21-2.25.39-3.47.42-2.46.72-3.71a18.7,18.7,0,0,1,1.13-3.39,8.68,8.68,0,0,1,1.63-2.54A3.31,3.31,0,0,1,106,13.44a1.82,1.82,0,0,1,1.85,1.1,6.58,6.58,0,0,1,.42,2.17c0,.82.07,1.68.09,2.6a8.1,8.1,0,0,0,.42,2.43A3.74,3.74,0,0,0,110,23.51a4.47,4.47,0,0,0,2.77.69,3,3,0,0,0,2-.65,5.5,5.5,0,0,0,1.41-1.75,8.92,8.92,0,0,0,.82-2.36,12.58,12.58,0,0,0,.25-2.45,32.17,32.17,0,0,0-.46-5.29,18.06,18.06,0,0,0-1.62-5.09,11,11,0,0,0-3-3.78A7.11,7.11,0,0,0,107.65,1.38Z"/><path class="cls-6" d="M146,39.41a5,5,0,0,1-.6,2.36,8.59,8.59,0,0,1-2.78,2.54,42.54,42.54,0,0,1-4.86,2.78,53.7,53.7,0,0,1-5.15,2.22,11.94,11.94,0,0,1-3.67.93,5.72,5.72,0,0,1-2-.42,14.19,14.19,0,0,1-2.25-1,11.24,11.24,0,0,1-2-1.46,6.09,6.09,0,0,1-1.33-1.59,6.62,6.62,0,0,1-.45-1.79c-.14-.89-.26-1.93-.35-3.12s-.19-2.45-.27-3.79-.15-2.61-.21-3.82-.1-2.28-.12-3.21,0-1.62,0-2c0-1.57,0-3.38.14-5.42s.29-4.08.57-6.14a42.19,42.19,0,0,1,1.21-5.92A16,16,0,0,1,124,5.66a4.74,4.74,0,0,1,1.66-1.21,21.3,21.3,0,0,1,2.93-1.21c1.13-.38,2.34-.74,3.64-1.08s2.56-.63,3.77-.86,2.3-.43,3.28-.58A16.19,16.19,0,0,1,141.52.5a3.67,3.67,0,0,1,1.69.41A4.11,4.11,0,0,1,144.57,2a5.49,5.49,0,0,1,.89,1.56,5,5,0,0,1,.33,1.81,4,4,0,0,1-.21,1.4A8.19,8.19,0,0,1,145,8.08a8.85,8.85,0,0,1-2.49,2q-1.89,1.15-4.12,2.26t-4.26,2c-1.36.59-2.32,1-2.87,1.27-.16,1-.33,2-.51,3s-.3,2-.38,3a32.26,32.26,0,0,1,4.15-1.91,12.05,12.05,0,0,1,4.38-.89c2.8,0,4.2,1.48,4.2,4.46a4.62,4.62,0,0,1-.38,1.91,5.15,5.15,0,0,1-1,1.46,6.81,6.81,0,0,1-1.42,1.12l-1.57.92a28.87,28.87,0,0,1-4,1.88q-2.07.79-4.14,1.56-.12.51-.24,1.11a6.14,6.14,0,0,0-.12,1.18,13.2,13.2,0,0,0,.12,1.78l.24,1.79,2.28-.83c1-.38,2.14-.77,3.28-1.15s2.25-.71,3.32-1a11,11,0,0,1,2.37-.41,3.55,3.55,0,0,1,1.66.41,4.16,4.16,0,0,1,1.3,1.09,5.33,5.33,0,0,1,.86,1.56A5.09,5.09,0,0,1,146,39.41Z"/><path class="cls-2" d="M128.91,50.74a6.26,6.26,0,0,1-2.13-.45,16.15,16.15,0,0,1-2.32-1.08,11.85,11.85,0,0,1-2.14-1.53A6.7,6.7,0,0,1,120.89,46a6.62,6.62,0,0,1-.5-1.94c-.14-.9-.26-2-.36-3.16s-.19-2.46-.27-3.8-.15-2.61-.21-3.82-.1-2.3-.12-3.23,0-1.62,0-2.05c0-1.59,0-3.42.14-5.44s.29-4.12.57-6.19a43.5,43.5,0,0,1,1.23-6,17.05,17.05,0,0,1,2.23-5A5.25,5.25,0,0,1,125.42,4a22.38,22.38,0,0,1,3-1.23c1.13-.39,2.37-.75,3.68-1.1s2.58-.63,3.79-.86,2.32-.43,3.31-.58A15.81,15.81,0,0,1,141.52,0a4.16,4.16,0,0,1,1.92.47A4.72,4.72,0,0,1,145,1.72a5.9,5.9,0,0,1,1,1.69,5.57,5.57,0,0,1,.36,2A4.55,4.55,0,0,1,146.05,7a8.35,8.35,0,0,1-.66,1.36,9,9,0,0,1-2.66,2.15c-1.28.78-2.68,1.54-4.15,2.28s-2.93,1.43-4.29,2c-1.18.51-2,.9-2.62,1.16-.15.89-.3,1.79-.46,2.7-.12.68-.22,1.37-.3,2.06,1-.52,2.17-1,3.38-1.5a12.87,12.87,0,0,1,4.57-.92c3.08,0,4.7,1.71,4.7,5a5,5,0,0,1-.43,2.12A5.77,5.77,0,0,1,142,27a7.4,7.4,0,0,1-1.52,1.19l-1.58.93a28.72,28.72,0,0,1-4,1.91q-1.95.75-3.9,1.47c-.05.26-.11.54-.17.84a5.82,5.82,0,0,0-.11,1.08,12.43,12.43,0,0,0,.12,1.72l.15,1.17,1.69-.62c1.06-.38,2.16-.77,3.31-1.15s2.26-.72,3.35-1a10.86,10.86,0,0,1,2.49-.43,4,4,0,0,1,1.89.47,4.56,4.56,0,0,1,1.46,1.22,5.93,5.93,0,0,1,.94,1.7,5.47,5.47,0,0,1-.29,4.54,9.13,9.13,0,0,1-2.95,2.73,42.09,42.09,0,0,1-4.92,2.8,52.42,52.42,0,0,1-5.2,2.25A12.43,12.43,0,0,1,128.91,50.74ZM141.52,1a15.3,15.3,0,0,0-2.17.22c-1,.15-2.08.34-3.27.57s-2.44.52-3.73.85-2.5.7-3.61,1.07a22.14,22.14,0,0,0-2.86,1.18A4.15,4.15,0,0,0,124.4,6a15.73,15.73,0,0,0-2.09,4.65,42.79,42.79,0,0,0-1.2,5.86c-.27,2-.46,4.09-.56,6.1s-.14,3.82-.14,5.39c0,.42,0,1.1,0,2s.06,2,.12,3.2.13,2.48.21,3.81.17,2.6.27,3.78.21,2.21.35,3.09a5.66,5.66,0,0,0,.39,1.62A5.64,5.64,0,0,0,123,46.94a11.58,11.58,0,0,0,2,1.4,14.23,14.23,0,0,0,2.18,1,5.23,5.23,0,0,0,1.78.39,11.58,11.58,0,0,0,3.5-.9,53.77,53.77,0,0,0,5.1-2.2,41.49,41.49,0,0,0,4.8-2.74,8.55,8.55,0,0,0,2.63-2.37,4.49,4.49,0,0,0,.23-3.73,5.1,5.1,0,0,0-.78-1.42,3.83,3.83,0,0,0-1.15-1,3,3,0,0,0-1.42-.35,9.86,9.86,0,0,0-2.24.4c-1.07.28-2.17.6-3.29,1s-2.23.76-3.27,1.14l-2.29.83-.58.2-.32-2.39a14.25,14.25,0,0,1-.12-1.85,6.22,6.22,0,0,1,.13-1.27q.12-.61.24-1.14l.06-.26.25-.09q2.07-.77,4.14-1.56a27.36,27.36,0,0,0,3.9-1.85L140,27.3a6.52,6.52,0,0,0,1.32-1,4.89,4.89,0,0,0,.92-1.32,4.13,4.13,0,0,0,.33-1.7c0-2.7-1.17-4-3.7-4a11.67,11.67,0,0,0-4.2.86A31.34,31.34,0,0,0,130.57,22l-.81.45.07-.93c.08-1,.21-2.06.39-3.07s.35-2,.5-3l.05-.26.24-.11c.55-.26,1.51-.68,2.88-1.28s2.77-1.25,4.24-2,2.82-1.48,4.08-2.25a8.3,8.3,0,0,0,2.34-1.83,7.57,7.57,0,0,0,.56-1.16,3.59,3.59,0,0,0,.18-1.23A4.66,4.66,0,0,0,145,3.77a5.48,5.48,0,0,0-.82-1.43,3.57,3.57,0,0,0-1.2-1A3.09,3.09,0,0,0,141.52,1Z"/></g></g></svg>