<svg xmlns="http://www.w3.org/2000/svg" viewBox="0 0 12.39 27.52"><defs><style>.cls-1{fill:#5292ad;}.cls-2{fill:#213043;}</style></defs><g id="Слой_2" data-name="Слой 2"><g id="Layer_1" data-name="Layer 1"><path class="cls-1" d="M5.74,1.18S16.22,20.52,9.86,25.36-.38,23.55.68,17.42,5.74,1.18,5.74,1.18Z"/><path class="cls-2" d="M5.71,27.52a4.6,4.6,0,0,1-2.39-.66C.81,25.33-.51,21.33.18,17.34,1.24,11.22,5.11,1.41,5.27,1l.4-1,.51.94c.43.81,10.6,19.78,4,24.82A7.48,7.48,0,0,1,5.71,27.52ZM5.8,2.4C4.77,5.12,2,12.64,1.17,17.5c-.61,3.55.53,7.21,2.67,8.5,1.59,1,3.56.61,5.72-1C14.71,21,7.79,6.34,5.8,2.4Z"/></g></g></svg>