<svg xmlns="http://www.w3.org/2000/svg" viewBox="0 0 153.08 69.36"><defs><style>.cls-1{fill:#f789b6;}.cls-2{fill:#213043;}.cls-3{fill:#f7efdc;}.cls-4{fill:#feb73b;}.cls-5{fill:#ff7e48;}</style></defs><g id="Слой_2" data-name="Слой 2"><g id="Layer_1" data-name="Layer 1"><path class="cls-1" d="M36.34,51.63a5.76,5.76,0,0,1-1.74,3.79,16.55,16.55,0,0,1-4.2,3.08,32.77,32.77,0,0,1-5.66,2.3q-3.1.95-6.13,1.58t-5.67.9a29.44,29.44,0,0,1-4.19.19A17.76,17.76,0,0,1,5.67,63,5.24,5.24,0,0,1,3,61.6a4.27,4.27,0,0,1-1-2.27c-.26-1.17-.49-2.55-.7-4.16S1,51.84.85,50,.64,46.34.59,44.58.51,41.2.5,39.71s0-2.63,0-3.46c.06-1.37.18-3,.34-5s.37-4,.63-6.23.55-4.46.91-6.75.75-4.45,1.18-6.49A44.09,44.09,0,0,1,5.07,6.32,17,17,0,0,1,6.81,2.54a4.24,4.24,0,0,1,3.77-2,3.48,3.48,0,0,1,2.55,1.24,8.24,8.24,0,0,1,1.59,3,20.78,20.78,0,0,1,.82,4c.16,1.46.27,2.91.3,4.34s0,2.75,0,4-.1,2.16-.13,2.88q-.28,6.41-.84,12.69c-.37,4.18-.64,8.41-.84,12.69l-.14,3.21q3.49-1,7.59-1.79a31.08,31.08,0,0,1,7.77-.63,24.25,24.25,0,0,1,2.64.3,7.28,7.28,0,0,1,2.34.82,4.47,4.47,0,0,1,1.61,1.65A5.1,5.1,0,0,1,36.34,51.63Z"/><path class="cls-2" d="M9.5,64l-.77,0a18.79,18.79,0,0,1-3.17-.46A5.82,5.82,0,0,1,2.65,62a4.91,4.91,0,0,1-1.1-2.53c-.26-1.18-.49-2.59-.7-4.19S.47,51.9.35,50,.14,46.35.09,44.59,0,41.2,0,39.72s0-2.65,0-3.49c.06-1.36.18-3,.34-5S.76,27.22,1,25s.56-4.51.92-6.78.75-4.49,1.18-6.52A43.15,43.15,0,0,1,4.6,6.16a17.36,17.36,0,0,1,1.79-3.9A4.77,4.77,0,0,1,10.61,0a4,4,0,0,1,2.9,1.41A8.76,8.76,0,0,1,15.2,4.57,21.72,21.72,0,0,1,16,8.66c.16,1.47.26,2.94.3,4.39s0,2.77,0,4l-.13,2.88c-.19,4.25-.47,8.53-.84,12.71s-.65,8.42-.84,12.67l-.11,2.52c2.15-.58,4.49-1.12,7-1.61a32,32,0,0,1,7.89-.64,23.11,23.11,0,0,1,2.69.31,7.61,7.61,0,0,1,2.51.88,4.87,4.87,0,0,1,1.79,1.84,5.6,5.6,0,0,1,.59,3.06A6.2,6.2,0,0,1,35,55.76a16.93,16.93,0,0,1-4.32,3.18,34,34,0,0,1-5.75,2.34c-2.08.63-4.16,1.17-6.17,1.58a56.24,56.24,0,0,1-5.73.91A33.44,33.44,0,0,1,9.5,64Zm.86-63A3.77,3.77,0,0,0,7.22,2.83,16.44,16.44,0,0,0,5.54,6.48a43.16,43.16,0,0,0-1.45,5.43c-.42,2-.82,4.18-1.17,6.47S2.26,22.9,2,25.11s-.46,4.31-.62,6.22-.28,3.6-.34,5c0,.82-.05,2,0,3.43s0,3.1.09,4.86.13,3.55.26,5.39.28,3.58.49,5.15.43,3,.69,4.11a3.87,3.87,0,0,0,.81,2,4.78,4.78,0,0,0,2.44,1.3,18,18,0,0,0,3,.44,28.46,28.46,0,0,0,4.11-.19,56.41,56.41,0,0,0,5.62-.89c2-.42,4-.94,6.08-1.57a31.71,31.71,0,0,0,5.58-2.27,15.54,15.54,0,0,0,4.07-3,5.28,5.28,0,0,0,1.61-3.46h0a4.68,4.68,0,0,0-.47-2.52A3.79,3.79,0,0,0,34,47.63a6.55,6.55,0,0,0-2.17-.77,21.29,21.29,0,0,0-2.57-.29,31,31,0,0,0-7.65.62c-2.71.54-5.25,1.14-7.56,1.78l-.66.18.18-3.89c.19-4.27.47-8.55.84-12.72s.64-8.42.83-12.67L15.32,17c0-1.2.06-2.52,0-3.92s-.14-2.87-.3-4.31a21.5,21.5,0,0,0-.79-3.9,7.79,7.79,0,0,0-1.49-2.79A3,3,0,0,0,10.55,1Z"/><path class="cls-3" d="M55.14,66.71a13.55,13.55,0,0,1-8-2.93,19.79,19.79,0,0,1-5.4-7,35.61,35.61,0,0,1-2.92-10A60.73,60.73,0,0,1,40,23.3a40.41,40.41,0,0,1,4.12-10.5,23.78,23.78,0,0,1,6.54-7.49A13.69,13.69,0,0,1,59.7,2.73,12.66,12.66,0,0,1,68,6.09a20.82,20.82,0,0,1,5.09,7.85,41.93,41.93,0,0,1,2.44,10.55,77.14,77.14,0,0,1,.36,11.56,59.5,59.5,0,0,1-1.73,12.07,35.75,35.75,0,0,1-4,9.89,20,20,0,0,1-6.36,6.59A14.44,14.44,0,0,1,55.14,66.71Zm3-45.84A3.07,3.07,0,0,0,55.58,22a10,10,0,0,0-1.87,3.16,22.34,22.34,0,0,0-1.2,4.47,42.19,42.19,0,0,0-.53,5,46.49,46.49,0,0,0,.09,5.78,30.78,30.78,0,0,0,.8,5.23,12.05,12.05,0,0,0,1.55,3.79A3,3,0,0,0,56.84,51,3,3,0,0,0,59.6,49.3,16.45,16.45,0,0,0,61.37,45a36.5,36.5,0,0,0,1-5.22c.2-1.8.34-3.31.39-4.52a41.44,41.44,0,0,0-.06-4.7A26.76,26.76,0,0,0,62,26a11.9,11.9,0,0,0-1.45-3.58A3,3,0,0,0,58.12,20.87Z"/><path class="cls-2" d="M56.07,67.23l-1,0h0a14,14,0,0,1-8.28-3A20.12,20.12,0,0,1,41.3,57a36.54,36.54,0,0,1-3-10.14,61.21,61.21,0,0,1-.58-11.92,59.9,59.9,0,0,1,1.72-11.71,41.4,41.4,0,0,1,4.16-10.63,24.43,24.43,0,0,1,6.69-7.64,14.2,14.2,0,0,1,9.41-2.68,13.14,13.14,0,0,1,8.63,3.5,21.4,21.4,0,0,1,5.22,8,42.87,42.87,0,0,1,2.47,10.68,78.12,78.12,0,0,1,.36,11.63,60.5,60.5,0,0,1-1.74,12.17,35.91,35.91,0,0,1-4.11,10A20.57,20.57,0,0,1,64.05,65,14.69,14.69,0,0,1,56.07,67.23Zm-.9-1a14,14,0,0,0,8.35-2,19.63,19.63,0,0,0,6.19-6.44,35.3,35.3,0,0,0,4-9.74,59.33,59.33,0,0,0,1.71-12,76.08,76.08,0,0,0-.36-11.48,41.31,41.31,0,0,0-2.41-10.43,20.49,20.49,0,0,0-5-7.67,12.24,12.24,0,0,0-8-3.22,13.29,13.29,0,0,0-8.76,2.48,23.43,23.43,0,0,0-6.41,7.34,40.11,40.11,0,0,0-4.06,10.37,58.74,58.74,0,0,0-1.7,11.52,60.76,60.76,0,0,0,.58,11.72,35.31,35.31,0,0,0,2.88,9.86,19.43,19.43,0,0,0,5.26,6.87,13.15,13.15,0,0,0,7.71,2.82ZM57,51.47h-.18A3.57,3.57,0,0,1,54,49.72a12.73,12.73,0,0,1-1.62-3.95,31.86,31.86,0,0,1-.81-5.32,47.3,47.3,0,0,1-.09-5.83,42.76,42.76,0,0,1,.54-5.1A22.85,22.85,0,0,1,53.24,25a10.8,10.8,0,0,1,2-3.32,3.56,3.56,0,0,1,2.93-1.26h0A3.5,3.5,0,0,1,61,22.12a12.19,12.19,0,0,1,1.51,3.74,26.7,26.7,0,0,1,.69,4.69,42.45,42.45,0,0,1,.06,4.76c0,1.2-.19,2.73-.4,4.55a36.11,36.11,0,0,1-1,5.29A17.11,17.11,0,0,1,60,49.56,3.49,3.49,0,0,1,57,51.47Zm.94-30.11a2.61,2.61,0,0,0-2,.95,9.48,9.48,0,0,0-1.77,3A21.71,21.71,0,0,0,53,29.68a41.2,41.2,0,0,0-.53,5,47.48,47.48,0,0,0,.09,5.72,30.88,30.88,0,0,0,.78,5.15,11.74,11.74,0,0,0,1.49,3.63,2.55,2.55,0,0,0,2,1.31A2.49,2.49,0,0,0,59.18,49a16.3,16.3,0,0,0,1.7-4.15,34.23,34.23,0,0,0,1-5.15c.21-1.79.34-3.3.39-4.48a40.55,40.55,0,0,0-.06-4.65,25.86,25.86,0,0,0-.66-4.52,11.38,11.38,0,0,0-1.38-3.43,2.55,2.55,0,0,0-2.07-1.3h-.15Z"/><path class="cls-4" d="M118.2,12.7a35.1,35.1,0,0,1-1,6.58q-.85,3.63-2,7.35t-2.55,7.25q-1.35,3.51-2.4,6.35c-.46,1.18-1,2.65-1.54,4.41s-1.21,3.6-1.93,5.54-1.52,3.88-2.37,5.82a36.17,36.17,0,0,1-2.76,5.17,16,16,0,0,1-3.2,3.67,5.16,5.16,0,0,1-3.62,1.29,4.35,4.35,0,0,1-3-1.72,19.72,19.72,0,0,1-2.65-4.14,46.45,46.45,0,0,1-2.28-5.56c-.7-2-1.32-4-1.88-6S84,45,83.6,43.29s-.62-2.94-.79-3.83Q81.57,33,80.49,26.36a63.67,63.67,0,0,1-.79-13.19c0-1.1.15-2.23.31-3.41a10.58,10.58,0,0,1,.91-3.21,6.18,6.18,0,0,1,1.83-2.33,4.6,4.6,0,0,1,3.14-.79,4,4,0,0,1,3,2.18A22.47,22.47,0,0,1,91.22,11,71.12,71.12,0,0,1,93,18.23q.78,4,1.45,7.86t1.29,7.24A40.7,40.7,0,0,0,97,38.72q.52-1.63,1.55-4.75c.68-2.08,1.48-4.36,2.38-6.84s1.89-5,3-7.63a70.6,70.6,0,0,1,3.31-7.09,26.06,26.06,0,0,1,3.49-5.13,4.59,4.59,0,0,1,3.53-1.88,3.4,3.4,0,0,1,2.11.77A4.33,4.33,0,0,1,117.57,8a9.23,9.23,0,0,1,.55,2.33A15,15,0,0,1,118.2,12.7Z"/><path class="cls-2" d="M95.05,66.64h-.28a4.81,4.81,0,0,1-3.37-1.9,19.64,19.64,0,0,1-2.73-4.24,49.48,49.48,0,0,1-2.3-5.61c-.7-2-1.33-4.05-1.89-6s-1-3.79-1.37-5.46-.63-3-.79-3.85c-.82-4.29-1.6-8.71-2.33-13.11a64.67,64.67,0,0,1-.79-13.29c0-1.12.15-2.28.31-3.45a11.49,11.49,0,0,1,.95-3.36,6.83,6.83,0,0,1,2-2.52,5.17,5.17,0,0,1,3.47-.89,4.45,4.45,0,0,1,3.41,2.41,23.35,23.35,0,0,1,2.38,5.48,70.61,70.61,0,0,1,1.79,7.31c.52,2.64,1,5.29,1.45,7.88s.88,5,1.29,7.23c.26,1.45.54,2.72.82,3.8l1.06-3.22c.68-2.09,1.48-4.4,2.38-6.86s1.9-5.07,3-7.65a71.4,71.4,0,0,1,3.33-7.13,27.83,27.83,0,0,1,3.55-5.24,5.15,5.15,0,0,1,3.93-2,3.92,3.92,0,0,1,2.42.89,4.88,4.88,0,0,1,1.36,2,10.28,10.28,0,0,1,.58,2.46,15.92,15.92,0,0,1,.08,2.47h0a36.88,36.88,0,0,1-1,6.68c-.57,2.42-1.27,4.9-2.07,7.39s-1.66,4.91-2.56,7.27-1.69,4.45-2.39,6.34c-.45,1.16-1,2.6-1.53,4.39s-1.22,3.63-1.94,5.57-1.53,3.9-2.38,5.84a37.64,37.64,0,0,1-2.8,5.24,16.56,16.56,0,0,1-3.3,3.78A5.76,5.76,0,0,1,95.05,66.64ZM85.49,3.92a3.93,3.93,0,0,0-2.44.69,5.7,5.7,0,0,0-1.68,2.16,10.38,10.38,0,0,0-.87,3.06c-.15,1.15-.25,2.28-.3,3.36A63.26,63.26,0,0,0,81,26.27c.72,4.4,1.5,8.81,2.32,13.1.17.88.43,2.16.79,3.82s.81,3.47,1.36,5.4,1.18,3.95,1.87,6a45.19,45.19,0,0,0,2.25,5.5,19.34,19.34,0,0,0,2.58,4,3.91,3.91,0,0,0,2.68,1.55,4.71,4.71,0,0,0,3.28-1.18,15.74,15.74,0,0,0,3.09-3.56,35.65,35.65,0,0,0,2.72-5.1c.85-1.92,1.64-3.86,2.36-5.78s1.37-3.78,1.93-5.53,1.09-3.26,1.55-4.44q1-2.82,2.39-6.34c.89-2.34,1.75-4.77,2.54-7.22s1.48-4.92,2-7.31a35.81,35.81,0,0,0,1-6.49,15.3,15.3,0,0,0-.09-2.32,9.34,9.34,0,0,0-.51-2.22A3.93,3.93,0,0,0,116,6.55a2.87,2.87,0,0,0-1.81-.65,4.21,4.21,0,0,0-3.13,1.71,26,26,0,0,0-3.42,5,71.48,71.48,0,0,0-3.29,7c-1.05,2.58-2,5.14-2.94,7.62s-1.69,4.75-2.37,6.83L97,40.3l-.47-1.42a40.71,40.71,0,0,1-1.32-5.46Q94.63,30,94,26.18C93.51,23.6,93,21,92.51,18.32a69.27,69.27,0,0,0-1.77-7.21,21.65,21.65,0,0,0-2.27-5.23,3.53,3.53,0,0,0-2.61-1.95Z"/><path class="cls-5" d="M150.84,56a6.5,6.5,0,0,1-.91,3,11.17,11.17,0,0,1-3.74,3.11,55.06,55.06,0,0,1-6.43,3.25c-2.35,1-4.61,1.85-6.78,2.53a15.73,15.73,0,0,1-4.8,1,7.55,7.55,0,0,1-2.5-.67,20,20,0,0,1-2.84-1.51,14.66,14.66,0,0,1-2.56-2,8.2,8.2,0,0,1-1.63-2.14,9,9,0,0,1-.47-2.33c-.12-1.17-.22-2.52-.28-4.06s-.1-3.18-.12-4.91,0-3.38,0-5,0-2.95,0-4.16,0-2.08.08-2.63q.14-3,.5-7t1.09-7.9A54.06,54.06,0,0,1,121.35,17,20.49,20.49,0,0,1,124.42,11a5.84,5.84,0,0,1,2.21-1.45,28.72,28.72,0,0,1,3.85-1.37c1.48-.42,3.07-.8,4.77-1.15s3.34-.64,4.91-.86,3-.39,4.28-.52a21,21,0,0,1,2.92-.13,4.71,4.71,0,0,1,2.15.64,5.79,5.79,0,0,1,1.7,1.53,7.68,7.68,0,0,1,1,2.08,6.64,6.64,0,0,1,.32,2.36,5.27,5.27,0,0,1-.35,1.8,9.37,9.37,0,0,1-.88,1.6A11.25,11.25,0,0,1,148,17.88q-2.52,1.35-5.45,2.64T137,22.82c-1.8.68-3.06,1.16-3.79,1.45-.26,1.26-.53,2.52-.82,3.79a38.82,38.82,0,0,0-.67,3.88,42.8,42.8,0,0,1,5.46-2.18,15.63,15.63,0,0,1,5.71-.86q5.43.29,5.18,6a6,6,0,0,1-.61,2.44A6.77,6.77,0,0,1,146,39.2a9,9,0,0,1-1.9,1.35c-.7.37-1.4.74-2.08,1.08a36.39,36.39,0,0,1-5.23,2.16c-1.82.6-3.63,1.17-5.45,1.74-.12.43-.24.91-.37,1.42a9.13,9.13,0,0,0-.22,1.52,17.89,17.89,0,0,0,.05,2.31c.07.77.14,1.54.2,2.32l3-.92c1.37-.42,2.81-.84,4.31-1.26s2.95-.77,4.34-1.05a13.63,13.63,0,0,1,3.08-.38,4.5,4.5,0,0,1,2.12.65,5.35,5.35,0,0,1,1.62,1.48,7.33,7.33,0,0,1,1,2.08A6.92,6.92,0,0,1,150.84,56Z"/><path class="cls-2" d="M128.41,69.36h-.26a8.08,8.08,0,0,1-2.67-.7,20,20,0,0,1-2.91-1.55A15.57,15.57,0,0,1,119.93,65a8.85,8.85,0,0,1-1.73-2.28,9,9,0,0,1-.51-2.5c-.13-1.17-.23-2.55-.29-4.09s-.1-3.19-.12-4.92,0-3.39,0-5,0-3,0-4.17,0-2.09.08-2.65c.09-2,.26-4.39.5-7s.62-5.3,1.09-7.94a56.75,56.75,0,0,1,1.93-7.63A21.27,21.27,0,0,1,124,10.66a6.42,6.42,0,0,1,2.4-1.61,29.08,29.08,0,0,1,3.93-1.39c1.47-.42,3.09-.81,4.8-1.16s3.37-.64,4.94-.86,3-.4,4.3-.53a21.83,21.83,0,0,1,3-.13,5.19,5.19,0,0,1,2.38.71,6.16,6.16,0,0,1,1.85,1.67,8,8,0,0,1,1.13,2.21,7.25,7.25,0,0,1,.34,2.55,6.08,6.08,0,0,1-.39,2,11.09,11.09,0,0,1-.92,1.69,11.52,11.52,0,0,1-3.51,2.55c-1.69.91-3.54,1.8-5.48,2.66s-3.84,1.63-5.65,2.31c-1.6.6-2.77,1.05-3.52,1.35-.25,1.17-.5,2.34-.77,3.53-.22,1-.4,1.95-.54,2.93A44.66,44.66,0,0,1,137,29.28a16.14,16.14,0,0,1,5.89-.88c3.88.2,5.83,2.47,5.64,6.56a6.17,6.17,0,0,1-.66,2.65,7.21,7.21,0,0,1-1.49,2,9.74,9.74,0,0,1-2,1.42l-2.09,1.09a38.58,38.58,0,0,1-5.3,2.19c-1.74.56-3.47,1.12-5.2,1.66-.09.35-.19.73-.29,1.14a7.17,7.17,0,0,0-.21,1.42,18.57,18.57,0,0,0,.05,2.24l.15,1.71,2.4-.74q2.07-.63,4.32-1.26c1.49-.41,3-.77,4.38-1.06a13.63,13.63,0,0,1,3.21-.39,5.13,5.13,0,0,1,2.35.72,6.1,6.1,0,0,1,1.77,1.62A7.77,7.77,0,0,1,151,53.55a7.25,7.25,0,0,1,.35,2.49,7,7,0,0,1-1,3.23,11.38,11.38,0,0,1-3.92,3.28A54.56,54.56,0,0,1,140,65.84c-2.35,1-4.65,1.86-6.83,2.55A17.4,17.4,0,0,1,128.41,69.36ZM146.88,6c-.61,0-1.41,0-2.4.14-1.28.13-2.71.3-4.25.52s-3.19.5-4.88.85-3.28.73-4.73,1.14A28.89,28.89,0,0,0,126.83,10a5.56,5.56,0,0,0-2,1.31,20.44,20.44,0,0,0-3,5.91,53.41,53.41,0,0,0-1.89,7.5c-.47,2.61-.84,5.25-1.08,7.86s-.41,4.93-.5,7c0,.55-.06,1.42-.08,2.62s0,2.59,0,4.15,0,3.21,0,4.94.07,3.37.12,4.9.15,2.87.28,4a7.3,7.3,0,0,0,.43,2.17,7.37,7.37,0,0,0,1.52,2,15,15,0,0,0,2.47,2,19.07,19.07,0,0,0,2.78,1.47,7.29,7.29,0,0,0,2.33.63,15.4,15.4,0,0,0,4.62-.93,70.5,70.5,0,0,0,6.73-2.51,54.2,54.2,0,0,0,6.38-3.22,10.92,10.92,0,0,0,3.57-2.94,6.18,6.18,0,0,0,.83-2.76h0a6.21,6.21,0,0,0-.3-2.15,6.93,6.93,0,0,0-.94-1.93,5,5,0,0,0-1.48-1.35,4,4,0,0,0-1.88-.58,13.21,13.21,0,0,0-3,.37c-1.39.28-2.84.64-4.31,1s-2.93.84-4.3,1.26l-3,.91-.59.18-.26-2.93a21,21,0,0,1-.05-2.38,9.11,9.11,0,0,1,.24-1.6c.12-.53.25-1,.37-1.45l.08-.26.26-.08q2.72-.84,5.43-1.73a36.69,36.69,0,0,0,5.17-2.13l2.07-1.08a8.73,8.73,0,0,0,1.79-1.27A6.09,6.09,0,0,0,147,37.15a5.31,5.31,0,0,0,.56-2.23c.16-3.54-1.38-5.35-4.7-5.52a15.25,15.25,0,0,0-5.53.83,43.64,43.64,0,0,0-5.4,2.16l-.83.41.11-.92c.16-1.3.39-2.62.68-3.93s.56-2.53.82-3.78l.06-.26.25-.1c.73-.29,2-.78,3.79-1.46s3.67-1.44,5.6-2.29,3.73-1.73,5.41-2.63A10.72,10.72,0,0,0,151,15.18a10.53,10.53,0,0,0,.81-1.48,5.13,5.13,0,0,0,.31-1.63,6.44,6.44,0,0,0-.29-2.19,6.92,6.92,0,0,0-1-1.93,5,5,0,0,0-1.54-1.4A4.42,4.42,0,0,0,147.33,6Z"/></g></g></svg>