<svg xmlns="http://www.w3.org/2000/svg" viewBox="0 0 176.27 63.22"><defs><style>.cls-1{fill:#5292ad;}.cls-2{fill:#213043;}.cls-3{fill:#f789b6;}.cls-4{fill:#feb73b;}.cls-5{fill:#ff7e48;}</style></defs><g id="Слой_2" data-name="Слой 2"><g id="Layer_1" data-name="Layer 1"><path class="cls-1" d="M33.66,16.21c0,4.11-.09,8.25-.28,12.39S33,36.87,32.69,41c0,.74-.09,1.75-.14,3s-.14,2.64-.28,4.1S32,51,31.72,52.53a18.71,18.71,0,0,1-1.07,4,8.88,8.88,0,0,1-1.87,3A3.79,3.79,0,0,1,26,60.71,5,5,0,0,1,23.38,60a6.12,6.12,0,0,1-1.91-1.74,8.48,8.48,0,0,1-1.17-2.46A9.77,9.77,0,0,1,19.88,53c0-1.63.05-3.28.14-4.95s.23-3.31.42-5l-6.86.75q-.21,1.93-.45,4.65a26.67,26.67,0,0,1-1,5.21A11.94,11.94,0,0,1,10,58a4.89,4.89,0,0,1-4,1.79A4.26,4.26,0,0,1,3.34,59a5.82,5.82,0,0,1-1.66-2,9.78,9.78,0,0,1-.9-2.72A15.06,15.06,0,0,1,.5,51.41c0-3,.11-5.94.35-8.89s.39-5.92.48-8.9.13-6.26.1-9.41,0-6.32.11-9.49c0-1.05.08-2.26.1-3.65a17.36,17.36,0,0,1,.49-3.91A7.47,7.47,0,0,1,3.65,4.07,4,4,0,0,1,6.87,2.81a5.81,5.81,0,0,1,4.5,1.67,9.52,9.52,0,0,1,2.14,4.17,21.46,21.46,0,0,1,.63,5.28v5c0,2-.05,3.93-.14,5.84s-.19,3.83-.28,5.77l7.41-1.19q.06-3.64.14-7.22c0-2.38.14-4.76.27-7.15.05-1.14.1-2.35.14-3.64a14.35,14.35,0,0,1,.56-3.58,6,6,0,0,1,1.62-2.71A4.83,4.83,0,0,1,27.29,4a4.32,4.32,0,0,1,3.15,1.19,8.89,8.89,0,0,1,1.94,2.9,14.57,14.57,0,0,1,1,3.65,24.21,24.21,0,0,1,.28,3.5Z"/><path class="cls-2" d="M26,61.21a5.51,5.51,0,0,1-2.84-.73,6.47,6.47,0,0,1-2.06-1.9A8.71,8.71,0,0,1,19.82,56a10.39,10.39,0,0,1-.44-3c0-1.65.05-3.32.14-5,.08-1.46.2-2.93.35-4.36L14,44.27c-.13,1.21-.26,2.62-.41,4.25a27.6,27.6,0,0,1-1,5.3,12.53,12.53,0,0,1-2.27,4.46,5.4,5.4,0,0,1-4.4,2A4.79,4.79,0,0,1,3,59.37a6.26,6.26,0,0,1-1.81-2.19,10.38,10.38,0,0,1-.94-2.85A16,16,0,0,1,0,51.41c0-3,.12-6,.35-8.93s.39-5.91.48-8.87.13-6.27.1-9.4S1,17.87,1,14.7c0-1,.08-2.25.1-3.64a18.35,18.35,0,0,1,.5-4A8.08,8.08,0,0,1,3.27,3.75a4.46,4.46,0,0,1,3.6-1.44,6.28,6.28,0,0,1,4.87,1.84A10,10,0,0,1,14,8.53a22.5,22.5,0,0,1,.64,5.4v5c0,2-.05,3.95-.14,5.87L14.25,30l6.39-1,.13-6.8c0-2.35.14-4.76.27-7.16.05-1.14.1-2.35.14-3.64a14.85,14.85,0,0,1,.58-3.7,6.51,6.51,0,0,1,1.76-2.94A5.34,5.34,0,0,1,27.29,3.5a4.82,4.82,0,0,1,3.5,1.33A9.5,9.5,0,0,1,32.84,7.9a15,15,0,0,1,1,3.77,26.68,26.68,0,0,1,.28,3.57v1c0,4.09-.1,8.27-.28,12.41s-.42,8.32-.69,12.4c0,.74-.09,1.74-.14,3s-.14,2.66-.28,4.13-.32,3-.56,4.45a18.54,18.54,0,0,1-1.1,4.17,9.28,9.28,0,0,1-2,3.14A4.26,4.26,0,0,1,26,61.21Zm-5-18.7-.07.62c-.18,1.62-.32,3.27-.41,4.92s-.14,3.29-.14,4.92a9.42,9.42,0,0,0,.4,2.72A8,8,0,0,0,21.88,58a5.7,5.7,0,0,0,1.75,1.6,4.55,4.55,0,0,0,2.34.6,3.27,3.27,0,0,0,2.45-1,8.33,8.33,0,0,0,1.76-2.81,18.35,18.35,0,0,0,1.05-3.95c.23-1.48.41-3,.55-4.4s.23-2.81.27-4.06.09-2.28.14-3c.27-4.08.51-8.25.69-12.38s.28-8.29.28-12.37v-1a24.64,24.64,0,0,0-.27-3.43,14.4,14.4,0,0,0-1-3.52,8.33,8.33,0,0,0-1.83-2.74,3.79,3.79,0,0,0-2.8-1,4.4,4.4,0,0,0-3.08.94,5.46,5.46,0,0,0-1.49,2.5,14.16,14.16,0,0,0-.54,3.44c0,1.3-.09,2.51-.14,3.65-.14,2.4-.23,4.8-.27,7.14l-.15,7.64-8.43,1.35.31-6.38c.09-1.9.14-3.86.14-5.82v-5A21.58,21.58,0,0,0,13,8.77a9.06,9.06,0,0,0-2-3.95A5.33,5.33,0,0,0,6.87,3.31,3.46,3.46,0,0,0,4,4.4,7,7,0,0,0,2.61,7.28a16.89,16.89,0,0,0-.47,3.8c0,1.39-.06,2.61-.1,3.66-.09,3.15-.13,6.34-.11,9.46s0,6.32-.1,9.44-.26,6-.49,8.92S1,48.45,1,51.41a14.94,14.94,0,0,0,.27,2.74,9.43,9.43,0,0,0,.85,2.58,5.27,5.27,0,0,0,1.52,1.84A3.79,3.79,0,0,0,6,59.25,4.39,4.39,0,0,0,9.6,57.64a11.5,11.5,0,0,0,2.08-4.1,26.39,26.39,0,0,0,1-5.11c.16-1.82.31-3.37.45-4.66l0-.41Z"/><path class="cls-3" d="M72.49,47.76a31.93,31.93,0,0,1-.24,3.58,17.49,17.49,0,0,1-.93,4,9.93,9.93,0,0,1-1.87,3.2,4,4,0,0,1-3.12,1.3,4.24,4.24,0,0,1-3.84-2A13.77,13.77,0,0,1,60.66,53,35.79,35.79,0,0,1,60,47.32q-.11-2.91-.18-4.62c-3.32.6-6.6,1.12-9.82,1.57-.1,1.14-.29,2.55-.59,4.24A25,25,0,0,1,48,53.38a13.93,13.93,0,0,1-2.42,4.06A4.65,4.65,0,0,1,42,59.15a3,3,0,0,1-2.59-1.3A9.55,9.55,0,0,1,38,54.76a18,18,0,0,1-.59-3.68c-.07-1.27-.1-2.32-.1-3.17a56.68,56.68,0,0,1,.62-8.37c.42-2.75.9-5.5,1.45-8.23q.42-2.14,1.11-5.06t1.7-6a61.28,61.28,0,0,1,2.35-6.1,30.35,30.35,0,0,1,3.08-5.4,15.73,15.73,0,0,1,4-3.87A8.61,8.61,0,0,1,56.43,3.4,8.18,8.18,0,0,1,61,4.67,12.4,12.4,0,0,1,64.39,8a20.77,20.77,0,0,1,2.43,4.72,51.52,51.52,0,0,1,1.62,5.36q.66,2.73,1.11,5.32c.3,1.74.57,3.28.8,4.62.6,3.23,1.1,6.49,1.52,9.79A78.56,78.56,0,0,1,72.49,47.76ZM59.13,29.68c0-.6,0-1.58-.1-2.94a35.69,35.69,0,0,0-.45-4.1A14.82,14.82,0,0,0,57.51,19c-.49-1.07-1.15-1.6-2-1.6-.46,0-.9.33-1.31,1a11.13,11.13,0,0,0-1.11,2.53q-.48,1.53-.87,3.39c-.25,1.24-.47,2.43-.65,3.57s-.33,2.17-.42,3.09S51,32.56,51,33c2.77-.25,5.5-.62,8.17-1.11Z"/><path class="cls-2" d="M66.33,60.32a4.74,4.74,0,0,1-4.26-2.24,14.16,14.16,0,0,1-1.9-5,35.52,35.52,0,0,1-.67-5.77l-.15-4.05c-3,.53-6,1-8.89,1.42-.11,1.08-.29,2.38-.56,3.89a26.18,26.18,0,0,1-1.41,5A14.69,14.69,0,0,1,46,57.77a5.15,5.15,0,0,1-4,1.88,3.51,3.51,0,0,1-3-1.51,10,10,0,0,1-1.49-3.25,18.28,18.28,0,0,1-.61-3.79c-.07-1.26-.1-2.34-.1-3.19a56.52,56.52,0,0,1,.63-8.45c.41-2.75.9-5.52,1.45-8.25.28-1.43.66-3.14,1.12-5.07s1-4,1.7-6A60.14,60.14,0,0,1,44,14a30,30,0,0,1,3.13-5.48,16.19,16.19,0,0,1,4.07-4A9.1,9.1,0,0,1,56.43,2.9a8.71,8.71,0,0,1,4.84,1.35A13,13,0,0,1,64.8,7.73a21.42,21.42,0,0,1,2.49,4.84A51.23,51.23,0,0,1,68.93,18c.44,1.8.81,3.6,1.11,5.35l.8,4.61c.6,3.23,1.11,6.54,1.53,9.81a81.6,81.6,0,0,1,.62,10,32.74,32.74,0,0,1-.24,3.63,18.56,18.56,0,0,1-1,4.1,10.36,10.36,0,0,1-2,3.36A4.49,4.49,0,0,1,66.33,60.32Zm-6-18.21,0,.57c0,1.15.11,2.68.18,4.62a34.53,34.53,0,0,0,.65,5.61,13.27,13.27,0,0,0,1.76,4.63,3.74,3.74,0,0,0,3.42,1.78,3.49,3.49,0,0,0,2.75-1.14,9.25,9.25,0,0,0,1.77-3,17.18,17.18,0,0,0,.9-3.87A31.12,31.12,0,0,0,72,47.76a79.5,79.5,0,0,0-.62-9.87c-.41-3.26-.92-6.54-1.51-9.76l-.8-4.62c-.3-1.72-.67-3.5-1.1-5.29a51.37,51.37,0,0,0-1.61-5.3A20.28,20.28,0,0,0,64,8.3a11.94,11.94,0,0,0-3.25-3.21,7.71,7.71,0,0,0-4.3-1.19A8.15,8.15,0,0,0,51.8,5.31,14.92,14.92,0,0,0,48,9.06a29.25,29.25,0,0,0-3,5.3,61.48,61.48,0,0,0-2.34,6.06c-.66,2-1.23,4-1.68,5.95s-.83,3.61-1.1,5c-.55,2.71-1,5.47-1.45,8.2a55.84,55.84,0,0,0-.62,8.3c0,.83,0,1.89.1,3.14a17.71,17.71,0,0,0,.57,3.58,9.09,9.09,0,0,0,1.35,2.93A2.51,2.51,0,0,0,42,58.65a4.11,4.11,0,0,0,3.26-1.54,13.63,13.63,0,0,0,2.34-3.91,24.71,24.71,0,0,0,1.35-4.78c.3-1.66.49-3.07.59-4.19l0-.4.4-.06c3.22-.45,6.52-1,9.81-1.56ZM50.4,33.5l.07-.61c0-.39.11-1.05.2-2s.24-2,.42-3.12.41-2.34.66-3.59.56-2.41.88-3.44a12.39,12.39,0,0,1,1.16-2.64,2.14,2.14,0,0,1,1.74-1.24A2.68,2.68,0,0,1,58,18.79a15.44,15.44,0,0,1,1.11,3.77,36.83,36.83,0,0,1,.46,4.15c.07,1.39.1,2.36.1,3v2.57l-.41.08c-2.68.49-5.44.87-8.21,1.12Zm5.13-15.6c-.34,0-.67.41-.89.76a11.3,11.3,0,0,0-1,2.42,32.29,32.29,0,0,0-.86,3.34c-.25,1.24-.47,2.43-.65,3.55s-.32,2.16-.41,3.06c-.06.55-.1,1-.14,1.37,2.39-.23,4.78-.56,7.1-1V29.68c0-.59,0-1.57-.1-2.92a37,37,0,0,0-.44-4,14.81,14.81,0,0,0-1-3.53C56.46,17.9,55.76,17.9,55.53,17.9Z"/><path class="cls-4" d="M109.11,18.88a20.26,20.26,0,0,1-1.62,7.89,25.69,25.69,0,0,1-4.33,7A23.62,23.62,0,0,1,97,38.79,16.26,16.26,0,0,1,89.87,41c-.05.89-.08,2-.11,3.39s-.1,2.79-.24,4.28-.33,3-.59,4.46a19.26,19.26,0,0,1-1.1,4A8.5,8.5,0,0,1,86,60a3.85,3.85,0,0,1-2.81,1.12,3.79,3.79,0,0,1-3.08-1.38,9.31,9.31,0,0,1-1.73-3.31,20.45,20.45,0,0,1-.79-4c-.14-1.42-.24-2.62-.28-3.61-.09-1.44-.15-2.86-.17-4.25s0-2.8,0-4.24V36.71q0-2.64,0-6c0-2.26.05-4.61.1-7.07s.11-4.74.21-6.85.19-3.9.31-5.39a7.2,7.2,0,0,1,.45-2.61,3.24,3.24,0,0,1,.41-.33,7.93,7.93,0,0,1,.77-.52l.76-.49.48-.3a41.08,41.08,0,0,1,7-3.34,21.45,21.45,0,0,1,7.55-1.42,12.12,12.12,0,0,1,5.78,1.38,14.2,14.2,0,0,1,4.43,3.64,16.23,16.23,0,0,1,2.8,5.29A20.05,20.05,0,0,1,109.11,18.88Zm-12,1.72A5,5,0,0,0,96.48,18a2.34,2.34,0,0,0-2.18-1.11,6.67,6.67,0,0,0-2.63.55c-.88.38-1.69.76-2.42,1.16.13,1.73.26,3.42.38,5.06a42.58,42.58,0,0,1,0,5.06c.74-.4,1.55-.86,2.42-1.38a16,16,0,0,0,2.43-1.75,9.48,9.48,0,0,0,1.86-2.19A5.18,5.18,0,0,0,97.14,20.6Z"/><path class="cls-2" d="M83.15,61.66a4.25,4.25,0,0,1-3.46-1.56,10,10,0,0,1-1.83-3.48,21.43,21.43,0,0,1-.81-4.16c-.14-1.45-.24-2.64-.28-3.63-.09-1.43-.15-2.87-.17-4.26s0-2.81,0-4.25V36.71q0-2.64,0-6t.1-7.08c0-2.45.11-4.75.21-6.86s.19-3.92.31-5.41c.16-2.09.36-2.61.55-2.87A3.56,3.56,0,0,1,78.28,8c.25-.18.51-.37.8-.55L79.84,7c.24-.16.42-.26.52-.32a41.45,41.45,0,0,1,7-3.37,22.14,22.14,0,0,1,7.72-1.45,12.59,12.59,0,0,1,6,1.44,14.69,14.69,0,0,1,4.59,3.77,16.93,16.93,0,0,1,2.89,5.45A20.71,20.71,0,0,1,108,27a26.33,26.33,0,0,1-4.41,7.09,24.43,24.43,0,0,1-6.29,5.17,17.1,17.1,0,0,1-6.9,2.23c0,.81-.07,1.78-.09,2.93,0,1.37-.1,2.83-.24,4.31s-.34,3-.59,4.51a20.22,20.22,0,0,1-1.14,4.12,9.1,9.1,0,0,1-2,3.07A4.36,4.36,0,0,1,83.15,61.66Zm12-58.8a21.33,21.33,0,0,0-7.37,1.38,40.91,40.91,0,0,0-6.91,3.31c-.11.06-.26.15-.47.29l-.77.49c-.26.17-.51.33-.73.5l-.35.28a10.85,10.85,0,0,0-.31,2.3c-.12,1.48-.22,3.28-.31,5.38s-.17,4.39-.21,6.83-.08,4.81-.1,7.07,0,4.26,0,6v3.61c0,1.44,0,2.85,0,4.23s.08,2.8.17,4.22c0,1,.13,2.16.27,3.6a21,21,0,0,0,.78,4,9,9,0,0,0,1.64,3.14,3.29,3.29,0,0,0,2.69,1.19,3.38,3.38,0,0,0,2.46-1A7.79,7.79,0,0,0,87.36,57,18.81,18.81,0,0,0,88.44,53c.25-1.48.45-3,.58-4.43s.22-2.89.24-4.24.06-2.51.11-3.41l0-.44.45,0a15.79,15.79,0,0,0,6.91-2.13,23.22,23.22,0,0,0,6-5A24.9,24.9,0,0,0,107,26.58a19.7,19.7,0,0,0,1.59-7.7,20.08,20.08,0,0,0-.94-6.06A15.89,15.89,0,0,0,105,7.7a13.65,13.65,0,0,0-4.28-3.52A11.71,11.71,0,0,0,95.13,2.86Zm-6,26.71,0-.89a41.59,41.59,0,0,0,0-5c-.12-1.63-.25-3.32-.38-5.05l0-.33.29-.15c.75-.41,1.58-.8,2.46-1.18a7.33,7.33,0,0,1,2.83-.59,2.79,2.79,0,0,1,2.61,1.36,5.58,5.58,0,0,1,.73,2.86,5.73,5.73,0,0,1-.84,3,10.1,10.1,0,0,1-2,2.31,16.32,16.32,0,0,1-2.49,1.8c-.89.53-1.7,1-2.44,1.39Zm.66-10.69c.13,1.62.25,3.2.35,4.73a42.25,42.25,0,0,1,.08,4.23c.51-.28,1-.6,1.63-.94a16.14,16.14,0,0,0,2.35-1.69A9.31,9.31,0,0,0,96,23.12a5,5,0,0,0,.1-4.88,1.86,1.86,0,0,0-1.75-.86,6.28,6.28,0,0,0-2.44.51C91.12,18.21,90.41,18.54,89.77,18.88Z"/><path class="cls-1" d="M142.89,18.88a20.26,20.26,0,0,1-1.62,7.89,25.69,25.69,0,0,1-4.33,7,23.62,23.62,0,0,1-6.16,5.06,16.26,16.26,0,0,1-7.13,2.2c-.05.89-.08,2-.1,3.39s-.11,2.79-.25,4.28-.33,3-.59,4.46a19.26,19.26,0,0,1-1.1,4,8.5,8.5,0,0,1-1.87,2.9,3.85,3.85,0,0,1-2.81,1.12,3.8,3.8,0,0,1-3.08-1.38,9.47,9.47,0,0,1-1.73-3.31,21.2,21.2,0,0,1-.79-4c-.14-1.42-.23-2.62-.28-3.61-.09-1.44-.15-2.86-.17-4.25s0-2.8,0-4.24V36.71q0-2.64,0-6c0-2.26.05-4.61.1-7.07s.12-4.74.21-6.85.19-3.9.31-5.39A7.71,7.71,0,0,1,112,8.76a3.73,3.73,0,0,1,.42-.33,7.75,7.75,0,0,1,.76-.52l.76-.49.48-.3a41.82,41.82,0,0,1,7-3.34,21.45,21.45,0,0,1,7.55-1.42,12.12,12.12,0,0,1,5.78,1.38,14.2,14.2,0,0,1,4.43,3.64,16.23,16.23,0,0,1,2.8,5.29A20.05,20.05,0,0,1,142.89,18.88Zm-12,1.72a5,5,0,0,0-.66-2.61,2.34,2.34,0,0,0-2.18-1.11,6.71,6.71,0,0,0-2.63.55c-.88.38-1.69.76-2.42,1.16.13,1.73.26,3.42.38,5.06a42.58,42.58,0,0,1,0,5.06c.74-.4,1.55-.86,2.42-1.38a16,16,0,0,0,2.43-1.75,9.78,9.78,0,0,0,1.87-2.19A5.26,5.26,0,0,0,130.92,20.6Z"/><path class="cls-2" d="M116.93,61.66a4.27,4.27,0,0,1-3.46-1.56,10,10,0,0,1-1.83-3.48,22.2,22.2,0,0,1-.81-4.16c-.14-1.45-.23-2.64-.28-3.63-.09-1.43-.15-2.87-.17-4.26s0-2.81,0-4.25V36.71q0-2.64,0-6t.1-7.08c0-2.45.12-4.75.21-6.86s.2-3.92.31-5.41c.16-2.09.36-2.61.55-2.87a3.56,3.56,0,0,1,.51-.43c.25-.18.51-.37.8-.55l.76-.48c.24-.16.42-.26.52-.32a41.45,41.45,0,0,1,7-3.37,22.14,22.14,0,0,1,7.72-1.45,12.56,12.56,0,0,1,6,1.44,14.57,14.57,0,0,1,4.59,3.77,16.73,16.73,0,0,1,2.89,5.45A20.71,20.71,0,0,1,141.73,27a26.09,26.09,0,0,1-4.41,7.09A24.43,24.43,0,0,1,131,39.23a17.1,17.1,0,0,1-6.9,2.23c0,.81-.07,1.78-.08,2.93,0,1.37-.11,2.83-.25,4.31s-.34,3-.59,4.51a20.22,20.22,0,0,1-1.14,4.12,9.1,9.1,0,0,1-2,3.07A4.36,4.36,0,0,1,116.93,61.66Zm12-58.8a21.33,21.33,0,0,0-7.37,1.38,41.29,41.29,0,0,0-6.91,3.31c-.11.06-.26.15-.47.29l-.77.49c-.26.17-.5.33-.72.5a4.31,4.31,0,0,0-.36.28,10.85,10.85,0,0,0-.31,2.3c-.12,1.48-.22,3.28-.31,5.38s-.16,4.39-.21,6.83-.08,4.81-.1,7.07,0,4.26,0,6v3.61c0,1.44,0,2.85,0,4.23s.08,2.8.17,4.22c0,1,.13,2.16.27,3.6a21,21,0,0,0,.78,4,9,9,0,0,0,1.64,3.14,3.3,3.3,0,0,0,2.69,1.19,3.36,3.36,0,0,0,2.46-1A7.79,7.79,0,0,0,121.14,57,18.81,18.81,0,0,0,122.22,53c.25-1.48.45-3,.59-4.43s.21-2.89.24-4.24,0-2.51.1-3.41l0-.44.45,0a15.79,15.79,0,0,0,6.91-2.13,23.22,23.22,0,0,0,6-5,24.93,24.93,0,0,0,4.25-6.82,19.75,19.75,0,0,0,.64-13.76,15.89,15.89,0,0,0-2.72-5.12,13.72,13.72,0,0,0-4.27-3.52A11.78,11.78,0,0,0,128.91,2.86Zm-6,26.71,0-.89a41.59,41.59,0,0,0,0-5c-.12-1.63-.24-3.32-.38-5.05l0-.33.29-.15c.75-.41,1.58-.8,2.46-1.18a7.36,7.36,0,0,1,2.83-.59,2.79,2.79,0,0,1,2.61,1.36,5.58,5.58,0,0,1,.73,2.86,5.64,5.64,0,0,1-.84,3,10.06,10.06,0,0,1-2,2.31,16.92,16.92,0,0,1-2.5,1.8c-.88.53-1.7,1-2.44,1.39Zm.66-10.69c.13,1.62.25,3.2.36,4.73a42.29,42.29,0,0,1,.07,4.23c.51-.28,1.06-.6,1.63-.94A15.62,15.62,0,0,0,128,25.21a9.31,9.31,0,0,0,1.77-2.09,5,5,0,0,0,.1-4.88,1.86,1.86,0,0,0-1.75-.86,6.28,6.28,0,0,0-2.44.51C124.9,18.21,124.2,18.54,123.55,18.88Z"/><path class="cls-5" d="M175.77,7.57a36.78,36.78,0,0,1-.79,7.22,80.23,80.23,0,0,1-2,8q-1.24,4-2.7,7.82t-2.7,6.7c-.46,1.09-1,2.47-1.7,4.13s-1.42,3.44-2.25,5.32-1.72,3.79-2.66,5.7a44.86,44.86,0,0,1-3,5.13,20.37,20.37,0,0,1-3.11,3.72,4.75,4.75,0,0,1-3.18,1.45A3.27,3.27,0,0,1,148.54,61a8,8,0,0,1-.94-3.9,16.36,16.36,0,0,1,.66-4.43A36.42,36.42,0,0,1,149.92,48q1-2.31,2.21-4.47t2.25-3.87a8,8,0,0,1-2.69-1.34A5.85,5.85,0,0,1,149.75,36q-1.11-2.59-2.29-5.88c-.78-2.18-1.49-4.4-2.11-6.66s-1.14-4.51-1.56-6.77a35.06,35.06,0,0,1-.62-6.22,16.89,16.89,0,0,1,.28-2.94,11.19,11.19,0,0,1,.93-3,7.08,7.08,0,0,1,1.73-2.31,4,4,0,0,1,2.67-.93A4.26,4.26,0,0,1,152,2.77a14.46,14.46,0,0,1,2.46,3.69,29.54,29.54,0,0,1,1.83,5q.76,2.76,1.32,5.44c.37,1.78.67,3.42.9,4.91s.44,2.65.62,3.5c.19-.75.5-1.88.94-3.39s1-3.19,1.59-5,1.34-3.73,2.14-5.66a49.28,49.28,0,0,1,2.57-5.29A18,18,0,0,1,169.2,2,4.42,4.42,0,0,1,172.31.5a2.15,2.15,0,0,1,1.73.82,6.15,6.15,0,0,1,1.08,1.93,12.08,12.08,0,0,1,.52,2.31A18.35,18.35,0,0,1,175.77,7.57Z"/><path class="cls-2" d="M151.69,63.22a3.77,3.77,0,0,1-3.6-2,8.79,8.79,0,0,1-1-4.14,17,17,0,0,1,.68-4.57,37.36,37.36,0,0,1,1.68-4.71,48.51,48.51,0,0,1,2.24-4.51c.67-1.2,1.32-2.32,1.93-3.34a8.85,8.85,0,0,1-2.24-1.23,6.5,6.5,0,0,1-2.1-2.5c-.74-1.74-1.51-3.73-2.3-5.92s-1.5-4.43-2.12-6.7-1.15-4.55-1.57-6.81a35.16,35.16,0,0,1-.63-6.31,18.74,18.74,0,0,1,.28-3,11.77,11.77,0,0,1,1-3.11,7.78,7.78,0,0,1,1.85-2.47,4.44,4.44,0,0,1,3-1.05,4.76,4.76,0,0,1,3.54,1.61,14.72,14.72,0,0,1,2.55,3.81,31.19,31.19,0,0,1,1.87,5.07c.5,1.83.95,3.67,1.32,5.46s.67,3.45.9,4.94c.08.48.15.92.22,1.33.11-.39.23-.81.37-1.28.43-1.5,1-3.2,1.59-5.05S162.5,13,163.3,11a50,50,0,0,1,2.59-5.33,19.11,19.11,0,0,1,3-4A4.94,4.94,0,0,1,172.31,0a2.68,2.68,0,0,1,2.12,1,6.34,6.34,0,0,1,1.16,2.09,11.68,11.68,0,0,1,.54,2.41,17.17,17.17,0,0,1,.14,2.07,37.8,37.8,0,0,1-.8,7.32,79.28,79.28,0,0,1-2.06,8c-.82,2.68-1.74,5.32-2.71,7.85s-1.88,4.79-2.7,6.72c-.46,1.08-1,2.46-1.69,4.12s-1.44,3.46-2.26,5.33-1.73,3.8-2.68,5.72a46.82,46.82,0,0,1-3,5.19,21,21,0,0,1-3.19,3.81A5.29,5.29,0,0,1,151.69,63.22Zm-2.91-61.4a3.39,3.39,0,0,0-2.34.81,6.56,6.56,0,0,0-1.61,2.14,10.65,10.65,0,0,0-.89,2.85,16.73,16.73,0,0,0-.27,2.85,34.12,34.12,0,0,0,.62,6.13c.4,2.23.93,4.49,1.54,6.73s1.33,4.47,2.1,6.62,1.55,4.14,2.28,5.86a5.5,5.5,0,0,0,1.77,2.1,7.78,7.78,0,0,0,2.53,1.26l.65.17-.35.57c-.7,1.16-1.45,2.46-2.24,3.86a46.55,46.55,0,0,0-2.19,4.42,35.37,35.37,0,0,0-1.64,4.58,16.19,16.19,0,0,0-.64,4.3,7.6,7.6,0,0,0,.88,3.67,2.79,2.79,0,0,0,2.71,1.48,4.29,4.29,0,0,0,2.84-1.32,19.8,19.8,0,0,0,3-3.63,44.85,44.85,0,0,0,2.91-5.08c.94-1.9,1.83-3.81,2.65-5.67s1.58-3.65,2.25-5.31,1.23-3,1.7-4.14c.82-1.91,1.73-4.16,2.69-6.68s1.87-5.13,2.69-7.78,1.5-5.32,2-7.92a36.53,36.53,0,0,0,.78-7.12,17.25,17.25,0,0,0-.13-1.95,10.66,10.66,0,0,0-.5-2.2,5.48,5.48,0,0,0-1-1.78A1.67,1.67,0,0,0,172.31,1a4,4,0,0,0-2.76,1.38,17.65,17.65,0,0,0-2.79,3.8,48.13,48.13,0,0,0-2.53,5.23c-.8,1.91-1.52,3.8-2.14,5.63s-1.15,3.51-1.58,5-.75,2.64-.93,3.37l-.52,2.07-.46-2.09c-.18-.84-.39-2-.63-3.53s-.53-3.12-.89-4.88-.81-3.59-1.31-5.41a29.47,29.47,0,0,0-1.8-4.9,13.81,13.81,0,0,0-2.37-3.55A3.75,3.75,0,0,0,148.78,1.82Z"/></g></g></svg>