<svg xmlns="http://www.w3.org/2000/svg" viewBox="0 0 163.79 186.11"><defs><style>.cls-1{fill:#5292ad;}.cls-2{fill:#213043;}</style></defs><g id="Слой_2" data-name="Слой 2"><g id="Layer_1" data-name="Layer 1"><path class="cls-1" d="M163.29,116.92c.18,1.76-7.08,2.6-11.84,3.11-2.84.3.7,1.48.51,1.7-1,1.06-3.05.6-4.54,1.1-.42.15.82,1,.4,1.15-1,.33-3.35.44-4.41.75-.42.12.92,1.59.5,1.7-1.44.41-3.8.33-5.35.6-.58.1,1.13,1,.57,1.08a48.5,48.5,0,0,1-5.37.51c-.85,0,1.19,1.54.36,1.57s-3.52-.19-7.2-.53c-1-.09.39,1.8-.67,1.7-1.67-.16-3.53-.41-5.48-.71-.92-.13-.74,1.52-1.69,1.37-1.65-.29-3.38-.67-5.11-1.1-1.06-.27,0,2-1,1.67-1.93-.55-3.21-2.12-5.3-3.07-.68-.31,1.45,2.6-2.22.78-2.77-1.38-5.9-3.55-7.05-3.71a24.84,24.84,0,0,0-6.11,0c0,.14,0,.28,0,.42a21,21,0,0,0,3.86,3.81c1.12.92,3.37,1.61,5.23,2.83.43.29.06,1.24.54,1.5,1.08.59,2.94.59,3.89,1.25.48.33-.46,1.06,0,1.4,1.08.74,2.52,1.26,3.45,2.05.53.45-.64,1.09-.13,1.53s2.41,1.71,3,2.26c1,1-1,.76-.32,1.69,1.07,1.37,2.89,2.29,4.17,3.91.3.38-1.33.33-.94.81.76.94,3.09,3.11,3.7,4,.36.54-2.37-.8-2-.26.71,1.13,3.21,2.67,3.77,3.71.18.35-1.28.44-1,.74,5.72,7.32,9.34,16.49,8.32,15.37a69.85,69.85,0,0,1-6.78-7.1c-1.41-1.85-.39,1-.58.9-.94-.3-1.66-1.89-2.56-2.75-.26-.24-.11.9-.37.65-.6-.57-1.71-2.15-2.33-2.78-.24-.24-.35,1.16-.59.91-.85-.86-1.86-2.51-2.68-3.49-.3-.36,0,1.12-.26.76-.87-1-1.77-2.27-2.65-3.52-.39-.57-.2,1.32-.58.76s-1.48-2.48-3-5.12c-.38-.68-.68.86-1.11.1-.67-1.2-1.38-2.56-2.11-4-.34-.67-1.06,0-1.41-.7-.6-1.23-1.19-2.54-1.75-3.88-.35-.81-.93.67-1.26-.14-.6-1.52-.42-2.91-.9-4.65-.15-.57-.6,1.84-1.36-1.27-.58-2.36-.94-5.22-1.37-6.06a30.41,30.41,0,0,0-2.23-3.56c-.6,2-1.61,4.19-1.78,6.58-.34,4.56,7.42,48.89,6.18,49.37s-4.06,2.17-4.34-.54-3.3-48.38-4.27-50a39.28,39.28,0,0,0-4.4-4.84A27.61,27.61,0,0,0,82,134.24c-.28,1.47.14,3.95-.06,6.29-.05.54-1,.61-1,1.18,0,1.3.79,3.1.66,4.3-.06.62-1.08,0-1.15.65-.15,1.37,0,3-.2,4.24-.14.71-1.19-.15-1.33.55-.2.89-.37,3.07-.58,3.85-.36,1.38-1.09-.67-1.55.45-.68,1.63-.64,3.79-1.43,5.74-.19.45-.86-1.15-1.1-.55-.44,1.15-1.23,4.35-1.74,5.35-.29.58-.38-2.64-.68-2.08-.63,1.18-.81,4.27-1.44,5.28-.21.32-.87-1-1.07-.69-.7,1.1-1.26,3.65-1.93,4.61-.26.37,0-1.26-.25-.9-.53.74-1,1.65-1.49,2.33s-.37-1.27-.77-.71c-1.34,1.93-4.66,9.46-4.73,9.48s2-9.63,1.93-9.84c-.16-1,.86-2.43,1.17-3.67.09-.36-.79.27-.7-.08.21-.84,1.05-2.6,1.29-3.47.1-.35-1.11.16-1-.18.34-1.19,1.27-2.89,1.73-4.12.17-.45-.91.52-.75.09.49-1.3,1.12-2.71,1.78-4.11.3-.63-1.19.39-.9-.23s1.43-2.52,3-5.11c.41-.68-1-.29-.57-1,.71-1.17,1.53-2.46,2.41-3.79.41-.63-.46-1,0-1.67.75-1.12,1.59-2.27,2.45-3.4.53-.7-1-.61-.42-1.28,1-1.25,2.23-1.69,3.48-2.92.41-.4-1.81.24.46-1.87,1.72-1.59,4-3.2,4.46-4a29.13,29.13,0,0,0,2.42-4.78s.12-.15,0-.08a19.59,19.59,0,0,0-6.45,2.19c-1.67.78-3.86,3.44-6.35,5.05-.58.37-1.32-1-1.9-.58-1.31,1.05-2.54,3.76-3.84,4.54-.66.4-.79-1.63-1.45-1.23-1.49.9-3,2.53-4.39,3.18-.81.36-.69-1.93-1.49-1.59-1,.44-3.34,2-4.27,2.28-1.63.57-.1-2.22-1.53-2-2.11.31-4.25,2.13-6.76,2.52-.59.09.54-2.25-.21-2.11-1.47.26-5.24,1.69-6.59,1.73-.79,0,2.38-2.73,1.61-2.73-1.63,0-4.86,2.26-6.31,2.12-.47-.05.4-2.14-.06-2.19-1.59-.17-4.55,1.07-6,.83-.56-.09,1.26-1,.72-1.12-1.11-.2-2.35-.16-3.38-.35s1-1.62.17-1.76c-2.87-.47-12.75.66-12.82.56A53.37,53.37,0,0,1,22.85,134c2.83-.38-.73-1.47-.54-1.69.93-1.09,3-.68,4.5-1.23.43-.15-.84-1-.41-1.13,1-.36,3.33-.53,4.38-.87.42-.13-1-1.56-.54-1.69,1.44-.45,3.8-.43,5.35-.73.56-.12-1.17-1-.61-1.08a49.65,49.65,0,0,1,5.37-.65c.83-.06-1.24-1.5-.41-1.55s3.53.09,7.22.33c1,.06-.44-1.79.63-1.72,1.67.12,3.53.32,5.49.56.92.12.7-1.54,1.65-1.41,1.66.24,3.4.57,5.14,1,1.06.23-.08-2,1-1.71,2,.5,3.27,2,5.38,2.92.69.29-1.51-2.55,2.2-.83,2.8,1.3,6,3.39,7.13,3.51a24,24,0,0,0,6.49-.21A54.42,54.42,0,0,0,74,121.66c-2.48-.91-7.31-.27-11.43-1.13-1-.19-.34-2.56-1.39-2.67-2.37-.23-6.27,1.49-8.36,1-1.07-.26.77-2.66-.3-2.92-2.39-.58-5.51-.33-7.59-1.13-1.19-.46,1.17-2.89,0-3.37-1.48-.61-5.34-1.37-6.61-2-2.23-1.11,2.06-2.59.38-3.88-2.46-1.91-6.44-2.14-9.38-4.39-.7-.53,2.73-1.94,1.83-2.59-1.76-1.27-7-3.7-8.45-5.1-.83-.81,5.11-.51,4.32-1.34-1.67-1.73-7.19-2.65-8.53-4.34-.44-.56,2.49-2,2.06-2.52-1.47-1.89-5.71-3.65-6.94-5.45-.48-.7,2.43-.8,2-1.49C14.64,76.92-.27,61.91.52,60.5s9.92,4.36,15.4,8.71c3.28,2.59.69-2.42,1.09-2.47,2-.23,3.78,2.48,5.82,3.44.58.28.09-2,.68-1.72,1.35.65,3.93,3,5.34,3.72.56.29.55-2.77,1.1-2.47,1.91,1,4.31,3.57,6.19,4.88.7.47-.24-2.32.43-1.85a70.71,70.71,0,0,1,6.14,5c.92.83.2-3,1.1-2.17s3.53,3.87,7.08,8.07c.92,1.09,1.3-2.47,2.32-1.25,1.6,1.91,3.32,4.12,5.09,6.49.83,1.11,2.23-1,3.07.19,1.47,2,2.92,4.26,4.33,6.55.86,1.41,1.84-2.27,2.66-.85,1.52,2.64,1.38,5.74,2.67,9,.43,1.06.94-4.47,3.07,1.41,1.6,4.44,2.83,10.17,3.89,11.54a35.55,35.55,0,0,0,6.68,6.55,53.91,53.91,0,0,0-3.12-11.59c-1.17-2.86-5.15-6.61-7.55-10.86-.56-1,1.56-2.26.86-3.26-1.56-2.25-5.61-4.35-6.78-6.58-.6-1.13,2.43-1.36,1.84-2.49-1.34-2.55-3.79-5.08-4.74-7.52-.55-1.39,2.88-1.18,2.38-2.56-.66-1.76-2.94-5.72-3.42-7.31-.84-2.8,3.32-.18,3-2.64-.46-3.61-3.2-7.28-3.76-11.58-.14-1,3.35.93,3.15-.36C66.15,54,64,47.54,64,45.22c0-1.36,4.09,4.07,4.09,2.75,0-2.79-3.38-8.32-3.16-10.79.07-.81,3.2.67,3.27-.13.25-2.72-1.6-7.79-1.23-10.24.14-1,1.53,2.17,1.67,1.24.3-1.9.24-4,.53-5.79s2.42,1.73,2.63.28c.71-4.91-1-21.86-.81-22s4.17,12,5.12,20.16c.56,4.86,2.19-1.26,2.52-.94,1.63,1.59,1,5.2,1.83,7.72.23.72,1.47-1.44,1.7-.71.54,1.68.79,5.71,1.29,7.52.19.71,2.34-1.64,2.54-.93.66,2.46.63,6.51,1.09,9.16.17,1,1.44-2,1.6-1,.47,2.81.76,6,1,9.2.09,1.44,2.26-2.12,2.32-.7s-.14,6.05-.5,12.37c-.1,1.64,2.68-.74,2.57,1.08-.18,2.86-.48,6.06-.85,9.42-.18,1.58,2.3,1.21,2.1,2.83-.35,2.84-.86,5.82-1.44,8.81-.36,1.83,2.94-.13,2.54,1.67-.74,3.35-3,5.61-4.38,9.23-.43,1.17,3.83-2.6,1.24,3.76-1.95,4.8-5.08,10.26-5.26,12.23a48.52,48.52,0,0,0,.17,10.18,3.09,3.09,0,0,1,1.31.16c1.51-1.73,3-4.75,4.61-8.5,1.08-2.56,1-7.8,2.18-12.11.28-1,2.41-.11,2.61-1.22.46-2.51-.75-6.85-.07-9,.35-1.11,2.39,1.1,2.74,0,.78-2.5.86-5.86,1.81-8,.54-1.23,2.56,1.53,3.11.35.72-1.52,1.8-5.57,2.52-6.87,1.25-2.26,2.18,2.47,3.55.8,2-2.45,2.63-6.68,5-9.6.55-.69,1.51,3.13,2.2,2.22,1.36-1.75,4.14-7.13,5.57-8.52.84-.81,0,5.51.8,4.75,1.78-1.62,3.18-7.42,4.89-8.69.56-.41,1.57,2.86,2.12,2.46C135,58.37,137,54,138.82,52.87c.69-.44-.42,2.44.26,2,1.39-.86,2.71-2.15,4-2.94s.41,2.88,1.47,2.2c3.55-2.29,13.22-13.31,13.45-13.34S153,51,148.39,56.41c-2.73,3.25,2.18,1,2.18,1.41,0,2.18-2.67,3.8-3.77,5.88-.31.59,1.84.3,1.52.9-.73,1.38-3.13,3.91-4,5.34-.33.57,2.51.87,2.18,1.43-1.15,1.93-3.75,4.25-5.14,6.13-.52.7,2.17,0,1.66.64a70.56,70.56,0,0,1-5.24,6.07c-.85.91,2.76.52,1.9,1.39s-3.94,3.39-8.17,6.77c-1.11.87,2.14,1.64.91,2.61-1.92,1.52-4.14,3.14-6.51,4.79-1.12.78.67,2.48-.49,3.26-2,1.37-4.23,2.7-6.49,4-1.39.78,1.92,2.19.52,2.93-2.59,1.37-5.46.9-8.6,2-.84.29,2.49,1.11.43,2.33-.18-.39-.37-.78-.69-.59a5.54,5.54,0,0,0-1.44,1.43c-4.26,1.25-9.62,2-11,3a35.64,35.64,0,0,0-6.37,6c0,.08.07.17.11.25a20.52,20.52,0,0,0,6.39-2c1.69-.74,3.94-3.34,6.46-4.88.58-.36,1.29,1.08,1.89.63a18.47,18.47,0,0,0,2.5-3l.09,0a9.41,9.41,0,0,0,2-.81c.19.43.39.87.74.68,1.5-.86,3-2.45,4.45-3.05.82-.35.65,1.94,1.46,1.62,1-.41,3.38-1.87,4.32-2.16,1.64-.53,0,2.22,1.48,2,2.12-.25,4.3-2,6.82-2.34.59-.07-.59,2.23.16,2.12a108.1,108.1,0,0,1,11.31-.82c.46.06-.45,2.13,0,2.19,1.59.21,4.57-1,6-.67.56.11-1.29,1-.74,1.1C148.4,115.16,163.11,115.15,163.29,116.92Z"/><path class="cls-2" d="M93.32,186.11a1.88,1.88,0,0,1-1-.23,2.11,2.11,0,0,1-.93-1.72c-.06-.64-.28-3.63-.58-7.78-.87-12.1-2.9-40.43-3.62-42a34,34,0,0,0-3.76-4.19,33,33,0,0,0-1,4.12,14.07,14.07,0,0,0,0,2.81,27.92,27.92,0,0,1,0,3.42,1.32,1.32,0,0,1-.73,1,1.28,1.28,0,0,0-.29.21,8.67,8.67,0,0,0,.34,1.91,7.67,7.67,0,0,1,.33,2.43c-.08.74-.79.76-1.06.77h-.11c0,.54,0,1.13,0,1.71a13,13,0,0,1-.15,2.45c-.16.81-1,.71-1.22.67h-.14c-.07.4-.15,1-.23,1.64a20.91,20.91,0,0,1-.33,2.13,1.08,1.08,0,0,1-.6.82,1,1,0,0,1-.94-.24l-.05,0a12.91,12.91,0,0,0-.6,2.5,15.82,15.82,0,0,1-.81,3.2.61.61,0,0,1-.47.38c-.35.05-.58-.18-.79-.44-.15.45-.32,1-.5,1.63A25.07,25.07,0,0,1,73,166.52a.56.56,0,0,1-.61.33c-.33,0-.46-.3-.56-.8l-.18.89a9.46,9.46,0,0,1-.8,2.81l-.13.22-.33.06c-.36,0-.59-.23-.84-.52a17.23,17.23,0,0,0-.67,1.76,11.44,11.44,0,0,1-1,2.43l-.21.3-.43-.06a.46.46,0,0,1-.24-.16,1.74,1.74,0,0,0-.11.18c-.25.42-.5.83-.75,1.18a.64.64,0,0,1-1.16-.1c-1,1.8-2.76,5.49-3.63,7.38-.76,1.62-.76,1.62-1,1.68l-.27.05-.19-.2c-.22-.23-.22-.23.88-5.62.42-2,.89-4.33.91-4.58a4.77,4.77,0,0,1,.65-2.39c.11-.24.22-.49.32-.74a.54.54,0,0,1-.33-.14l-.22-.2.06-.39a16.23,16.23,0,0,1,.7-1.87l.41-1a.77.77,0,0,1-.71-.21l-.18-.2.07-.35a18.87,18.87,0,0,1,1-2.43l.39-.85a.72.72,0,0,1-.25-.12.58.58,0,0,1-.14-.67c.37-1,.85-2.09,1.48-3.46a.59.59,0,0,1-.53-.19.63.63,0,0,1,0-.72c.26-.53,1.17-2.1,2.87-4.95a.86.86,0,0,1-.56-.49.83.83,0,0,1,.11-.75c.71-1.18,1.52-2.46,2.42-3.82.05-.07.06-.08-.06-.34a1.29,1.29,0,0,1,0-1.33c.7-1,1.51-2.16,2.41-3.33h0a1,1,0,0,1-.55-.67.86.86,0,0,1,.22-.7,8.56,8.56,0,0,1,2-1.71c.36-.26.74-.52,1.11-.83a.69.69,0,0,1-.24-.37c-.13-.49.2-1,1.17-1.94.71-.65,1.51-1.32,2.21-1.91a14.37,14.37,0,0,0,2.16-2,28.67,28.67,0,0,0,2.1-4,24.56,24.56,0,0,0-5.45,2,14.2,14.2,0,0,0-2.85,2.23,28.07,28.07,0,0,1-3.44,2.79c-.57.37-1.12,0-1.49-.32a1.69,1.69,0,0,0-.42-.27,12.34,12.34,0,0,0-1.66,2.08,8.78,8.78,0,0,1-2.18,2.48.74.74,0,0,1-.64.09c-.41-.12-.61-.54-.8-.92a2.29,2.29,0,0,0-.16-.31,20.13,20.13,0,0,0-1.74,1.33,12.28,12.28,0,0,1-2.55,1.78.79.79,0,0,1-.69,0c-.42-.18-.58-.65-.74-1.1,0-.13-.12-.33-.18-.45-.45.21-1.14.6-1.81,1a17.79,17.79,0,0,1-2.39,1.25,1.21,1.21,0,0,1-1.08,0,1.55,1.55,0,0,1-.42-1.35,2.6,2.6,0,0,0,0-.59h-.08a10.82,10.82,0,0,0-3,1.13A13.35,13.35,0,0,1,44,142.92a.61.61,0,0,1-.56-.18c-.3-.31-.2-.79-.07-1.39,0-.13.06-.31.08-.47-.58.14-1.41.4-2.27.66a21.53,21.53,0,0,1-4,1,.63.63,0,0,1-.59-.34c-.21-.46.19-.92,1-1.84l.34-.39a20,20,0,0,0-2.09.87,8.34,8.34,0,0,1-3.4,1.09.66.66,0,0,1-.45-.25c-.24-.33-.15-.82,0-1.44,0-.15.07-.35.09-.52a13.48,13.48,0,0,0-2.5.44,9.3,9.3,0,0,1-3.19.4.57.57,0,0,1-.5-.43c-.09-.32.1-.56.37-.8l-.82-.06a15.44,15.44,0,0,1-1.71-.18.76.76,0,0,1-.61-.44c-.18-.43.1-.87.36-1.25l.07-.11a79.48,79.48,0,0,0-10.37.47c-2.25.19-2.25.19-2.43-.09l-.06-.1,0-.12c0-.39-.06-.61,4.45-2.06a51,51,0,0,1,7.74-1.92l.39-.06c-.18-.12-.41-.23-.55-.31-.5-.26-.75-.39-.81-.69l0-.24.16-.21a4.3,4.3,0,0,1,3-1.06,12.55,12.55,0,0,0,1.27-.17,1,1,0,0,1-.32-.86.6.6,0,0,1,.4-.42A15.6,15.6,0,0,1,28.6,129c.57-.08,1.16-.17,1.62-.28a1.73,1.73,0,0,1-.13-.21c-.29-.47-.53-.85-.39-1.22l.09-.23.31-.14a16.76,16.76,0,0,1,3.19-.48l1.43-.14a.76.76,0,0,1-.33-.76.58.58,0,0,1,.5-.44,43.61,43.61,0,0,1,4.88-.61l0,0c-.33-.4-.64-.78-.46-1.2a.67.67,0,0,1,.62-.38c.74,0,3.12.07,7.08.32,0-.08,0-.16,0-.21a1.37,1.37,0,0,1,.11-1.23.86.86,0,0,1,.76-.26c1.54.1,3.35.28,5.52.55.07,0,.12,0,.3-.41s.51-1.1,1.36-1c1.53.21,3.24.53,5.07.94,0-.1,0-.24,0-.33a1.37,1.37,0,0,1,.32-1.21.87.87,0,0,1,.79-.13l.37.11c-.06-.24-.1-.49-.14-.72s-.14-.92-.29-.93a13.9,13.9,0,0,0-3.83.52,11.19,11.19,0,0,1-4.6.45.89.89,0,0,1-.59-.43,2.2,2.2,0,0,1,.08-1.66,2.67,2.67,0,0,0,.17-.89A30.84,30.84,0,0,0,49,116a15.84,15.84,0,0,1-4.3-.72,1,1,0,0,1-.58-.53,2.48,2.48,0,0,1,.3-1.81,3,3,0,0,0,.3-1c-.66-.26-1.86-.58-3-.89a22.85,22.85,0,0,1-3.63-1.13,1.47,1.47,0,0,1-.92-1c-.12-.64.35-1.18.81-1.71.27-.3.64-.73.61-1a.49.49,0,0,0-.2-.26A14.74,14.74,0,0,0,34.21,104a17.92,17.92,0,0,1-5.2-2.46.72.72,0,0,1-.29-.57c0-.51.52-.9,1.18-1.39a7.47,7.47,0,0,0,.84-.71c-.74-.5-2-1.19-3.31-1.91a29.58,29.58,0,0,1-5.08-3.15.65.65,0,0,1-.19-.71c.18-.54.94-.64,2.62-.81.45,0,1-.1,1.47-.18a18,18,0,0,0-3.7-1.68c-1.89-.71-3.68-1.38-4.46-2.35-.52-.68.31-1.34,1.12-2a7.63,7.63,0,0,0,.82-.71A16.34,16.34,0,0,0,16.8,83a13,13,0,0,1-3.6-2.88.75.75,0,0,1-.11-.66c.16-.46.71-.64,1.35-.85.16,0,.39-.12.56-.19-.51-.61-1.9-2.1-3.47-3.79C2,64.37-.5,61.29.08,60.25a.91.91,0,0,1,.65-.44c2.32-.46,11.38,5.74,15.5,9a4.61,4.61,0,0,0,.88.58,8.58,8.58,0,0,0-.39-1.51c-.24-.79-.35-1.11-.16-1.4l.13-.2.26,0c1.46-.17,2.72.9,3.94,1.93a13.3,13.3,0,0,0,1.77,1.34,1.55,1.55,0,0,1,0-.22c0-.56,0-1,.42-1.27a.67.67,0,0,1,.63,0,19.35,19.35,0,0,1,2.87,2c.77.59,1.56,1.19,2.17,1.56,0-.21.11-.5.15-.7.16-.81.28-1.39.7-1.59a.63.63,0,0,1,.58,0,24.2,24.2,0,0,1,3.7,2.83c.69.61,1.36,1.19,2,1.67v-.06c-.08-.67-.14-1.2.27-1.44a.64.64,0,0,1,.72.06,68,68,0,0,1,5.87,4.76c0-.16,0-.35,0-.49,0-.78.09-1.41.58-1.6a.75.75,0,0,1,.8.2c1,.93,4.4,4.9,7.09,8.08.1-.13.22-.36.31-.51.3-.53.61-1.08,1.16-1.13a1,1,0,0,1,.88.43c1.47,1.75,3.14,3.88,5.12,6.51.14.19.26.2.91-.08s1.49-.63,2.16.27c1.37,1.9,2.83,4.12,4.35,6.59l0,.06a3.42,3.42,0,0,0,.5-.55c.38-.48.79-1,1.34-.93a1,1,0,0,1,.79.58,15.83,15.83,0,0,1,1.59,4.93,28.25,28.25,0,0,0,.84,3.38c.25-.46.62-.93,1.18-.9.75,0,1.4,1,2.17,3.08.65,1.81,1.25,3.87,1.78,5.68.75,2.56,1.46,5,2,5.72A36.73,36.73,0,0,0,84,122.14a61.53,61.53,0,0,0-2.93-10.27,24.86,24.86,0,0,0-3.38-5,47.71,47.71,0,0,1-4.15-5.85c-.42-.75.08-1.49.47-2.1s.58-.9.42-1.12a17.15,17.15,0,0,0-3.18-3,14.06,14.06,0,0,1-3.64-3.63c-.52-1,.51-1.58,1.12-1.92.23-.13.71-.4.74-.53a28.48,28.48,0,0,0-2.17-3.35,21.22,21.22,0,0,1-2.61-4.27c-.45-1.15.75-1.64,1.46-1.93s1-.47.92-.63c-.29-.79-1-2.08-1.58-3.33a32.11,32.11,0,0,1-1.85-4,1.71,1.71,0,0,1,.1-1.55,2.05,2.05,0,0,1,1.76-.54h0c.4,0,.9,0,1-.16a.66.66,0,0,0,.05-.46,20.45,20.45,0,0,0-1.71-5.19,24.37,24.37,0,0,1-2-6.39.73.73,0,0,1,.22-.66c.39-.35,1-.2,1.84,0a6.35,6.35,0,0,0,1.08.2c-.18-1.06-.62-2.71-1.09-4.45a40.28,40.28,0,0,1-1.48-6.8.68.68,0,0,1,.38-.68c.55-.24,1.13.31,2.51,1.68.34.34.79.79,1.15,1.1A24.75,24.75,0,0,0,66,42.75c-.87-2.18-1.7-4.24-1.58-5.62a.71.71,0,0,1,.29-.52c.4-.3,1-.19,2,0a7.1,7.1,0,0,0,1,.18A22.29,22.29,0,0,0,67,32a17.91,17.91,0,0,1-.6-5.3.66.66,0,0,1,.48-.6c.49-.11.81.36,1.27,1l0,.05c.08-.69.12-1.41.16-2.1a28.27,28.27,0,0,1,.27-2.91.93.93,0,0,1,.55-.81c.53-.21,1.09.21,1.63.61a5.4,5.4,0,0,0,.46.33C71.75,18.56,71,9,70.65,3.87c-.26-3.5-.26-3.5,0-3.7L70.88,0l.27.11c.81.35,4.61,13.7,5.41,20.56a6.19,6.19,0,0,0,.26,1.3,9.91,9.91,0,0,0,.75-1.45c.39-.85.53-1.17.89-1.23l.26-.05.22.19c1.14,1.11,1.3,3,1.46,4.82a20.29,20.29,0,0,0,.37,2.69l.15-.14c.39-.38.76-.75,1.2-.63a.67.67,0,0,1,.48.48,28.33,28.33,0,0,1,.7,4c.15,1.16.31,2.35.5,3.19.19-.12.43-.28.59-.4.65-.45,1.17-.81,1.62-.65a.69.69,0,0,1,.42.46,33,33,0,0,1,.7,5.37c.08,1.12.17,2.2.29,3.14l0,0c.41-.56.73-1,1.21-.9a.67.67,0,0,1,.49.6c.39,2.4.7,5.23.94,8.9l.37-.34c.58-.54,1-1,1.53-.77a.76.76,0,0,1,.45.76c.07,1.26-.1,5.44-.5,12.42a.53.53,0,0,0,0,.15,4.66,4.66,0,0,1,.62-.17,1.74,1.74,0,0,1,1.59.08,1.18,1.18,0,0,1,.35,1c-.16,2.69-.44,5.78-.84,9.45-.05.41.16.56.78.89a1.9,1.9,0,0,1,1.32,1.94c-.32,2.59-.79,5.48-1.45,8.84a.38.38,0,0,0,0,.23,2.44,2.44,0,0,0,.79,0,1.89,1.89,0,0,1,1.57.38,1.2,1.2,0,0,1,.19,1.06,17.49,17.49,0,0,1-2.3,5.13A29.53,29.53,0,0,0,92.68,95a1.44,1.44,0,0,1,1.55.21c.56.6.4,1.85-.55,4.18-.8,1.95-1.8,4-2.68,5.88-1.26,2.63-2.45,5.12-2.55,6.21a48.45,48.45,0,0,0,.11,9.62,3.28,3.28,0,0,1,.7.1,35,35,0,0,0,4.31-8.12,23.1,23.1,0,0,0,1-5.48A44.21,44.21,0,0,1,95.74,101c.23-.82,1.1-.88,1.73-.92s.84-.09.87-.25a17.18,17.18,0,0,0-.1-4.19,14,14,0,0,1,.05-4.92.9.9,0,0,1,.5-.59,1.94,1.94,0,0,1,1.55.28,2.88,2.88,0,0,0,.75.27c.27-1.05.47-2.32.68-3.55a19.83,19.83,0,0,1,1.08-4.49,1,1,0,0,1,.61-.57,2.19,2.19,0,0,1,1.67.52A2.69,2.69,0,0,0,106,83c.3-.69.71-2,1.11-3.17a27.88,27.88,0,0,1,1.4-3.74c.11-.2.46-.83,1.07-.88s1.1.51,1.54,1.05c.21.26.6.74.77.74h0s.11,0,.22-.18a16.75,16.75,0,0,0,2.21-4.29,20.23,20.23,0,0,1,2.8-5.32.65.65,0,0,1,.6-.26c.5,0,.8.62,1.21,1.4a8.86,8.86,0,0,0,.52.92c.54-.75,1.28-2,2.06-3.29a32.78,32.78,0,0,1,3.42-5.11.65.65,0,0,1,.72-.16c.53.22.55,1,.53,2.89,0,.45,0,1,0,1.49a22.9,22.9,0,0,0,1.86-3.69c.84-1.95,1.64-3.79,2.61-4.51a.68.68,0,0,1,.55-.12c.46.1.77.62,1.26,1.52a8.37,8.37,0,0,0,.53.89A17.87,17.87,0,0,0,135.52,56a13.61,13.61,0,0,1,3-3.56.65.65,0,0,1,.72,0c.4.27.3.8.18,1.54l0,.09c.47-.34.93-.7,1.38-1.06a21.84,21.84,0,0,1,2-1.47.88.88,0,0,1,.88-.1c.51.25.59.91.67,1.6,0,.17,0,.4.09.58,2.65-1.83,8.2-7.82,11.21-11.07,2-2.19,2-2.19,2.28-2.22l.1,0,.36.12.08.26c.22.77-5.65,11.24-9.71,16.06a3.86,3.86,0,0,0-.67,1h0a7.66,7.66,0,0,0,1.38-.26c.74-.18,1.08-.27,1.36,0l.19.15,0,.27c0,1.54-1.1,2.78-2.17,4a13.17,13.17,0,0,0-1.47,1.84l.22,0c.49.09.95.16,1.14.55a.69.69,0,0,1,0,.64,22.22,22.22,0,0,1-2.11,2.87c-.64.79-1.3,1.6-1.71,2.23l.67.25c.69.23,1.24.42,1.4.86a.67.67,0,0,1,0,.57,25.07,25.07,0,0,1-3,3.65c-.67.73-1.3,1.42-1.82,2.06h.06c.6,0,1.12,0,1.33.39a.63.63,0,0,1-.1.72,68.42,68.42,0,0,1-5.07,5.89l.49.1c.69.13,1.28.24,1.44.73a.77.77,0,0,1-.25.8c-1,1-5,4.24-8.21,6.8,0,.07.29.31.47.45.43.35.92.75.92,1.31a1.13,1.13,0,0,1-.48.85c-1.82,1.43-4,3-6.54,4.82-.23.15-.21.39,0,1.07a1.8,1.8,0,0,1-.46,2.19c-1.86,1.26-4,2.57-6.53,4a.27.27,0,0,0-.1.07,3.44,3.44,0,0,0,.5.65c.4.45.82.92.72,1.48a1.06,1.06,0,0,1-.61.73,9.55,9.55,0,0,1-2.9.94l.18.06a1.69,1.69,0,0,1,.72,1.12,3.61,3.61,0,0,0,.17.46c.46-.19,1.16-.58,1.84-.95a17.55,17.55,0,0,1,2.41-1.18,1.16,1.16,0,0,1,1.07.09,1.51,1.51,0,0,1,.4,1.35,1.91,1.91,0,0,0,0,.6h.07a11,11,0,0,0,3-1,13.08,13.08,0,0,1,3.84-1.29.58.58,0,0,1,.55.2c.29.31.18.78,0,1.38,0,.14-.08.33-.11.49a102.37,102.37,0,0,1,11.11-.77.58.58,0,0,1,.43.26c.24.33.13.82,0,1.44,0,.14-.07.34-.1.51a13.7,13.7,0,0,0,2.52-.37,9.28,9.28,0,0,1,3.19-.32.59.59,0,0,1,.49.44.72.72,0,0,1-.32.73l1.81.07c10.2.39,13.52.94,13.66,2.29h0c.19,1.94-4.17,2.78-12.28,3.66a2.9,2.9,0,0,0-.39,0,5.82,5.82,0,0,0,.55.32c.49.27.74.41.79.72l0,.23-.16.21a4.31,4.31,0,0,1-3,1,10.28,10.28,0,0,0-1.27.14.93.93,0,0,1,.3.86.61.61,0,0,1-.4.41,13.65,13.65,0,0,1-2.38.42c-.58.07-1.17.15-1.63.24l.12.22c.28.49.5.87.36,1.23l-.09.23-.31.12a15.79,15.79,0,0,1-3.2.4c-.5,0-1,.06-1.44.11a.74.74,0,0,1,.31.77.6.6,0,0,1-.51.42,44.87,44.87,0,0,1-4.89.48v0c.33.41.63.8.44,1.21a.68.68,0,0,1-.63.37c-.92,0-4.32-.26-7.07-.52,0,.08,0,.16,0,.22a1.39,1.39,0,0,1-.15,1.22.89.89,0,0,1-.76.25c-1.59-.16-3.45-.4-5.51-.71,0,0-.11,0-.3.4s-.55,1.1-1.39,1c-1.5-.26-3.15-.61-5-1.08,0,.1,0,.24,0,.33a1.39,1.39,0,0,1-.35,1.19.83.83,0,0,1-.79.12,9.92,9.92,0,0,1-3-1.65c-.52-.37-1.05-.74-1.64-1.08a.93.93,0,0,1-.31.86c-.47.38-1.23.24-2.63-.45-1.14-.57-2.35-1.27-3.42-1.9a16.76,16.76,0,0,0-3.47-1.76,23.93,23.93,0,0,0-5.46-.07,24,24,0,0,0,3.56,3.41,12.37,12.37,0,0,0,2.32,1.27,24.15,24.15,0,0,1,2.86,1.52,1.35,1.35,0,0,1,.48,1.12,1.28,1.28,0,0,0,.06.39,8,8,0,0,0,1.69.49A6.21,6.21,0,0,1,106,136c.58.39.31,1,.19,1.3l-.06.16c.42.28.92.54,1.4.8a10.38,10.38,0,0,1,2,1.22,1,1,0,0,1,0,1.41l-.11.18c.3.25.79.6,1.27.95a16.72,16.72,0,0,1,1.66,1.27,1.16,1.16,0,0,1,.42.9,1.1,1.1,0,0,1-.59.76l-.12.07,0,0a11.33,11.33,0,0,0,1.84,1.71,14,14,0,0,1,2.32,2.19.63.63,0,0,1,.12.58c-.11.34-.46.46-.78.55.32.35.76.81,1.22,1.28a22.75,22.75,0,0,1,2.23,2.48.56.56,0,0,1,0,.68c-.22.29-.52.27-1,.12l.79.68a8.53,8.53,0,0,1,2,2l.11.21-.08.31a1.14,1.14,0,0,1-.8.55c4.22,5.57,9.06,14.92,8.08,15.74a.58.58,0,0,1-.84-.14l-.1-.08a71.4,71.4,0,0,1-6.38-6.63.54.54,0,0,1-.17.55l-.21.2-.29-.09a4.34,4.34,0,0,1-1.82-1.73l-.42-.57a.52.52,0,0,1-.28.22l-.29.11-.31-.25a15.19,15.19,0,0,1-1.25-1.48c-.22-.28-.43-.55-.63-.79-.1.26-.23.49-.5.55l-.28.07-.27-.23a19.64,19.64,0,0,1-1.63-2.08l-.46-.64a.5.5,0,0,1-.23.16.55.55,0,0,1-.65-.21c-.64-.76-1.34-1.68-2.18-2.86a.55.55,0,0,1-.41.38.61.61,0,0,1-.66-.31c-.32-.47-1.23-2-2.83-4.87a.74.74,0,0,1-.65.28.79.79,0,0,1-.63-.47c-.61-1.1-1.31-2.41-2.12-4a.33.33,0,0,0-.25-.07,1.16,1.16,0,0,1-1.15-.64c-.55-1.11-1.11-2.33-1.7-3.73a.9.9,0,0,1-.8.21.84.84,0,0,1-.53-.53,9.69,9.69,0,0,1-.56-2.62c-.06-.46-.11-.92-.21-1.41a.67.67,0,0,1-.38,0c-.49-.09-.8-.63-1.14-2-.24-1-.44-2-.62-3a16.13,16.13,0,0,0-.71-3A27.42,27.42,0,0,0,92,129.81c-.09.27-.18.54-.28.81a18.5,18.5,0,0,0-1.17,4.7c-.16,2.08,1.49,13.18,3.09,23.9,3.47,23.3,3.62,25.56,2.77,25.9l-.53.23A6.92,6.92,0,0,1,93.32,186.11ZM83.06,128.45l.53.51a39.38,39.38,0,0,1,4.49,4.94c.67,1.09,1.94,17,3.76,42.41.3,4.14.51,7.13.58,7.75a1.17,1.17,0,0,0,.43.95c.59.34,1.88-.24,2.65-.58l.38-.16c.25-1.77-1.66-14.56-3.2-24.9-1.68-11.28-3.26-21.93-3.1-24.12a19.28,19.28,0,0,1,1.23-5c.2-.59.4-1.17.57-1.73l.29-1,.59.82A30.57,30.57,0,0,1,94.53,132a15.49,15.49,0,0,1,.8,3.25c.18.93.38,2,.61,2.93a7.05,7.05,0,0,0,.33,1.05.6.6,0,0,1,.58-.25.57.57,0,0,1,.45.46,14.36,14.36,0,0,1,.39,2.23,9.92,9.92,0,0,0,.42,2.17.94.94,0,0,1,.78-.21.89.89,0,0,1,.55.54c.61,1.45,1.18,2.71,1.74,3.84,0,.08,0,.08.28.09a1.16,1.16,0,0,1,1.13.62c.74,1.47,1.39,2.7,2,3.74a.76.76,0,0,1,.65-.29.73.73,0,0,1,.59.43c1.16,2,2,3.48,2.47,4.32a.56.56,0,0,1,.39-.32.61.61,0,0,1,.66.31c.76,1.08,1.41,2,2,2.71a.55.55,0,0,1,.24-.18.59.59,0,0,1,.66.2c.35.42.72.94,1.11,1.49s.73,1,1.08,1.45a.77.77,0,0,1,.5-.55l.28-.07.27.23a17.36,17.36,0,0,1,1.15,1.39c.23.28.45.57.66.82a.54.54,0,0,1,.28-.23l.29-.1.3.24a9.46,9.46,0,0,1,1.05,1.27l.49.66c0-.37,0-.66.36-.8.52-.24,1,.35,1.3.78a55.91,55.91,0,0,0,5.58,6A63.12,63.12,0,0,0,119,158.58l-.16-.21,0-.33c.11-.35.46-.47.83-.59h0a13.59,13.59,0,0,0-1.52-1.39,10.09,10.09,0,0,1-2-2,.59.59,0,0,1,0-.68c.24-.31.58-.26,1.18-.07-.38-.42-.84-.88-1.26-1.32-.63-.64-1.23-1.26-1.56-1.67a.65.65,0,0,1-.14-.64c.1-.34.42-.47.74-.57a17.6,17.6,0,0,0-1.83-1.64,11.56,11.56,0,0,1-2-1.87,1,1,0,0,1-.26-.81,1.19,1.19,0,0,1,.61-.74l.07,0-.06,0a16,16,0,0,0-1.54-1.18c-.56-.4-1.09-.78-1.41-1.06a1,1,0,0,1,0-1.39l.11-.19a11.4,11.4,0,0,0-1.75-1,16,16,0,0,1-1.61-.92c-.57-.4-.3-1-.19-1.31a.67.67,0,0,0,.06-.15,6.23,6.23,0,0,0-1.75-.54,8,8,0,0,1-2-.62,1.3,1.3,0,0,1-.55-1.17,1.75,1.75,0,0,0,0-.38,26,26,0,0,0-2.72-1.43,12.64,12.64,0,0,1-2.52-1.4,20.57,20.57,0,0,1-4-3.92l-.1-.15,0-.18c0-.13,0-.26,0-.39l0-.42.42,0a24.84,24.84,0,0,1,6.24,0A14.92,14.92,0,0,1,102.3,128c1,.61,2.25,1.31,3.36,1.86a4.31,4.31,0,0,0,1.5.55,3.41,3.41,0,0,0-.08-.37c-.07-.29-.17-.66.13-.9a.59.59,0,0,1,.65-.06,15.49,15.49,0,0,1,2.51,1.53,9.74,9.74,0,0,0,2.59,1.47v-.29a1.4,1.4,0,0,1,.35-1.22.91.91,0,0,1,.79-.13c1.91.48,3.57.84,5.06,1.09.07,0,.12,0,.33-.41s.54-1.08,1.35-1c2,.3,3.79.54,5.33.69,0-.09,0-.2,0-.28a1.3,1.3,0,0,1,.13-1.17.82.82,0,0,1,.7-.24c3.16.29,5.42.47,6.55.52-.31-.4-.59-.78-.41-1.18a.7.7,0,0,1,.63-.38c1.77-.09,3.27-.21,4.54-.38A.78.78,0,0,1,138,127a.61.61,0,0,1,.51-.43c.68-.11,1.47-.16,2.32-.22a18.9,18.9,0,0,0,2.56-.26l-.12-.22c-.28-.48-.5-.86-.35-1.23l.09-.23.3-.12a16.61,16.61,0,0,1,2.2-.37c.6-.08,1.22-.15,1.69-.25a1,1,0,0,1-.3-.86.61.61,0,0,1,.4-.41,8,8,0,0,1,2-.32,6,6,0,0,0,1.82-.31c-.69-.38-1.37-.78-1.24-1.4s.81-.72,1.54-.8c9.33-1,11.37-1.92,11.39-2.53-.8-1-9.74-1.31-12.69-1.42-1.75-.06-2.6-.1-2.89-.16a.59.59,0,0,1-.49-.44.69.69,0,0,1,.25-.66c-.54.06-1.18.19-1.81.32A11,11,0,0,1,142,115a.61.61,0,0,1-.42-.26c-.24-.33-.14-.82,0-1.43l.1-.52c-2-.06-9.34.6-10.85.83a.73.73,0,0,1-.64-.2c-.32-.36-.19-.91-.05-1.55,0-.08.05-.19.07-.29a14.91,14.91,0,0,0-3.11,1.14,11.37,11.37,0,0,1-3.27,1.13,1.05,1.05,0,0,1-.87-.23,1.67,1.67,0,0,1-.35-1.37,4.25,4.25,0,0,0,0-.51l-.16,0a19.58,19.58,0,0,0-2.23,1.11,21.41,21.41,0,0,1-2.06,1,.84.84,0,0,1-.67,0,1.72,1.72,0,0,1-.71-1.12c-.05-.13-.11-.33-.17-.46a12.26,12.26,0,0,0-2.24,1.53,17.14,17.14,0,0,1-2.06,1.45.77.77,0,0,1-.64.08,1.05,1.05,0,0,1-.54-.48h0v0a12.09,12.09,0,0,1-1.6.59c-.19.24-.37.48-.55.73a11.32,11.32,0,0,1-2,2.25c-.62.46-1.23,0-1.59-.31a1.87,1.87,0,0,0-.41-.28,30,30,0,0,0-3.3,2.59,14.68,14.68,0,0,1-3.15,2.31c-3.09,1.36-5.11,2-6.57,2h-.33l-.39-.83.2-.24a36.43,36.43,0,0,1,6.47-6.14c.89-.65,3.08-1.14,5.85-1.76,1.63-.36,3.48-.77,5.12-1.25h0a5.92,5.92,0,0,1,1.49-1.43.8.8,0,0,1,.64-.07.91.91,0,0,1,.45.34s0,0,0-.06-.47-.47-.63-.58c-.35-.25-.68-.48-.62-.89a.63.63,0,0,1,.48-.51,20.2,20.2,0,0,1,4.11-.82,12.78,12.78,0,0,0,4.41-1.1l.1-.07c0-.07-.33-.4-.5-.6-.41-.46-.83-.94-.73-1.5a1.09,1.09,0,0,1,.59-.76c2.51-1.41,4.62-2.7,6.46-3.95.25-.17.24-.4,0-1.11s-.41-1.56.43-2.15c2.5-1.75,4.69-3.35,6.49-4.78.08-.06.1-.09.1-.1a4.4,4.4,0,0,0-.55-.49c-.44-.35-.89-.72-.89-1.24a1,1,0,0,1,.42-.78c4.11-3.26,6.87-5.53,7.88-6.47l-.41-.09c-.7-.13-1.31-.24-1.48-.74a.79.79,0,0,1,.24-.81c2-2.1,3.58-3.92,4.83-5.53h0c-.61,0-1.13,0-1.35-.39a.7.7,0,0,1,.1-.74,33.89,33.89,0,0,1,2.25-2.6,26.1,26.1,0,0,0,2.69-3.23c-.18-.08-.46-.18-.65-.24-.7-.24-1.25-.43-1.41-.86a.66.66,0,0,1,0-.58,26,26,0,0,1,2-2.61,28.1,28.1,0,0,0,1.83-2.4l-.22,0c-.49-.08-.95-.16-1.14-.54a.67.67,0,0,1,0-.63,12.29,12.29,0,0,1,1.8-2.36A7.24,7.24,0,0,0,150,58.35l-.26.06c-1.06.26-2.15.53-2.56-.14s.2-1.44.82-2.18a83.43,83.43,0,0,0,8.14-12.61c-3.18,3.43-8.75,9.42-11.32,11.08a.82.82,0,0,1-.82.1c-.48-.23-.55-.85-.63-1.52a5.69,5.69,0,0,0-.12-.72,21.43,21.43,0,0,0-1.83,1.35,22,22,0,0,1-2.09,1.54.63.63,0,0,1-.7,0c-.39-.27-.31-.79-.19-1.5a22.8,22.8,0,0,0-2.1,2.75,16.25,16.25,0,0,1-3,3.58.67.67,0,0,1-.55.11c-.45-.1-.75-.61-1.24-1.5-.15-.27-.37-.68-.53-.9A15.27,15.27,0,0,0,129,61.8c-.82,1.89-1.6,3.68-2.55,4.55a.64.64,0,0,1-.71.14c-.52-.23-.54-1-.53-2.9,0-.45,0-1,0-1.48-.78,1-1.84,2.78-2.8,4.38s-1.68,2.82-2.26,3.57a.78.78,0,0,1-.69.33c-.58,0-1-.76-1.38-1.58-.11-.2-.25-.48-.37-.68a21.5,21.5,0,0,0-2.43,4.78,17.48,17.48,0,0,1-2.35,4.54,1.3,1.3,0,0,1-1,.55h0c-.65,0-1.13-.59-1.54-1.11-.19-.23-.54-.66-.68-.68s-.11.05-.29.36a30.18,30.18,0,0,0-1.32,3.58,33.62,33.62,0,0,1-1.17,3.26.94.94,0,0,1-.61.55,2.23,2.23,0,0,1-1.66-.52,2.8,2.8,0,0,0-.86-.42,20.61,20.61,0,0,0-1,4.28A26.31,26.31,0,0,1,102,91a.92.92,0,0,1-.5.6,2,2,0,0,1-1.55-.28,2.29,2.29,0,0,0-.75-.27,16.28,16.28,0,0,0,.07,4.49,17.84,17.84,0,0,1,.08,4.47c-.17,1-1.14,1-1.78,1.06-.36,0-.8.06-.84.2a45,45,0,0,0-1.1,6.43,23.93,23.93,0,0,1-1.1,5.75c-1.85,4.38-3.3,7-4.69,8.63l-.22.25-.32-.11a2.61,2.61,0,0,0-1.11-.13l-.48,0-.06-.48a48.69,48.69,0,0,1-.17-10.29c.12-1.26,1.23-3.59,2.65-6.54C91,103,92,100.91,92.75,99c1.11-2.71.75-3.12.75-3.12s-.61.09-.8.15c-.42.13-.81.26-1.1,0a.69.69,0,0,1-.1-.74,27.07,27.07,0,0,1,2.17-4.31,17,17,0,0,0,2.19-4.84.45.45,0,0,0,0-.22,3.61,3.61,0,0,0-.76,0,1.9,1.9,0,0,1-1.6-.38,1.2,1.2,0,0,1-.2-1.06c.65-3.34,1.12-6.21,1.44-8.77,0-.44-.17-.6-.8-.94s-1.43-.77-1.3-1.88c.4-3.65.67-6.72.84-9.4a.51.51,0,0,0,0-.23,5.25,5.25,0,0,0-.69.15c-.53.12-1.12.27-1.53-.08a1,1,0,0,1-.33-.92c.36-6.33.53-10.33.52-11.92-.11.1-.23.2-.31.29-.57.53-1.06,1-1.56.79a.77.77,0,0,1-.47-.77c-.23-3.44-.5-6.15-.85-8.43h0c-.41.57-.73,1-1.21.91a.66.66,0,0,1-.49-.6c-.2-1.14-.31-2.5-.42-3.94a35.18,35.18,0,0,0-.58-4.82c-.18.11-.42.28-.58.39-.65.46-1.17.82-1.63.65a.66.66,0,0,1-.41-.46,30.65,30.65,0,0,1-.62-3.67c-.17-1.25-.34-2.53-.55-3.41l-.14.14c-.39.38-.77.74-1.2.63a.65.65,0,0,1-.48-.47,15.65,15.65,0,0,1-.53-3.33,9.41,9.41,0,0,0-.79-3.71c-.05.1-.09.21-.14.3-.53,1.18-1,2.3-1.84,2.17s-.92-1-1.07-2.31a104.9,104.9,0,0,0-3.9-16.71c.4,5.37,1.1,15,.59,18.53a.87.87,0,0,1-.51.75c-.5.2-1-.18-1.53-.58a5.33,5.33,0,0,0-.6-.41,25,25,0,0,0-.25,2.78c-.06,1-.12,2-.27,3a.64.64,0,0,1-.48.58c-.48.11-.78-.31-1.24-1A28.7,28.7,0,0,0,68,31.84a20.45,20.45,0,0,1,.65,5.26.71.71,0,0,1-.29.52c-.41.31-1.09.16-1.94,0a9.26,9.26,0,0,0-1.05-.18,17.33,17.33,0,0,0,1.52,5c.81,2,1.65,4.12,1.65,5.59a.66.66,0,0,1-.39.66c-.54.23-1.14-.32-2.52-1.69-.33-.34-.77-.77-1.12-1.08a55.74,55.74,0,0,0,1.39,5.91c.49,1.85,1,3.59,1.12,4.67a.84.84,0,0,1-.24.79c-.44.41-1.23.23-2.07,0a7.6,7.6,0,0,0-.8-.17A24.74,24.74,0,0,0,65.86,63a21,21,0,0,1,1.78,5.45,1.53,1.53,0,0,1-.29,1.25,2.24,2.24,0,0,1-1.82.5c-.34,0-.87,0-1,.13s-.07.25.06.67a34.85,34.85,0,0,0,1.78,3.86A37.76,37.76,0,0,1,68,78.24c.42,1.14-.76,1.62-1.47,1.91-.9.36-1,.48-.91.64a20,20,0,0,0,2.49,4,29.83,29.83,0,0,1,2.23,3.42c.52,1-.51,1.57-1.12,1.91-.23.13-.71.4-.74.53a13,13,0,0,0,3.39,3.37,18.08,18.08,0,0,1,3.39,3.2c.55.79,0,1.63-.41,2.24-.26.4-.56.85-.43,1.06a46.46,46.46,0,0,0,4,5.72,24.8,24.8,0,0,1,3.52,5.2c1.26,3.07,3.66,11.57,3,12.16l-.3.26-.32-.24A36.58,36.58,0,0,1,77.59,117c-.69-.88-1.35-3.16-2.2-6-.52-1.8-1.12-3.84-1.76-5.62-.82-2.26-1.27-2.42-1.29-2.43a3.74,3.74,0,0,0-.41.72c-.19.4-.39.75-.8.77a.63.63,0,0,1-.56-.46,24.06,24.06,0,0,1-1.17-4.3A15.3,15.3,0,0,0,67.93,95l0,0a4.85,4.85,0,0,0-.46.52c-.39.48-.78,1-1.36,1a1,1,0,0,1-.81-.56c-1.5-2.46-2.95-4.65-4.3-6.53-.16-.21-.27-.23-1,.06s-1.46.63-2.11-.24c-2-2.62-3.62-4.73-5.07-6.47l0,0a3.87,3.87,0,0,0-.37.58c-.29.51-.58,1-1.11,1.09a.91.91,0,0,1-.8-.39c-3.4-4-5.7-6.65-6.71-7.7,0,.15,0,.29,0,.41-.05.8-.09,1.43-.59,1.64a.77.77,0,0,1-.81-.2c-2.16-1.93-3.93-3.39-5.51-4.55v0c.08.67.14,1.21-.27,1.46a.65.65,0,0,1-.73-.06,32.76,32.76,0,0,1-2.63-2.14A26.64,26.64,0,0,0,30,70.34c-.05.21-.11.5-.15.69-.16.82-.27,1.41-.7,1.61a.69.69,0,0,1-.58,0A23.85,23.85,0,0,1,26,70.78c-.82-.63-1.67-1.27-2.31-1.66a1.85,1.85,0,0,0,0,.23c0,.56-.05,1-.43,1.27a.65.65,0,0,1-.62,0,11.19,11.19,0,0,1-2.37-1.69,6.84,6.84,0,0,0-2.67-1.68c0,.11.07.23.1.33.37,1.17.72,2.27.06,2.73s-1.36-.11-2.13-.72c-6.06-4.81-13.26-9-14.6-8.83.49,1.64,7.72,9.38,11.25,13.15,2.26,2.42,3.45,3.7,3.74,4.12a.73.73,0,0,1,.09.65c-.16.46-.7.64-1.34.84-.16.06-.4.13-.57.21a15.41,15.41,0,0,0,3.16,2.39A15.68,15.68,0,0,1,21,85c.52.66-.31,1.32-1.12,2a7.49,7.49,0,0,0-.82.71,13.24,13.24,0,0,0,3.89,1.9c1.76.65,3.58,1.34,4.48,2.27a.66.66,0,0,1,.17.7c-.2.54-1,.64-2.67.82-.42,0-1,.1-1.4.17a42.7,42.7,0,0,0,4.43,2.62,39.11,39.11,0,0,1,3.53,2.07.8.8,0,0,1,.36.65c0,.59-.6,1-1.3,1.58a5.67,5.67,0,0,0-.66.53,18.33,18.33,0,0,0,4.7,2.15A15.21,15.21,0,0,1,39,105.15a1.4,1.4,0,0,1,.59.95,2.47,2.47,0,0,1-.86,1.71c-.23.26-.61.7-.57.86s.09.16.37.3A25.3,25.3,0,0,0,42,110a28.3,28.3,0,0,1,3.14.93c1,.42.56,1.57.25,2.33a3,3,0,0,0-.3,1,15.66,15.66,0,0,0,4,.65,24.36,24.36,0,0,1,3.51.46.89.89,0,0,1,.59.43,2.2,2.2,0,0,1-.08,1.66,2.67,2.67,0,0,0-.17.89,12.26,12.26,0,0,0,4.11-.51,14.78,14.78,0,0,1,4.14-.54c.93.1,1.08,1.07,1.18,1.78,0,.24.14.88.26.9a34.63,34.63,0,0,0,6.06.53,19,19,0,0,1,5.44.62,53.15,53.15,0,0,1,8.35,4.16l1.09.66-1.26.25a24,24,0,0,1-6.63.22,14.76,14.76,0,0,1-3.88-1.78c-1.07-.59-2.29-1.25-3.41-1.77a4.53,4.53,0,0,0-1.52-.52,2.87,2.87,0,0,0,.09.37c.08.29.18.65-.1.9a.59.59,0,0,1-.65.08,14.2,14.2,0,0,1-2.56-1.47,9.6,9.6,0,0,0-2.62-1.39c0,.1,0,.21,0,.3a1.4,1.4,0,0,1-.32,1.22.85.85,0,0,1-.78.15c-1.85-.41-3.56-.73-5.1-.95-.07,0-.11,0-.32.42s-.5,1.09-1.32,1c-2.1-.26-3.85-.44-5.35-.55,0,.09,0,.2.06.28a1.33,1.33,0,0,1-.11,1.17.79.79,0,0,1-.7.26c-3.8-.25-5.66-.33-6.55-.34.32.39.6.76.43,1.17a.67.67,0,0,1-.61.39c-1.78.13-3.28.3-4.55.51a.75.75,0,0,1,.34.77.61.61,0,0,1-.5.44c-.67.13-1.47.2-2.31.28a20,20,0,0,0-2.56.33,2.14,2.14,0,0,0,.13.22c.29.47.52.85.38,1.22l-.08.22-.31.14a16.44,16.44,0,0,1-2.17.42c-.61.1-1.23.19-1.7.3a.93.93,0,0,1,.32.85.59.59,0,0,1-.39.42,7.94,7.94,0,0,1-2,.38,6.18,6.18,0,0,0-1.82.36c.7.36,1.39.74,1.28,1.36s-.79.75-1.52.84a50.43,50.43,0,0,0-8.46,2.18c3.19-.27,7.69-.59,9.53-.29a.72.72,0,0,1,.58.41c.18.41-.09.81-.34,1.19l-.13.2c.42.06.86.09,1.33.12a15.19,15.19,0,0,1,1.77.19.57.57,0,0,1,.5.43.65.65,0,0,1-.24.66c.55-.08,1.19-.22,1.82-.37a10.79,10.79,0,0,1,3.14-.44.64.64,0,0,1,.44.25c.24.32.15.81,0,1.43,0,.14-.06.34-.08.5a12.44,12.44,0,0,0,2.56-1,9.64,9.64,0,0,1,3.37-1.13.61.61,0,0,1,.57.34c.21.47-.2.93-1,1.86l-.34.4c.82-.18,1.92-.52,2.93-.83a25.5,25.5,0,0,1,2.74-.76.73.73,0,0,1,.64.18c.33.35.22.9.09,1.54a2.65,2.65,0,0,0-.06.3,14.58,14.58,0,0,0,3.06-1.22,11.52,11.52,0,0,1,3.26-1.22,1.06,1.06,0,0,1,.87.21,1.69,1.69,0,0,1,.39,1.36,3.94,3.94,0,0,0,0,.5l.16,0a20.27,20.27,0,0,0,2.21-1.17,20.29,20.29,0,0,1,2-1.1.85.85,0,0,1,.67,0c.41.18.57.65.73,1.1,0,.13.12.33.18.45a12.22,12.22,0,0,0,2.22-1.59,18.5,18.5,0,0,1,2-1.51.82.82,0,0,1,.64-.09c.41.12.61.54.79.92.05.09.11.22.17.31a10.07,10.07,0,0,0,1.73-2.1,11.69,11.69,0,0,1,1.91-2.31c.6-.48,1.22,0,1.59.27a1.93,1.93,0,0,0,.42.26,30.3,30.3,0,0,0,3.24-2.68,14.78,14.78,0,0,1,3.09-2.39c3-1.42,5-2.11,6.47-2.22l.21-.19.69.61-.29.4a30.28,30.28,0,0,1-2.45,4.8A14.54,14.54,0,0,1,78,135.41c-.69.58-1.48,1.24-2.17,1.88a5,5,0,0,0-.78.84.64.64,0,0,1,.51.43.57.57,0,0,1-.17.59,13.66,13.66,0,0,1-1.7,1.36A8.28,8.28,0,0,0,72,141.92a1,1,0,0,1,.56.66.89.89,0,0,1-.21.71c-.91,1.19-1.73,2.33-2.44,3.38-.06.08-.06.1.05.37a1.25,1.25,0,0,1,0,1.29c-.85,1.29-1.63,2.51-2.31,3.62a.84.84,0,0,1,.58.49.76.76,0,0,1-.1.7c-1.24,2.09-2.09,3.54-2.57,4.37a.6.6,0,0,1,.47.2.62.62,0,0,1,0,.73c-.58,1.25-1,2.29-1.41,3.2a.55.55,0,0,1,.26.12.57.57,0,0,1,.13.67c-.19.54-.47,1.14-.77,1.78s-.54,1.19-.75,1.72a.79.79,0,0,1,.71.2l.18.21-.07.35a16.4,16.4,0,0,1-.64,1.7c-.15.38-.31.76-.43,1.1a.59.59,0,0,1,.33.14l.22.2-.07.39a9.13,9.13,0,0,1-.59,1.55,4.29,4.29,0,0,0-.57,1.92c0,.16,0,.19-.92,4.84-.08.4-.17.82-.25,1.23a54.9,54.9,0,0,1,3.07-5.91.64.64,0,0,1,.64-.32.68.68,0,0,1,.5.47c.11-.18.23-.36.34-.55.25-.42.51-.85.78-1.23l.21-.29.42.06a.26.26,0,0,1,.13.06c.14-.35.27-.73.4-1.11a12.58,12.58,0,0,1,1-2.41l.13-.21.33-.07c.33,0,.57.22.81.5a16.38,16.38,0,0,0,.46-2,11.82,11.82,0,0,1,.76-2.79l.17-.32H72c.37.07.48.37.59,1,.16-.52.34-1.11.5-1.67.26-.88.51-1.72.7-2.21a.66.66,0,0,1,.51-.45.88.88,0,0,1,.79.4,16.76,16.76,0,0,0,.54-2.41,13.5,13.5,0,0,1,.69-2.75,1,1,0,0,1,.6-.62,1.07,1.07,0,0,1,.92.26h0c.1-.39.2-1.21.3-2s.17-1.41.27-1.84c.17-.79,1-.69,1.22-.66l.13,0a13.2,13.2,0,0,0,.11-2.15,18,18,0,0,1,.06-2,.92.92,0,0,1,1.06-.76h.11a8.1,8.1,0,0,0-.33-2,9.15,9.15,0,0,1-.35-2.18,1.27,1.27,0,0,1,.74-1,1.46,1.46,0,0,0,.28-.2,27.61,27.61,0,0,0,0-3.28,14.79,14.79,0,0,1,.06-3,27.57,27.57,0,0,1,1.29-5Zm13,55.74Zm22.2-29.83ZM96.33,139.72h0ZM26.58,130.4h0Zm4.05-1.81Zm-.23-.74h0Zm37.21-6.31a9.4,9.4,0,0,1,1.22.48c1.15.53,2.38,1.21,3.47,1.8a16.66,16.66,0,0,0,3.5,1.67,24.12,24.12,0,0,0,4.94,0,48.63,48.63,0,0,0-6.93-3.34,18.87,18.87,0,0,0-5.13-.56Zm75.94,3.67Zm-35.64-9.29c-1.32.35-2.69.65-3.93.93-2.45.54-4.75,1.06-5.48,1.59a35.32,35.32,0,0,0-5.72,5.29,25.14,25.14,0,0,0,5.35-1.87,14.37,14.37,0,0,0,2.9-2.15,28.21,28.21,0,0,1,3.5-2.7c.58-.36,1.12.08,1.48.37a1.78,1.78,0,0,0,.42.28A10.28,10.28,0,0,0,107.91,115.92Zm-44,5.35.29.19a18.19,18.19,0,0,0,1.67,1,1,1,0,0,1,.29-.87.72.72,0,0,1,.24-.14C65.61,121.44,64.77,121.38,63.94,121.27Zm98.85-4.3Zm-51.11-4.8a1.6,1.6,0,0,1,.81,1.27,1.21,1.21,0,0,1-.49.9,20.82,20.82,0,0,0,1.73-1.25,12.82,12.82,0,0,1,2.5-1.67l-1.27.17A22.19,22.19,0,0,0,111.68,112.17ZM142.12,114h0Zm5.76-49.65h0ZM81.64,27Z"/></g></g></svg>