<svg xmlns="http://www.w3.org/2000/svg" viewBox="0 0 220.35 224.33"><defs><style>.cls-1{fill:#feb73b;}.cls-2{fill:#213043;}.cls-3{fill:#ff7e48;}.cls-4{fill:#fdfbef;}.cls-5{fill:#2b3044;}.cls-6{fill:#fbffff;}.cls-7{fill:#f789b6;}</style></defs><g id="Слой_2" data-name="Слой 2"><g id="Layer_1" data-name="Layer 1"><path class="cls-1" d="M170.4,114.62c0,33.86-27,61.31-60.22,61.31S50,148.48,50,114.62s27-61.32,60.23-61.32S170.4,80.75,170.4,114.62Z"/><path class="cls-2" d="M110.18,176.43c-33.49,0-60.73-27.73-60.73-61.81S76.69,52.8,110.18,52.8s60.72,27.73,60.72,61.82S143.66,176.43,110.18,176.43Zm0-122.63c-32.94,0-59.73,27.28-59.73,60.82s26.79,60.81,59.73,60.81,59.72-27.28,59.72-60.81S143.11,53.8,110.18,53.8Z"/><path class="cls-3" d="M110.18,32.21c-44.34,0-80.27,36.58-80.27,81.71s35.93,81.73,80.27,81.73,80.26-36.59,80.26-81.73S154.51,32.21,110.18,32.21Zm0,152.52c-38.41,0-69.54-31.71-69.54-70.81s31.13-70.8,69.54-70.8,69.53,31.7,69.53,70.8S148.58,184.73,110.18,184.73Z"/><path class="cls-2" d="M110.18,196.15c-44.54,0-80.77-36.89-80.77-82.23s36.23-82.21,80.77-82.21,80.76,36.88,80.76,82.21S154.71,196.15,110.18,196.15Zm0-163.44c-44,0-79.77,36.43-79.77,81.21s35.79,81.23,79.77,81.23,79.76-36.44,79.76-81.23S154.16,32.71,110.18,32.71Zm0,152.52c-38.62,0-70-32-70-71.31s31.42-71.3,70-71.3,70,32,70,71.3S148.8,185.23,110.18,185.23Zm0-141.61c-38.07,0-69,31.54-69,70.3s31,70.31,69,70.31,69-31.54,69-70.31S148.25,43.62,110.18,43.62Z"/><path class="cls-1" d="M110.18.5C49.6.5.5,50.49.5,112.16S49.6,223.83,110.18,223.83s109.67-50,109.67-111.67S170.75.5,110.18.5Zm0,208.4c-52.48,0-95-43.32-95-96.74s42.54-96.75,95-96.75,95,43.32,95,96.75S162.66,208.9,110.18,208.9Z"/><path class="cls-2" d="M110.18,224.33C49.43,224.33,0,174,0,112.16S49.43,0,110.18,0,220.35,50.31,220.35,112.16,170.93,224.33,110.18,224.33ZM110.18,1C50,1,1,50.86,1,112.16S50,223.33,110.18,223.33s109.17-49.87,109.17-111.17S170.38,1,110.18,1Zm0,208.4c-52.67,0-95.52-43.62-95.52-97.24s42.85-97.25,95.52-97.25,95.51,43.63,95.51,97.25S162.85,209.4,110.18,209.4Zm0-193.49c-52.12,0-94.52,43.18-94.52,96.25s42.4,96.24,94.52,96.24,94.51-43.17,94.51-96.24S162.3,15.91,110.18,15.91Z"/><path class="cls-4" d="M96,105.28c0,8.17-5,14.78-11.11,14.78s-11.11-6.61-11.11-14.78,5-14.78,11.11-14.78S96,97.12,96,105.28Z"/><path class="cls-2" d="M84.93,120.56c-6.41,0-11.61-6.85-11.61-15.28S78.52,90,84.93,90s11.61,6.86,11.61,15.28S91.33,120.56,84.93,120.56Zm0-29.56c-5.85,0-10.61,6.41-10.61,14.28s4.76,14.28,10.61,14.28,10.61-6.4,10.61-14.28S90.78,91,84.93,91Z"/><path class="cls-5" d="M91.13,106.67c0,5.56-3.43,10.07-7.67,10.07s-7.66-4.51-7.66-10.07,3.43-10.08,7.66-10.08S91.13,101.1,91.13,106.67Z"/><path class="cls-6" d="M89.32,99.22c0,2.32-1.54,4.2-3.44,4.2s-3.43-1.88-3.43-4.2S84,95,85.88,95,89.32,96.9,89.32,99.22Z"/><path class="cls-6" d="M83.46,105.59a2.05,2.05,0,1,1-2-2.46A2.27,2.27,0,0,1,83.46,105.59Z"/><path class="cls-4" d="M149.21,106.67c0,8.16-5,14.78-11.11,14.78S127,114.83,127,106.67s5-14.78,11.11-14.78S149.21,98.5,149.21,106.67Z"/><path class="cls-2" d="M138.1,122c-6.4,0-11.61-6.86-11.61-15.28s5.21-15.28,11.61-15.28,11.61,6.85,11.61,15.28S144.5,122,138.1,122Zm0-29.56c-5.85,0-10.61,6.4-10.61,14.28S132.25,121,138.1,121s10.61-6.41,10.61-14.28S144,92.39,138.1,92.39Z"/><path class="cls-5" d="M144.3,108.05c0,5.57-3.43,10.08-7.66,10.08S129,113.62,129,108.05,132.4,98,136.64,98,144.3,102.49,144.3,108.05Z"/><path class="cls-6" d="M142.49,100.6c0,2.32-1.54,4.2-3.44,4.2s-3.43-1.88-3.43-4.2,1.54-4.2,3.43-4.2S142.49,98.28,142.49,100.6Z"/><path class="cls-6" d="M137.63,108.05a2.05,2.05,0,1,1-2-2.46A2.27,2.27,0,0,1,137.63,108.05Z"/><path class="cls-5" d="M148.34,84.7a7.67,7.67,0,0,0-5.12-6.6A8.72,8.72,0,0,0,134,79.74l-.88-.46c.32-.72,4.82-4.31,10.43-2.11a8.82,8.82,0,0,1,5.75,7.51Z"/><path class="cls-5" d="M77.44,84.76c-.2-.87,1.11-6.93,7-8.38s9.31,3.28,9.35,3.32l-.81.59a8.13,8.13,0,0,0-8.3-2.94,8.51,8.51,0,0,0-6.26,7.22Z"/><path class="cls-5" d="M106.41,125.36a5.52,5.52,0,0,1-.17-5.28c.6-1.08,1.91-2.42,4.78-2.59,5.77-.33,6.5,6.33,6.5,6.39l-1,.11c0-.24-.63-5.79-5.45-5.5a4.11,4.11,0,0,0-3.8,6.39Z"/><path class="cls-3" d="M100.23,136s6,3.73,12.74,3.57,10-3.58,10-3.58-1.35,11.22-10.61,11.38C102.63,147.51,100.23,136,100.23,136Z"/><path class="cls-2" d="M112.13,147.85c-9.83,0-12.36-11.65-12.39-11.77l-.23-1.14,1,.61c.06,0,6,3.66,12.47,3.5s9.59-3.39,9.62-3.42l1-1.07-.17,1.47c0,.12-1.51,11.65-11.1,11.82ZM101,137c.89,2.79,3.84,9.85,11.1,9.85h.2c6.94-.12,9.21-6.73,9.87-9.62a16.36,16.36,0,0,1-9.21,2.82A26.09,26.09,0,0,1,101,137Z"/><path class="cls-7" d="M92.54,119.43c0,4-5,7.26-11.09,7.26s-11.08-3.25-11.08-7.26,5-7.27,11.08-7.27S92.54,115.42,92.54,119.43Z"/><path class="cls-2" d="M81.45,127.19c-6.38,0-11.58-3.48-11.58-7.76s5.2-7.77,11.58-7.77S93,115.15,93,119.43,87.84,127.19,81.45,127.19Zm0-14.53c-5.83,0-10.58,3-10.58,6.77s4.75,6.76,10.58,6.76,10.59-3,10.59-6.76S87.29,112.66,81.45,112.66Z"/><path class="cls-7" d="M151.76,120.06c0,4-4.7,7.27-10.49,7.27s-10.5-3.25-10.5-7.27,4.7-7.26,10.5-7.26S151.76,116.05,151.76,120.06Z"/><path class="cls-2" d="M141.27,127.83c-6.07,0-11-3.49-11-7.77s4.93-7.76,11-7.76,11,3.48,11,7.76S147.33,127.83,141.27,127.83Zm0-14.53c-5.52,0-10,3-10,6.76s4.48,6.77,10,6.77,10-3,10-6.77S146.78,113.3,141.27,113.3Z"/></g></g></svg>