<svg xmlns="http://www.w3.org/2000/svg" viewBox="0 0 303.46 312.53"><defs><style>.cls-1{fill:#fdfbef;}.cls-2{fill:#213043;}.cls-3{fill:#2b3044;}.cls-4{fill:#fbffff;}.cls-5{fill:#5292ad;}</style></defs><g id="Слой_2" data-name="Слой 2"><g id="Layer_1" data-name="Layer 1"><path class="cls-1" d="M65.3,35.31S65.13,7.19,91,1.29s40.27,22.79,40.27,22.79S138.46,2,164.52,2c28,0,34,27.49,34,27.49s8.17-9.55,21.95-3.36c14.45,6.49,12.45,22,12.45,22s38.42-8,46.34,26.58c7.66,33.42-26,44.92-26,44.92S258.1,135.33,242,147c-12.69,9.21-30.63,0-30.63,0S196,174.18,157.49,169.76c-35.11-4-40.44-30.49-40.44-30.49A51.31,51.31,0,0,1,63.43,146c-26-11.42-24.67-34.19-24.67-34.19S4.45,113.85.85,88.49c-4-28.38,28.26-32,28.26-32S19.62,34.93,39,24.83C53.31,17.4,65.3,35.31,65.3,35.31Z"/><path class="cls-2" d="M165.7,170.74a72.56,72.56,0,0,1-8.26-.49c-31.64-3.63-39.42-25.62-40.68-30.09-3.88,3.11-25.41,18.67-53.53,6.32-23.78-10.45-25-30.56-25-34.13-4.41.11-34.52,0-37.9-23.79C-.77,80.66.79,73.9,5,68.48c7.26-9.37,20.38-11.91,23.42-12.39C27.05,52.47,21,33.63,38.8,24.39,51.11,18,61.84,30,64.87,33.88,65.28,28,68.32,6,90.87.8c23.15-5.29,37.45,17.14,40.3,22.1C133,18.51,141.65,1.46,164.52,1.46c25.23,0,32.95,22.31,34.3,27,2.22-2.08,10.1-8.14,21.88-2.85,12.9,5.79,13,18.75,12.8,21.84,5.13-.84,38.91-5.08,46.28,27.07,7.19,31.4-21.94,43.83-25.87,45.35.62,2.71,3,16.89-11.6,27.52-11.71,8.49-27.94,1.54-30.74.24C209.6,150.75,195.76,170.74,165.7,170.74Zm-48.34-32.43.18.86c0,.26,5.69,26.14,40,30.09,37.7,4.33,53.24-22.24,53.39-22.51l.24-.41.43.22c.17.09,17.82,9,30.11,0,15.59-11.32,11.16-26.72,11.11-26.88l-.14-.46.46-.16c.33-.11,33.12-11.74,25.65-44.33-7.71-33.69-45.37-26.28-45.75-26.2l-.69.14.09-.7c0-.15,1.78-15.21-12.16-21.46-13.28-6-21.28,3.13-21.36,3.23l-.65.76-.21-1c-.06-.27-6.3-27.1-33.55-27.1-25.38,0-32.73,21.56-32.8,21.77l-.37,1.15-.55-1.08C130.66,24,116.18-3.95,91.1,1.78S65.8,35,65.8,35.31V37l-.92-1.38C64.77,35.41,53,18.13,39.26,25.27c-18.78,9.78-9.79,30.82-9.69,31l.27.62-.67.08C29,57,13.72,58.84,5.78,69.1c-4,5.2-5.52,11.7-4.44,19.32,3.5,24.61,37.05,22.93,37.39,22.91l.56,0,0,.56c0,.22-1,22.56,24.38,33.7,30.36,13.34,52.85-6.46,53.07-6.66Z"/><path class="cls-1" d="M186.29,98.53c23-10.34,37.36,6.65,37.36,6.65a18.3,18.3,0,0,1,17.69-11.76c14.88,0,18.09,14.61,18.09,14.61s4.34-5.07,11.67-1.78c7.68,3.45,6.62,11.69,6.62,11.69s20.43-4.25,24.64,14.13c4.07,17.77-13.81,23.88-13.81,23.88s2.54,8.38-6,14.58c-6.75,4.9-16.29,0-16.29,0s-8.18,14.45-28.65,12.1c-18.67-2.14-21.5-16.21-21.5-16.21A27.29,27.29,0,0,1,187.59,170c-13.83-6.07-13.12-18.18-13.12-18.18s-18.24,1.08-20.16-12.41c-2.14-15.08,15-17,15-17S173.33,104.36,186.29,98.53Z"/><path class="cls-2" d="M242,183.39a38.24,38.24,0,0,1-4.42-.26c-16.27-1.87-20.78-12.82-21.72-15.84a28,28,0,0,1-28.43,3.18c-12.31-5.4-13.35-15.65-13.42-18.12-3.07,0-18.38-.4-20.15-12.86a13.88,13.88,0,0,1,2.51-10.85c4-5.11,10.95-6.43,12.6-6.67.65-2.55,5.11-18.48,17.15-23.9,20.54-9.24,34.51,3.26,37.39,6.19a19,19,0,0,1,17.87-11.34c13,0,17.37,11,18.35,14.18,1.51-1.29,5.65-4,11.61-1.31,6.64,3,7,9.46,7,11.55,3.54-.52,20.74-2.16,24.58,14.62,3.77,16.44-11,23.21-13.71,24.3.39,1.88,1.29,9.17-6.3,14.68-6.19,4.49-14.44,1.14-16.39.24C265,173.32,257.56,183.39,242,183.39Zm-25.55-17.92.18.85c0,.14,3,13.74,21.07,15.82,19.88,2.28,28.07-11.71,28.16-11.85l.23-.42.43.22c.09,0,9.35,4.7,15.77,0,8.14-5.91,5.92-13.7,5.82-14l-.14-.46.45-.16c.72-.24,17.41-6.18,13.49-23.3-4.05-17.68-23.23-13.92-24.05-13.75l-.69.14.09-.7c0-.32.92-7.91-6.33-11.17-6.9-3.09-11,1.61-11.08,1.66l-.65.76-.22-1c-.12-.58-3.31-14.22-17.6-14.22-13.32,0-17.07,11-17.22,11.41l-.28.85-.58-.68c-.14-.17-14.44-16.57-36.77-6.52l-.2-.45.2.45c-12.58,5.66-16.62,23.37-16.66,23.54l-.08.35-.35,0c-.08,0-8.12,1-12.28,6.35a12.89,12.89,0,0,0-2.31,10.09c1.83,12.87,19.45,12,19.63,12l.56,0,0,.56c0,.48-.51,11.84,12.82,17.7a27,27,0,0,0,28-3.51Z"/><path class="cls-3" d="M129.58,51.76c.51,6.33-1.61,11.83-4.74,12.28s-6.08-4.31-6.59-10.65,1.6-11.83,4.73-12.28S129.06,45.42,129.58,51.76Z"/><path class="cls-4" d="M127.91,47.68c.22,2.7-.63,5-1.91,5.23s-2.48-1.86-2.7-4.56.64-5,1.91-5.22S127.69,45,127.91,47.68Z"/><ellipse class="cls-4" cx="122.56" cy="59.88" rx="1.35" ry="2.24"/><path class="cls-3" d="M147.58,51.93c0,6.37,2.55,11.53,5.7,11.53S159,58.3,159,51.93s-2.55-11.54-5.69-11.54S147.58,45.55,147.58,51.93Z"/><path class="cls-4" d="M148.91,47.64c0,2.71,1,4.92,2.31,4.92s2.32-2.2,2.32-4.92-1-4.92-2.32-4.92S148.91,44.92,148.91,47.64Z"/><path class="cls-4" d="M153.87,59.19c.1,1.23.78,2.14,1.52,2s1.27-1.19,1.17-2.42-.79-2.14-1.53-2S153.77,58,153.87,59.19Z"/><path class="cls-3" d="M226.31,125.73c.16,2.11-1,3.87-2.48,3.94s-2.9-1.58-3.05-3.69.95-3.86,2.48-3.93S226.16,123.63,226.31,125.73Z"/><path class="cls-4" d="M225.56,124.35c.07.89-.38,1.64-1,1.67s-1.18-.67-1.25-1.57.39-1.65,1-1.67S225.5,123.45,225.56,124.35Z"/><path class="cls-4" d="M223.43,128.27a.68.68,0,0,1-.69.7.75.75,0,0,1,.07-1.48A.71.71,0,0,1,223.43,128.27Z"/><path class="cls-3" d="M235.07,126.25c-.1,2.1,1.07,3.87,2.6,3.95s2.85-1.55,2.94-3.66-1.06-3.87-2.6-4S235.16,124.15,235.07,126.25Z"/><path class="cls-4" d="M235.78,124.87c0,.9.43,1.65,1.05,1.68s1.16-.66,1.2-1.56-.43-1.65-1.05-1.68S235.82,124,235.78,124.87Z"/><path class="cls-4" d="M238,128.81a.73.73,0,0,0,.71.71.68.68,0,0,0,.6-.77.72.72,0,0,0-.71-.71A.68.68,0,0,0,238,128.81Z"/><path class="cls-3" d="M138.46,89.76c-8,0-9.8-8.18-9.82-8.27l1-.2c.06.31,1.65,7.47,8.84,7.47h.07c6.27,0,7-7.88,7-8l1,.08c0,.09-.8,8.83-8,8.88Z"/><path class="cls-3" d="M232.33,137.26c0,2-.85,3.67-1.89,3.67s-1.89-1.64-1.89-3.67.84-3.67,1.89-3.67S232.33,135.23,232.33,137.26Z"/><path class="cls-5" d="M110.42,161.29c-.71,1.92-9,23.51.71,24.21C122.56,186.32,110.42,161.29,110.42,161.29Z"/><path class="cls-2" d="M111.67,186l-.57,0a4.84,4.84,0,0,1-3.92-2.23c-3.25-5.07.82-17.44,2.72-22.53l.46-1.23.51,1.06c.35.71,8.43,17.54,4.65,23.12A4.35,4.35,0,0,1,111.67,186Zm-1.2-23.43c-1.69,4.73-5.31,16.18-2.45,20.64a3.8,3.8,0,0,0,3.15,1.77,3.56,3.56,0,0,0,3.52-1.37C117.64,179.28,112.21,166.42,110.47,162.59Z"/><path class="cls-5" d="M141.53,200.45c-.71,1.92-9,23.52.72,24.21C153.67,225.48,141.53,200.45,141.53,200.45Z"/><path class="cls-2" d="M142.78,225.18a5.62,5.62,0,0,1-.57,0,4.79,4.79,0,0,1-3.92-2.23c-3.25-5.06.82-17.44,2.73-22.53l.45-1.22.51,1c.35.72,8.43,17.54,4.65,23.13A4.33,4.33,0,0,1,142.78,225.18Zm-1.19-23.42c-1.7,4.73-5.32,16.17-2.45,20.63a3.77,3.77,0,0,0,3.14,1.77,3.54,3.54,0,0,0,3.52-1.37C148.75,218.44,143.32,205.59,141.59,201.76Z"/><path class="cls-5" d="M113.67,297.57c-.43,1.15-5.36,14,.42,14.45C120.91,312.51,113.67,297.57,113.67,297.57Z"/><path class="cls-2" d="M114.42,312.53h-.36a3.06,3.06,0,0,1-2.49-1.42c-2-3.1.46-10.56,1.6-13.63l.41-1.09.54,1c.52,1.08,5,10.63,2.76,14A2.79,2.79,0,0,1,114.42,312.53Zm-.7-13.65c-2,5.58-2.45,9.9-1.31,11.68a2.09,2.09,0,0,0,1.72,1,1.93,1.93,0,0,0,1.92-.73C117.53,308.61,115.2,302.23,113.72,298.88Z"/><path class="cls-5" d="M183.15,229.76c-.42,1.14-5.35,14,.43,14.45C190.4,244.7,183.15,229.76,183.15,229.76Z"/><path class="cls-2" d="M183.9,244.72l-.36,0a3.06,3.06,0,0,1-2.49-1.42c-2-3.1.46-10.55,1.61-13.62l.4-1.09.54,1c.53,1.08,5.05,10.63,2.76,14A2.77,2.77,0,0,1,183.9,244.72Zm-.69-13.65c-2,5.58-2.46,9.9-1.32,11.67a2.09,2.09,0,0,0,1.73,1,1.94,1.94,0,0,0,1.91-.73C187,240.8,184.69,234.42,183.21,231.07Z"/><path class="cls-5" d="M66.32,184.22c-.43,1.15-5.36,14,.43,14.45C73.56,199.16,66.32,184.22,66.32,184.22Z"/><path class="cls-2" d="M67.07,199.18h-.36a3.06,3.06,0,0,1-2.49-1.42c-2-3.11.46-10.56,1.6-13.63l.41-1.09.54,1c.52,1.08,5,10.63,2.76,14A2.79,2.79,0,0,1,67.07,199.18Zm-.7-13.65c-2,5.58-2.45,9.9-1.31,11.68a2.09,2.09,0,0,0,1.72,1,2,2,0,0,0,1.92-.73C70.18,195.26,67.86,188.88,66.37,185.53Z"/><path class="cls-5" d="M210.46,178.57c-.72,1.92-9,23.51.71,24.21C222.6,203.6,210.46,178.57,210.46,178.57Z"/><path class="cls-2" d="M211.71,203.3l-.58,0a4.79,4.79,0,0,1-3.91-2.22c-3.25-5.07.82-17.44,2.72-22.53l.46-1.23.51,1.06c.34.71,8.43,17.53,4.64,23.12A4.33,4.33,0,0,1,211.71,203.3Zm-1.2-23.43c-1.7,4.73-5.31,16.18-2.45,20.64a3.8,3.8,0,0,0,3.15,1.77,3.6,3.6,0,0,0,3.52-1.37C217.67,196.56,212.24,183.7,210.51,179.87Z"/><path class="cls-5" d="M30.46,128.82c-.71,1.92-9,23.51.72,24.21C42.61,153.85,30.46,128.82,30.46,128.82Z"/><path class="cls-2" d="M31.71,153.55l-.57,0a4.78,4.78,0,0,1-3.91-2.23c-3.26-5.07.82-17.44,2.72-22.53l.45-1.22.51,1c.35.71,8.44,17.54,4.65,23.12A4.32,4.32,0,0,1,31.71,153.55Zm-1.19-23.43c-1.7,4.74-5.32,16.18-2.45,20.64a3.8,3.8,0,0,0,3.14,1.77,3.56,3.56,0,0,0,3.52-1.37C37.68,146.81,32.25,134,30.52,130.12Z"/></g></g></svg>