<svg xmlns="http://www.w3.org/2000/svg" viewBox="0 0 140.9 96.75"><defs><style>.cls-1{fill:#fdfbef;}.cls-2{fill:#213043;}.cls-3{fill:#feb73b;}.cls-4{fill:#2b3044;}.cls-5{fill:#fbffff;}.cls-6{fill:#5292ad;}</style></defs><g id="Слой_2" data-name="Слой 2"><g id="Layer_1" data-name="Layer 1"><path class="cls-1" d="M123.31,44.35C119.43,55.31,99.18,78,69.2,78S14.74,53.21,14.74,44.35C14.74,38.9,24,26,38.16,16.87,47,11.18,57.68,7,69.19,7a61.43,61.43,0,0,1,25.38,5.89C113,21.29,126,36.66,123.31,44.35Z"/><path class="cls-2" d="M69.2,78.5c-30,0-55-24.79-55-34.15,0-6,9.71-18.92,23.65-27.9,10.11-6.53,20.93-10,31.3-10A62.16,62.16,0,0,1,94.78,12.4c17.86,8.18,32,23.79,29,32.12h0C119.72,56,98.9,78.5,69.2,78.5Zm0-71c-10.17,0-20.81,3.4-30.75,9.82-14.38,9.26-23.2,22-23.2,27.06,0,3.91,5.53,12.16,15.79,19.75,6.76,5,20.71,13.4,38.17,13.4,29.21,0,49.66-22.06,53.64-33.31,2.46-6.95-9.69-22.27-28.48-30.88A61.17,61.17,0,0,0,69.19,7.47Z"/><path class="cls-3" d="M100.1,32.84c0,19.35-14.59,35-32.58,35S35,52.19,35,32.84a37.24,37.24,0,0,1,3.21-15.2C47,11.5,57.68,7,69.19,7a57.89,57.89,0,0,1,25.38,6.34A36.79,36.79,0,0,1,100.1,32.84Z"/><path class="cls-2" d="M67.52,68.37c-18.24,0-33.07-15.94-33.07-35.53a37.39,37.39,0,0,1,3.26-15.41l0-.12.12-.08C48,10.19,58.82,6.47,69.19,6.47a58.41,58.41,0,0,1,25.6,6.4l.13.06.08.12a37.33,37.33,0,0,1,5.6,19.79C100.6,52.43,85.76,68.37,67.52,68.37ZM38.56,18a36.44,36.44,0,0,0-3.11,14.87c0,19,14.38,34.53,32.07,34.53S99.6,51.88,99.6,32.84A36.28,36.28,0,0,0,94.22,13.7a57.37,57.37,0,0,0-25-6.23C59.06,7.47,48.47,11.1,38.56,18Z"/><path class="cls-4" d="M88.85,29.85c0,12.14-9.15,22-20.44,22S48,42,48,29.85s9.15-22,20.44-22S88.85,17.71,88.85,29.85Z"/><path class="cls-5" d="M88.79,19.56c0,5.43-4.1,9.84-9.16,9.84S70.48,25,70.48,19.56s4.1-9.84,9.15-9.84S88.79,14.12,88.79,19.56Z"/><path class="cls-5" d="M63.62,50.9a5.26,5.26,0,1,1-5.25-5.65A5.45,5.45,0,0,1,63.62,50.9Z"/><path class="cls-4" d="M129.1,71.32s-.27-2.47-3.48-8.09a19.51,19.51,0,0,0-8.93-7.83l.35-.94a20.18,20.18,0,0,1,9.45,8.28c3.35,5.85,3.6,8.39,3.61,8.5Z"/><path class="cls-4" d="M139.91,58.15s-.27-2.47-3.48-8.09a19.61,19.61,0,0,0-8.93-7.83l.35-.94a20.2,20.2,0,0,1,9.44,8.28c3.36,5.85,3.6,8.39,3.61,8.5Z"/><path class="cls-4" d="M108.77,86.54l-.87-.49s.44-1.34-1.09-7.93c-1.61-6.91-4.73-9.85-4.76-9.88l.68-.74c.13.13,3.37,3.16,5,10.39C109.41,84.89,108.89,86.32,108.77,86.54Z"/><path class="cls-4" d="M83.88,95.15s-.23-1-1-6.09-1.69-12.26-1.7-12.33l1-.12c0,.08.87,7.21,1.69,12.29s1,6,1,6Z"/><path class="cls-4" d="M60.12,96.75c0-.14-.43-1.59,0-7.13a42.65,42.65,0,0,1,3.06-11.81l.92.39a42.12,42.12,0,0,0-3,11.49c-.4,5.34,0,6.76,0,6.77Z"/><path class="cls-4" d="M33.21,89.26a20.64,20.64,0,0,1,1.66-9.2c1.85-4.65,6.39-9.28,7-9.28v.5l.32.38a27.46,27.46,0,0,0-6.34,8.77,20.26,20.26,0,0,0-1.6,8.72Z"/><path class="cls-4" d="M13.37,74.53A20.64,20.64,0,0,1,15,65.33C16.88,60.68,21.42,56,22,56v.5l.32.39A27.49,27.49,0,0,0,16,65.69a20.29,20.29,0,0,0-1.6,8.73Z"/><path class="cls-4" d="M1,58.49l-1-.07a21.6,21.6,0,0,1,3.08-8.65C7,43.21,12.16,40.58,12.82,41l-.5.86.25-.43v.49c-.51.09-4.95,2.23-8.64,8.38A20.85,20.85,0,0,0,1,58.49Z"/><path class="cls-6" d="M10.46,42.49c6-3.53,25.3-5.58,58.74-6.86s60.76,7.19,60.4,6.55S109.25-.11,67.52.51,10.46,42.49,10.46,42.49Z"/><path class="cls-2" d="M9.51,43.63,10,42.31C10.15,41.9,25.92.63,67.51,0c38.82-.57,58.83,34.7,62.45,41.78l.23.43-.19.28c-.25.34-.25.34-3.41-.38-7.58-1.74-30.64-7-57.37-6-34.76,1.33-52.8,3.43-58.5,6.79ZM76.14,35a226.93,226.93,0,0,1,50.67,6.14l1.91.43C124.34,33.27,104.66.44,67.53,1c-36.84.54-53.11,33.57-56.09,40.42,6.94-3.08,25-5,57.75-6.3C71.53,35,73.86,35,76.14,35Z"/></g></g></svg>