<svg xmlns="http://www.w3.org/2000/svg" viewBox="0 0 140 105.76"><defs><style>.cls-1{fill:#fdfbef;}.cls-2{fill:#213043;}.cls-3{fill:#5292ad;}.cls-4{fill:#2b3044;}.cls-5{fill:#fbffff;}</style></defs><g id="Слой_2" data-name="Слой 2"><g id="Layer_1" data-name="Layer 1"><path class="cls-1" d="M111.16,62.35c-3.21,9.07-20,27.86-44.81,27.86s-45.1-20.53-45.1-27.86c0-4.52,7.69-15.21,19.4-22.76,7.3-4.71,16.16-8.2,25.69-8.2a50.87,50.87,0,0,1,21,4.88C102.61,43.25,113.41,56,111.16,62.35Z"/><path class="cls-2" d="M66.35,90.71c-24.89,0-45.6-20.59-45.6-28.36,0-5,8.06-15.73,19.63-23.18,8.38-5.41,17.36-8.28,26-8.28a51.71,51.71,0,0,1,21.23,4.92c14.82,6.79,26.51,19.77,24.06,26.71C108.26,72,91,90.71,66.35,90.71Zm0-58.82c-8.41,0-17.2,2.81-25.42,8.12C29.05,47.66,21.75,58.18,21.75,62.35c0,3.21,4.57,10,13,16.28,5.59,4.14,17.13,11.08,31.56,11.08,24.15,0,41-18.23,44.33-27.53h0c2-5.72-8-18.35-23.53-25.46A50.57,50.57,0,0,0,66.34,31.89Z"/><path class="cls-3" d="M91.93,52.81c0,16-12.07,29-27,29s-27-13-27-29a30.77,30.77,0,0,1,2.66-12.58c7.3-5.08,16.16-8.84,25.69-8.84a47.86,47.86,0,0,1,21,5.26A30.5,30.5,0,0,1,91.93,52.81Z"/><path class="cls-2" d="M65,82.32c-15.14,0-27.46-13.24-27.46-29.51A31.19,31.19,0,0,1,40.19,40l.06-.12.12-.08c8.38-5.84,17.36-8.93,26-8.93A48.55,48.55,0,0,1,87.58,36.2l.13.06.07.12a31,31,0,0,1,4.65,16.43C92.43,69.08,80.11,82.32,65,82.32ZM41.05,40.56a30.09,30.09,0,0,0-2.56,12.25c0,15.72,11.87,28.51,26.46,28.51S91.43,68.53,91.43,52.81A30,30,0,0,0,87,37a47.52,47.52,0,0,0-20.67-5.14C58,31.89,49.24,34.89,41.05,40.56Z"/><ellipse class="cls-4" cx="65.69" cy="50.34" rx="16.92" ry="18.2"/><path class="cls-5" d="M82.57,41.82a7.6,7.6,0,1,1-15.16,0A7.88,7.88,0,0,1,75,33.67C79.17,33.67,82.57,37.32,82.57,41.82Z"/><path class="cls-5" d="M61.73,67.77a4.36,4.36,0,1,1-4.35-4.68A4.52,4.52,0,0,1,61.73,67.77Z"/><path class="cls-4" d="M122.81,64.6a31.53,31.53,0,0,1-11.63-2l-.1,0,.16-.47h0l-.3.4-.15-.65c.22-.39.63-.22.78-.16,2.76,1.11,12.94,4.31,28.09-1.35l.35.93A49,49,0,0,1,122.81,64.6Z"/><path class="cls-4" d="M107.12,51.69h0l.15-.48,0-.5c.12,0,13.66-2.31,23.81-9.31,6.16-4.24,7.35-8.32,7.36-8.36l1,.26c-.05.18-1.27,4.45-7.77,8.93C121.44,49.2,108,51.69,107.12,51.69Z"/><path class="cls-4" d="M95.43,41.06,95,40.17a1.23,1.23,0,0,1,.33-.12c3-.91,10.43-4.14,15.69-14.66a34.35,34.35,0,0,0,3.73-13.91h1a34.8,34.8,0,0,1-3.84,14.36c-5.24,10.47-12.45,14-16.28,15.16Z"/><path class="cls-4" d="M81.22,33.56l-.64-.77s4.81-4.09,7.67-15.72a40.85,40.85,0,0,0,.69-15.76l1-.19a41.07,41.07,0,0,1-.7,16.19C86.27,29.3,81.42,33.39,81.22,33.56Z"/><path class="cls-4" d="M30.81,47.65a10.12,10.12,0,0,1-2.12-.35c-3-.81-10.46-3.9-13.59-15-2.42-8.61-1.58-13-1.54-13.19l1,.19S13.72,23.66,16.06,32C20,46.08,30.92,46.71,31,46.66l.06.4.42.43A1,1,0,0,1,30.81,47.65Z"/><path class="cls-4" d="M64.54,32.08l-.21-.46.16-.08-.17.06C64.08,31,62,25.14,62.9,13.89A52.47,52.47,0,0,1,66.28,0l.92.38A51.91,51.91,0,0,0,63.89,14C63,25,65,30.63,65.26,31.24l.17.45Z"/><path class="cls-4" d="M47.57,36.23c-.07-.08-6.86-8.31-10-17.09s-3-12.73-3-12.89l1,0s-.15,3.94,3,12.5,9.81,16.71,9.88,16.79Z"/><path class="cls-4" d="M14.07,65a12.82,12.82,0,0,1-6.13-1.46C1.57,60.15.06,57,0,56.81l.91-.41s1.47,3.05,7.5,6.25c3.31,1.76,7.42,1.79,12.2.09.54-.19.84-.29,1.07,0l.21.32-.26.31-.36-.32.05.46a2.85,2.85,0,0,0-.37.13A20.73,20.73,0,0,1,14.07,65Zm6.81-2.23.36.32Z"/><path class="cls-4" d="M115.86,84.68s-.22-2-2.87-6.66a16.07,16.07,0,0,0-7.35-6.45l.36-.93a16.83,16.83,0,0,1,7.86,6.89c2.78,4.86,3,7,3,7.07Z"/><path class="cls-4" d="M99.19,97.32l-.87-.49h0s.34-1.11-.92-6.5c-1.32-5.69-3.88-8.12-3.91-8.14l.68-.74c.11.11,2.81,2.63,4.21,8.65C99.7,95.78,99.33,97.06,99.19,97.32Z"/><path class="cls-4" d="M78.42,104.43s-.19-.81-.87-5.05-1.4-10.15-1.41-10.21l1-.12c0,.06.71,6,1.39,10.17s.85,5,.86,5Z"/><path class="cls-4" d="M58.75,105.76c0-.12-.36-1.34,0-5.94A35.56,35.56,0,0,1,61.27,90l.92.4a35,35,0,0,0-2.46,9.49c-.33,4.39,0,5.53,0,5.57Z"/><path class="cls-4" d="M36.46,99.54a17.5,17.5,0,0,1,1.38-7.66c1.55-3.87,5.36-7.74,5.84-7.74v.5L44,85a22.38,22.38,0,0,0-5.23,7.22,16.42,16.42,0,0,0-1.31,7.18Z"/><path class="cls-4" d="M19.32,88.29l-1-.25a17.59,17.59,0,0,1,3.78-6.55c4.08-4.6,8.71-6.07,9.32-5.53l-.66.75.33-.37-.08.48h0c-.46,0-4.3,1-8.16,5.33A16.87,16.87,0,0,0,19.32,88.29Z"/></g></g></svg>