<svg xmlns="http://www.w3.org/2000/svg" viewBox="0 0 73.5 76.79"><defs><style>.cls-1{fill:#fdfbef;}.cls-2{fill:#213043;}.cls-3{fill:#feb73b;}</style></defs><g id="Слой_2" data-name="Слой 2"><g id="Layer_1" data-name="Layer 1"><path class="cls-1" d="M32.63,44.61S22.45,59,11.77,59.43s-15.67-10-5.66-16.92,24.53-4.63,24.53-4.63S41.34,36.71,32.63,44.61Z"/><path class="cls-2" d="M11.08,60.12c-5.17,0-9.31-2.5-10.65-6.48S1,45.2,5.72,42c9.82-6.8,23.58-5,24.93-4.75.81-.08,5-.38,5.89,1.71.67,1.48-.41,3.43-3.4,6.15-.83,1.16-10.7,14.58-21.34,15C11.56,60.12,11.32,60.12,11.08,60.12ZM25,38.2c-5.06,0-12.6.81-18.46,4.87C2.33,46,.54,49.74,1.71,53.21s5.13,5.77,10,5.54C22,58.3,32,44.36,32.08,44.22l.1-.11c3.34-3,3.3-4.26,3.12-4.65-.41-.92-2.93-1.09-4.59-.91h-.18A39.92,39.92,0,0,0,25,38.2Z"/><path class="cls-1" d="M27.89,37.24S9.62,35.5,4.39,26.88,6.93,9.24,18,14.29,33.42,32.44,33.42,32.44,39.32,40.76,27.89,37.24Z"/><path class="cls-2" d="M32.41,38.78a16.84,16.84,0,0,1-4.66-.87c-1.43-.15-18.71-2-23.94-10.68-2.52-4.17-2.35-8.73.47-11.9,2.46-2.76,7.43-4.66,14-1.65C29.17,18.62,33.59,30.82,34,32.13c.45.65,2.46,3.78,1.16,5.58A3.22,3.22,0,0,1,32.41,38.78ZM11.86,13.51a8.64,8.64,0,0,0-6.57,2.72c-2.4,2.71-2.52,6.65-.32,10.3,5,8.22,22.8,10,23,10l.13,0c4.61,1.42,5.74.7,6,.32.63-.88-.55-3.12-1.22-4.08l-.09-.18c0-.12-4.34-12.87-15-17.74A14.29,14.29,0,0,0,11.86,13.51Z"/><path class="cls-1" d="M33.31,30.53S25.4,15.16,30.55,6.4s17.4-7.48,18.56,4-8.56,21.93-8.56,21.93S36,41.47,33.31,30.53Z"/><path class="cls-2" d="M36.79,36.59l-.25,0c-1.67-.18-2.94-2.07-3.87-5.8C32,29.48,24.82,14.83,30,6.06,32.59,1.58,37.38-.76,41.86.22S49.24,5,49.78,10.34c1.14,11.28-7.73,21.35-8.66,22.38C40.76,33.4,39,36.58,36.79,36.59Zm3-35.24a10.19,10.19,0,0,0-8.61,5.39c-4.89,8.34,2.7,23.33,2.78,23.48l.05.15c1,4.08,2.15,4.79,2.73,4.85,1.16.09,2.71-2.09,3.25-3.19l.12-.16c.09-.1,9.49-10.36,8.37-21.4-.48-4.75-3-8.09-6.86-8.92A8.14,8.14,0,0,0,39.74,1.35Z"/><path class="cls-1" d="M40.87,33.14S51.06,18.79,61.73,18.32s15.67,10,5.66,16.92-24.53,4.63-24.53,4.63S32.16,41,40.87,33.14Z"/><path class="cls-2" d="M48.68,40.93a42.41,42.41,0,0,1-5.83-.38c-.81.07-5,.37-5.89-1.71-.67-1.48.41-3.44,3.4-6.16.84-1.16,10.71-14.57,21.34-15,5.51-.26,10,2.29,11.38,6.46s-.61,8.45-5.3,11.69C61.62,40.07,53.9,40.93,48.68,40.93Zm-5.8-1.75H43c.14,0,14.37,2.18,24-4.5C71.17,31.8,73,28,71.79,24.55s-5.11-5.79-10-5.55c-10.22.45-20.24,14.39-20.34,14.53l-.1.11c-3.34,3-3.3,4.26-3.12,4.64.41.92,3,1.09,4.59.91Z"/><path class="cls-1" d="M45.24,40.13s18.29,1.53,23.63,10.09S66.56,67.88,55.4,63,39.77,45,39.77,45,33.76,36.73,45.24,40.13Z"/><path class="cls-2" d="M61.46,65a15.85,15.85,0,0,1-6.34-1.45c-10.92-4.83-15.5-17-16-18.28-.45-.64-2.5-3.75-1.22-5.56,1-1.38,3.4-1.46,7.43-.28,1.44.13,18.74,1.84,24.07,10.4C72,54,71.9,58.57,69.13,61.77A10,10,0,0,1,61.46,65ZM40.78,40c-1.16,0-1.58.33-1.73.54-.63.89.58,3.12,1.27,4.06l.09.18c0,.13,4.51,12.83,15.26,17.57C61.62,65,66,63.31,68.1,60.88c2.38-2.74,2.45-6.68.19-10.3-5.09-8.17-22.92-9.76-23.1-9.78l-.14,0A15.77,15.77,0,0,0,40.78,40Z"/><path class="cls-1" d="M40.69,46.4s7.5,15.54,2.14,24.19-17.58,7.1-18.45-4.42,9.11-21.73,9.11-21.73S38.24,35.4,40.69,46.4Z"/><path class="cls-2" d="M33.63,76.79a9.44,9.44,0,0,1-2.29-.28C27,75.44,24.11,71.59,23.7,66.22,22.86,54.91,32,45,32.94,44c.38-.71,2.38-4,4.67-3.75,1.66.22,2.88,2.14,3.72,5.88C42,47.48,48.77,62.29,43.4,71A11.75,11.75,0,0,1,33.63,76.79ZM37.3,41.62c-1.27,0-2.77,2.3-3.21,3.14l-.11.15c-.1.1-9.75,10.15-8.92,21.21.36,4.76,2.83,8.15,6.61,9.07s8.15-1,10.58-5c5.11-8.23-2.1-23.39-2.17-23.54L40,46.54c-.91-4.09-2-4.83-2.59-4.91Z"/><path class="cls-3" d="M28.76,31.82c3.24-3.47,9-3.71,13-.55s4.47,8.54,1.23,12-9,3.71-13,.54S25.52,35.29,28.76,31.82Z"/><path class="cls-2" d="M36.3,46.72a10.76,10.76,0,0,1-6.74-2.37A9.33,9.33,0,0,1,26,37.73a8.4,8.4,0,0,1,2.27-6.38h0c3.48-3.71,9.7-4,13.89-.61a9.49,9.49,0,0,1,3.57,6.63,8.38,8.38,0,0,1-2.27,6.37A9.76,9.76,0,0,1,36.3,46.72Zm-7-14.44a7,7,0,0,0-1.91,5.35,8,8,0,0,0,3.08,5.67c3.64,2.94,9,2.72,12-.49a7,7,0,0,0,1.91-5.35,8,8,0,0,0-3.08-5.66c-3.64-2.94-9-2.73-12,.48Z"/></g></g></svg>