<svg xmlns="http://www.w3.org/2000/svg" viewBox="0 0 66.74 62"><defs><style>.cls-1{fill:#f789b6;}.cls-2{fill:#213043;}.cls-3{fill:#feb73b;}</style></defs><g id="Слой_2" data-name="Слой 2"><g id="Layer_1" data-name="Layer 1"><path class="cls-1" d="M38.82,34.65s12.58,9.05,13.09,18-8.55,12.64-14.67,4S33,36.05,33,36.05,31.86,27.09,38.82,34.65Z"/><path class="cls-2" d="M45.09,62c-2.53,0-5.6-1.33-8.26-5.06-6-8.43-4.52-19.81-4.36-20.9-.07-.64-.36-4,1.32-4.76,1.22-.57,3,.41,5.36,3,.94.68,12.75,9.43,13.26,18.3.25,4.32-1.74,7.87-5.06,9A6.73,6.73,0,0,1,45.09,62ZM34.51,32.12a.75.75,0,0,0-.3.06c-.86.4-.87,2.74-.74,3.81v.14c0,.11-1.76,11.89,4.17,20.23,2.68,3.75,6.28,5.41,9.38,4.32,2.89-1,4.61-4.17,4.39-8-.49-8.56-12.76-17.48-12.89-17.57L38.45,35C36.22,32.57,35.07,32.12,34.51,32.12Z"/><path class="cls-1" d="M32.44,38.31S31.1,53.45,23.65,57.45,8.27,54.64,12.56,45.6,28.22,33.51,28.22,33.51,35.41,28.93,32.44,38.31Z"/><path class="cls-2" d="M19.18,59.12a8.21,8.21,0,0,1-5.74-2.26c-2.88-2.74-3.39-7.13-1.33-11.47,4.21-8.86,14.82-12,15.9-12.34.54-.33,3.25-1.89,4.76-.73,1.13.86,1.18,2.86.17,6.09-.11,1.17-1.6,15.48-9.06,19.48A9.85,9.85,0,0,1,19.18,59.12ZM31.39,32.89a6.74,6.74,0,0,0-2.9,1l-.14.06C28.24,34,17.16,37.1,13,45.82c-1.87,3.93-1.44,7.89,1.12,10.32a7.83,7.83,0,0,0,9.28.87c7.13-3.83,8.52-18.59,8.54-18.74l0-.11c1.15-3.64.61-4.73.19-5A1.25,1.25,0,0,0,31.39,32.89Z"/><path class="cls-1" d="M26.56,33.53s-13.31,6-21,1.34S-1.11,20.09,8.88,19.58s19.17,8,19.17,8S36.05,31.7,26.56,33.53Z"/><path class="cls-2" d="M13,37.14A14.8,14.8,0,0,1,5.31,35.3c-4-2.41-6-6.53-5.08-10.27.87-3.49,4.1-5.72,8.63-6,9.82-.51,18.66,7.33,19.48,8.08.58.31,3.62,2,3.34,4-.19,1.33-1.82,2.28-5,2.89A38.28,38.28,0,0,1,13,37.14ZM9.74,20.06l-.83,0c-4.07.21-6.95,2.15-7.71,5.2-.84,3.31,1,7,4.63,9.16,7.37,4.44,20.39-1.3,20.52-1.36l.11,0c3.52-.68,4.17-1.58,4.23-2.07.17-1.12-2.07-2.54-2.87-2.95l-.11-.08C27.62,27.86,19.08,20.06,9.74,20.06Z"/><path class="cls-1" d="M28.75,27.34s-12.58-9-13.09-17.95,8.55-12.64,14.68-4S34.59,26,34.59,26,35.71,34.91,28.75,27.34Z"/><path class="cls-2" d="M33.06,30.88c-1.16,0-2.69-1-4.64-3.16-.94-.68-12.75-9.44-13.26-18.3-.25-4.33,1.74-7.88,5.06-9,2.78-1,7-.25,10.52,4.69,6,8.43,4.52,19.8,4.36,20.9.07.64.36,4-1.32,4.76A1.58,1.58,0,0,1,33.06,30.88ZM22.5,1a5.92,5.92,0,0,0-1.95.33c-2.89,1-4.61,4.17-4.39,8C16.65,17.92,28.92,26.85,29,26.94l.08.07c2.78,3,3.89,3,4.24,2.81.86-.4.87-2.74.74-3.81v-.14c0-.12,1.76-11.89-4.17-20.23C27.8,2.65,25.09,1,22.5,1Z"/><path class="cls-1" d="M34.8,24S36,8.82,43.37,4.72,58.76,7.34,54.58,16.44,39.07,28.73,39.07,28.73,31.94,33.4,34.8,24Z"/><path class="cls-2" d="M35.89,30.39A2.16,2.16,0,0,1,34.54,30c-1.14-.85-1.21-2.84-.24-6.09.1-1.17,1.42-15.51,8.82-19.61,3.61-2,7.71-1.65,10.44.89C56.48,7.88,57,12.28,55,16.65c-4.1,8.92-14.67,12.22-15.75,12.54A7.39,7.39,0,0,1,35.89,30.39ZM47.91,4a8.85,8.85,0,0,0-4.3,1.16C36.52,9.08,35.31,23.87,35.3,24l0,.1c-1.11,3.66-.57,4.74-.14,5.06.88.66,3-.43,3.66-.87l.14-.06c.11,0,11.14-3.24,15.18-12,1.83-4,1.35-7.92-1.24-10.32A7.2,7.2,0,0,0,47.91,4Z"/><path class="cls-1" d="M40.3,28s13.46-5.63,21-.82,6.35,14.92-3.67,15.18-19-8.45-19-8.45S30.75,29.62,40.3,28Z"/><path class="cls-2" d="M57.22,42.89c-9.64,0-18.06-7.79-18.86-8.55-.57-.32-3.58-2.1-3.25-4,.22-1.33,1.87-2.23,5-2.77,1.07-.45,13.9-5.55,21.45-.76,3.93,2.49,5.88,6.66,4.86,10.37-1,3.47-4.25,5.61-8.79,5.73ZM53.49,25.76a39.2,39.2,0,0,0-13,2.72l-.11,0c-3.54.6-4.21,1.49-4.29,2-.16,1,1.64,2.38,2.81,3l.11.08c.09.08,8.7,8.31,18.22,8.31h.43c4.07-.11,7-2,7.84-5,.91-3.28-.87-7-4.43-9.25A14.08,14.08,0,0,0,53.49,25.76Z"/><path class="cls-3" d="M27.72,37.37a7.85,7.85,0,0,1-.6-10.81A7.21,7.21,0,0,1,37.56,26a7.85,7.85,0,0,1,.6,10.81A7.21,7.21,0,0,1,27.72,37.37Z"/><path class="cls-2" d="M32.68,39.84a7.77,7.77,0,0,1-5.3-2.1h0a8.37,8.37,0,0,1-.64-11.51,7.72,7.72,0,0,1,11.16-.58,8.36,8.36,0,0,1,.64,11.5,7.66,7.66,0,0,1-5.44,2.68ZM28.06,37a6.7,6.7,0,0,0,9.72-.5,7.36,7.36,0,0,0-.56-10.12,6.71,6.71,0,0,0-9.72.51A7.34,7.34,0,0,0,28.06,37Z"/></g></g></svg>