<svg xmlns="http://www.w3.org/2000/svg" viewBox="0 0 18.48 41.29"><defs><style>.cls-1{fill:#5292ad;}.cls-2{fill:#213043;}</style></defs><g id="Слой_2" data-name="Слой 2"><g id="Layer_1" data-name="Layer 1"><path class="cls-1" d="M8.52,1.18s16.06,29.63,6.32,37.05S-.85,35.45.77,26.06,8.52,1.18,8.52,1.18Z"/><path class="cls-2" d="M8.53,41.29a6.69,6.69,0,0,1-3.56-1C1.21,38-.76,32,.28,26,1.89,16.64,8,1.15,8.06,1l.39-1L9,.94C9.63,2.17,25.11,31,15.14,38.63A11,11,0,0,1,8.53,41.29Zm.06-38.9C7.21,6,2.62,18.3,1.26,26.15c-1,5.62.8,11.21,4.22,13.29,2.53,1.53,5.66,1,9.06-1.61C22.86,31.5,11.22,7.53,8.59,2.39Z"/></g></g></svg>