<svg xmlns="http://www.w3.org/2000/svg" viewBox="0 0 63.68 57.19"><defs><style>.cls-1{fill:#fdfbef;}.cls-2{fill:#213043;}.cls-3{fill:#ff7e48;}</style></defs><g id="Слой_2" data-name="Слой 2"><g id="Layer_1" data-name="Layer 1"><path class="cls-1" d="M37.28,31.63s12.63,7.49,13.87,15.94-7,12.83-13.48,5.17S31.9,33.49,31.9,33.49,30.09,25,37.28,31.63Z"/><path class="cls-2" d="M44.87,57.19c-2.28,0-5-1.09-7.58-4.12-6.37-7.5-5.95-18.48-5.89-19.55-.13-.61-.69-3.8.85-4.69,1.14-.64,2.83.11,5.33,2.4,1,.57,12.83,7.85,14.06,16.27.61,4.15-1,7.73-4.07,9.13A6.61,6.61,0,0,1,44.87,57.19ZM33.12,29.62a.78.78,0,0,0-.37.08c-.77.44-.58,2.67-.36,3.68v.14c0,.11-.65,11.49,5.65,18.9,2.81,3.31,6.3,4.57,9.11,3.3s4-4.38,3.49-8.08C49.46,39.53,37.15,32.13,37,32.06L37,32C34.78,30,33.67,29.62,33.12,29.62Z"/><path class="cls-1" d="M31.59,35.69s0,14.56-6.66,19.05-14.72-1.3-11.45-10.3S27.2,31.5,27.2,31.5,33.58,26.48,31.59,35.69Z"/><path class="cls-2" d="M20.08,56.79a7.72,7.72,0,0,1-4.77-1.63c-2.35-1.85-4.2-5.68-2.3-10.9C16.22,35.44,25.94,31.45,27,31.06c.49-.38,2.9-2.1,4.44-1.14,1.16.72,1.39,2.63.7,5.83,0,1.13-.19,14.91-6.88,19.4A9.21,9.21,0,0,1,20.08,56.79ZM30.31,30.63a6,6,0,0,0-2.8,1.26l-.13.07c-.1,0-10.27,4-13.43,12.65-1.71,4.71-.1,8.13,2,9.76a7.33,7.33,0,0,0,8.72,0C31,50,31.09,35.84,31.09,35.69v-.1c.78-3.58.19-4.56-.24-4.82A1,1,0,0,0,30.31,30.63Z"/><path class="cls-1" d="M25.64,31.67S13.61,38.55,6,34.83-1.56,21.33,7.8,20s18.74,5.9,18.74,5.9S34.43,29.06,25.64,31.67Z"/><path class="cls-2" d="M11.33,36.44a12.67,12.67,0,0,1-5.56-1.16c-4-1.94-6.25-5.7-5.68-9.35.53-3.43,3.39-5.85,7.64-6.48,9.21-1.35,18.2,5.3,19.06,6,.59.25,3.59,1.61,3.5,3.49-.06,1.29-1.52,2.35-4.45,3.23C25.07,32.56,18,36.44,11.33,36.44ZM10.22,20.28a16.73,16.73,0,0,0-2.34.16c-3.8.57-6.35,2.67-6.81,5.64-.5,3.22,1.57,6.55,5.13,8.3,7.31,3.56,19.07-3.08,19.19-3.15l.11,0c3.25-1,3.77-1.88,3.79-2.34.05-1-1.78-2.07-2.94-2.54l-.12-.07C26.15,26.18,18.44,20.28,10.22,20.28Z"/><path class="cls-1" d="M27.18,25.56S14.56,18.07,13.32,9.62s7-12.83,13.48-5.17,5.76,19.26,5.76,19.26S34.37,32.15,27.18,25.56Z"/><path class="cls-2" d="M31.34,28.58c-1.08,0-2.53-.85-4.46-2.61-1-.58-12.82-7.86-14.06-16.28-.6-4.15,1-7.73,4.08-9.13,2.53-1.14,6.57-.81,10.28,3.57,6.37,7.49,5.94,18.47,5.88,19.54.13.62.69,3.81-.85,4.69A1.71,1.71,0,0,1,31.34,28.58ZM19.59,1a5.44,5.44,0,0,0-2.28.49c-2.67,1.2-4,4.37-3.5,8.07C15,17.66,27.31,25.06,27.44,25.13l.08.06c2.84,2.61,3.88,2.48,4.19,2.3.77-.44.58-2.67.36-3.68v-.13c0-.12.65-11.5-5.64-18.91C24.33,2.32,21.87,1,19.59,1Z"/><path class="cls-1" d="M32.59,21.81S32.4,7.25,39,2.67,53.75,3.79,50.58,12.84,37,26,37,26,30.7,31.06,32.59,21.81Z"/><path class="cls-2" d="M33.9,27.86a2,2,0,0,1-1-.28c-1.16-.7-1.41-2.61-.76-5.82,0-1.13,0-14.92,6.65-19.5a8.3,8.3,0,0,1,9.88-.13C51,3.94,52.89,7.75,51.05,13c-3.11,8.87-12.77,13-13.78,13.38A6.51,6.51,0,0,1,33.9,27.86Zm10-26.3A8.22,8.22,0,0,0,39.3,3.08C33,7.45,33.09,21.66,33.09,21.8v.11c-.73,3.59-.13,4.56.29,4.82.88.53,2.75-.69,3.34-1.16l.13-.08c.1,0,10.21-4.09,13.27-12.81,1.66-4.75,0-8.16-2.1-9.76A6.67,6.67,0,0,0,43.94,1.56Z"/><path class="cls-1" d="M38.11,25.17s12.2-6.58,19.75-2.67,7.25,13.65-2.16,14.8S37.08,31,37.08,31,29.25,27.56,38.11,25.17Z"/><path class="cls-2" d="M53.67,37.92c-8.45,0-16.08-5.91-16.86-6.53-.58-.26-3.56-1.69-3.42-3.57.1-1.29,1.58-2.31,4.54-3.12,1-.53,12.64-6.54,20.16-2.65,3.93,2,6.13,5.84,5.48,9.47C63,34.93,60,37.27,55.76,37.8A18.44,18.44,0,0,1,53.67,37.92Zm-1.5-16.16c-6.58,0-13.73,3.8-13.82,3.85l-.11,0c-3.27.88-3.82,1.79-3.85,2.24-.07.95,1.73,2.11,2.89,2.61l.11.07c.09.07,9.16,7.35,18.25,6.23,3.82-.46,6.41-2.5,6.94-5.45.58-3.2-1.41-6.58-4.94-8.41A11.87,11.87,0,0,0,52.17,21.76Z"/><path class="cls-3" d="M27.06,35.22A7.57,7.57,0,0,1,25.58,25a6.77,6.77,0,0,1,9.78-1.46,7.58,7.58,0,0,1,1.49,10.26A6.78,6.78,0,0,1,27.06,35.22Z"/><path class="cls-2" d="M31.26,37.19a7.31,7.31,0,0,1-4.51-1.58,8.09,8.09,0,0,1-1.58-10.94,7.27,7.27,0,0,1,10.5-1.56,8.09,8.09,0,0,1,1.59,10.94,7.34,7.34,0,0,1-4.94,3.06A7.68,7.68,0,0,1,31.26,37.19Zm-.1-14.66a7,7,0,0,0-.91.07A6.33,6.33,0,0,0,26,25.25a7.08,7.08,0,0,0,1.39,9.57,6.27,6.27,0,0,0,9.07-1.35,7.07,7.07,0,0,0-1.38-9.57A6.29,6.29,0,0,0,31.16,22.53Z"/></g></g></svg>