<svg xmlns="http://www.w3.org/2000/svg" viewBox="0 0 142.65 152.76"><defs><style>.cls-1{fill:#fdfbef;}.cls-2{fill:#213043;}.cls-3{fill:#ff7e48;}.cls-4{fill:#f789b6;}.cls-5{fill:#feb73b;}</style></defs><g id="Слой_2" data-name="Слой 2"><g id="Layer_1" data-name="Layer 1"><path class="cls-1" d="M37.28,84.72s12.63,7.49,13.87,15.94-7,12.83-13.48,5.17S31.9,86.57,31.9,86.57,30.09,78.13,37.28,84.72Z"/><path class="cls-2" d="M44.87,110.28c-2.28,0-5-1.09-7.58-4.12-6.37-7.5-5.95-18.48-5.89-19.55-.13-.62-.69-3.8.85-4.69,1.14-.65,2.83.11,5.33,2.39,1,.58,12.83,7.86,14.06,16.27.61,4.16-1,7.74-4.07,9.13A6.41,6.41,0,0,1,44.87,110.28ZM33.12,82.71a.78.78,0,0,0-.37.08c-.77.44-.58,2.67-.36,3.68v.13c0,.12-.65,11.5,5.65,18.91,2.81,3.3,6.3,4.56,9.11,3.29s4-4.37,3.49-8.07C49.46,92.62,37.15,85.22,37,85.15L37,85.09C34.78,83.11,33.67,82.71,33.12,82.71Z"/><path class="cls-1" d="M31.59,88.78s0,14.55-6.66,19-14.72-1.29-11.45-10.3S27.2,84.58,27.2,84.58,33.58,79.57,31.59,88.78Z"/><path class="cls-2" d="M20.08,109.87a7.71,7.71,0,0,1-4.77-1.62c-2.35-1.85-4.2-5.68-2.3-10.9C16.22,88.53,25.94,84.54,27,84.14c.49-.37,2.9-2.1,4.44-1.13,1.16.72,1.39,2.63.7,5.82,0,1.13-.19,14.92-6.88,19.41A9.2,9.2,0,0,1,20.08,109.87ZM30.31,83.72A6,6,0,0,0,27.51,85l-.13.07c-.1,0-10.27,4-13.43,12.64-1.71,4.72-.1,8.14,2,9.77a7.33,7.33,0,0,0,8.72,0c6.39-4.29,6.44-18.49,6.44-18.63v-.11c.78-3.57.19-4.55-.24-4.81A1,1,0,0,0,30.31,83.72Z"/><path class="cls-1" d="M25.64,84.75S13.61,91.64,6,87.91-1.56,74.42,7.8,73s18.74,5.89,18.74,5.89S34.43,82.15,25.64,84.75Z"/><path class="cls-2" d="M11.33,89.53a12.54,12.54,0,0,1-5.56-1.17C1.8,86.43-.48,82.67.09,79c.53-3.42,3.39-5.84,7.64-6.47,9.21-1.35,18.2,5.3,19.06,6,.59.24,3.59,1.6,3.5,3.48-.06,1.3-1.52,2.36-4.45,3.24C25.07,85.65,18,89.53,11.33,89.53ZM10.22,73.36a16.74,16.74,0,0,0-2.34.17c-3.8.56-6.35,2.67-6.81,5.64-.5,3.22,1.57,6.55,5.13,8.29,7.31,3.57,19.07-3.07,19.19-3.14l.11,0c3.25-1,3.77-1.87,3.79-2.33.05-1-1.78-2.07-2.94-2.54l-.12-.07C26.15,79.26,18.44,73.36,10.22,73.36Z"/><path class="cls-1" d="M27.18,78.65s-12.62-7.5-13.86-15.94,7-12.83,13.48-5.17S32.56,76.8,32.56,76.8,34.37,85.24,27.18,78.65Z"/><path class="cls-2" d="M31.34,81.67c-1.08,0-2.53-.85-4.46-2.62-1-.57-12.82-7.86-14.06-16.27-.6-4.15,1-7.73,4.08-9.13,2.53-1.15,6.57-.81,10.28,3.56,6.37,7.5,5.94,18.48,5.88,19.55.13.62.69,3.8-.85,4.69A1.71,1.71,0,0,1,31.34,81.67ZM19.59,54.08a5.59,5.59,0,0,0-2.28.48c-2.66,1.21-4,4.38-3.5,8.08C15,70.75,27.31,78.15,27.44,78.22l.08.06c2.84,2.61,3.88,2.48,4.19,2.3.77-.44.58-2.67.36-3.68v-.14c0-.11.65-11.49-5.64-18.9C24.34,55.41,21.87,54.08,19.59,54.08Z"/><path class="cls-1" d="M32.59,74.9S32.4,60.33,39,55.76s14.73,1.12,11.56,10.17S37,79,37,79,30.7,84.14,32.59,74.9Z"/><path class="cls-2" d="M33.9,81a2,2,0,0,1-1-.28c-1.16-.71-1.41-2.61-.76-5.82,0-1.13,0-14.92,6.65-19.5a8.3,8.3,0,0,1,9.88-.14C51,57,52.89,60.84,51.05,66.09c-3.11,8.87-12.77,13-13.78,13.39A6.51,6.51,0,0,1,33.9,81Zm10-26.3a8.22,8.22,0,0,0-4.64,1.52C33,60.54,33.09,74.75,33.09,74.89V75c-.73,3.59-.13,4.56.29,4.82.88.53,2.75-.69,3.34-1.17l.13-.07c.1,0,10.21-4.09,13.27-12.82,1.66-4.74,0-8.15-2.1-9.75A6.61,6.61,0,0,0,43.94,54.65Z"/><path class="cls-1" d="M38.11,78.26s12.2-6.58,19.75-2.68,7.25,13.66-2.16,14.81S37.08,84,37.08,84,29.25,80.64,38.11,78.26Z"/><path class="cls-2" d="M53.67,91c-8.45,0-16.08-5.91-16.86-6.53-.58-.27-3.56-1.7-3.42-3.57.1-1.3,1.58-2.32,4.54-3.12,1-.53,12.64-6.54,20.16-2.65,3.93,2,6.13,5.84,5.48,9.47C63,88,60,90.36,55.76,90.88A16.4,16.4,0,0,1,53.67,91Zm-1.5-16.16c-6.58,0-13.73,3.8-13.82,3.85l-.11,0c-3.27.88-3.82,1.78-3.85,2.24-.07,1,1.73,2.1,2.89,2.61l.11.07c.09.07,9.16,7.34,18.25,6.23,3.82-.47,6.41-2.51,6.94-5.45.58-3.21-1.41-6.58-4.94-8.41A11.87,11.87,0,0,0,52.17,74.85Z"/><path class="cls-3" d="M27.06,88.31a7.57,7.57,0,0,1-1.48-10.26,6.76,6.76,0,0,1,9.78-1.46,7.56,7.56,0,0,1,1.49,10.25A6.79,6.79,0,0,1,27.06,88.31Z"/><path class="cls-2" d="M31.26,90.27a7.3,7.3,0,0,1-4.51-1.57,8.1,8.1,0,0,1-1.58-10.94A7.3,7.3,0,0,1,30.1,74.7a7.22,7.22,0,0,1,5.57,1.5,8.07,8.07,0,0,1,1.59,10.93,7.36,7.36,0,0,1-4.94,3.07A7.65,7.65,0,0,1,31.26,90.27Zm-.1-14.65a5.58,5.58,0,0,0-.91.07A6.33,6.33,0,0,0,26,78.34a7.08,7.08,0,0,0,1.39,9.57,6.25,6.25,0,0,0,4.8,1.3,6.38,6.38,0,0,0,4.27-2.65A7.08,7.08,0,0,0,35.06,77,6.34,6.34,0,0,0,31.16,75.62Z"/><path class="cls-4" d="M66.3,42.81S81.89,54,82.52,65.05s-10.59,15.67-18.18,5-5.28-25.52-5.28-25.52S57.68,33.45,66.3,42.81Z"/><path class="cls-2" d="M74.07,76.57C71,76.57,67.2,75,63.93,70.35,56.58,60,58.4,45.67,58.56,44.54c-.09-.74-.47-4.87,1.55-5.8,1.47-.68,3.6.53,6.52,3.7C67.71,43.22,82.39,54.06,83,65c.3,5.3-2.12,9.65-6.19,11.08A8.32,8.32,0,0,1,74.07,76.57ZM61,39.56a1.08,1.08,0,0,0-.44.08c-1.21.57-1.11,3.77-1,4.84v.14c0,.15-2.2,14.79,5.19,25.15,3.34,4.7,7.85,6.77,11.75,5.4,3.63-1.28,5.8-5.24,5.52-10.09-.61-10.66-15.86-21.75-16-21.86l-.07-.07C63.21,40.2,61.74,39.56,61,39.56Z"/><path class="cls-4" d="M58.4,47.35S56.74,66.1,47.5,71.06s-19-3.48-13.73-14.68,19.4-15,19.4-15S62.07,35.72,58.4,47.35Z"/><path class="cls-2" d="M42,73a10.08,10.08,0,0,1-7-2.77c-3.53-3.36-4.15-8.75-1.62-14.08C38.47,45.32,51.83,41.27,53,40.94c.62-.38,3.95-2.33,5.78-.92,1.35,1,1.4,3.46.15,7.43-.12,1.34-2,19.1-11.15,24A12.22,12.22,0,0,1,42,73ZM57.11,40.52a8.56,8.56,0,0,0-3.68,1.3l-.14.06c-.13,0-13.91,3.86-19.07,14.71-2.34,4.93-1.8,9.88,1.41,12.93,3,2.85,7.56,3.29,11.63,1.1,8.9-4.78,10.63-23.13,10.64-23.32l0-.1c1.08-3.4,1.15-5.67.21-6.39A1.64,1.64,0,0,0,57.11,40.52Z"/><path class="cls-4" d="M51.11,41.43s-16.49,7.39-26,1.65-8.28-18.31,4.1-18.94S53,34,53,34,62.87,39.16,51.11,41.43Z"/><path class="cls-2" d="M34.26,45.78a18.13,18.13,0,0,1-9.41-2.27c-4.89-2.95-7.4-8-6.25-12.58,1.08-4.28,5-7,10.59-7.29,12.16-.64,23.12,9.13,24.06,10,.67.36,4.43,2.45,4.09,4.78-.23,1.6-2.22,2.74-6.08,3.5C50.39,42.29,42.28,45.78,34.26,45.78Zm-4-21.17c-.34,0-.69,0-1,0-5.09.26-8.71,2.7-9.67,6.53-1,4.15,1.29,8.76,5.8,11.48C34.55,48.19,50.74,41,50.9,41l.11,0c4.44-.86,5.25-2,5.34-2.67.21-1.45-2.61-3.26-3.62-3.78l-.11-.08C52.51,34.31,41.89,24.61,30.27,24.61Z"/><path class="cls-4" d="M53.83,33.76S38.24,22.54,37.61,11.51s10.59-15.66,18.18-5S61.06,32,61.06,32,62.44,43.13,53.83,33.76Z"/><path class="cls-2" d="M59.16,38c-1.4,0-3.27-1.28-5.67-3.89-1.08-.78-15.76-11.63-16.38-22.59C36.8,6.23,39.23,1.88,43.3.46c3.4-1.2,8.58-.31,12.9,5.76C63.55,16.55,61.73,30.9,61.57,32c.08.74.46,4.86-1.56,5.79A1.89,1.89,0,0,1,59.16,38ZM46.08,1a7.34,7.34,0,0,0-2.45.42C40,2.68,37.83,6.63,38.11,11.48c.6,10.67,15.85,21.76,16,21.87l.07.07c3.37,3.66,4.83,3.77,5.4,3.51,1.21-.56,1.11-3.76,1-4.84V32c0-.14,2.19-14.78-5.19-25.15C52.72,3.06,49.32,1,46.08,1Z"/><path class="cls-4" d="M61.32,29.59S62.76,10.8,71.93,5.73,91,9,85.82,20.25s-19.2,15.22-19.2,15.22S57.78,41.26,61.32,29.59Z"/><path class="cls-2" d="M62.67,37.41a2.58,2.58,0,0,1-1.6-.48c-1.37-1-1.45-3.45-.25-7.43.11-1.35,1.73-19.15,10.87-24.21,4.42-2.45,9.44-2,12.8,1.09,3.57,3.32,4.26,8.71,1.79,14.08C81.25,31.37,68,35.59,66.83,35.93A9,9,0,0,1,62.67,37.41Zm14.9-32.7a11.13,11.13,0,0,0-5.39,1.45c-8.83,4.89-10.35,23.28-10.37,23.47l0,.1c-1,3.42-1.07,5.69-.12,6.4,1.16.87,3.76-.48,4.67-1.07l.14-.07c.14,0,13.86-4,18.89-15,2.28-5,1.68-9.91-1.56-12.93A9.09,9.09,0,0,0,77.57,4.71Z"/><path class="cls-4" d="M68.13,34.6s16.68-7,26.07-1,7.86,18.48-4.55,18.81S66.1,41.92,66.1,41.92,56.3,36.58,68.13,34.6Z"/><path class="cls-2" d="M89.1,52.89c-11.95,0-22.39-9.69-23.29-10.56-.67-.37-4.38-2.55-4-4.88.27-1.59,2.29-2.68,6.17-3.34,1.24-.51,17.15-6.87,26.48-1,4.82,3.06,7.22,8.17,6,12.71-1.18,4.25-5.2,6.87-10.77,7ZM84.48,31.68c-8,0-16,3.33-16.16,3.38l-.11,0c-4.46.75-5.3,1.9-5.41,2.53-.24,1.44,2.55,3.32,3.54,3.87l.11.07c.11.11,11.17,10.66,23.19,10.33,5.11-.14,8.78-2.48,9.83-6.29,1.14-4.11-1.09-8.77-5.54-11.6A17.65,17.65,0,0,0,84.48,31.68Z"/><path class="cls-5" d="M52.55,46.18a9.74,9.74,0,0,1-.75-13.4,9,9,0,0,1,12.94-.67,9.72,9.72,0,0,1,.74,13.39A8.93,8.93,0,0,1,52.55,46.18Z"/><path class="cls-2" d="M58.69,49.13a9.44,9.44,0,0,1-6.48-2.59,10.22,10.22,0,0,1-.78-14.08,9.4,9.4,0,0,1,6.65-3.29,9.53,9.53,0,0,1,7,2.57,10.24,10.24,0,0,1,.78,14.09,9.42,9.42,0,0,1-6.65,3.28Zm-.1-19h-.46a8.46,8.46,0,0,0-6,2.94,9.23,9.23,0,0,0,.71,12.7h0a8.47,8.47,0,0,0,6.26,2.3,8.35,8.35,0,0,0,5.95-2.94,9.23,9.23,0,0,0-.7-12.7A8.49,8.49,0,0,0,58.59,30.16Z"/><path class="cls-1" d="M86.15,111s2.12,25.64-9.37,36.22-26.94,3.58-22.27-13.59,23.07-28.28,23.07-28.28S88.46,94,86.15,111Z"/><path class="cls-2" d="M65.22,152.76A12,12,0,0,1,58.89,151c-5.18-3.14-7-9.69-4.87-17.51,4.54-16.69,22.09-27.83,23.25-28.54.67-.69,4.91-4.91,7.67-3.58,1.9.92,2.46,4.06,1.72,9.63.13,1.66,1.85,26.09-9.55,36.58A17.94,17.94,0,0,1,65.22,152.76Zm18.53-50.62c-1.94,0-4.76,2.48-5.81,3.58l-.1.08c-.18.11-18.29,11.2-22.85,28-2,7.37-.35,13.5,4.42,16.39s11.6,1.7,17-3.3c11.18-10.29,9.24-35.56,9.22-35.81V111c.85-6.28-.16-8.17-1.15-8.65A1.76,1.76,0,0,0,83.75,102.14Z"/><path class="cls-1" d="M73.9,107.24s-22.07,15.26-36,10.54-13.78-22.12,3.4-26.92,34.31,5.8,34.31,5.8S90,100.41,73.9,107.24Z"/><path class="cls-2" d="M43.89,119.2a19.17,19.17,0,0,1-6.18-1C31.16,116,27.2,111,27.35,105c.14-5.23,3.84-11.82,13.78-14.6,16.65-4.66,33.46,5.11,34.65,5.82.71.2,6,1.74,6.24,4.73.16,2.22-2.41,4.43-7.88,6.75C73,108.5,57.12,119.2,43.89,119.2ZM50.6,90.12a34.35,34.35,0,0,0-9.2,1.22C32,94,28.48,100.13,28.35,105c-.14,5.52,3.56,10.23,9.68,12.3C51.59,121.89,73.4,107,73.62,106.83l.09,0c6.2-2.63,7.4-4.59,7.31-5.78-.14-2-4.07-3.46-5.57-3.85l-.14-.06C75.18,97,63.86,90.12,50.6,90.12Z"/><path class="cls-1" d="M73.65,94.64s-23.32-9.75-25.81-24.4,12.41-24.76,24.53-13S83.45,89.82,83.45,89.82,87,104.3,73.65,94.64Z"/><path class="cls-2" d="M80.81,98.47c-1.82,0-4.27-1.12-7.41-3.39-1.54-.66-23.58-10.21-26.06-24.76-1.23-7.26,1.8-14.18,7.56-17.21s12.32-1.57,17.82,3.77C84.49,68.31,84,88.39,84,89.77c.17.74,1.38,6.39-1.27,8.17A3.29,3.29,0,0,1,80.81,98.47ZM61,52.58A12.13,12.13,0,0,0,55.37,54c-5.46,2.88-8.22,9.22-7,16.16,2.42,14.21,25.28,23.93,25.51,24l.1,0c5,3.59,7.19,3.55,8.18,2.88,1.83-1.23,1.23-5.59.84-7.17V89.8c0-.21.88-20.74-10.93-32.2C68.62,54.29,64.76,52.58,61,52.58Z"/><path class="cls-1" d="M84.56,90.43S82.45,64.79,94,54.21s26.94-3.58,22.27,13.59S93.13,96.07,93.13,96.07,82.25,107.46,84.56,90.43Z"/><path class="cls-2" d="M87,100.3a2.69,2.69,0,0,1-1.19-.26c-1.9-.91-2.46-4.06-1.71-9.63-.13-1.66-1.84-26.09,9.55-36.57,5.77-5.3,12.92-6.65,18.23-3.42s7,9.69,4.86,17.51c-4.54,16.69-22.1,27.82-23.25,28.54C92.87,97.07,89.61,100.3,87,100.3Zm18.55-50.62c-3.73,0-7.73,1.69-11.22,4.9C83.1,64.87,85,90.13,85.06,90.39v.1c-.85,6.28.15,8.17,1.15,8.65,1.85.89,5.36-2.16,6.56-3.41l.1-.08c.19-.11,18.3-11.2,22.86-28,2-7.37.36-13.5-4.41-16.4A11.16,11.16,0,0,0,105.51,49.68Z"/><path class="cls-1" d="M96,94.12S118,78.62,132,83.17,146,105.1,128.9,110.1s-34.41-5.39-34.41-5.39S80,101.14,96,94.12Z"/><path class="cls-2" d="M119.12,112c-12.86,0-23.87-6.22-24.83-6.77-.72-.19-6.05-1.67-6.3-4.65-.19-2.22,2.36-4.46,7.8-6.84,1.39-1,22.41-15.51,36.34-11,6.58,2.14,10.61,7.17,10.52,13.14-.08,5.23-3.7,11.86-13.61,14.75A35.14,35.14,0,0,1,119.12,112Zm7.17-29.11c-13.26,0-29.77,11.56-30,11.69l-.09,0c-6.18,2.7-7.35,4.68-7.25,5.86.17,2,4.11,3.41,5.62,3.79l.13,0c.18.11,17.3,10.22,34,5.34,9.39-2.74,12.82-8.93,12.89-13.8.08-5.52-3.68-10.18-9.83-12.18A17.92,17.92,0,0,0,126.29,82.84Z"/><path class="cls-1" d="M96.85,105.43s23,10.32,25.18,25-13,24.5-24.8,12.43S87,110,87,110,83.75,95.43,96.85,105.43Z"/><path class="cls-2" d="M108.72,148.86c-4.08,0-8.24-1.92-11.84-5.6-11.48-11.72-10.51-31.82-10.43-33.2-.15-.74-1.23-6.44,1.47-8.15,1.87-1.2,4.88-.19,9.18,3.09,1.53.69,23.29,10.78,25.42,25.4,1.07,7.33-2.14,14.19-8,17.08A13.09,13.09,0,0,1,108.72,148.86Zm-19-46.43a2.26,2.26,0,0,0-1.24.32c-1.85,1.18-1.36,5.57-1,7.16l0,.08v.07c0,.2-1.37,20.74,10.14,32.5,5,5.14,11.21,6.65,16.51,4,5.45-2.7,8.44-9.14,7.43-16-2.08-14.3-24.66-24.56-24.89-24.66l-.1-.06C93.11,103.2,91,102.43,89.69,102.43Z"/><path class="cls-5" d="M69.77,100.36c.36-6.93,6.63-12.67,14-12.82s13,5.34,12.68,12.27-6.62,12.67-14,12.82S69.42,107.29,69.77,100.36Z"/><path class="cls-2" d="M82.15,113.13a13.1,13.1,0,0,1-9.55-3.9,11.73,11.73,0,0,1-3.32-8.9h0c.37-7.17,6.86-13.14,14.47-13.29a13.15,13.15,0,0,1,9.87,3.89,11.73,11.73,0,0,1,3.32,8.9c-.37,7.18-6.86,13.14-14.47,13.3ZM84.06,88h-.29c-7.1.14-13.15,5.68-13.5,12.34a10.8,10.8,0,0,0,3,8.16,12.18,12.18,0,0,0,9.14,3.59c7.09-.15,13.15-5.69,13.49-12.35a10.78,10.78,0,0,0-3-8.15A12.1,12.1,0,0,0,84.06,88Z"/></g></g></svg>