<svg xmlns="http://www.w3.org/2000/svg" viewBox="0 0 84.04 145.78"><defs><style>.cls-1{fill:#feb73b;}.cls-2{fill:#213043;}.cls-3{fill:#f789b6;}.cls-4{fill:#fdfbef;}.cls-5{fill:#2b3044;}.cls-6{fill:#fbffff;}.cls-7{fill:#ff7e48;}</style></defs><g id="Слой_2" data-name="Слой 2"><g id="Layer_1" data-name="Layer 1"><path class="cls-1" d="M83.39,66.33s3.86-27.76-16.13-52.62C45.63-13.17,16.57,6.86,9.73,19.12c-8,14.4-12.11,37-7.18,52.89,2,6.58,17.84-5.78,34.24-6.77C59.06,63.89,83.76,71.51,83.39,66.33Z"/><path class="cls-2" d="M5.49,74.3a4,4,0,0,1-1.8-.36A2.81,2.81,0,0,1,2.2,72.12c-5.27-17-.36-39.59,7.21-53.18,4-7.1,15.92-17.63,30.15-18.83,10.55-.89,20.23,3.73,28,13.37C87.07,37.76,83.91,65.15,83.76,66.34a1.56,1.56,0,0,1-.49,1.27c-1.68,1.59-7.49.87-16.28-.21S47.28,65,36.82,65.6c-7.49.46-14.9,3.32-20.86,5.61C11.61,72.89,8,74.3,5.49,74.3ZM42.21.73c-.85,0-1.72,0-2.59.11C25.66,2,13.93,12.34,10.05,19.3c-7.31,13.12-12.3,36-7.15,52.6A2.13,2.13,0,0,0,4,73.28c2,1,6.28-.67,11.69-2.75,6-2.32,13.47-5.2,21.07-5.66,10.53-.64,21.5.71,30.31,1.8,8,1,14.26,1.75,15.68.4a.83.83,0,0,0,.26-.71v-.08c0-.27,3.6-27.9-16.06-52.34C59.91,5.17,51.59.73,42.21.73Z"/><path class="cls-3" d="M3.91,66.93c5.42-9.53,25.61-18.62,44.19-18S82.52,60.7,83.34,65.11s-8.13,15-42,12.47C31,76.81-4.82,82.26,3.91,66.93Z"/><path class="cls-2" d="M51.19,78.33c-3,0-6.29-.12-9.88-.39-2.22-.16-5.61,0-9.54.11C20.33,78.46,6.1,79,2.85,73.61c-1.09-1.79-.84-4.1.74-6.87h0C9.44,56.46,30.24,48,48.11,48.57,67,49.22,82.85,60.46,83.7,65c.27,1.47-.43,3.27-1.93,4.94C79.35,72.68,71.81,78.33,51.19,78.33Zm-12.52-1.2c1,0,1.92,0,2.69.08,27.88,2.07,37.16-4.71,39.86-7.72,1.35-1.5,2-3.07,1.76-4.31-.8-4.29-16.66-15.25-34.9-15.87-18.91-.63-38.77,8.87-43.85,17.8h0c-1.44,2.52-1.69,4.58-.75,6.12,3,5,17.61,4.47,28.26,4.08C34.34,77.22,36.71,77.13,38.67,77.13Z"/><path class="cls-4" d="M35,69.15c.37,17.63-7.4,37-6.66,50s4.13,24.05,14.31,25.9c12.33,2.23,17-7.05,16.28-28.52s-8.39-36.69-8.14-47.42S34.73,57.51,35,69.15Z"/><path class="cls-2" d="M46,145.78a19.68,19.68,0,0,1-3.46-.33c-8.92-1.62-13.7-10.2-14.61-26.24-.36-6.32,1.27-14.11,3-22.37,1.9-9.13,3.86-18.56,3.67-27.69-.07-3.45,1.28-6.17,3.82-7.66a8.72,8.72,0,0,1,8.71.11,8.24,8.24,0,0,1,4,7.55c-.11,4.7,1.34,10.38,3,16.94,2.1,8.22,4.72,18.45,5.13,30.47.49,14.28-1.4,22.77-6,26.71A10.75,10.75,0,0,1,46,145.78ZM42.64,61.11a7.56,7.56,0,0,0-3.84,1c-2.3,1.34-3.52,3.83-3.45,7,.19,9.21-1.78,18.68-3.69,27.85-1.71,8.21-3.33,16-3,22.17.89,15.66,5.47,24,14,25.57,4.35.78,7.68.13,10.16-2,4.37-3.78,6.18-12.08,5.7-26.13-.42-11.93-3-22.12-5.11-30.31-1.69-6.61-3.15-12.33-3-17.13a7.44,7.44,0,0,0-3.63-6.91A8.24,8.24,0,0,0,42.64,61.11Z"/><path class="cls-5" d="M43.55,59.86l-.47-.56S47,56,46.38,49.09l.74-.07C47.74,56.29,43.73,59.72,43.55,59.86Z"/><path class="cls-5" d="M59.46,67.31A13.35,13.35,0,0,1,55,66.64l.26-.69S61,68,67.78,64.41s7.86-6.91,7.87-6.95l.7.21c0,.15-1.11,3.59-8.22,7.39A18.37,18.37,0,0,1,59.46,67.31Z"/><path class="cls-5" d="M32.34,64.14A16.93,16.93,0,0,1,18,55.57l.63-.38a16.09,16.09,0,0,0,14,8.21l0,.74Z"/><path class="cls-5" d="M17.11,69.74a45.59,45.59,0,0,1-13.68-1.9l.25-.69a49.91,49.91,0,0,0,27.23,0l.2.71A52.89,52.89,0,0,1,17.11,69.74Z"/><path class="cls-5" d="M36.86,19.09c.35,2.9-1.08,5.41-3.21,5.62s-4.13-2-4.48-4.87,1.09-5.42,3.22-5.63S36.51,16.19,36.86,19.09Z"/><path class="cls-6" d="M35.73,17.22c.15,1.24-.43,2.31-1.29,2.4s-1.68-.85-1.83-2.09.43-2.31,1.29-2.39S35.58,16,35.73,17.22Z"/><path class="cls-6" d="M33,22.81a.93.93,0,1,1-.92-1A1,1,0,0,1,33,22.81Z"/><ellipse class="cls-5" cx="52.95" cy="19.17" rx="3.87" ry="5.28"/><path class="cls-6" d="M50,17.2c0,1.25.71,2.25,1.57,2.25s1.58-1,1.58-2.25S52.42,15,51.56,15,50,16,50,17.2Z"/><path class="cls-6" d="M53.35,22.49a1,1,0,0,0,1,.93,1,1,0,0,0,.79-1.11,1,1,0,0,0-1-.93A1,1,0,0,0,53.35,22.49Z"/><path class="cls-7" d="M31.34,66c-3.07,8.26-5.6,13.37-9.74,16.4s4.14,6.47,7.15,5.26,8.45-3,10.52-1.21,7.51,4.24,9,.4,7.4-3,10.33-1.21,7,.2,7.52-2.22S58.86,77,55,66,34.42,57.7,31.34,66Z"/><path class="cls-2" d="M45.16,89.21A10.58,10.58,0,0,1,39,86.67c-1.4-1.22-5.09-.76-10.15,1.28-2.38,1-7.3-.66-8.49-2.8-.35-.62-.68-1.86,1-3.09,4.1-3,6.62-8.23,9.61-16.24,1.64-4.42,7.19-7.58,13.1-7.52,5.4.05,9.6,2.87,11.23,7.53a36.66,36.66,0,0,0,8.52,13.31c1.76,1.9,2.92,3.15,2.65,4.31a4.28,4.28,0,0,1-2.64,2.77,6,6,0,0,1-5.43-.32C56.55,84.77,53.29,84,51,84.78a3.63,3.63,0,0,0-2.33,2.15,3.33,3.33,0,0,1-2.39,2.16A4.83,4.83,0,0,1,45.16,89.21Zm-8.57-3.95a4.31,4.31,0,0,1,2.92.86c1.38,1.21,4.42,2.77,6.55,2.25A2.62,2.62,0,0,0,48,86.66a4.31,4.31,0,0,1,2.78-2.58c2.56-.87,6-.06,8.08,1.19a5.36,5.36,0,0,0,4.77.27,3.57,3.57,0,0,0,2.2-2.26c.18-.78-.93-2-2.47-3.64a37.25,37.25,0,0,1-8.67-13.57c-1.55-4.42-5.39-7-10.54-7H44c-5.51,0-10.76,3-12.26,7h0c-3,8.14-5.62,13.46-9.87,16.57-.95.7-1.21,1.4-.79,2.14,1,1.82,5.54,3.29,7.58,2.48A23.67,23.67,0,0,1,36.59,85.26Z"/><path class="cls-5" d="M36,34c-.35-2.1,14-2.83,15.84-2.12s.4,7.62-6.62,8.84S36.37,36.07,36,34Z"/><path class="cls-7" d="M27.45,36.92a4.74,4.74,0,0,1-4.56,4.9,4.91,4.91,0,0,1,0-9.79A4.73,4.73,0,0,1,27.45,36.92Z"/><path class="cls-2" d="M22.89,42.19a5.28,5.28,0,0,1,0-10.53,5.28,5.28,0,0,1,0,10.53Zm0-9.8a4.54,4.54,0,0,0,0,9.06,4.54,4.54,0,0,0,0-9.06Z"/><path class="cls-7" d="M69.15,34.4a4.57,4.57,0,1,1-4.55-4.9A4.73,4.73,0,0,1,69.15,34.4Z"/><path class="cls-2" d="M64.6,39.66a5.28,5.28,0,1,1,4.92-5.26A5.11,5.11,0,0,1,64.6,39.66Zm0-9.79a4.54,4.54,0,1,0,4.18,4.53A4.37,4.37,0,0,0,64.6,29.87Z"/></g></g></svg>