<svg xmlns="http://www.w3.org/2000/svg" viewBox="0 0 127.74 192.17"><defs><style>.cls-1{fill:#d95b45;}.cls-2{fill:#213043;}.cls-3{fill:#f789b6;}.cls-4{fill:#fdfbef;}.cls-5{fill:#2b3044;}.cls-6{fill:#fbffff;}.cls-7{fill:#feb73b;}</style></defs><g id="Слой_2" data-name="Слой 2"><g id="Layer_1" data-name="Layer 1"><path class="cls-1" d="M126.83,83.82s5.82-30.71-24.72-64.94c-33-37-77.43-9.44-87.87,7.45C2,46.16-3.61,75.83,3.92,97.72c3.12,9.06,26.59-6.51,51.66-7.88C89.58,88,127.4,91,126.83,83.82Z"/><path class="cls-2" d="M8.81,101c-2.72,0-4.58-.89-5.36-3.16C-3.72,77.06.54,47.53,13.81,26.06c5.94-9.61,23.95-24,45.4-25.86C75.53-1.23,90.5,5.11,102.48,18.55c29.68,33.26,25.13,63.67,24.85,65.3a2.38,2.38,0,0,1-.68,1.8c-3.27,3.58-19,3.72-38.89,3.91-10,.09-21.38.19-32.16.78C44.46,91,33.52,94.41,24.73,97.2,18.15,99.29,12.63,101,8.81,101ZM63.69,1c-1.46,0-2.92.06-4.4.19-21.1,1.85-38.8,16-44.63,25.4C1.54,47.81-2.68,77,4.4,97.55c1.56,4.55,9.31,2.1,20-1.3,8.84-2.81,19.85-6.29,31.12-6.91,10.8-.59,22.17-.69,32.2-.78,18.88-.18,35.18-.33,38.16-3.58a1.4,1.4,0,0,0,.42-1.12v-.13c.06-.31,5.41-30.88-24.6-64.52C91.05,7.24,78,1,63.69,1Z"/><path class="cls-3" d="M5.33,84.53C13.62,64.17,44.46,44.75,72.84,46.1s52.59,25.13,53.84,34.55-12.42,32-64.17,26.64C46.72,105.65-8,117.3,5.33,84.53Z"/><path class="cls-2" d="M77.43,108.61a143.6,143.6,0,0,1-15-.82c-3.38-.35-8.56-.09-14.56.22-15.39.78-36.46,1.85-43-7.42-2.78-3.92-2.77-9.38,0-16.25h0c7.92-19.47,37.78-40.19,68-38.74,28.88,1.37,53,25.26,54.31,35,.46,3.39-.94,9-6.2,14.36S103.37,108.61,77.43,108.61Zm-19-2a38.75,38.75,0,0,1,4.13.18c36,3.73,51.58-6.26,57.7-12.55,5-5.15,6.34-10.37,5.92-13.53C125,71.5,100.69,47.92,72.82,46.6c-28.91-1.37-59.24,19-67,38.12C3.14,91.25,3.1,96.39,5.67,100c6.27,8.83,27,7.77,42.18,7C51.82,106.81,55.44,106.62,58.43,106.62Z"/><path class="cls-4" d="M46.53,83.85c.9,24.94-17.64,52.31-15.88,70.74s9.87,34,34.12,36.62c29.41,3.16,40.59-10,38.82-40.32s-20-51.86-19.41-67S46,67.41,46.53,83.85Z"/><path class="cls-2" d="M72.8,192.17a77.74,77.74,0,0,1-8.08-.46c-21.09-2.27-32.39-14.4-34.56-37.07-.86-9,3-20,7.13-31.7,4.52-12.88,9.2-26.2,8.75-39.07h0c-.14-3.84,1.77-7.05,5.54-9.28,7.2-4.26,20.06-4.11,27.51.33,3.8,2.27,5.73,5.36,5.59,9-.26,6.61,3.19,14.61,7.18,23.87,5,11.63,11.24,26.11,12.23,43.12,1,16.37-1.92,27.5-8.76,34C90.2,189.76,82.79,192.17,72.8,192.17Zm-8-119.7c-4.72,0-9.37,1-12.73,3-2.39,1.42-5.21,4-5.06,8.39h0c.47,13-4.24,26.46-8.8,39.44-4.07,11.58-7.92,22.52-7.08,31.27,2.12,22.12,13.13,33.95,33.67,36.16,13.87,1.49,23.62-.65,29.82-6.55,6.62-6.31,9.38-17.18,8.45-33.24-1-16.83-7.17-31.22-12.15-42.78-4-9.38-7.52-17.48-7.26-24.31.16-4-2.69-6.61-5.1-8A27.74,27.74,0,0,0,64.82,72.47Z"/><path class="cls-4" d="M47.24,79.93S38.69,100.36,32.37,105s6.32,9.88,10.91,8,12.92-4.63,16.07-1.85,11.49,6.48,13.78.62,11.31-4.54,15.79-1.85,10.62.31,11.48-3.4-11.12-9.68-17-26.6S48.05,71.54,47.24,79.93Z"/><path class="cls-2" d="M68.35,115.4c-3.39,0-7.32-2.09-9.33-3.86s-7.81-1.18-15.56,1.94c-3.61,1.46-11.09-1-12.9-4.25-.52-.93-1-2.79,1.51-4.64,6-4.37,14.14-23.5,14.68-24.78.51-4.4,8-8.83,16.86-9.9,10.07-1.22,17.63,2.47,20.22,9.86,3.53,10.07,9.25,16.26,13,20.35,2.66,2.89,4.42,4.79,4,6.53a6.49,6.49,0,0,1-4,4.18,9.14,9.14,0,0,1-8.24-.47c-2.89-1.74-7.89-2.94-11.46-1.72A5.6,5.6,0,0,0,73.6,112,5,5,0,0,1,70,115.22,7.27,7.27,0,0,1,68.35,115.4Zm-13.08-5.92a6.54,6.54,0,0,1,4.41,1.31c2.12,1.86,6.79,4.25,10.07,3.45a4.06,4.06,0,0,0,2.92-2.64,6.54,6.54,0,0,1,4.21-3.91c3.89-1.33,9.13-.09,12.3,1.81a8.23,8.23,0,0,0,7.33.41,5.48,5.48,0,0,0,3.4-3.49c.29-1.22-1.42-3.07-3.78-5.62-3.84-4.16-9.65-10.44-13.24-20.7-2.42-6.92-9.59-10.36-19.16-9.2-8.15,1-15.62,5.23-16,9.08l0,.15c-.35.84-8.68,20.61-15,25.26-1.48,1.09-1.88,2.19-1.23,3.36,1.55,2.79,8.52,5.07,11.65,3.8C47,111,51.65,109.48,55.27,109.48Z"/><path class="cls-5" d="M65.93,70.5l-.78-.63c.06-.07,6-7.79,5.14-23.81l1-.05C72.23,62.44,66.19,70.18,65.93,70.5Z"/><path class="cls-5" d="M89.58,79a28.33,28.33,0,0,1-7.35-.85l.28-1a35,35,0,0,0,21.07-2c11.45-4.68,13.14-8.83,13.16-8.87l.93.36c-.07.18-1.87,4.59-13.71,9.43A38,38,0,0,1,89.58,79Z"/><path class="cls-5" d="M47.59,79C45.16,79,33.85,78,26.91,60l.94-.36C35.32,79.06,47.83,78,48,78l.11,1A2.81,2.81,0,0,1,47.59,79Z"/><path class="cls-5" d="M22.73,95.47A41.26,41.26,0,0,1,3.37,90.89L3.89,90c.17.1,17.05,10,38.21,0l.42.9A46,46,0,0,1,22.73,95.47Z"/><path class="cls-5" d="M60.2,132.72c.45,4.42-1.39,8.27-4.1,8.59s-5.27-3-5.72-7.45,1.39-8.27,4.1-8.59S59.76,128.29,60.2,132.72Z"/><path class="cls-6" d="M58.76,129.87c.19,1.89-.55,3.52-1.65,3.65s-2.15-1.3-2.34-3.18.54-3.53,1.65-3.66S58.57,128,58.76,129.87Z"/><path class="cls-6" d="M55.29,138.39c0,.87-.52,1.57-1.17,1.57s-1.17-.7-1.17-1.57.52-1.56,1.17-1.56S55.29,137.53,55.29,138.39Z"/><path class="cls-5" d="M75.81,132.84c0,4.45,2.21,8.06,4.94,8.06s4.94-3.61,4.94-8.06-2.21-8.07-4.94-8.07S75.81,128.38,75.81,132.84Z"/><path class="cls-6" d="M77,129.84c0,1.9.9,3.44,2,3.44s2-1.54,2-3.44-.9-3.44-2-3.44S77,127.94,77,129.84Z"/><path class="cls-6" d="M81.26,137.91c.09.86.68,1.5,1.33,1.42a1.44,1.44,0,0,0,1-1.69c-.09-.86-.68-1.5-1.33-1.42A1.44,1.44,0,0,0,81.26,137.91Z"/><path class="cls-7" d="M50,153.31c0,4.29-3,7.77-6.75,7.77s-6.76-3.48-6.76-7.77,3-7.77,6.76-7.77S50,149,50,153.31Z"/><path class="cls-2" d="M43.28,161.58c-4,0-7.26-3.71-7.26-8.27S39.28,145,43.28,145s7.25,3.71,7.25,8.27S47.28,161.58,43.28,161.58Zm0-15.54c-3.45,0-6.26,3.26-6.26,7.27s2.81,7.27,6.26,7.27,6.25-3.27,6.25-7.27S46.72,146,43.28,146Z"/><path class="cls-7" d="M100.45,149.91a7,7,0,1,1-7-7.48A7.24,7.24,0,0,1,100.45,149.91Z"/><path class="cls-2" d="M93.49,157.89a8,8,0,1,1,7.46-8A7.74,7.74,0,0,1,93.49,157.89Zm0-15a7,7,0,1,0,6.46,7A6.74,6.74,0,0,0,93.49,142.93Z"/><path class="cls-5" d="M70.88,167.45h0c-11.37,0-15-5.45-16-7.79l0-.11.9-.44.07.15c.94,2.16,4.29,7.19,15.07,7.19h0c7,0,11-7.29,11.05-7.36l.88.47C82.63,159.89,78.48,167.45,70.88,167.45Z"/><path class="cls-5" d="M84,161.36a6.25,6.25,0,0,0-4.77-2.45l-.29,0,.16-1,.22,0a7.25,7.25,0,0,1,5.5,2.87Z"/><path class="cls-5" d="M53.71,162.29a1.86,1.86,0,0,1-.11-1.55,4.59,4.59,0,0,1,3-2.82l.36.93A3.69,3.69,0,0,0,54.58,161a1.06,1.06,0,0,0,0,.75Z"/><path class="cls-4" d="M58.68,5.33c-14,4.1-6,17.83,6.44,11.18C70.74,13.51,75,.54,58.68,5.33Z"/><path class="cls-2" d="M58.59,18.8a8.73,8.73,0,0,1-5.19-1.57,5.83,5.83,0,0,1-2.54-5.74c.5-2.94,3.3-5.36,7.68-6.64,8.6-2.52,11.07,0,11.78,1.75,1.37,3.35-1.64,8.58-5,10.35A14.65,14.65,0,0,1,58.59,18.8Zm.23-13c-4,1.17-6.54,3.3-7,5.84A4.85,4.85,0,0,0,54,16.42c2.72,2,6.79,1.83,10.89-.35,3-1.57,5.67-6.26,4.51-9.09-1-2.46-4.75-2.87-10.57-1.17Z"/><path class="cls-4" d="M26,39.54c-10.29,9.05,0,12.67,7,6.85S31.4,34.74,26,39.54Z"/><path class="cls-2" d="M25.77,49.7a5.1,5.1,0,0,1-3.93-1.45c-.85-1-2.17-3.85,3.78-9.09a7.18,7.18,0,0,1,7.05-1.53A4.78,4.78,0,0,1,36,41.18c.34,1.85-.64,3.83-2.76,5.59A12,12,0,0,1,25.77,49.7ZM30.5,38.27a6.36,6.36,0,0,0-4.22,1.64h0c-3.66,3.23-5,6.1-3.68,7.69,1.55,1.82,6.26,1.51,10-1.6,1.82-1.51,2.68-3.16,2.41-4.64a3.82,3.82,0,0,0-2.67-2.79A5.88,5.88,0,0,0,30.5,38.27Z"/><path class="cls-4" d="M80.75,30.29C69,30.29,77,43,84.36,39S91.79,30.29,80.75,30.29Z"/><path class="cls-2" d="M81.42,40.3a7.47,7.47,0,0,1-4.83-1.89c-1.91-1.67-2.75-4-2.09-5.73.41-1.08,1.76-2.89,6.25-2.89,6.9,0,8.8,1.79,9.18,3.28.5,2-1.45,4.31-5.33,6.41A6.67,6.67,0,0,1,81.42,40.3Zm-.67-9.51c-2.88,0-4.77.8-5.31,2.24s.21,3.23,1.81,4.63a6,6,0,0,0,6.87.93c3.35-1.8,5.21-3.82,4.84-5.27S85.49,30.79,80.75,30.79Z"/><path class="cls-4" d="M111.11,39c-5.36.71.32,11.11,2.87,8.37S117.49,38.19,111.11,39Z"/><path class="cls-2" d="M113,48.38a2.34,2.34,0,0,1-1-.26c-1.9-.93-4-4.56-3.54-7.13a2.81,2.81,0,0,1,2.61-2.45h0c3.06-.41,4.36.8,4.92,1.88,1.11,2.15.06,5.53-1.62,7.34A1.83,1.83,0,0,1,113,48.38Zm-1.82-8.85a1.82,1.82,0,0,0-1.75,1.62,7.07,7.07,0,0,0,3,6.07.9.9,0,0,0,1.2-.15c1.41-1.52,2.36-4.44,1.46-6.19-.75-1.44-2.53-1.53-3.9-1.35Z"/><path class="cls-4" d="M3.26,64.88c.12,6.72,5.61,5.82,6.25-.68S3.19,61.11,3.26,64.88Z"/><path class="cls-2" d="M5.93,70H5.84c-1.45-.05-3-1.43-3.08-5.12h0a5.16,5.16,0,0,1,2.8-4.3,3.16,3.16,0,0,1,3.27-.17c.66.44,1.41,1.46,1.18,3.82C9.63,68.06,7.69,70,5.93,70ZM3.76,64.87c0,2.47.87,4.09,2.12,4.14S8.7,67.38,9,64.15c.14-1.46-.12-2.49-.73-2.9a2.25,2.25,0,0,0-2.23.22,4.19,4.19,0,0,0-2.29,3.4Z"/><path class="cls-4" d="M27.38,16.59c-4.4,6.09,2.83,9.59,5.38,4.11S30.6,12.14,27.38,16.59Z"/><path class="cls-2" d="M29.08,23.93a3.53,3.53,0,0,1-3.16-1.88c-.83-1.58-.45-3.67,1-5.75h0c1.78-2.45,4-2.74,5.33-1.93s2.42,3.3.91,6.54a4.71,4.71,0,0,1-4,3Zm-1.29-7c-1.28,1.76-1.63,3.48-1,4.71a2.6,2.6,0,0,0,2.34,1.34,3.72,3.72,0,0,0,3.16-2.44c1.24-2.67.6-4.6-.52-5.26s-2.6-.29-4,1.65Z"/><path class="cls-4" d="M93.48,14.46c-3.85-1.4-4,4.11-.75,4.49S97.45,15.9,93.48,14.46Z"/><path class="cls-2" d="M93.22,19.47l-.55,0a3,3,0,0,1-2.54-2.07,2.91,2.91,0,0,1,.55-3,2.65,2.65,0,0,1,3-.38h0c2.35.85,2.91,2.33,2.65,3.43A3,3,0,0,1,93.22,19.47Zm-.9-4.74a1.33,1.33,0,0,0-.94.35,1.9,1.9,0,0,0-.3,2,2,2,0,0,0,1.71,1.41c1.43.17,2.36-.51,2.54-1.26s-.57-1.73-2-2.26A2.86,2.86,0,0,0,92.32,14.73Z"/><path class="cls-4" d="M52.15,35c-4.47,2.41-.75,8,2.08,4.76S56.11,32.91,52.15,35Z"/><path class="cls-2" d="M52.37,41.28a2.34,2.34,0,0,1-.74-.12,3.15,3.15,0,0,1-2-2.77,3.91,3.91,0,0,1,2.32-3.79h0c2.49-1.33,3.61-.41,4,0,1,1.22.44,3.52-1.28,5.48A3,3,0,0,1,52.37,41.28Zm0-5.8h0a3,3,0,0,0-1.81,2.82,2.2,2.2,0,0,0,1.36,1.91,1.82,1.82,0,0,0,1.91-.74c1.51-1.72,1.82-3.49,1.25-4.2C54.66,34.72,53.65,34.8,52.39,35.48Z"/></g></g></svg>