<svg xmlns="http://www.w3.org/2000/svg" viewBox="0 0 95.83 85.66"><defs><style>.cls-1{fill:#5292ad;}.cls-2{fill:#213043;}.cls-3{fill:#feb73b;}.cls-4{fill:#2b3044;}.cls-5{fill:#ff7e48;}.cls-6{fill:#f789b6;}</style></defs><g id="Слой_2" data-name="Слой 2"><g id="Layer_1" data-name="Layer 1"><path class="cls-1" d="M67,37.52C68.8,35.83,96,32.89,95.32,49.61S67.87,57.93,65.64,60.27,54.29,91.08,38,84s-2.22-29.65,1.18-30.88S67,37.52,67,37.52Z"/><path class="cls-2" d="M43.14,85.66a13.46,13.46,0,0,1-5.39-1.18,12.46,12.46,0,0,1-8-12.63C30,63.1,36.57,53.53,39,52.67c3.26-1.17,26.62-14.92,27.71-15.56,1.74-1.41,13.92-2.76,21.85.92,5.07,2.36,7.53,6.26,7.3,11.6a10.45,10.45,0,0,1-3.31,7.66C87.6,61.66,78.26,61,72.08,60.54c-2.64-.19-5.62-.41-6.08.07a24.54,24.54,0,0,0-2,3.65C60.52,71.56,53.69,85.66,43.14,85.66ZM76,36.69c-4.54,0-8.22.73-8.72,1.2l-.08.06c-1,.59-24.51,14.43-27.92,15.66-2,.72-8.31,9.83-8.57,18.27-.18,5.55,2.32,9.48,7.41,11.68,12.79,5.52,21-11.54,25-19.74a21,21,0,0,1,2.12-3.9c.75-.78,2.76-.68,6.87-.38,6,.44,15.1,1.09,19.69-3a9.46,9.46,0,0,0,3-6.95c.21-4.9-2-8.48-6.72-10.65A29.62,29.62,0,0,0,76,36.69Z"/><path class="cls-1" d="M63.05,25.63c.28-.12,11.73-13.6,5.38-21.23C62.27-3,53.65,1.43,49.61,7s-4,14.3-6.7,14.65S22,10.77,5,19.79C-10.57,28,18.16,45.36,34.6,43S63.05,25.63,63.05,25.63Z"/><path class="cls-2" d="M31.37,43.73c-12.14,0-28.44-8.12-31-16.08-.76-2.33-.61-5.66,4.39-8.3C18.07,12.29,32.19,17.48,39,20a15.58,15.58,0,0,0,3.87,1.18c1-.14,1.71-2.46,2.48-5.16.82-2.89,1.84-6.49,3.88-9.3C52.06,2.76,56.48.14,60.46,0a10.26,10.26,0,0,1,8.36,4.07c1.93,2.32,2.49,5.35,1.66,9-1.36,6-6,11.85-7,12.85h0c-.13.15-12.34,15.21-28.78,17.56A23.45,23.45,0,0,1,31.37,43.73ZM19.56,16.79A30.35,30.35,0,0,0,5.19,20.23c-3.51,1.86-4.83,4.25-3.9,7.11C4,35.52,22.89,44.18,34.53,42.52c16-2.29,28-17.05,28.13-17.2l.11-.11c.62-.69,11.23-13.33,5.28-20.49A9.23,9.23,0,0,0,60.49,1C56,1.15,52.05,4.48,50,7.28s-2.93,6.17-3.73,9c-.93,3.28-1.61,5.65-3.31,5.87-.75.1-2.1-.4-4.34-1.23C34.45,19.38,27.42,16.79,19.56,16.79Z"/><path class="cls-3" d="M36.82,42.17c13.77-8.63,31.24-21.73,35.53-14S37.93,57.45,31,54,31.17,45.72,36.82,42.17Z"/><path class="cls-2" d="M33,54.87a5,5,0,0,1-2.27-.43c-2-1-3.07-2.23-3.14-3.64-.16-3.09,4.33-6.17,8.93-9,2-1.24,4-2.57,6.1-3.92,10.43-6.77,21.2-13.76,27-12.32a4.82,4.82,0,0,1,3.14,2.42c1,1.87,0,4.44-3,7.61C61.89,43.8,41.33,54.87,33,54.87ZM68,26.32c-5.74,0-15.8,6.53-24.77,12.35-2.08,1.35-4.14,2.68-6.12,3.92h0c-3,1.89-8.6,5.39-8.46,8.16.05,1,.92,2,2.59,2.8,4.92,2.45,29-9.43,37.84-18.7,1.86-1.94,3.86-4.63,2.85-6.44a3.76,3.76,0,0,0-2.5-1.93A5.91,5.91,0,0,0,68,26.32Z"/><path class="cls-4" d="M95.77,32.79l-1-.13c0-.14.37-3.6-5.44-5.58-5.28-1.8-11.62,1-15,2.42-.56.25-1,.46-1.46.62l-.37-.93,1.43-.6c3.53-1.53,10.1-4.38,15.74-2.45C96.29,28.4,95.8,32.62,95.77,32.79Z"/><path class="cls-4" d="M71.41,27.3,70.92,27c-.11-.37,0-.45.82-1,11-7.27,13.78-11.54,14.17-13.86a4.11,4.11,0,0,0-.74-3.65c-1.34-1.4-3.85-1.13-3.87-1.12l-.12-1c.12,0,3-.34,4.71,1.42a5,5,0,0,1,1,4.51c-.6,3.65-5.52,8.53-14.6,14.52l-.56.38-.3-.39h0Z"/><path class="cls-5" d="M56.06,29.66a24.66,24.66,0,0,0,5-6.46c2.28-4.85,2.12-12.41-3.77-12.09-4.75.26-7.24,7.4-8.15,12.77-.74,4.38-.47,10.68-.14,10.48C49.72,33.92,56.06,29.66,56.06,29.66Z"/><path class="cls-2" d="M49,35l-.3-.19c-.77-.51-.59-7.73,0-11,.51-3,2.63-12.85,8.61-13.18a4.79,4.79,0,0,1,4.5,2.07c1.86,2.75,1.28,7.49-.25,10.74A24.75,24.75,0,0,1,56.39,30l0,0c-.26.18-6.36,4.28-7.1,4.72ZM57.63,11.6H57.3c-4.17.23-6.7,6.53-7.69,12.35a44.93,44.93,0,0,0-.34,9.62c1.65-1.07,6.06-4,6.48-4.31A24.23,24.23,0,0,0,60.59,23c1.37-2.92,1.95-7.33.32-9.75A3.7,3.7,0,0,0,57.63,11.6Z"/><path class="cls-5" d="M61,42.51s4.83-1.87,9.07-1c5.93,1.22,11.59,5.71,9.1,9.68C74.85,58,56.22,45.26,56.92,45S61,42.51,61,42.51Z"/><path class="cls-2" d="M74.86,53.69a14.15,14.15,0,0,1-3.42-.48c-6-1.52-15-7-15-8.17l0-.36.35-.17c.48-.19,2.63-1.55,4-2.42l.09-.05c.2-.08,5-1.91,9.35-1,4.52.93,8.51,3.55,9.72,6.37a4.24,4.24,0,0,1-.3,4.06A5.11,5.11,0,0,1,74.86,53.69ZM57.7,45.13c2,1.69,11.59,7.74,17.41,7.55a4.06,4.06,0,0,0,3.6-1.76,3.23,3.23,0,0,0,.22-3.13c-1.07-2.5-4.85-4.94-9-5.79-3.83-.79-8.24.77-8.74,1S58.8,44.51,57.7,45.13Z"/><path class="cls-6" d="M46.53,50.2c-.48.22-13.31,13.45-3.42,19.92s16.93-19,11.26-24Z"/><path class="cls-2" d="M46.3,71.67a6.29,6.29,0,0,1-3.47-1.13,8,8,0,0,1-3.93-7.65c.47-6.16,6.7-12.73,7.4-13.13h0l8.14-4.2.26.22c4.09,3.56,2,16.36-2.58,22.34C50.34,70.48,48.35,71.67,46.3,71.67Zm.48-21c-.65.5-7.05,7.23-6.9,13.18a7,7,0,0,0,3.5,5.9c3.48,2.27,6.24.06,7.95-2.19,4.47-5.9,6.05-17.44,3-20.76Z"/><path class="cls-6" d="M39.44,40.35c-.43.31-17.38,2.58-18.26-9.15s22.38-2.45,25.63,4.31Z"/><path class="cls-2" d="M35.29,41.24a21.38,21.38,0,0,1-8.75-1.67,9.45,9.45,0,0,1-5.86-8.33c-.29-3.9,1.93-5.33,3.85-5.84,6.73-1.79,20.27,4.77,22.73,9.89l.19.4-7.74,5.08h0A14.86,14.86,0,0,1,35.29,41.24ZM27.12,26.09a9.43,9.43,0,0,0-2.33.27c-2.26.61-3.31,2.22-3.11,4.8a8.37,8.37,0,0,0,3.89,6.74c4.94,3.21,12.91,2.22,13.63,2l6.95-4.57C43.71,31.2,33.62,26.09,27.12,26.09Zm12.12,13.8h0Z"/></g></g></svg>