<svg xmlns="http://www.w3.org/2000/svg" viewBox="0 0 96.87 86.82"><defs><style>.cls-1{fill:#f789b6;}.cls-2{fill:#213043;}.cls-3{fill:#feb73b;}.cls-4{fill:#2b3044;}.cls-5{fill:#5292ad;}.cls-6{fill:#d95b45;}</style></defs><g id="Слой_2" data-name="Слой 2"><g id="Layer_1" data-name="Layer 1"><path class="cls-1" d="M49.88,34.2C48.94,31.51,58.3,3,75.61,12.32s-2.38,25.57-.94,29,32.59,20.77,17.66,33.33-39-.78-38.71-4.79S49.88,34.2,49.88,34.2Z"/><path class="cls-2" d="M77,80.37a38.13,38.13,0,0,1-16.72-4.14c-3.37-1.71-7.25-4.41-7.12-6.42.25-3.84-3.56-34.16-3.73-35.5C48.74,32,52.71,19.66,59.82,13.59c4.86-4.15,10.4-4.74,16-1.71,3.91,2.11,6.3,4.77,7.11,7.91C84.43,25.5,80.5,31.59,77.63,36c-1.38,2.14-2.8,4.35-2.5,5.08s2.36,2.33,4.76,4.24c6.31,5,16.87,13.43,17,21.5,0,3-1.38,5.77-4.22,8.16A23.81,23.81,0,0,1,77,80.37ZM68.83,11a12.76,12.76,0,0,0-8.36,3.39C53.13,20.61,49.89,32.71,50.35,34l0,.1c.17,1.29,4,31.73,3.75,35.74-.06.85,1.94,3.11,6.57,5.46,8.65,4.38,22,6.71,31.32-1.09,2.6-2.19,3.9-4.67,3.86-7.39C95.77,59.27,85.44,51,79.26,46.13c-3.06-2.44-4.68-3.76-5.05-4.63-.51-1.21.72-3.12,2.58-6C79.56,31.2,83.35,25.32,82,20c-.74-2.86-3-5.31-6.61-7.28A13.85,13.85,0,0,0,68.83,11Z"/><path class="cls-1" d="M35.55,32c0-.34-9-18.63-19.93-16.27C5,18,5.72,28.8,9.73,35.67s10.42,10,9.54,12.83S-1.1,53.22.61,74.78c1.54,19.62,35.2,11.84,40.25-5.66S35.55,32,35.55,32Z"/><path class="cls-2" d="M14.71,86.82a21.16,21.16,0,0,1-2.27-.12C5.14,86,.64,81.63.11,74.81-1.2,58.29,9.7,53.11,15.55,50.33c1.59-.76,3.09-1.47,3.24-2,.38-1.25-1.12-2.75-3.21-4.83A37.21,37.21,0,0,1,9.3,35.92c-2.18-3.74-4-9.83-1.82-14.72,1.36-3.09,4.14-5.17,8-6,3.34-.72,6.8.31,10.29,3.06,5.66,4.47,9.64,12,10.18,13.47h0c.1.2,10.39,20.05,5.34,37.54C38.3,79.82,25.32,86.81,14.71,86.82ZM17.55,16a8.12,8.12,0,0,0-1.82.2c-3.62.78-6.09,2.61-7.34,5.43-2,4.54-.29,10.28,1.77,13.81a36.25,36.25,0,0,0,6.12,7.41c2.34,2.33,4,4,3.47,5.83-.28.93-1.67,1.58-3.77,2.58C10.35,53.91-.15,58.89,1.1,74.74c.68,8.6,7.46,10.57,11.44,11,10.33,1,24.76-6,27.84-16.73,4.93-17.1-5.17-36.6-5.27-36.8l0-.15C34.44,30.32,26.68,16,17.55,16Z"/><path class="cls-3" d="M41,66.48C38.18,48.38,32.37,24.32,42.48,24S57.62,73.26,50.8,78.35,42.14,73.91,41,66.48Z"/><path class="cls-2" d="M47.32,80.29A3.66,3.66,0,0,1,46,80c-3.33-1.36-4.57-7.67-5.47-13.47h0c-.4-2.6-.86-5.33-1.34-8.08-2.35-13.78-4.78-28-.66-33a5.09,5.09,0,0,1,4-1.9c2.77-.05,5.3,3,7.44,9.17,5,14.37,6.53,42.05,1.19,46A6.49,6.49,0,0,1,47.32,80.29ZM41.48,66.4c.62,4,1.77,11.44,4.86,12.7,1.12.46,2.52.07,4.16-1.15C55,74.6,54.07,47.73,49,33c-1.91-5.48-4.18-8.5-6.41-8.5H42.5a4.12,4.12,0,0,0-3.24,1.53c-3.83,4.67-1.33,19.31.88,32.24.47,2.76.94,5.49,1.34,8.09Z"/><path class="cls-4" d="M44.7,24.51l-1,0c0-.48,0-1.07,0-1.73,0-4.29,0-12.26,4.62-16.86,5.39-5.37,9.55-2.75,9.72-2.64l-.55.84c-.14-.1-3.68-2.26-8.46,2.51-4.32,4.3-4.33,12-4.33,16.15C44.72,23.42,44.72,24,44.7,24.51Z"/><path class="cls-4" d="M40.55,24.77c-.38-.05-.4-.16-.6-1.24C37.33,8.85,34.06,3.88,31.78,2.29,30.1,1.12,28.61.75,27.36,1.17c-2,.68-2.82,3.19-2.83,3.22l-1-.3c0-.12,1-3,3.45-3.87,1.58-.53,3.36-.11,5.32,1.25,3.54,2.46,6.43,9.83,8.59,21.88.07.42.12.69.14.77l-.47.15.46.21Z"/><path class="cls-5" d="M36.76,39.05S22.15,21.64,19.87,29s18,18.39,17.86,17.43S36.76,39.05,36.76,39.05Z"/><path class="cls-2" d="M37.73,47c-1.49,0-7.7-3.8-11.52-6.88s-8-7.44-6.81-11.23a2.74,2.74,0,0,1,2.06-2.11c4.66-.92,14.57,10.67,15.68,12l.09.11,0,.15s.84,6.4,1,7.36l0,.34L38,46.9A.52.52,0,0,1,37.73,47ZM22.07,27.68a1.69,1.69,0,0,0-1.72,1.46c-.41,1.31,0,2.89,1.18,4.69,3.58,5.39,13.09,11,15.62,12-.23-1.72-.76-5.75-.87-6.56C33.4,35.84,25.7,27.68,22.07,27.68Z"/><path class="cls-5" d="M50.88,37.75S57.77,15.11,64.49,21.8,52.23,44.14,52.08,43.31,50.88,37.75,50.88,37.75Z"/><path class="cls-2" d="M52.09,43.84h0l-.36-.05-.1-.39c-.15-.8-1.19-5.5-1.2-5.55l0-.13,0-.12c.2-.65,4.93-16,10.62-17.43a3.88,3.88,0,0,1,3.82,1.27c2,2,2.12,4.88.31,8.54C62.06,36.19,53.44,43.84,52.09,43.84Zm-.7-6.07c.15.65.78,3.51,1.06,4.86C54.69,41.18,63.71,33.26,65.22,27a4.74,4.74,0,0,0-1.08-4.81,2.92,2.92,0,0,0-2.87-1C56.37,22.37,51.86,36.3,51.39,37.77Z"/><path class="cls-6" d="M53.9,61c0,.59,9.87,13.83,21.22,7.36S73.62,44.7,53.23,51.14Z"/><path class="cls-2" d="M68.69,70.62a15.11,15.11,0,0,1-7.48-2.13c-4.4-2.5-7.72-6.68-7.8-7.46h0l-.7-10.25.38-.12c12.47-3.94,23,.82,26,7.69,1.79,4.1.36,8.1-3.73,10.44A13.37,13.37,0,0,1,68.69,70.62ZM54.4,60.9a22,22,0,0,0,10,8,12.18,12.18,0,0,0,10.44-1c3.67-2.09,4.91-5.52,3.31-9.17C75.82,53.34,66.7,47.57,53.75,51.5Z"/><path class="cls-6" d="M40.27,63c.13.58-6.36,14.69-19.14,9.52S16.83,49,38.53,53.15Z"/><path class="cls-2" d="M26.58,74.1a15,15,0,0,1-5.64-1.17c-5-2-7.29-6.27-5.94-10.85C17,55.51,25.68,50.16,38.63,52.66l.33.06,1.8,10.14c.1.73-1.92,4.88-5.41,7.84A13.46,13.46,0,0,1,26.58,74.1ZM32.34,53c-9,0-14.88,4.27-16.38,9.33-1.22,4.12.83,7.82,5.35,9.65a12.27,12.27,0,0,0,11.13-.48A18.27,18.27,0,0,0,39.77,63L38.1,53.58A31.42,31.42,0,0,0,32.34,53Z"/></g></g></svg>