<svg xmlns="http://www.w3.org/2000/svg" viewBox="0 0 106.37 167.31"><defs><style>.cls-1{fill:#fdfbef;}.cls-2{fill:#213043;}.cls-3{fill:#2b3044;}</style></defs><g id="Слой_2" data-name="Слой 2"><g id="Layer_1" data-name="Layer 1"><path class="cls-1" d="M49.39,49.31C43.54,33.64,40.7,16.3,35.2,9.08,28.5.28,19,.5,16.65,14.16c-1.71,9.89,2.74,37.74,8.87,53.16C31,81.12,37.85,83,42.63,84.33,52.78,87.07,54.27,62.4,49.39,49.31Z"/><path class="cls-2" d="M44.13,85a6.28,6.28,0,0,1-1.63-.23c-4.71-1.27-11.83-3.2-17.44-17.3-6-15.15-10.68-43.12-8.9-53.43C17.25,7.74,20,3.73,23.83,2.79S32,4.1,35.6,8.78C39,13.29,41.39,21.5,44.12,31c1.72,6,3.49,12.12,5.74,18.14h0c3.84,10.3,3.9,28-1.52,33.91A5.56,5.56,0,0,1,44.13,85ZM25.58,3.58a6.37,6.37,0,0,0-1.51.18c-3.44.84-5.9,4.57-6.92,10.49C15.39,24.43,20,52.11,26,67.14c5.42,13.64,12.25,15.48,16.78,16.71a4.54,4.54,0,0,0,4.83-1.47c5.11-5.6,5-23.06,1.32-32.89-2.26-6.06-4-12.24-5.76-18.22-2.7-9.4-5-17.52-8.36-21.88C32,5.66,28.62,3.58,25.58,3.58Z"/><path class="cls-1" d="M86.82,78.84c-21.7-20.2-76,14.26-77.43,34.09s32.55,39.81,61.16,19.91S105.62,96.34,86.82,78.84Z"/><path class="cls-2" d="M45.18,141.56a43,43,0,0,1-21-5.46c-10-5.69-15.86-14.58-15.25-23.21.8-11.48,18.94-28.08,39.6-36.23,9.63-3.79,27.46-8.61,38.66,1.82,7.77,7.22,11.29,14.29,10.77,21.59-.73,10.28-9.34,20.82-27.09,33.18A44.61,44.61,0,0,1,45.18,141.56ZM69.36,73.18c-7.63,0-15.29,2.36-20.49,4.41-20,7.89-38.21,24.42-39,35.37-.57,8.24,5.08,16.77,14.76,22.27,11.07,6.28,28.87,8.85,45.62-2.8,17.25-12,26-22.61,26.67-32.43.49-7-2.93-13.78-10.46-20.79C81.66,74.72,75.51,73.18,69.36,73.18Z"/><path class="cls-1" d="M25.8,152s-3.39,16.91,21.07,14.56S88.12,164.56,87,152s-23.17-10.18-34.95-9.39S25.8,152,25.8,152Z"/><path class="cls-2" d="M42.42,167.31c-6.55,0-11.33-1.62-14.24-4.85-4-4.46-2.92-10.28-2.87-10.53l.05-.21.19-.12c.14-.08,14.73-8.67,26.49-9.46l2.19-.15c12.05-.85,32.22-2.28,33.3,10a9.09,9.09,0,0,1-1.94,7c-4.29,5.11-15.07,6-30,7.32-2.77.24-5.67.49-8.69.78C45.34,167.23,43.84,167.31,42.42,167.31Zm-16.16-15c-.15,1.06-.61,5.82,2.67,9.45s9.34,5.11,17.89,4.29c3-.29,5.93-.54,8.7-.78,14.68-1.26,25.28-2.18,29.31-7a8.17,8.17,0,0,0,1.7-6.26c-1-11.31-20.55-9.92-32.23-9.09l-2.19.15C41.33,143.86,28,151.32,26.26,152.35Z"/><path class="cls-1" d="M79.84,62.8c6.87-37,2.65-69.18-16.31-61-9.14,3.94-5.9,22.52-7.35,37.07-2.06,20.62-4.15,44.61,0,49.48C63.37,96.65,77.26,76.73,79.84,62.8Z"/><path class="cls-2" d="M60.2,90.79a5.63,5.63,0,0,1-4.36-2.13c-4.25-5-2.41-27.34-.16-49.86.4-4,.44-8.29.49-12.46.12-11.33.23-22,7.16-25C68-.69,72-.41,75.21,2.16c8.67,6.92,10.68,30.76,5.12,60.73-2,10.76-10.9,25.64-18.45,27.67A6.28,6.28,0,0,1,60.2,90.79ZM69.07,1a13.6,13.6,0,0,0-5.34,1.23C57.39,5,57.28,15.36,57.17,26.35c-.05,4.2-.09,8.53-.49,12.55C55,55.38,52.27,83,56.6,88a4.62,4.62,0,0,0,5,1.59C68.72,87.68,77.45,73,79.35,62.71h0C84.84,33.1,83,9.64,74.59,2.94A8.6,8.6,0,0,0,69.07,1Z"/><path class="cls-1" d="M6.75,107.89C5.32,136,10,149,29.28,152.87s26.1-6.31,31.11-5.08,22.88,8.38,31.46,0,21.1-29.45,8.94-56-30-23.37-44.61-26.57C40.39,61.75,39.62,71.6,40.39,79.82c1.51,16.13,33.26,21,33.26,21Z"/><path class="cls-2" d="M37.65,154.24a43.54,43.54,0,0,1-8.47-.88C8.28,149.2,5,133.53,6.25,107.86l1,0c-1.51,29.65,4.07,40.88,22.13,44.47,12.48,2.48,19.73-1,24.53-3.29,2.62-1.26,4.7-2.25,6.6-1.78.7.17,1.65.46,2.76.79,6.83,2.07,21,6.36,28.23-.66,2.42-2.37,23.23-24,8.84-55.46C90.52,70.53,77.23,68.76,64.39,67c-2.9-.38-5.63-.75-8.32-1.34-5.77-1.26-10-.8-12.41,1.38-3.25,2.87-3.19,8.29-2.77,12.7,1.45,15.55,32.52,20.44,32.83,20.49l-.15,1c-1.31-.2-32.15-5.06-33.68-21.39-.43-4.64-.48-10.37,3.1-13.54,2.72-2.4,7.19-2.94,13.3-1.6,2.64.58,5.36.94,8.23,1.32C77,67.72,91.2,69.61,101.25,91.57c14.68,32.07-6.58,54.17-9,56.58-7.61,7.43-22.21,3-29.22.91-1.09-.33-2-.61-2.71-.78-1.55-.38-3.39.49-5.93,1.71A35.74,35.74,0,0,1,37.65,154.24Z"/><path class="cls-1" d="M.85,94c5.13,25.61,15,40.58,23.45,29.16S23,75.07,14.15,71.52-1.08,84.35.85,94Z"/><path class="cls-2" d="M18.28,127.52a5.55,5.55,0,0,1-1.27-.14C10.57,126,4.19,113.19.36,94.08-1.1,86.8,2,76.48,6.87,72.43a7.05,7.05,0,0,1,7.46-1.37c4.49,1.78,8.49,10.82,10.73,18.69,3.4,11.91,4.61,27-.35,33.68C22.7,126.15,20.54,127.52,18.28,127.52ZM1.34,93.88c3.69,18.43,9.93,31.2,15.89,32.53,2.3.51,4.55-.69,6.67-3.57,4.77-6.46,3.53-21.14.2-32.82C21.36,80.43,17.38,73.35,14,72A6,6,0,0,0,7.51,73.2C2.88,77.05,0,86.91,1.34,93.88Z"/><path class="cls-1" d="M16.28,76.33c4.82,24,17.17,49.18,25.09,38.44S40.07,65,31.71,61.65,14.47,67.28,16.28,76.33Z"/><path class="cls-2" d="M37.2,117.83a4.57,4.57,0,0,1-1.09-.13C28.22,116,19.58,95.34,15.79,76.43h0a13.88,13.88,0,0,1,4.83-13.15,10.94,10.94,0,0,1,11.27-2.1c3.27,1.31,6.85,7.78,9.57,17.31,3.78,13.26,5.1,30.08.31,36.58C40.42,116.9,38.88,117.83,37.2,117.83ZM16.77,76.23c4.18,20.86,13,39,19.56,40.5,1.72.38,3.23-.36,4.63-2.25,4.61-6.25,3.25-22.69-.46-35.71-2.6-9.11-6-15.49-9-16.66a10,10,0,0,0-10.26,1.94,12.86,12.86,0,0,0-4.49,12.18Z"/><path class="cls-3" d="M59.14,148.19C45.61,145,46.4,128,46.41,127.84l1,0c0,.17-.75,16.29,12,19.33Z"/></g></g></svg>