<svg xmlns="http://www.w3.org/2000/svg" viewBox="0 0 47.13 46.89"><defs><style>.cls-1{fill:#f789b6;}.cls-2{fill:#213043;}</style></defs><g id="Слой_2" data-name="Слой 2"><g id="Layer_1" data-name="Layer 1"><path class="cls-1" d="M20.11,17.76C19.22,15.21,17.65,3.32,29.52.61S54.35,46.37,41,46.39-1.77,43,.64,25.25,20.11,17.76,20.11,17.76Z"/><path class="cls-2" d="M40.8,46.89C27.87,46.89,10.37,44.05,3.34,36A13.14,13.14,0,0,1,.14,25.18C.83,20.1,2.79,16.75,6,15.23c4.81-2.31,11,.31,13.39,1.54A16,16,0,0,1,20.72,6.2C22.44,3.09,25.36,1,29.41.12c2.45-.56,5.1.84,7.65,4,7,8.74,12.78,31,8.74,39.41A5.24,5.24,0,0,1,41,46.89ZM10.27,15.32a9,9,0,0,0-3.89.81c-2.84,1.37-4.6,4.46-5.25,9.19a12.17,12.17,0,0,0,3,10C10.93,43.17,28.19,45.94,41,45.89a4.23,4.23,0,0,0,3.93-2.75c3.63-7.57-1.19-29.07-8.61-38.35-1.6-2-4.06-4.28-6.65-3.69-3.76.85-6.46,2.73-8,5.58a15.18,15.18,0,0,0-1,10.92L21,18.9l-1.18-.71C19.8,18.15,15,15.32,10.27,15.32Z"/></g></g></svg>