<svg xmlns="http://www.w3.org/2000/svg" viewBox="0 0 37.25 42.77"><defs><style>.cls-1{fill:#feb73b;}.cls-2{fill:#213043;}</style></defs><g id="Слой_2" data-name="Слой 2"><g id="Layer_1" data-name="Layer 1"><path class="cls-1" d="M18.3,12.77c-.26-2.28,1.57-14,10.83-12,13.92,2.92,5.53,42.24.26,41.54C18.2,40.78-4.79,26.75,1.61,13.33,7.88.19,18.3,12.77,18.3,12.77Z"/><path class="cls-2" d="M29.52,42.77l-.2,0c-7.78-1-22.36-8.54-27.48-18-2.2-4.06-2.43-8-.68-11.65s4.14-5.88,7-6.23c4.1-.51,8,2.88,9.7,4.6C18,9,19.12,4.55,21.9,2A7.89,7.89,0,0,1,29.23.23C37.61,2,38.29,16,36.34,27.43,35,35.14,32.28,42.77,29.52,42.77ZM8.94,7.84a5.65,5.65,0,0,0-.71,0c-2.45.3-4.52,2.21-6.17,5.66s-1.38,7,.66,10.75c5,9.16,19.16,16.46,26.74,17.46,1.53.19,4.39-5.69,5.89-14.5,1.88-11,1.36-24.44-6.32-26a6.93,6.93,0,0,0-6.45,1.55c-3.08,2.8-4,8.33-3.78,10L19,14.38l-1.07-1.29C17.87,13,13.51,7.84,8.94,7.84Z"/></g></g></svg>