<svg xmlns="http://www.w3.org/2000/svg" viewBox="0 0 267.36 186.58"><defs><style>.cls-1{fill:#d95b45;}.cls-2{fill:#213043;}.cls-3{fill:#ff7e48;}.cls-4{fill:#feb73b;}.cls-5{fill:#5292ad;}.cls-6{fill:#fdfbef;}</style></defs><g id="Слой_2" data-name="Слой 2"><g id="Layer_1" data-name="Layer 1"><path class="cls-1" d="M24.3,140S23.39,9.16,118.54.89C229.29-8.72,238.86,139.58,238.86,139.58H218S200,19.07,131.58,22c-89.8,3.79-84.66,118-84.66,118Z"/><path class="cls-2" d="M47.39,140.42H23.85V140c0-.33-.1-33.17,11.46-66.59,6.8-19.66,16.23-35.67,28-47.59C78.14,10.87,96.69,2.34,118.5.45c27.41-2.38,51,4.74,70.13,21.18,45.08,38.73,50.62,117.13,50.68,117.92l0,.48H217.6l0-.39c-.05-.3-4.64-30.42-17.52-59.79-11.85-27-33.32-58.92-68.43-57.44-22.72,1-41.32,9.16-55.27,24.38-31.23,34.08-29,92.58-29,93.16Zm-22.64-.89H46.46c-.15-5.66-.78-60.61,29.21-93.34,14.12-15.41,32.92-23.71,55.89-24.68,15.73-.66,30.1,5.15,42.7,17.28,10.05,9.68,19,23.38,26.6,40.71,12.13,27.68,16.94,56,17.51,59.63h20c-.53-6.64-7.38-79.92-50.32-116.82C169.11,6,145.74-1,118.58,1.34,69.68,5.59,46.77,43,36.17,73.66,25.39,104.82,24.78,135.49,24.75,139.53Z"/><path class="cls-3" d="M40.32,139.69S39.54,28.41,120.49,21.38c94.21-8.18,102.35,118,102.35,118H205.09S189.79,36.84,131.58,39.3c-76.39,3.23-72,100.39-72,100.39Z"/><path class="cls-2" d="M59.56,140.14H39.87v-.44c0-.28-.08-28.23,9.75-56.67C55.41,66.3,63.44,52.67,73.49,42.52c12.59-12.71,28.39-20,47-21.58,23.33-2,43.42,4,59.71,18,38.36,33,43.08,99.69,43.13,100.36l0,.47H204.7l-.06-.38c0-.25-3.94-25.87-14.9-50.85-10.07-23-28.32-50.09-58.14-48.82-19.31.81-35.11,7.79-47,20.72C58.08,89.44,60,139.17,60,139.67l0,.47Zm-18.79-.89H59.1C59,134.07,58.55,87.6,84,59.87c12-13.12,28-20.19,47.59-21,24-1,44.41,16.06,59,49.38,10.27,23.41,14.37,47.38,14.9,50.68h16.88c-.49-6.08-6.42-68-42.78-99.26-16.09-13.83-36-19.82-59-17.82C79,25.44,59.49,57.25,50.48,83.3,41.37,109.64,40.8,135.55,40.77,139.25Z"/><path class="cls-4" d="M58.72,140S58.08,45.1,125.3,39.11c78.25-7,85,100.58,85,100.58H195.56s-12.7-87.41-61.05-85.31C71.07,57.13,74.7,140,74.7,140Z"/><path class="cls-2" d="M74.7,140.42H58.27V140c0-.24-.07-24.08,8.11-48.34,7.56-22.45,23.92-49.86,58.88-53,19.08-1.7,35.55,3.28,49,14.8,32.51,27.92,36.49,85.62,36.52,86.2l0,.47H195.17l0-.38a198.77,198.77,0,0,0-12.37-43.34c-8.36-19.56-23.51-42.64-48.22-41.58C102,56.24,87.61,79.26,81.25,98.33c-6.92,20.74-6.11,41.42-6.1,41.62l0,.47Zm-15.53-.89H74.24c-.08-3.21-.24-22.31,6.15-41.46,6.45-19.35,21.08-42.71,54.1-44.14,20-.88,36.95,13.71,49.09,42.14A200.34,200.34,0,0,1,196,139.24h13.87c-.45-5.61-5.53-58.78-36.18-85.1-13.22-11.36-29.47-16.26-48.3-14.59C90.86,42.63,74.7,69.73,67.23,91.93A167.55,167.55,0,0,0,59.17,139.53Z"/><path class="cls-5" d="M73.45,139.58s-.51-81.32,53.7-86.46c63.1-6,68.55,86.21,68.55,86.21H183.81s-10.24-74.91-49.23-73.12c-51.16,2.36-48.24,73.37-48.24,73.37Z"/><path class="cls-2" d="M86.34,140H73v-.45a152.74,152.74,0,0,1,6.54-41.44c8.76-27.62,25.21-43.35,47.57-45.46,14.81-1.41,27.68,2.49,38.28,11.57,27.41,23.5,30.73,74.54,30.76,75.05l0,.48H183.42l0-.39c-.11-.74-10.39-72.76-47.44-72.76l-1.33,0c-21,1-35.43,13.5-42.89,37.23a118.89,118.89,0,0,0-4.92,35.67l0,.47Zm-12.44-.9h12a120.14,120.14,0,0,1,5-35.48c7.47-23.81,22.58-36.91,43.71-37.88,16.15-.75,29.87,11.76,39.67,36.16a180,180,0,0,1,10,36.95h11c-.41-5.23-4.71-51.91-30.42-73.95C154.4,56,141.74,52.19,127.19,53.57,99.43,56.2,86.42,79.41,80.4,98.41A152.53,152.53,0,0,0,73.9,139.13Z"/><path class="cls-6" d="M19.63,130.54c5.91-12.37,25.43-13.51,33-9.18,11.14,6.41,13.47,15,13.47,15s9.11-13.89,21.61-4.34c7.41,5.67,5.93,11.29,5.93,11.29s11.19-5.37,14.61,4.29c3.16,8.92-6.81,13-6.81,13s3.86,11.52-6.72,18.09c-6.58,4.08-14.76-.92-14.76-.92s-4.28,10.31-20.57,8c-7.75-1.09-14.78-10.12-14.78-10.12s-7,5-11.66,4.72c-9.85-.54-10.63-8.29-10.63-8.29s-12.23,6-18.76-4.67c-7-11.49,2.74-18.15,2-18.3s-8.37-7.76-3.33-15.84C8.26,123.53,19.63,130.54,19.63,130.54Z"/><path class="cls-2" d="M63.81,186.58a32.21,32.21,0,0,1-4.53-.33c-7.08-1-13.43-8.28-14.8-9.95-1.5,1-7.37,4.79-11.6,4.56-8.5-.47-10.51-6.22-11-8.1-2.47,1-12.92,4.51-18.8-5.08s-.31-16,1.54-18.08l.24-.28A14.63,14.63,0,0,1,1.08,144a11.41,11.41,0,0,1,.7-11c5.58-8.94,15.49-4.32,17.66-3.15,3-5.78,8.54-8.55,12.75-9.86,7.17-2.23,15.83-1.84,20.61.91,9.26,5.32,12.5,12.08,13.39,14.44,1.34-1.74,5.14-6.07,10.59-7,3.73-.63,7.48.47,11.15,3.28,6,4.56,6.35,9.09,6.22,10.92,1.71-.68,6-2.05,9.7-.53a8.51,8.51,0,0,1,4.77,5.39c2.91,8.21-4.87,12.51-6.69,13.39.56,2.1,2.63,12.23-7,18.22-6,3.7-13,.31-14.8-.67C79.13,180.18,74.87,186.58,63.81,186.58ZM44.65,175.07l.27.34c.07.09,7,8.9,14.48,10,15.73,2.21,19.93-7.34,20.1-7.75l.2-.48.44.27c.08,0,8,4.81,14.29.92C104.6,172,101,160.86,101,160.75l-.14-.4.39-.16c.39-.16,9.54-4,6.56-12.42a7.69,7.69,0,0,0-4.27-4.86c-4.25-1.76-9.67.8-9.72.83l-.87.41.24-.93c0-.22,1.28-5.42-5.78-10.82-3.46-2.65-7-3.69-10.45-3.1-6.34,1.08-10.47,7.27-10.51,7.33l-.54.83-.27-1c0-.08-2.43-8.52-13.25-14.75-3.93-2.27-12-3.28-19.9-.83-4.14,1.28-9.66,4-12.42,9.82l-.22.45-.42-.27c-.45-.27-11.07-6.65-16.86,2.63a10.27,10.27,0,0,0-1.13,8.81,13.44,13.44,0,0,0,4.21,6.36A.49.49,0,0,1,6,149c.11.32-.09.55-.62,1.15-1.73,2-7,7.95-1.45,17,6.24,10.18,17.7,4.75,18.18,4.51l.58-.28.07.64c0,.3.88,7.37,10.21,7.88,4.48.24,11.31-4.59,11.37-4.64Z"/><path class="cls-6" d="M249.31,167.9c-3.76,13.31-22.77,18.19-30.88,15.38-12-4.16-15.76-12.19-15.76-12.19s-6.65,15.43-20.53,8.43c-8.24-4.15-7.72-10-7.72-10s-10.11,7.44-15.09-1.41c-4.6-8.17,4.54-14.09,4.54-14.09s-5.72-10.58,3.6-19.09c5.79-5.29,14.67-1.94,14.67-1.94s2.49-11,18.9-11.86c7.8-.42,16.22,7.11,16.22,7.11s6-6.24,10.69-6.89c9.78-1.36,11.84,6.11,11.84,6.11s11-8.24,19.24,1c8.84,9.94.32,18.39,1.09,18.39s9.54,6,5.92,14.94C261.66,172.6,249.31,167.9,249.31,167.9Z"/><path class="cls-2" d="M223.73,184.5a16.77,16.77,0,0,1-5.45-.8c-10-3.45-14.3-9.46-15.58-11.63-1,2-4.09,7.06-9.39,9-3.52,1.28-7.35.9-11.37-1.13-6.62-3.33-7.77-7.7-7.95-9.53-1.59,1-5.65,3.2-9.54,2.36a8.29,8.29,0,0,1-5.51-4.38c-4.24-7.52,2.73-13.26,4.36-14.45-.9-2-4.63-11.53,3.87-19.28,5.23-4.78,12.74-2.8,14.67-2.18.73-2.16,4.59-10.94,19.17-11.73,7.14-.39,14.58,5.54,16.23,6.94,1.29-1.28,6.44-6.14,10.65-6.72,8.41-1.18,11.37,4.07,12.12,5.85,2.27-1.46,12-6.92,19.35,1.38s3,15.68,1.5,18.09l-.19.33a14.24,14.24,0,0,1,4.57,4.35,11.41,11.41,0,0,1,1.22,11c-4,9.87-14.53,7.22-16.85,6.49-2,6.37-7.14,10.19-11.16,12.3A33.38,33.38,0,0,1,223.73,184.5ZM202.66,170l.42.91c0,.08,3.81,7.91,15.49,12,4.86,1.68,13,.46,19.46-2.89,4-2.07,9.06-5.86,10.85-12.19l.13-.48.46.18c.49.18,12,4.42,16.15-5.84a10.26,10.26,0,0,0-.4-9,13.1,13.1,0,0,0-5.14-5.35.42.42,0,0,1-.4-.24c-.17-.31,0-.55.42-1.26,1.37-2.27,5.57-9.18-1.41-17-7.84-8.81-18.53-1-18.63-.92l-.53.39-.18-.63c-.08-.29-2.09-7.08-11.34-5.78-4.45.62-10.37,6.69-10.43,6.75l-.3.31-.32-.28c-.08-.08-8.37-7.4-15.9-7-15.85.86-18.38,11.08-18.48,11.51l-.12.5-.48-.18c-.09,0-8.7-3.18-14.21,1.85-8.94,8.16-3.74,18.13-3.51,18.55l.2.36-.35.23c-.36.23-8.72,5.79-4.39,13.49a7.42,7.42,0,0,0,4.91,3.94c4.5,1,9.47-2.64,9.52-2.67l.79-.59-.08,1c0,.22-.36,5.57,7.48,9.52,3.8,1.91,7.38,2.28,10.67,1.09,6.15-2.24,9.22-9.23,9.25-9.3Z"/></g></g></svg>