<svg width="238" height="286" viewBox="0 0 238 286" fill="none" xmlns="http://www.w3.org/2000/svg">
<g clip-path="url(#clip0_141_501)">
<path d="M116.682 206.769C121.697 201.219 124.45 193.985 124.397 186.498C124.397 170.565 112.406 157.639 97.6047 157.639C93.6956 157.643 89.841 158.559 86.3467 160.315C84.3096 155.614 80.9648 151.6 76.712 148.753C72.4593 145.906 67.4783 144.346 62.3644 144.259C48.2787 144.259 36.7414 155.96 35.6418 170.827C33.1874 170.04 30.6261 169.639 28.0491 169.638C13.2653 169.638 1.25671 182.563 1.25671 198.496C1.1847 203.441 2.36347 208.323 4.68308 212.687C7.00269 217.051 10.3876 220.756 14.522 223.455C10.7457 228.619 8.71536 234.858 8.72718 241.26C8.72718 257.211 20.7183 270.119 35.5021 270.119C39.8307 270.125 44.0874 269.01 47.8598 266.883C49.715 272.02 53.0831 276.471 57.5183 279.647C61.9535 282.823 67.2467 284.575 72.6974 284.671C86.3118 284.671 97.5873 273.704 99.2629 259.502C100.155 259.609 101.053 259.661 101.951 259.66C116.752 259.66 128.726 246.734 128.726 230.783C128.769 226.109 127.699 221.492 125.605 217.316C123.51 213.139 120.451 209.524 116.682 206.769ZM60.3397 230.259C58.2031 224.498 54.2586 219.588 49.0991 216.266C52.4056 211.726 54.3658 206.342 54.7543 200.735C60.9925 202.708 67.7516 202.175 73.605 199.249C75.654 203.753 78.8505 207.638 82.8733 210.512C78.7005 215.106 76.0802 220.902 75.3853 227.075C74.4925 226.982 73.595 226.941 72.6974 226.953C68.3635 226.976 64.1082 228.114 60.3397 230.259Z" fill="#FEBDB9"/>
<path d="M72.6974 286C67.2317 285.918 61.9103 284.23 57.3928 281.146C52.8753 278.061 49.3604 273.717 47.2839 268.65C43.6357 270.453 39.6226 271.393 35.5545 271.396C20.09 271.396 7.5054 257.876 7.5054 241.277C7.50369 235.059 9.32446 228.978 12.7417 223.787C8.75723 220.897 5.52129 217.093 3.30455 212.693C1.08781 208.293 -0.0452897 203.425 2.58862e-05 198.496C2.58862e-05 181.881 12.5846 168.378 28.0492 168.378C30.2386 168.373 32.4199 168.644 34.5422 169.183C36.2876 154.386 48.2962 142.948 62.3644 142.948C67.5127 143.008 72.5416 144.51 76.884 147.282C81.2263 150.054 84.7093 153.986 86.9401 158.636C90.2977 157.143 93.9313 156.374 97.6047 156.38C113.087 156.38 125.671 169.9 125.671 186.498C125.719 193.824 123.192 200.932 118.533 206.577C122.154 209.489 125.068 213.187 127.055 217.392C129.041 221.598 130.049 226.201 130 230.853C130 247.469 117.415 260.989 101.951 260.989C101.41 260.989 100.869 260.989 100.345 260.989C98.0935 275.313 86.3991 286 72.6974 286ZM48.5755 265.012L49.0991 266.376C50.8353 271.284 54.0247 275.545 58.2414 278.589C62.4581 281.633 67.5013 283.316 72.6974 283.411C85.5089 283.411 96.3829 273.075 98.0062 259.362L98.1458 258.121L99.4025 258.26C100.248 258.36 101.099 258.407 101.951 258.4C116.019 258.435 127.417 246.07 127.417 230.853C127.471 226.369 126.454 221.936 124.45 217.926C122.446 213.915 119.513 210.444 115.897 207.801L114.727 206.962L115.705 205.912C120.514 200.601 123.15 193.669 123.088 186.498C123.14 171.299 111.708 158.916 97.6047 158.916C93.8954 158.915 90.2374 159.784 86.9227 161.452L85.7532 162.029L85.2122 160.84C83.2848 156.351 80.1018 152.517 76.0474 149.801C71.993 147.086 67.2407 145.604 62.3644 145.536C49.134 145.536 37.9283 156.677 36.916 170.914L36.7938 172.506L35.2578 172.034C32.9241 171.31 30.4919 170.956 28.0492 170.984C13.9635 170.984 2.53091 183.227 2.53091 198.496C2.47858 203.216 3.61176 207.873 5.82614 212.039C8.04051 216.205 11.265 219.746 15.2028 222.336L16.3548 223.053L15.5344 224.155C11.9412 229.136 10.0163 235.131 10.0363 241.277C10.0363 256.476 21.4863 268.93 35.5545 268.93C39.6745 268.905 43.7191 267.821 47.3013 265.781L48.5755 265.012ZM59.6764 232.025L59.1528 230.661C57.0951 225.193 53.3301 220.537 48.4184 217.386L47.2839 216.651L48.0868 215.549C51.2456 211.213 53.1209 206.073 53.4976 200.718L53.6023 199.126L55.1383 199.616C61.0658 201.483 67.4847 200.975 73.0465 198.199L74.2159 197.604L74.757 198.794C76.7084 203.098 79.754 206.814 83.5889 209.568L84.7758 210.39L83.7983 211.457C79.817 215.858 77.314 221.401 76.6421 227.303L76.5024 228.562L75.2457 228.422C70.2917 227.888 65.2945 228.915 60.9506 231.361L59.6764 232.025ZM50.9493 215.969C55.396 219.118 58.8923 223.432 61.0553 228.44C65.185 226.396 69.7755 225.467 74.373 225.746C75.2275 220.23 77.5487 215.046 81.0929 210.74C77.7449 208.096 75.0111 204.754 73.0814 200.945C67.6725 203.377 61.604 203.913 55.8539 202.467C55.2913 207.316 53.5863 211.962 50.8795 216.022L50.9493 215.969Z" fill="#242424"/>
<path d="M89.1394 216.879C89.1394 230.346 79.0158 241.278 66.4487 241.278C53.8816 241.278 43.7581 230.346 43.7581 216.879C43.7581 203.411 54.1085 192.497 66.5185 192.497C78.9286 192.497 89.1394 203.411 89.1394 216.879Z" fill="#60A6C4"/>
<path d="M66.5185 242.537C53.3405 242.537 42.6061 231.028 42.6061 216.879C42.6061 202.729 53.3405 191.238 66.5185 191.238C79.6966 191.238 90.4135 202.747 90.4135 216.879C90.4135 231.011 79.6966 242.537 66.5185 242.537ZM66.5185 193.774C54.7194 193.722 45.137 204.216 45.137 216.879C45.137 229.542 54.7194 240.001 66.5185 240.001C78.3177 240.001 87.8827 229.629 87.8827 216.879C87.8827 204.128 78.3002 193.722 66.5185 193.722V193.774Z" fill="#242424"/>
</g>
<g clip-path="url(#clip1_141_501)">
<path d="M236.309 201.968L214.359 232.634L225.587 269.415L191.486 256.502L162.266 279.2L163.137 240.549L133.848 217.781L168.49 206.826L179.595 170.062L200.15 201.933L236.309 201.968Z" fill="#FFDFB0"/>
<path d="M161.359 281L162.248 240.969L132 217.45L167.792 206.127L179.316 168L200.621 201.06H238L215.336 232.756L226.964 270.831L191.625 257.481L161.359 281ZM135.696 218.096L164.009 240.112L163.19 277.383L191.276 255.506L224.192 267.965L213.4 232.477L234.6 202.772H199.732L179.892 172.124L169.187 207.507L135.696 218.096Z" fill="#242424"/>
</g>
<path d="M166.753 39.4724L142.08 73.662L154.697 114.669L116.353 100.267L83.5015 125.565L84.4666 82.484L51.5449 57.1164L90.4859 44.8771L102.981 3.9054L126.093 39.4375L166.753 39.4724Z" fill="#FEBDB9"/>
<path d="M81.7465 129.017L82.7819 83.286L48 56.4887L89.1522 43.587L102.402 0L126.97 37.7812H169.965L143.905 73.9584L157.295 117.406L116.634 102.133L81.7465 129.017ZM55.0196 57.744L86.1689 81.682L85.2563 122.044L116.072 98.3845L152.118 111.914L140.237 73.3656L163.507 41.1287L125.215 41.0938L103.542 7.81079L91.8723 46.2022L55.0196 57.744Z" fill="#242424"/>
<defs>
<clipPath id="clip0_141_501">
<rect width="130" height="143" fill="white" transform="translate(0 143)"/>
</clipPath>
<clipPath id="clip1_141_501">
<rect width="106" height="113" fill="white" transform="translate(132 168)"/>
</clipPath>
</defs>
</svg>
