<svg width="32" height="33" viewBox="0 0 32 33" fill="none" xmlns="http://www.w3.org/2000/svg">
<path d="M22.6443 1.06985L5.96009 2.64562C4.7701 2.75801 3.89653 3.8138 4.00892 5.00379L6.36387 29.9378C6.47626 31.1278 7.53205 32.0014 8.72204 31.889L25.4062 30.3132C26.5962 30.2008 27.4698 29.145 27.3574 27.9551L25.0024 3.02102C24.89 1.83103 23.8342 0.957457 22.6443 1.06985Z" fill="#FFDFB0"/>
<path d="M24.9192 2.14038L27.1989 28.5506C27.2249 28.835 27.1372 29.1181 26.9552 29.3381C26.7731 29.5581 26.5114 29.6972 26.2272 29.725L8.10979 31.854C7.5197 31.9098 7.17652 31.822 7.12079 31.2319L6.46162 30.9728C6.46055 30.9615 8.39469 31.4915 8.40604 31.4905L24.9708 29.204C25.2551 29.1762 25.5168 29.0371 25.6988 28.8171C25.8809 28.597 25.9685 28.3139 25.9426 28.0295L23.434 1.4692C23.4273 1.3981 23.4491 1.32724 23.4946 1.27221C23.5402 1.21719 23.6057 1.1825 23.6768 1.17579L23.7442 1.16942C24.0286 1.14332 24.3117 1.23076 24.5319 1.41267C24.752 1.59457 24.8913 1.85617 24.9192 2.14038Z" fill="#60A6C4"/>
<path d="M8.36206 2.62158L9.21315 2.5412L11.9498 31.5165L11.0987 31.5969L8.36206 2.62158Z" fill="#242424"/>
<path d="M9.20264 2.54199L9.6991 2.4951L12.4357 31.4704L11.9393 31.5173L9.20264 2.54199Z" fill="#FEBDB9"/>
<path d="M12.6906 2.34761L13.4251 10.1251C13.4311 10.1885 13.4558 10.2486 13.4959 10.2979C13.5361 10.3473 13.59 10.3836 13.6508 10.4024C13.7116 10.4211 13.7765 10.4215 13.8375 10.4033C13.8985 10.3852 13.9527 10.3494 13.9934 10.3004L15.6819 8.25975C15.7363 8.194 15.8146 8.15256 15.8996 8.14453C15.9846 8.1365 16.0693 8.16255 16.1351 8.21694L18.2006 9.92598C18.2497 9.96645 18.3097 9.99146 18.373 9.99787C18.4363 10.0043 18.5001 9.99178 18.5563 9.96198C18.6125 9.93217 18.6586 9.88639 18.6888 9.8304C18.719 9.77441 18.732 9.71072 18.726 9.64738L17.9892 1.84574" fill="#60A6C4"/>
<path d="M17.7815 1.79946L18.5184 9.6011C18.5245 9.66457 18.5116 9.72843 18.4814 9.78458C18.4512 9.84072 18.4049 9.88663 18.3486 9.91648C18.2922 9.94632 18.2283 9.95877 18.1649 9.95223C18.1014 9.9457 18.0414 9.92048 17.9923 9.87977L17.7105 9.64663L16.9766 1.87549L17.7815 1.79946Z" fill="#D5F8FF"/>
<path d="M18.4744 10.4243C18.3765 10.4335 18.2777 10.4233 18.1837 10.3942C18.0897 10.3652 18.0024 10.3178 17.9268 10.2549L15.9421 8.6141L14.321 10.5733C14.2268 10.6885 14.1004 10.773 13.9579 10.8161C13.8155 10.8592 13.6634 10.8589 13.5211 10.8152C13.3788 10.7716 13.2527 10.6865 13.159 10.5709C13.0652 10.4553 13.008 10.3144 12.9946 10.1662L12.26 2.38867L13.1111 2.30829L13.8217 9.83191L15.3527 7.98783C15.4155 7.91198 15.4925 7.84923 15.5795 7.80317C15.6665 7.7571 15.7617 7.72863 15.8597 7.71938C15.9577 7.71012 16.0566 7.72026 16.1507 7.74922C16.2448 7.77818 16.3322 7.82539 16.4081 7.88816L18.2772 9.43471L17.5644 1.88769L18.4155 1.8073L19.1524 9.60894C19.1703 9.8069 19.109 10.0039 18.9819 10.1567C18.8548 10.3096 18.6723 10.4058 18.4744 10.4243Z" fill="#242424"/>
<path d="M25.2337 30.691L8.96231 32.2278C8.22305 32.2968 7.4866 32.0696 6.91473 31.5961C6.34286 31.1226 5.98232 30.4414 5.91232 29.7022L3.59656 5.18309C3.52753 4.44419 3.75446 3.7081 4.22754 3.13633C4.70063 2.56456 5.38123 2.20383 6.11998 2.1333L22.3914 0.596513C23.1303 0.527485 23.8664 0.754412 24.4381 1.2275C25.0099 1.70058 25.3706 2.38118 25.4412 3.11993L27.7569 27.6391C27.8265 28.3783 27.5999 29.1149 27.1268 29.6871C26.6537 30.2594 25.9728 30.6204 25.2337 30.691ZM6.20036 2.98439C5.68726 3.03342 5.21455 3.28398 4.88597 3.68111C4.55738 4.07824 4.39975 4.58949 4.44765 5.10271L6.76341 29.6218C6.81244 30.1349 7.06301 30.6076 7.46013 30.9362C7.85726 31.2648 8.36852 31.4225 8.88173 31.3746L25.1531 29.8378C25.6662 29.7887 26.1389 29.5382 26.4675 29.141C26.7961 28.7439 26.9537 28.2327 26.9058 27.7194L24.5901 3.20031C24.541 2.68721 24.2905 2.21451 23.8933 1.88592C23.4962 1.55733 22.985 1.3997 22.4717 1.4476L6.20036 2.98439Z" fill="#242424"/>
</svg>
