<svg width="293" height="170" viewBox="0 0 293 170" fill="none" xmlns="http://www.w3.org/2000/svg">
<g clip-path="url(#clip0_140_500)">
<path d="M280.279 59.204C285.172 54.1089 287.888 47.3236 287.856 40.2761C287.959 33.2388 285.254 26.4478 280.334 21.3918C275.414 16.3358 268.68 13.4272 261.609 13.3035C257.781 13.2969 254.002 14.148 250.55 15.7935C248.426 11.3396 245.08 7.57461 240.896 4.93387C236.713 2.29313 231.864 0.884441 226.91 0.870647C220.199 0.957705 213.769 3.56135 208.903 8.16138C204.037 12.7614 201.095 19.0191 200.663 25.6841C198.241 24.9533 195.723 24.5836 193.192 24.5871C186.111 24.6925 179.362 27.5907 174.428 32.645C169.493 37.6992 166.777 44.4961 166.875 51.5423C166.846 56.2293 168.04 60.8435 170.34 64.9335C172.641 69.0235 175.969 72.4493 179.998 74.8756C176.312 79.6608 174.324 85.5276 174.347 91.5572C174.276 98.5706 176.993 105.328 181.906 110.357C186.819 115.386 193.529 118.28 200.576 118.408C204.808 118.439 208.981 117.422 212.719 115.448C214.83 120.922 218.737 125.526 223.807 128.514C228.877 131.502 234.812 132.697 240.65 131.907C246.488 131.117 251.887 128.387 255.971 124.16C260.055 119.934 262.584 114.458 263.149 108.622C266.874 109.011 270.641 108.603 274.194 107.423C277.748 106.244 281.007 104.321 283.752 101.784C286.497 99.2469 288.665 96.1545 290.109 92.7146C291.553 89.2748 292.241 85.5671 292.125 81.8408C292.17 77.3898 291.112 72.9964 289.046 69.0485C286.98 65.1005 283.969 61.7195 280.279 59.204ZM224.916 81.2313C222.761 75.8168 218.883 71.254 213.874 68.2413C217.109 64.0436 219.037 58.995 219.421 53.7189C225.557 55.5654 232.164 55.0687 237.951 52.3259C240.009 56.5437 243.148 60.1473 247.05 62.7736C242.984 67.0144 240.405 72.4512 239.701 78.2711C238.824 78.1664 237.942 78.114 237.059 78.1144C232.813 78.1303 228.639 79.2017 224.916 81.2313Z" fill="#FFF8F0"/>
<path d="M237.059 133C231.78 132.975 226.622 131.416 222.221 128.514C217.819 125.613 214.365 121.495 212.282 116.667C208.639 118.445 204.634 119.368 200.576 119.366C193.259 119.256 186.285 116.259 181.186 111.035C176.088 105.811 173.281 98.7868 173.384 91.505C173.378 85.6165 175.213 79.8719 178.634 75.0672C174.738 72.4907 171.545 68.9933 169.34 64.8879C167.135 60.7825 165.988 56.1972 166 51.5423C165.897 44.2605 168.703 37.2359 173.802 32.0119C178.901 26.7878 185.875 23.7916 193.192 23.6816C195.453 23.6775 197.706 23.9643 199.894 24.5348C200.614 17.8696 203.759 11.6964 208.735 7.17752C213.711 2.65869 220.175 0.105974 226.91 0C231.883 0.013335 236.756 1.39678 240.987 3.99698C245.218 6.59718 248.643 10.3126 250.883 14.7313C254.239 13.2552 257.869 12.496 261.539 12.5025C268.856 12.6125 275.83 15.6087 280.929 20.8328C286.027 26.0568 288.834 33.0814 288.731 40.3632C288.777 47.3034 286.241 54.015 281.609 59.204C285.158 61.8245 288.038 65.2387 290.017 69.1709C291.995 73.1031 293.017 77.4432 293 81.8408C293.049 85.4516 292.382 89.0365 291.038 92.3909C289.695 95.7453 287.7 98.8034 285.168 101.391C282.637 103.978 279.618 106.043 276.284 107.469C272.95 108.895 269.367 109.654 265.738 109.701C265.091 109.701 264.461 109.701 263.831 109.701C262.876 116.116 259.658 121.983 254.752 126.252C249.847 130.521 243.575 132.913 237.059 133ZM213.245 114.211L213.612 115.117C215.455 119.846 218.685 123.915 222.882 126.794C227.079 129.672 232.049 131.228 237.147 131.259C243.392 131.141 249.381 128.767 253.998 124.58C258.615 120.393 261.544 114.677 262.239 108.5L262.344 107.647L263.201 107.751C264.043 107.864 264.89 107.934 265.738 107.96C272.601 107.859 279.142 105.052 283.926 100.154C288.709 95.2568 291.344 88.67 291.25 81.8408C291.279 77.538 290.243 73.2943 288.236 69.4835C286.228 65.6726 283.309 62.4116 279.737 59.9876L278.879 59.4129L279.597 58.6642C284.342 53.7397 286.972 47.1685 286.928 40.3458C287.031 33.5258 284.41 26.9441 279.639 22.0466C274.869 17.1491 268.34 14.3364 261.486 14.2264C257.786 14.2177 254.132 15.0391 250.795 16.6294L249.99 17.0299L249.623 16.2463C247.604 11.9381 244.398 8.28834 240.377 5.72083C236.357 3.15331 231.687 1.77339 226.91 1.74129C220.427 1.85676 214.222 4.38703 209.522 8.83257C204.821 13.2781 201.967 19.3158 201.521 25.7537V26.8333L200.471 26.5199C198.135 25.8101 195.705 25.4521 193.262 25.4577C189.866 25.5031 186.512 26.2139 183.391 27.5494C180.271 28.8849 177.446 30.819 175.077 33.2413C172.708 35.6635 170.841 38.5264 169.584 41.6666C168.327 44.8067 167.704 48.1625 167.75 51.5423C167.735 56.0573 168.886 60.5004 171.092 64.4459C173.298 68.3913 176.485 71.7068 180.348 74.0746L181.188 74.5796L180.593 75.3458C177.047 79.993 175.129 85.6693 175.134 91.505C175.031 98.325 177.653 104.907 182.423 109.804C187.194 114.702 193.723 117.514 200.576 117.624C204.666 117.625 208.694 116.62 212.3 114.699L213.245 114.211ZM224.566 82.4502L224.198 81.5448C222.096 76.3176 218.344 71.9115 213.507 68.9901L212.667 68.4851L213.262 67.7015C216.348 63.6265 218.167 58.7413 218.494 53.6493V52.5697L219.544 52.8831C225.471 54.6598 231.851 54.182 237.444 51.5423L238.232 51.1592L238.617 51.9428C240.571 56.0517 243.591 59.5678 247.366 62.1294L248.223 62.704L247.506 63.4527C243.575 67.5573 241.083 72.8162 240.401 78.4453L240.296 79.2985L239.439 79.194C234.504 78.6676 229.525 79.6452 225.161 81.9975L224.566 82.4502ZM215.222 67.9975C219.704 70.971 223.224 75.175 225.353 80.0995C229.571 78.0391 234.262 77.126 238.949 77.4527C239.773 72.1027 242.131 67.1027 245.738 63.0522C242.303 60.5527 239.499 57.2917 237.549 53.5274C232.081 55.9045 225.969 56.3889 220.191 54.903C219.656 59.6256 217.915 64.1333 215.134 67.9975H215.222Z" fill="#242424"/>
<path d="M230.987 91.5224C243.27 91.5224 253.227 81.3174 253.227 68.7289C253.227 56.1403 243.27 45.9353 230.987 45.9353C218.705 45.9353 208.747 56.1403 208.747 68.7289C208.747 81.3174 218.705 91.5224 230.987 91.5224Z" fill="#FFDFB0"/>
<path d="M230.987 92.393C224.838 92.1583 219.02 89.5623 214.753 85.1501C210.486 80.7379 208.103 74.8524 208.103 68.7289C208.103 62.6053 210.486 56.7198 214.753 52.3076C219.02 47.8954 224.838 45.2995 230.987 45.0647C237.136 45.2995 242.955 47.8954 247.222 52.3076C251.489 56.7198 253.872 62.6053 253.872 68.7289C253.872 74.8524 251.489 80.7379 247.222 85.1501C242.955 89.5623 237.136 92.1583 230.987 92.393ZM230.987 46.806C225.297 47.0317 219.914 49.4402 215.968 53.5269C212.022 57.6135 209.818 63.0612 209.818 68.7289C209.818 74.3965 212.022 79.8442 215.968 83.9309C219.914 88.0175 225.297 90.426 230.987 90.6517C236.678 90.426 242.06 88.0175 246.006 83.9309C249.953 79.8442 252.156 74.3965 252.156 68.7289C252.156 63.0612 249.953 57.6135 246.006 53.5269C242.06 49.4402 236.678 47.0317 230.987 46.806Z" fill="#242424"/>
</g>
<g clip-path="url(#clip1_140_500)">
<path d="M129.808 117.258C129.228 113.452 130.581 96.7544 150.313 97.9647C170.044 99.1749 166.038 174.28 144.673 168.913C123.307 163.545 86.8489 142.393 96.4598 119.416C106.071 96.4387 129.808 117.258 129.808 117.258Z" fill="#FC6663"/>
<path d="M146.816 170C146.021 169.997 145.229 169.891 144.462 169.684C130.406 166.176 104.964 154.127 96.5828 137.324C95.0649 134.548 94.1929 131.467 94.0317 128.309C93.8705 125.151 94.4242 121.997 95.6515 119.082C98.1992 112.944 102.012 109.278 106.932 108.12C115.576 106.121 125.152 112.523 128.842 115.364C128.902 110.693 130.606 106.191 133.656 102.648C137.451 98.5084 143.091 96.6141 150.365 97C154.407 97.2456 157.798 100.333 160.17 105.928C167.198 122.397 164.176 154.863 154.723 165.826C153.798 167.064 152.609 168.081 151.241 168.803C149.873 169.525 148.362 169.934 146.816 170ZM110.34 109.488C109.329 109.484 108.321 109.596 107.336 109.821C102.978 110.839 99.6048 114.171 97.268 119.802C96.1488 122.49 95.6468 125.395 95.7988 128.302C95.9508 131.21 96.753 134.047 98.1465 136.605C105.842 151.952 130.124 164.212 144.954 167.983C148.046 168.79 150.91 167.702 153.44 164.756C162.383 154.39 165.247 122.362 158.606 106.682C156.427 101.666 153.633 99.0171 150.225 98.754C143.478 98.333 138.33 100.034 134.921 103.77C133.362 105.594 132.18 107.707 131.444 109.989C130.708 112.271 130.433 114.676 130.634 117.065L130.985 119.433L129.228 117.855C129.14 117.837 119.477 109.488 110.34 109.488Z" fill="#242424"/>
</g>
<g clip-path="url(#clip2_140_500)">
<path d="M59.2516 60.4498C60.7255 55.9652 71.1667 37.7776 90.4602 46.5374C109.754 55.2971 76.2637 136.363 57.7765 122.301C39.2894 108.239 2.21236 72.449 24.375 50.3147C46.5376 28.1804 59.2516 60.4498 59.2516 60.4498Z" fill="#FEBDB9"/>
<path d="M56.9695 122.785C39.0844 109.139 17.8908 86.7212 16.7061 68.1099C16.4441 64.7146 16.941 61.2998 18.1607 58.1135C19.3805 54.9273 21.2924 52.0496 23.7576 49.6897C30.1008 43.3552 36.3656 40.7662 42.4181 42.0408C51.5218 43.9056 57.3047 54.0811 59.3058 58.3135C62.0199 52.5275 66.6261 47.8367 72.3581 45.0217C78.0363 42.5132 84.2923 42.6892 90.8278 45.74C94.8108 47.5472 96.9912 52.2904 97.1663 59.375C97.5775 78.9139 81.9593 115.962 67.4498 123.391C65.8982 124.35 64.0981 124.826 62.2801 124.755C60.4621 124.685 58.7092 124.073 57.2461 122.996L56.9695 122.785ZM48.229 46.6724C46.3989 45.2251 44.267 44.2072 41.989 43.6931C36.6074 42.6005 30.8951 45.039 24.9785 50.9291C22.7071 53.1225 20.9492 55.7922 19.8321 58.7445C18.7151 61.6968 18.2669 64.8578 18.5202 67.9983C19.5989 86.0888 40.5348 108.156 58.3069 121.606C59.4986 122.501 60.9352 123.011 62.4268 123.069C63.9183 123.127 65.3945 122.73 66.6601 121.93C79.7114 115.237 95.8513 80.2584 95.432 59.5255C95.3404 55.0563 94.3563 49.2901 90.1479 47.3769C84.0453 44.5904 78.3163 44.3546 73.1629 46.6917C67.2417 49.6268 62.6173 54.6647 60.1959 60.8184L59.2733 62.974L58.3943 60.7416C58.409 60.6648 54.7716 51.6644 48.229 46.6724Z" fill="#242424"/>
</g>
<defs>
<clipPath id="clip0_140_500">
<rect width="127" height="133" fill="white" transform="translate(166)"/>
</clipPath>
<clipPath id="clip1_140_500">
<rect width="70" height="73" fill="white" transform="translate(94 97)"/>
</clipPath>
<clipPath id="clip2_140_500">
<rect width="82" height="82" fill="white" transform="translate(50.2747 14.5342) rotate(37.3435)"/>
</clipPath>
</defs>
</svg>
